<svg width="508" height="365" viewBox="0 0 508 365" fill="none" xmlns="http://www.w3.org/2000/svg">
<path d="M48.5334 1.46669C46.1334 2.13336 43.2001 4.26669 42.0001 6.26669C39.7334 9.60002 39.7334 10.1334 41.6001 13.4667C42.8001 15.4667 43.2001 17.6 42.5334 18.2667C40.1334 20.6667 38.1334 40.4 38.1334 62C38.1334 88.4 40.6668 101.733 49.0668 118.667C54.6668 130.133 66.9334 143.2 75.6001 147.333L81.2001 150L80.9334 166C80.8001 174.8 81.2001 186.4 81.7334 191.6L82.8001 201.333H76.1334H69.3334V188.133C69.3334 178.533 68.8001 174.533 67.4668 173.467C66.2668 172.4 61.3334 172 53.7334 172.267C43.3334 172.667 41.8668 172.933 40.8001 175.467C40.1334 176.933 37.8667 178.933 35.8667 179.6C28.8001 182.267 29.2001 193.6 36.4001 197.067C41.7334 199.6 41.0668 202.667 35.2001 202.667H30.5334L30.9334 209.6L31.3334 216.667L36.4001 217.067C40.4001 217.467 41.3334 218 40.8001 219.467C40.4001 220.667 40.0001 243.067 40.0001 269.467V317.2L20.4001 317.733L0.666748 318.133L20.1334 318.4L39.6001 318.667L40.4001 331.733C40.9334 338.8 41.3334 348.667 41.3334 353.6V362.667H45.8668C50.1334 362.667 50.4001 362.4 51.2001 356.933C51.6001 353.867 52.2668 344 52.8001 335.067L53.7334 318.667H64.1334H74.6668L79.8668 328.933L84.9334 339.333L79.8668 342.933C72.8001 347.867 70.1334 352.4 71.8668 355.867C74.0001 359.6 77.0668 360.267 84.6668 358.133C94.0001 355.733 101.2 352.133 102.8 349.2C103.867 347.067 103.2 338.933 101.067 328.133C100.933 327.733 101.333 325.733 101.867 323.733C102.933 320 102.933 320 115.333 320C127.067 320 127.733 320.133 128.533 322.933C130.4 330 129.467 333.2 125.733 334C117.6 335.733 110.667 340 108.533 344.533C106 349.6 106.8 355.2 110.133 356.533C113.733 357.867 116.267 354.667 115.467 350C114.8 346.933 115.333 345.2 117.067 343.6C119.867 341.067 127.733 338 128.8 339.067C129.2 339.467 129.733 343.333 130 347.6C130.267 351.867 130.533 355.867 130.533 356.4C130.667 357.067 132.267 357.333 134.4 357.067C137.6 356.667 138 356.133 138 352C137.867 349.467 137.467 345.333 136.8 342.933C135.867 338.933 136 338.667 139.2 338.667C143.733 338.667 153.333 342.533 153.333 344.4C153.333 345.2 152.4 346.8 151.333 348C149.067 350.533 149.867 354 152.8 355.2C155.733 356.267 160 351.2 160 346.667C160 340.8 154.667 336.4 145.2 334.4L137.333 332.8V326.4V320H149.333C163.067 320 161.867 318.8 163.2 335.2C163.733 341.067 163.333 345.067 162.533 346.267C159.867 349.467 160.4 358.4 163.467 361.467C166.933 364.933 173.867 365.2 177.333 362C180.267 359.333 180.933 352.267 178.667 348C177.067 345.067 179.867 337.467 184 333.333C185.467 331.867 186.667 329.733 186.667 328.667C186.667 327.6 187.333 325.2 188.267 323.333L189.733 320H213.2H236.667L238.8 323.733C240.8 327.333 240.8 327.333 233.6 334.133C227.333 340.133 226.533 341.467 226.933 345.467C227.333 349.467 227.733 350 231.333 350C234.933 350 235.333 349.6 235.733 345.2C236 342 237.467 339.2 240 336.667L243.867 332.933L246.533 337.467C248.133 340 249.333 342.533 249.333 343.2C249.333 343.733 246.933 346.667 244 349.467C237.733 355.6 236.667 361.333 241.733 361.333C249.2 361.333 268.133 348 268 342.933C267.867 341.733 267.333 338.133 266.8 334.933C266 330.8 266.133 329.333 267.333 329.333C269.733 329.333 270.667 332.533 270.667 340.8C270.667 346.933 271.2 348.667 274.133 351.333C280.667 357.333 296.933 360.8 298.4 356.4C298.933 354.533 293.467 348.667 288 345.2L284.8 343.067L289.467 331.867L294.267 320.667L324.4 320.267L354.667 320L359.6 330C362.933 336.667 365.333 340 366.933 340C368.133 340 369.867 341.2 370.667 342.667C372 345.067 371.333 346.267 365.467 351.867C357.867 358.8 357.067 362 362 364.267C366 366.133 375.2 364.267 384.8 359.867L390.933 356.933L390.133 349.067L389.333 341.2L393.733 339.467C396 338.533 399.6 337.333 401.6 336.8L405.2 336L405.6 345.6C406 354.933 406.133 355.333 409.333 355.333C412.667 355.333 412.667 355.2 412.267 345.6C412 335.333 412.267 334.8 419.6 336.8C422.267 337.6 422.4 337.733 420.4 343.333C417.733 351.333 419.467 353.867 431.067 359.467C440.667 364 447.067 365.2 448.667 362.533C450.267 360.133 448 354.667 443.2 349.333C439.067 344.8 438.667 343.867 440.267 341.467C441.2 339.867 442.4 338.667 442.933 338.667C443.467 338.667 446.133 334.533 448.933 329.333C456.267 315.867 458.133 316.533 459.333 332.933C459.867 340.133 460.667 349.867 461.067 354.667C462 363.2 462.133 363.333 466.133 363.733C470.267 364.133 470.267 364 471.067 357.067C471.6 353.2 472 343.2 472 334.933V320H490C501.067 320 508 319.467 508 318.667C508 317.867 501.067 317.333 490 317.333H472V298C472 281.467 472.4 277.333 474.933 270.267C479.2 258.133 479.2 236.4 475.067 228.4C470.533 220 470.933 217.333 476.667 217.333H481.467L481.067 209.6C480.667 202.4 480.4 202 477.067 201.6L473.467 201.2L478.267 196.933C488.4 188 491.2 171.333 485.467 153.2C477.6 128.133 458.133 112.133 433.867 110.933C424 110.4 422.8 110 422.133 107.467C420.933 102.8 421.2 94 422.8 92.4C424.133 91.0667 425.2 87.0667 425.867 80C426 78.1334 426.933 75.3334 427.733 73.7334C429.867 69.8667 429.733 67.2 427.2 63.3334C426 61.4667 425.333 59.0667 425.867 58C426.4 56.5334 425.6 56 422.267 56C419.867 56 417.2 56.6667 416.4 57.4667C415.6 58.2667 413.6 58.5334 412 58C409.333 57.2 409.333 56.9334 411.333 54.6667C413.333 52.5334 413.2 52.2667 409.467 51.6C404.933 50.6667 399.2 52.1334 394.133 55.3334C390.933 57.4667 390.667 57.4667 391.467 55.4667C393.733 49.7334 381.2 56.4 378 62.8C375.067 68.4 376.4 75.0667 380.933 78.6667C384 81.0667 384.267 81.8667 382.933 84C380.533 87.8667 380.933 92.9334 383.867 94.9334C385.2 95.8667 387.6 99.2 389.2 102.4C390.8 105.467 394 109.333 396.4 110.667C398.8 112.133 399.733 113.333 398.533 113.333C396.8 113.333 396.533 114.4 397.467 120.4C399.867 138.267 410.8 145.467 420.667 135.6C424.8 131.467 429.333 120.4 429.333 114.267C429.333 111.867 430 111.733 437.067 112.533C447.067 113.733 461.867 120.8 468.933 128C487.6 147.067 492.267 180 478.4 194.267C474.267 198.533 466 202.4 464.4 200.8C464 200.4 464.267 196.533 465.2 192.4C466.133 188.133 467.2 177.467 467.6 168.667C468.267 154 468.133 152.4 465.733 149.467C463.6 146.8 461.467 146.133 454.667 145.6L446.267 144.933L447.067 136.133C447.733 127.467 447.733 127.333 446 132.667C444.933 135.6 444.133 139.6 444.133 141.467C444 144.8 443.6 144.933 433.733 145.867C428.133 146.267 419.333 146.667 414 146.667C397.467 146.667 393.333 150 393.333 163.333C393.333 167.2 393.067 167.467 388.8 166.933L384.267 166.4L384.933 158.8C385.733 150.4 383.6 137.733 380.667 133.867C379.2 131.733 379.2 132.533 380.8 138.133C382 142.4 382.667 149.067 382.4 155.333L382 165.733L374.133 166.267C366.4 166.8 359.067 168.8 360.267 170C360.533 170.4 362.933 170 365.467 169.333C372 167.467 384.267 167.733 397.2 170C403.333 171.067 408.533 172.133 408.667 172.267C408.8 172.533 409.333 174.4 409.733 176.667C410.4 180.533 409.867 180.933 396.933 188.667C372.667 202.933 361.6 204.533 351.867 194.8C345.6 188.667 343.467 180.933 344.533 169.2C346.667 145.2 358.8 127.6 379.067 119.067C382.933 117.467 385.067 116.133 383.867 116C379.333 115.867 362.667 125.6 357.867 131.067C340.267 151.2 336.8 186.667 351.2 198L355.333 201.333H344.267H333.333L335.2 198.267C341.6 188.267 336.933 169.6 323.2 150.267C319.6 145.333 318.667 142.667 318.667 138C318.667 130.267 316.267 126.533 307.6 121.067C298.667 115.333 289.6 107.2 287.2 102.4C286.133 100.267 284 94.8 282.667 90.1334C278.267 76.1334 271.733 70.4 260 70.4C248.667 70.4 242.667 75.8667 236.667 92.4C235.333 95.8667 234 98.5334 233.733 98.2667C233.467 98 234.267 93.3334 235.6 87.8667C238.667 74.5334 238.667 38.9334 235.733 26.6667C233.867 19.0667 233.733 17.6 235.467 14.4C237.333 10.8 237.2 10.4 233.467 6.66669C228 1.06669 222.933 1.33336 218.933 7.33336C215.6 12 215.867 14 220.267 17.0667C221.867 18.2667 222.4 19.4667 221.6 20.4C220.933 21.3334 218.533 27.7334 216.133 34.6667C206.667 62.4 191.733 88 179.2 97.7334C170.133 104.8 153.467 110.533 149.333 108C147.867 107.067 148.4 105.867 151.6 102.133C153.867 99.6 156.133 96.2667 156.667 94.8C157.067 93.2 158 92 158.667 92C163.067 92 166 82 162 80.5334C160.8 80 160 78 160 75.2C160 68.9334 157.067 62.4 152.667 58.9334C148.133 55.3334 138.8 55.0667 133.2 58.2667C128.933 60.8 124 69.6 124 74.5334C124 76.2667 123.467 77.0667 122.667 76.6667C120.667 75.4667 117.333 78.5334 117.333 81.4667C117.333 82.9334 118.533 85.0667 120 86.2667C121.467 87.6 122.667 89.4667 122.667 90.6667C122.667 91.8667 123.867 95.0667 125.333 98C130.133 107.467 128.4 110 118.667 107.867C94.8001 102.533 77.2001 80.1334 61.2001 34.9334L54.9334 17.2L58.2668 13.8667C60.6668 11.4667 61.0668 10.1334 60.1334 8.40002C58.9334 6.00002 53.4668 -0.133312 52.9334 0.133355C52.8001 0.133355 50.8001 0.800022 48.5334 1.46669ZM54.0001 2.66669C54.4001 3.33336 54.1334 4.00002 53.4668 4.00002C52.6668 4.00002 52.0001 3.33336 52.0001 2.66669C52.0001 1.86669 52.2668 1.33336 52.5334 1.33336C52.9334 1.33336 53.6001 1.86669 54.0001 2.66669ZM50.6668 4.13336C50.6668 4.80002 50.0001 5.06669 49.0668 4.53336C48.1334 3.86669 47.8668 4.26669 48.4001 5.60002C48.9334 7.20002 48.5334 7.46669 46.5334 7.06669C42.1334 5.86669 43.7334 3.73336 49.7334 2.80002C50.2668 2.80002 50.6668 3.33336 50.6668 4.13336ZM228.533 5.60002C227.867 6.66669 228.267 6.80002 229.733 6.26669C230.933 5.86669 232.267 6.00002 232.667 6.53336C233.733 8.53336 228.667 9.06669 226.933 7.20002C224.8 4.80002 224.933 4.00002 227.467 4.00002C228.667 4.00002 229.067 4.66669 228.533 5.60002ZM56.1334 6.66669C59.6001 8.53336 59.3334 10.9334 55.3334 14.4C51.0668 18.1334 47.0668 18.1334 43.8668 14.2667C40.6668 10.4 40.6668 8.00002 43.8668 8.00002C46.6668 8.00002 48.8001 10.1334 46.8001 10.9334C46.1334 11.0667 46.4001 12.5334 47.4668 13.8667C49.2001 16.4 49.3334 16.4 49.3334 13.2C49.3334 9.33336 50.4001 7.73336 52.2668 8.80002C52.9334 9.20002 52.6668 10.5334 51.7334 11.6C50.1334 13.6 50.2668 13.6 52.9334 11.8667C55.7334 10.2667 55.7334 9.86669 53.7334 7.73336C51.3334 5.06669 52.2668 4.66669 56.1334 6.66669ZM222.8 9.86669C221.6 11.2 221.867 12.1334 223.6 13.4667C225.6 15.0667 225.733 15.0667 224.933 13.0667C224.533 11.7334 224.667 10.4 225.333 10C226.533 9.20002 227.2 12 226.8 15.6C226.4 18 227.2 17.7334 230.133 14.4C232.667 11.6 232.667 11.6 230.133 12.5334C228 13.2 227.867 13.0667 229.333 11.3334C231.6 8.66669 234.667 8.80002 234.667 11.6C234.533 14.8 230.133 20 227.467 20C226.4 20 224 18.5334 222.133 16.8C217.467 12.5334 217.6 8.00002 222.4 8.00002C223.867 8.00002 224 8.40002 222.8 9.86669ZM54.1334 20.5334C54.1334 20.6667 56.4001 27.6 59.2001 36C74.1334 81.6 92.6668 104 120.267 109.867C123.467 110.533 123.867 111.2 123.2 114.4C122.533 118.267 126.133 126.8 128.933 127.6C129.733 127.867 130.8 126.8 131.333 125.333C131.867 123.6 132.8 122.933 133.467 123.6C134.133 124.267 133.733 128 132.667 132.133C129.733 143.2 125.333 170.133 125.333 176.667C125.333 181.467 126 183.067 129.6 186L133.867 189.6L137.6 185.2C141.067 181.067 141.333 179.867 141.333 169.333C141.333 163.067 140.667 150.533 140 141.333C138.8 124.933 139.6 119.733 142.533 125.2C143.467 126.8 144.667 128 145.467 128C147.2 128 151.867 117.6 152 113.733C152 111.6 153.067 110.533 155.733 109.867C184.933 103.467 200 85.7334 216.667 38L222.4 22L227.6 21.6L232.933 21.2L234.4 32.2667C237.6 54.5334 235.733 84.9334 230.267 100.667C228.667 105.333 227.2 106.667 218.133 111.467C212.533 114.4 206.267 118.533 204.133 120.533C197.333 127.067 195.867 138.533 200.8 146.267C202.533 149.067 202.4 149.867 199.2 154.667C197.2 157.6 195.333 160 194.8 160C194.4 160 193.2 156.933 192.267 153.067C190.267 144.667 185.067 130.667 183.867 130.667C183.333 130.667 184.667 135.733 186.8 141.867C192.4 157.867 192.8 163.067 189.467 173.867C186 185.067 186 190 189.2 196.4L191.733 201.333H138.667H85.6001L84.8001 198.267C84.2668 196.667 83.6001 186.667 83.0668 176C82.4001 160.667 82.8001 154.4 84.5334 145.467C87.0668 133.067 86.5334 128.933 83.8668 140.533C82.9334 144.667 81.8668 148 81.4668 148C81.0668 148 77.6001 146.267 73.8668 144C64.6668 138.8 56.8001 129.467 50.6668 116.667C42.6668 99.8667 40.6668 88.8 40.6668 60C40.6668 30.9334 41.8668 20.4 45.0668 19.6C46.8001 19.2 53.6001 19.8667 54.1334 20.5334ZM148.133 69.3334C153.333 69.3334 154.4 69.8667 155.733 72.6667C157.733 77.0667 157.733 84.9334 155.867 90.8C153.867 96.6667 148.4 104 146 104C144.667 104 144.267 105.067 144.8 107.733C145.333 110.267 144.667 112.533 142.667 115.067C138.8 120 134 119.867 131.333 114.667C129.067 110.133 128.667 105.333 130.8 105.333C131.467 105.333 130.667 103.333 128.933 100.933C124.667 95.4667 123.467 89.6 124.667 80.4C125.867 70.1334 129.6 66.4 136.8 68.1334C139.733 68.6667 144.8 69.3334 148.133 69.3334ZM409.867 73.6C411.067 78.4 410.933 78.6667 406.667 78.6667C404.4 78.6667 401.467 79.8667 400 81.3334C397.867 83.4667 396.267 83.8667 392 83.2C387.2 82.4 386.667 81.8667 386.667 78.5334C386.667 72.5334 389.733 70.6667 400 70.6667C408.267 70.6667 409.067 70.9334 409.867 73.6ZM122.667 82.1334C122.667 83.8667 122.133 85.3334 121.467 85.3334C119.733 85.3334 118.267 80.4 119.333 78.6667C120.667 76.5334 122.667 78.5334 122.667 82.1334ZM412.133 83.6C413.067 86 412.533 87.0667 410 88.8C406.133 91.3334 401.867 90.2667 400.533 86.4C398.667 80.2667 410 77.6 412.133 83.6ZM162.667 84.5334C162.667 85.6 161.733 87.0667 160.667 88C158.933 89.3334 158.667 89.2 158.667 86.4C158.667 84.5334 159.067 82.6667 159.467 82.2667C160.667 81.0667 162.667 82.5334 162.667 84.5334ZM394.667 88.2667C395.6 93.6 399.333 97.4667 402.267 96.2667C404.4 95.4667 404.267 95.3334 401.733 94.9334C399.467 94.5334 398.667 93.6 398.667 91.0667C398.667 87.7334 398.8 87.7334 401.067 89.7334C402.4 91.0667 404.667 92 406.133 92C409.733 92 414.667 88.2667 414.8 85.6C414.8 83.7334 415.067 83.8667 416 86C416.667 87.4667 417.2 87.8667 417.2 86.9334C417.333 86.1334 418.533 85.3334 420 85.3334C423.467 85.3334 423.6 89.8667 420.267 92.2667C417.867 93.8667 417.867 94.5334 419.6 102.667C421.867 113.467 420.933 118.8 416 123.733C412.533 127.2 412.4 127.867 414.267 129.6C415.333 130.8 416 133.067 415.733 134.8C415.2 137.867 415.067 137.867 414 135.333C411.467 129.2 410.133 128.8 408.4 133.467L406.667 138L407.2 132.4C407.6 128.667 407.067 126.267 405.867 125.2C403.2 122.933 401.867 114.667 404.133 113.2C405.467 112.4 405.333 112 403.333 111.333C397.6 109.467 394 106.667 391.467 102.133L388.667 97.2L392 94.6667L395.333 92L391.867 93.2C388.8 94.2667 388.133 94.1334 387.467 91.6C385.867 85.4667 386.4 83.7334 390.267 84.2667C393.067 84.5334 394.133 85.6 394.667 88.2667ZM398.667 85.8667C398.667 86.2667 398.133 86.9334 397.333 87.3334C396.667 87.7334 396 87.4667 396 86.8C396 86 396.667 85.3334 397.333 85.3334C398.133 85.3334 398.667 85.6 398.667 85.8667ZM265.733 92.6667C265.6 94.4 266.533 94.8 270.4 94.4L275.333 94L275.733 102.267C276 107.867 275.467 111.867 274 114.533C272.933 116.8 272 120 272 121.733C272 125.067 265.467 133.333 262.933 133.333C260.4 133.333 256 126.4 256 122.667C256 120.667 255.067 118.267 254.133 117.333C253.067 116.533 251.2 113.2 249.867 110L247.733 104.133L252.933 99.0667C255.867 96.2667 258.667 92.2667 259.2 90.2667C260 86.6667 260.267 86.5334 263.067 88.4C264.667 89.4667 265.867 91.4667 265.733 92.6667ZM385.333 90.1334C385.333 92 384.8 93.2 384 92.6667C383.333 92.2667 382.667 90.6667 382.667 89.2C382.667 87.8667 383.333 86.6667 384 86.6667C384.8 86.6667 385.333 88.2667 385.333 90.1334ZM148 121.467C146 126.133 144.8 126.267 143.067 122.4C142.133 120.133 142.533 118.4 145.2 114.267L148.667 108.933L149.067 113.333C149.333 115.733 148.8 119.333 148 121.467ZM129.733 115.467C131.6 119.2 131.733 120.667 130.533 122.933C129.067 125.733 128.933 125.733 127.2 123.333C125.2 120.667 124.667 110.667 126.4 110.667C127.067 110.667 128.533 112.8 129.733 115.467ZM253.867 131.467C254.267 134.933 254.667 146.8 254.667 157.867C254.667 174.933 254.267 178.4 252.267 180.933L250 183.867L240.4 180.933C232.933 178.667 230.8 177.6 231.467 176C236.267 164.933 239.067 143.333 236.267 139.067C235.733 138.267 235.333 142.133 235.333 147.733C235.2 154.4 234.133 161.467 232.267 167.6L229.2 177.333H222.933C213.467 177.333 212.4 179.333 221.867 179.467C230 179.733 244.533 183.2 247.733 185.6C248.533 186.4 249.333 188.667 249.333 190.8C249.333 193.867 248.267 195.2 243.733 197.733C229.2 206 209.467 208.533 199.467 203.2C186.533 196.4 186.267 180.267 198.8 159.2C210.667 139.2 230 126 248.133 125.467C252.933 125.333 252.933 125.467 253.867 131.467ZM296.4 129.867C310.8 136.8 321.867 148.533 330.267 166.267C336 178 337.467 189.333 334.133 195.733C328.267 207.2 304.133 208.533 284 198.533C276.933 194.933 276 194 276 190.667C276 188.267 276.933 186.267 278.4 185.6C282.133 183.6 298.8 180 305.6 179.6C309.2 179.467 312 178.8 312 178.133C312 177.467 308.667 177.333 304.667 177.6L297.333 178.267L294.667 171.067C290.933 161.067 289.467 153.867 289.2 145.333C289.067 138.8 288.933 138.4 287.867 142C286.4 147.2 288.533 161.067 292.533 170.933C294.267 175.2 295.6 178.667 295.467 178.667C295.467 178.667 291.333 179.867 286.4 181.2L277.467 183.733L276.8 180.267C275.333 173.333 273.467 156.533 272.533 140.8L271.6 124.933L280.133 125.6C285.467 126 291.6 127.733 296.4 129.867ZM464 150C465.333 151.6 465.467 156.533 464.8 170.4C463.867 191.2 462.933 197.333 460.933 197.333C460.133 197.333 460 194.8 460.533 190.267C462.667 173.733 463.067 154.8 461.333 152.667C460 150.933 455.2 150.667 431.467 150.667C399.733 150.667 397.467 151.2 397.2 159.067C397.2 161.467 396.667 164.533 396 166C394.933 168.4 394.8 168.4 394.8 165.333C394.667 161.467 396.667 152.133 397.867 151.067C399.733 149.067 410.667 148.267 435.467 148.133C458.133 148 462.667 148.267 464 150ZM422.667 170C421.733 171.2 421.333 172.4 421.867 172.933C422.267 173.333 422.667 173.067 422.667 172.267C422.667 171.333 424 170.667 425.733 170.667C428.133 170.667 428.267 170.933 426.667 172C425.067 173.067 425.067 173.333 427.333 173.333C429.733 173.467 429.867 173.467 427.6 174.8C426.4 175.467 424.667 175.733 424 175.333C423.2 174.933 422.667 175.2 422.667 175.867C422.667 176.667 423.867 177.333 425.467 177.333C427.067 177.333 427.733 177.867 427.2 178.8C426.8 179.6 424.933 179.867 423.067 179.333C420.4 178.667 419.867 178.933 420.4 180.533C421.467 183.2 419.467 183.333 417.333 180.667C416.4 179.6 414.8 178.667 413.867 178.667C412.8 178.667 412 178.133 412 177.467C412 176.8 411.6 175.333 411.2 174.133C410.667 172.667 411.733 171.867 415.2 171.2C417.867 170.8 420.4 169.867 420.8 169.2C421.2 168.533 422.133 168 422.933 168C423.733 168 423.733 168.8 422.667 170ZM258.667 177.467C257.2 180 257.333 180.133 260.267 178.533C263.067 177.067 263.2 177.067 261.467 179.067C260 180.933 260 181.333 261.467 181.333C262.8 181.467 262.667 181.867 261.067 183.2C259.733 184.133 258.667 185.6 258.667 186.4C258.667 187.2 256.933 189.067 254.8 190.533L250.933 193.333L250.4 189.6C250.133 187.6 250.4 185.333 250.933 184.533C251.467 183.867 253.6 181.333 255.467 178.933C259.333 174 260.8 173.333 258.667 177.467ZM272.133 180.667C274.267 183.733 275.333 186.8 274.933 188.8C274.133 193.2 273.067 192.8 268.133 186.667C265.867 183.733 264.533 181.333 265.467 181.333C266.533 181.333 266.533 180.8 265.333 179.333C263.867 177.6 264 177.467 266.133 178.267C268.4 179.067 268.533 178.933 266.667 176.667C264.933 174.533 264.933 174.267 266.667 174.933C267.733 175.2 270.267 177.867 272.133 180.667ZM40.0001 188C40.0001 193.467 39.0668 194.533 36.2667 191.733C33.4667 188.933 35.3334 182.667 38.9334 182.667C39.4668 182.667 40.0001 185.067 40.0001 188ZM396 194C396 195.067 395.467 196 394.667 196C394 196 393.333 195.067 393.333 194C393.333 192.933 394 192 394.667 192C395.467 192 396 192.933 396 194ZM392 195.333C392 196.4 391.067 197.333 389.867 197.333C388 197.333 388 196.933 389.333 195.333C390.267 194.267 391.2 193.333 391.467 193.333C391.733 193.333 392 194.267 392 195.333ZM424.667 200C424.133 200.8 415.733 201.333 403.867 201.333C391.467 201.333 384 200.8 384 200C384 199.2 391.867 198.667 404.8 198.667C418.267 198.667 425.2 199.067 424.667 200ZM462 200C461.467 200.8 454 201.333 443.867 201.333C433.333 201.333 426.667 200.8 426.667 200C426.667 199.2 433.6 198.667 444.8 198.667C456.4 198.667 462.533 199.2 462 200ZM380.933 200.8C380.533 201.2 379.333 201.333 378.4 200.933C377.333 200.533 377.733 200.133 379.2 200.133C380.667 200 381.467 200.4 380.933 200.8ZM294 204.8C301.867 207.2 320.4 207.6 325.733 205.467C328.267 204.4 352.933 204 404.133 204H478.667V210V216H256H33.3334V210V204H114.533C183.6 204 196.4 204.267 200.4 206C206.933 208.667 221.6 208.4 230.667 205.333C240.667 202 283.867 201.6 294 204.8ZM56.8001 230.267C56.2668 237.467 54.8001 264.933 53.3334 291.333C49.3334 363.733 49.6001 361.333 45.8668 361.333H42.6668V289.333V217.333H50.1334H57.6001L56.8001 230.267ZM72.0001 220.133C69.4668 221.733 65.3334 224.8 63.0668 227.067L58.6668 231.2V224.267V217.333H67.7334H76.6668L72.0001 220.133ZM181.333 218.533C180.267 219.2 174.8 220.8 169.333 222.133C150.4 226.933 106.8 224.8 96.0001 218.533C94.8001 217.867 113.067 217.467 138.667 217.467C163.333 217.467 182.4 217.867 181.333 218.533ZM453.333 219.2C453.333 224.8 414.667 224.933 392 219.467C385.2 217.733 387.333 217.6 419.067 217.467C447.467 217.333 453.333 217.6 453.333 219.2ZM469.333 289.333V361.333H466C463.067 361.333 462.667 360.8 462.667 356.267C462.667 353.6 461.2 323.733 459.333 290C457.467 256.267 456 226.133 456 222.933V217.333H462.667H469.333V289.333ZM209.333 220.667C207.333 223.2 205.467 223.2 202.133 220.667C199.733 218.8 199.867 218.667 205.2 218.667C210.267 218.667 210.8 218.933 209.333 220.667ZM235.067 223.2C240 225.067 247.333 227.067 251.333 227.467C258.667 228.4 258.667 228.4 260.133 224.133C260.933 221.867 262 220 262.4 220C262.8 220 265.067 221.867 267.467 224.133L271.733 228.267L282.533 226.8C288.4 226 296.667 224.267 300.8 222.8C309.733 219.867 312.133 220.667 315.6 228C322.533 242.8 317.867 263.467 296.667 310.533L286.133 333.6L279.733 333.067C276.133 332.667 273.067 332.133 272.667 331.867C272.4 331.467 271.067 316.267 269.867 298C267.333 261.6 268 249.067 273.333 238.8C276.533 232.533 276.667 231.067 274.133 233.333C273.067 234.133 271.2 237.867 270 241.467C267.733 248 267.733 248 261.867 248C258.667 248 256 247.6 256 246.933C256 245.2 247.867 231.733 247.2 232.4C246.8 232.667 247.733 235.067 249.333 237.6C255.467 248.133 258.8 269.733 260.8 312.8L261.6 331.6L257.333 333.2C248.267 336.267 248.4 336.533 232.267 308.533C223.867 294.267 216 279.867 214.533 276.667C212 271.067 212 270.4 214 263.333C217.467 251.6 216.933 239.867 212.8 231.733C209.467 225.333 209.333 224.8 211.467 221.733C213.333 218.8 214.267 218.533 219.733 219.067C223.2 219.333 230.133 221.2 235.067 223.2ZM344.4 222.533C336.267 228.4 331.6 238.933 331.467 251.067C331.467 256.4 332.267 264 333.2 268C335.333 276.667 343.733 298.267 349.333 309.467L353.333 317.333H324.667H296L299.467 309.6C314.267 276.933 321.333 255.467 321.333 242.933C321.333 234.667 318.8 227.067 314.533 222.533L310.933 218.667H330.267H349.733L344.4 222.533ZM372 220.667C374.8 224.133 380.667 227.867 388.533 231.333L395.733 234.533L400.8 230.533L405.867 226.533L410.667 231.333C414.533 235.067 416.4 236 420.667 235.867C425.6 235.867 445.733 231.067 450.933 228.8C453.467 227.6 453.733 230 456.133 277.2L457.733 307.2L450.533 321.6C446.267 330.133 442.667 336 441.467 336C440.4 336 436 334.933 431.6 333.733L423.6 331.6L424.4 308.133C425.2 282.533 428.933 258.4 434.267 244.533C434.8 243.067 434.667 242.533 433.6 243.067C432.8 243.6 431.867 245.867 431.333 248C429.733 255.2 427.733 256 413.6 255.867C406.533 255.733 397.467 255.333 393.467 254.933C386.4 254 386.133 253.867 384.267 248.267C381.2 238.8 381.067 242.8 384.267 254.133C386.667 263.2 387.2 269.333 387.733 297.467L388.267 330.4L377.733 334.4C372 336.667 366.933 338.133 366.4 337.6C363.467 334.533 343.067 290.8 339.067 278.933C329.6 250.933 333.333 231.6 350 221.2C355.2 218 369.467 217.6 372 220.667ZM475.6 250C475.333 257.333 474.4 264.8 473.6 266.667C472.533 269.2 472.133 264.8 472.133 248.667C472.267 228.4 472.267 227.6 474.267 232C475.867 235.6 476.133 239.867 475.6 250ZM167.467 245.6C160.667 268.933 160.8 268 160.667 293.067V317.333H149.733C136.8 317.333 137.867 320.667 141.067 290.667L143.333 270L151.333 268.667L159.333 267.2L160.133 261.6C160.8 256 160.8 255.867 157.467 256.667C148.8 258.933 130.667 259.733 118.8 258.667C100.667 256.933 101.6 256.8 102.4 260.933C103.467 266.8 104.933 267.733 115.2 268.667L125.067 269.6L125.867 281.867C126.4 288.533 127.067 299.2 127.467 305.6L128.4 317.333H115.467H102.667L103.467 303.6C104.533 286.133 102.267 266 98.0001 255.467C94.8001 247.733 94.8001 243.467 97.8668 248.4C102 255.333 100.933 255.067 124.133 255.2C136.133 255.2 149.467 254.8 153.733 254.267C161.067 253.2 161.467 252.933 163.467 247.867C165.733 242.4 168.933 240.533 167.467 245.6ZM402.133 268.4C402.267 268.533 402.8 279.6 403.333 292.933L404.4 317.333H397.467H390.667V298.133C390.667 287.6 390.267 276.133 389.733 272.667L388.933 266.267L395.333 267.067C398.933 267.6 401.867 268.133 402.133 268.4ZM424 278.267C423.2 282.533 422.133 293.067 421.733 301.6L420.933 317.333H417.333H413.733L415.333 306.267C416.267 300.267 417.733 289.2 418.667 281.733C419.867 271.067 420.8 268 422.533 267.733C425.467 267.067 425.733 269.2 424 278.267ZM214 280.267C215.2 283.333 220.267 292.933 225.333 301.6L234.4 317.333H212.533H190.667L191.867 314.267C192.533 312.667 196.667 303.867 201.2 294.667C205.6 285.467 209.333 277.2 209.333 276.267C209.333 272.8 211.867 274.933 214 280.267ZM66.9334 304.933L73.3334 317.333H63.6001H54.0001L54.9334 305.067C55.3334 298.267 55.8668 290.267 56.0001 287.333L56.2668 282L58.4001 287.333C59.6001 290.267 63.3334 298.267 66.9334 304.933ZM268.267 308.267C268.667 314 268.267 317.333 267.333 317.333C266.533 317.333 266.133 313.467 266.533 306.4C267.2 294.267 267.6 294.667 268.267 308.267ZM458.133 316.933C456.667 318.4 455.867 316.4 456.933 313.867C457.867 311.467 458 311.467 458.4 313.733C458.667 315.067 458.533 316.533 458.133 316.933ZM269.333 322C269.333 323.067 268.4 324 267.333 324C266.267 324 265.333 323.067 265.333 322C265.333 320.933 266.267 320 267.333 320C268.4 320 269.333 320.933 269.333 322ZM405.067 325.6C405.467 330.267 405.333 330.4 399.733 331.333C396.533 331.867 392.933 332.8 391.733 333.6C389.6 334.667 389.333 334 389.333 327.333V319.867L397.067 320.267L404.667 320.667L405.067 325.6ZM421.333 321.867C421.333 322.8 421.733 325.467 422.133 327.733L422.933 331.867L417.867 331.067C414.933 330.667 412.4 330.133 412.133 329.867C411.867 329.6 412.133 327.333 412.533 324.667C413.333 320.533 414 320 417.333 320C419.867 320 421.333 320.667 421.333 321.867ZM99.7334 333.733C100.133 337.867 99.6001 338.933 96.8001 340.133C92.2668 342.267 87.4668 340.667 85.4668 336.533C84.6668 334.533 84.1334 332.8 84.2668 332.667C85.4668 331.733 96.9334 328.267 98.0001 328.533C98.8001 328.667 99.4668 331.067 99.7334 333.733ZM179.467 335.467C179.067 336.667 178.267 339.067 177.867 340.8C176.8 344.933 173.067 346.933 168.667 345.867C165.733 345.2 165.333 344.4 165.333 339.2V333.333H172.8C179.067 333.333 180.133 333.733 179.467 335.467ZM261.333 338.667C261.333 343.333 260.933 344 257.733 344.8C255.067 345.6 253.6 345.067 251.733 342.667C248.133 338.133 248.8 336.667 255.067 335.067C258.133 334.4 260.8 333.6 261.067 333.467C261.2 333.467 261.333 335.733 261.333 338.667ZM280.933 335.333C284.933 336.133 285.067 336.4 283.867 339.733C280.667 348.133 272 346.267 272 337.2C272 334 272.533 333.333 274.4 333.867C275.6 334.133 278.533 334.8 280.933 335.333ZM387.2 338.933C388.267 345.333 386.133 348 380.133 348C375.6 348 373.733 346.667 372.133 342.4C370.933 339.067 371.067 338.8 377.733 336.267C381.6 334.8 385.067 333.6 385.467 333.467C386 333.467 386.667 335.867 387.2 338.933ZM433.067 336.267C439.467 337.6 439.733 337.867 438.4 340.8C436.533 344.933 432.8 346 427.867 344C424.8 342.667 424 341.467 424 338.533C424 334.133 424.133 334.133 433.067 336.267ZM92.4001 342.667C94.4001 342.667 97.3334 342 98.8001 341.333C101.067 340 101.333 340.4 101.333 344.667C101.333 349.2 100.933 349.733 93.8668 352.933C85.3334 356.8 75.4668 358.4 74.1334 356.133C73.4668 355.2 74.8001 354.667 77.8668 354.667C82.8001 354.667 97.0668 350 99.3334 347.6C100.267 346.667 99.8668 346.667 98.0001 347.333C83.6001 353.067 75.6001 354.667 74.1334 352.133C72.9334 350.267 85.7334 339.867 87.2001 341.333C88.0001 342.133 90.2668 342.667 92.4001 342.667ZM177.333 351.2C177.333 353.333 176.4 356.267 175.067 357.6C172.667 360.267 174.533 360.933 177.067 358.4C178 357.467 178.667 357.2 178.667 357.6C178.667 359.733 174.133 362.667 170.8 362.667C167.333 362.667 161.467 358.133 162.933 356.667C163.333 356.267 164.4 356.8 165.333 358C166.267 359.067 168 360 169.2 359.867C170.667 359.867 170.4 359.333 168.267 358.4C165.2 356.933 163.2 352 164.4 349.067C164.8 348 167.467 347.333 171.2 347.333C177.067 347.333 177.333 347.467 177.333 351.2Z" fill="#CA8A04"/>
<path d="M131.467 71.7333C131.067 72.5333 132.8 73.3333 135.333 73.6C138.267 73.8666 139.867 73.6 139.6 72.8C138.933 70.9333 132.533 70.1333 131.467 71.7333Z" fill="#CA8A04"/>
<path d="M142.667 72.9334C142.667 73.6 145.067 74 147.867 74C150.8 74.1334 152.8 73.6 152.533 73.0667C151.6 71.7334 142.667 71.6 142.667 72.9334Z" fill="#CA8A04"/>
<path d="M133.333 79.8667C133.333 83.2 134.133 83.4667 135.067 80.6667C135.6 79.6 135.333 78.4 134.667 78C133.867 77.4667 133.333 78.4 133.333 79.8667Z" fill="#CA8A04"/>
<path d="M139.333 78.6666C136.8 82.7999 136.267 88.1333 138.267 89.9999C139.333 91.1999 140.667 91.7333 141.067 91.3333C141.6 90.9333 141.067 89.9999 140 89.3333C138.4 88.3999 138.4 87.1999 139.467 82.7999C140.933 77.3333 140.933 76.1333 139.333 78.6666Z" fill="#CA8A04"/>
<path d="M145.333 80.6667C145.333 81.7334 146 82.6667 146.667 82.6667C147.467 82.6667 148 81.7334 148 80.6667C148 79.6001 147.467 78.6667 146.667 78.6667C146 78.6667 145.333 79.6001 145.333 80.6667Z" fill="#CA8A04"/>
<path d="M132 94.5334C132 97.2 135.6 100.933 136.933 99.4667C137.333 99.0667 137.067 98.6667 136.267 98.6667C135.333 98.6667 134.667 97.8667 134.667 96.8C134.667 95.6 135.867 95.2 138.4 95.6C141.733 96.1334 141.733 96 137.467 94C131.867 91.4667 132 91.4667 132 94.5334Z" fill="#CA8A04"/>
<path d="M404 85.2C404 86 404.667 86.9334 405.333 87.3334C406.133 87.7334 406.667 87.2 406.667 86.1334C406.667 84.9334 406.133 84 405.333 84C404.667 84 404 84.5334 404 85.2Z" fill="#CA8A04"/>
<path d="M390.667 88.6667C390.667 89.7334 391.333 90.6667 392 90.6667C392.8 90.6667 393.333 89.7334 393.333 88.6667C393.333 87.6001 392.8 86.6667 392 86.6667C391.333 86.6667 390.667 87.6001 390.667 88.6667Z" fill="#CA8A04"/>
<path d="M405.467 100C403.867 101.467 401.733 102.267 400.8 101.733C399.867 101.2 399.867 101.467 400.933 102.667C402.267 104.133 403.2 104 405.867 102.133C409.2 100 409.333 100.133 409.333 102.4C409.333 103.733 408.533 105.6 407.733 106.533C406.267 108 406.4 108.267 408 107.733C410.133 107.067 411.733 97.3334 409.733 97.3334C409.2 97.4667 407.2 98.5334 405.467 100Z" fill="#CA8A04"/>
<path d="M260.933 98.4001C259.2 101.067 261.067 106.667 263.733 106.667C265.2 106.667 265.467 106.267 264.4 105.6C263.6 105.067 262.667 102.8 262.4 100.667C262.133 97.8667 261.6 97.2001 260.933 98.4001Z" fill="#CA8A04"/>
<path d="M256 100.8C256 101.867 256.667 102.4 257.333 102C258.133 101.6 258.667 100.667 258.667 99.8667C258.667 99.2 258.133 98.6667 257.333 98.6667C256.667 98.6667 256 99.6 256 100.8Z" fill="#CA8A04"/>
<path d="M266.667 100C266.667 100.667 267.333 101.333 268 101.333C268.8 101.333 269.333 100.667 269.333 100C269.333 99.2 268.8 98.6667 268 98.6667C267.333 98.6667 266.667 99.2 266.667 100Z" fill="#CA8A04"/>
<path d="M266.133 112.8C264.667 113.733 263.867 114.933 264.133 115.333C264.533 115.733 266 115.067 267.467 114.133C268.8 113.067 269.733 111.867 269.333 111.6C268.933 111.2 267.467 111.733 266.133 112.8Z" fill="#CA8A04"/>
<path d="M416.133 173.733C416.4 173.867 417.867 174.933 419.333 176C421.867 177.867 421.867 177.867 420.133 175.6C419.2 174.4 417.733 173.333 416.933 173.333C416.133 173.333 415.867 173.467 416.133 173.733Z" fill="#CA8A04"/>
<path d="M388.4 115.6C389.6 115.867 391.467 115.867 392.4 115.6C393.2 115.2 392.267 114.933 390 114.933C387.867 114.933 387.067 115.2 388.4 115.6Z" fill="#CA8A04"/>
</svg>
