<svg xmlns="http://www.w3.org/2000/svg" fill="none" viewBox="0 0 400 400" id="International-Shipping--Streamline-Milano.svg" height="400" width="400"><desc>International Shipping Streamline Illustration: https://streamlinehq.com</desc><g id="international-shipping--e-commerce-international-shipping"><path id="world" fill="#eab308" fill-rule="evenodd" d="M186.648 363.808c-90.222 0 -163.624 -73.4 -163.624 -163.622 0 -90.222 73.402 -163.624 163.624 -163.624 37.95 0 72.924 12.9864 100.71 34.7486 -0.732 0.2364 -1.462 0.4728 -2.194 0.7096 -22.09 -17.0212 -48.688 -28.4678 -77.666 -32.2142 0.558 0.3324 1.136 0.6946 1.792 1.112 17.186 10.9254 30.836 25.4468 41.32 42.6116 -1.162 0.3936 -2.326 0.7868 -3.488 1.1786 -6.502 -12.1772 -18.72 -20.8904 -32.888 -22.5682 -0.67 -0.08 -1.078 -0.79 -0.792 -1.412 1.476 -3.196 2.728 -7.388 0.308 -9.202 -0.736 -0.49 -1.64 -0.902 -2.438 -1.102 -15.2708 -4.5536 -34.9954 -1.895 -52.7268 2.8072 -11.2204 13.7922 -18.208 30.3362 -23.305 47.437 1.9984 0.6404 3.5186 1.8832 5.2046 3.2616 0.2802 0.229 0.5648 0.4618 0.8572 0.6962 1.768 2.188 6.032 1.244 5.364 -2.766 -0.1526 -2.242 -1.0938 -4.1098 -2.0514 -6.0106 -0.662 -1.314 -1.332 -2.6436 -1.7546 -4.1234 -1.09 -2.994 0.116 -6.174 2.94 -7.716 3.5342 -1.516 6.8844 0.4484 10.1522 2.3646l0.3098 0.1814c1.928 1.376 4.368 1.942 6.392 1.492 0.8708 -0.2178 1.653 -0.5846 2.4332 -0.9504 1.0042 -0.4708 2.0048 -0.9402 3.1868 -1.0876 2.894 -0.582 6.184 1.006 6.184 4.11 0 0.378 -0.302 0.68 -0.594 0.972 -0.026 0.026 -0.058 0.05 -0.092 0.064 -7.404 3.332 -12.278 10.906 -12.278 18.536 0.0228 0.2422 0.0456 0.486 0.0684 0.7314 0.236 2.5412 0.4876 5.25 1.1916 7.8306 0.2968 1.682 0.649 4.7976 -0.082 7.7498 3.1934 0.2664 6.3774 0.4584 9.5484 0.5778 0.03 -0.3036 0.0678 -0.6082 0.1136 -0.9136 0.1372 -0.9142 0.3176 -1.9146 0.5076 -2.9686 0.9616 -5.3328 2.17 -12.0352 -0.7056 -15.8694 -0.1748 -0.1704 -0.357 -0.3388 -0.5406 -0.5084l-0.0006 -0.0006 -0.0006 -0.0006c-0.672 -0.6206 -1.363 -1.259 -1.7742 -2.0784 -1.084 -2.17 -0.758 -4.306 0.82 -5.938 4.872 -5.038 15.802 -10.508 17.75 -10.508 3.09 -0.312 5.474 -0.15 7.71 0.52 2.0198 0.7574 3.6288 2.574 4.14 4.5798 -0.9764 -0.2198 -1.9364 -0.4374 -2.871 -0.6494 -0.208 -0.0472 -0.4146 -0.094 -0.6198 -0.1404 -0.433 -0.5228 -1.0232 -0.935 -1.8392 -1.18 -1.93 -0.552 -3.91 -0.724 -5.722 -0.498l-0.002 0.002c-0.0236 0 -0.0474 0.0004 -0.0716 0.0008 -2.2862 -0.4604 -3.8536 -0.6978 -4.2824 -0.5548 -2.288 0.762 -4.066 2.034 -5.592 3.558 0.2336 0.1834 0.5284 0.3854 0.8768 0.6034 -3.3766 1.9994 -6.6704 4.5558 -8.2568 6.9366 -0.747 1.3458 0.3868 2.6574 1.5386 3.99l0.0002 0c0.5872 0.6794 1.1794 1.3644 1.5292 2.062 0.802 1.606 1.302 3.702 1.302 5.472 -0.25 4.526 -0.75 8.86 -1.528 13.27 -0.0496 0.2964 -0.0892 0.593 -0.1194 0.8894 5.7378 0.1518 11.4304 0.0672 17.0562 -0.2414 0.3936 -0.248 0.786 -0.4838 1.1752 -0.706 2.1212 -1.8242 4.0952 -4.153 5.8174 -6.8538 -0.8148 1.8456 -1.6622 3.8226 -2.6154 6.0958 0.8924 -0.988 1.7522 -1.9378 2.5868 -2.8598 0.788 -0.8706 1.5532 -1.7164 2.3032 -2.5464 -1.4504 2.3696 -3.2662 4.5856 -5.4306 6.6246 4.2592 -0.3122 8.4766 -0.7526 12.6446 -1.3158 2.19 -2.3426 6.112 -3.5308 8.382 -1.3096 7.626 -1.3538 15.054 -3.121 22.224 -5.2664 0.114 -1.1764 0.32 -2.244 0.534 -3.2106 0.392 -3.3652 -0.066 -6.6678 -1.372 -9.7848 0.752 0.047 1.484 0.0928 2.198 0.1376 1.17 3.1834 1.55 6.5218 1.142 9.9792 -0.18 0.8162 -0.318 1.5542 -0.416 2.2414 3.012 -0.9382 5.974 -1.9436 8.886 -3.0132l-0.02 -0.1408c-0.222 -1.5576 -0.432 -3.0368 -1.092 -4.1914 -0.56 -0.612 -1.156 -2.06 -1.208 -2.54 -0.078 -0.7722 0.118 -1.387 0.494 -1.8484 2.35 0.1464 4.438 0.2756 6.304 0.3892 0.258 0.2574 0.482 0.5486 0.662 0.8732 0.576 1.0362 0.91 2.2432 1.23 3.4004l0 0.0004c0.134 0.4844 0.264 0.9602 0.41 1.411 1.636 -0.6766 3.252 -1.374 4.85 -2.0918 -0.422 -1.0904 -0.85 -2.1728 -1.288 -3.2472 0.788 0.0444 1.52 0.0842 2.204 0.12 0.31 0.7596 0.616 1.5226 0.916 2.2892 1.39 -0.646 2.748 -1.338 4.074 -2.0732 1.736 0.0514 3.072 0.0544 4.422 0.0254 -2.348 1.4256 -4.912 2.7818 -7.712 4.0858 3.992 10.539 7.15 21.8518 9.534 33.4092 -0.536 0.876 -1.072 1.7492 -1.606 2.6204 -1.366 -6.9624 -3.018 -13.8764 -4.978 -20.64 0.174 1.4562 0.27 3.1322 0.27 5.0684 0 5.228 -1.478 8.126 -4.394 8.612 -1.008 0.113 -2.096 -0.0248 -3.09 -0.1508 -2.722 -0.3448 -4.746 -0.6012 -2.51 4.6168 1.844 4.74 0.908 10.526 -3.682 14.698l-0.012 0.0102c-0.804 0.7342 -1.562 1.4274 -1.562 2.2078 0 1.1504 1.742 1.7628 3.794 2.4832 1.516 0.5334 3.202 1.1258 4.476 2.0394 -0.344 0.5544 -0.69 1.1088 -1.034 1.6634 -0.904 -0.7102 -2.298 -1.1822 -3.732 -1.6676 -2.682 -0.9084 -5.502 -1.8636 -5.502 -4.5164 0 -1.6562 1.206 -2.7598 2.222 -3.69l0 -0.0004c0.218 -0.1986 0.426 -0.3892 0.612 -0.5756 3.148 -3.148 4.158 -7.816 2.572 -11.894 -0.73 -1.702 -2.114 -4.93 0.038 -6.722 1.298 -1.0794 2.99 -0.8502 4.628 -0.6284 0.876 0.1184 1.734 0.2348 2.51 0.1484 2.196 -0.368 2.668 -3.81 2.668 -6.632 0 -4.92 -0.494 -10.856 -4.336 -13.118 -3.044 -1.5148 -4.43 -2.3148 -5.328 -3.7362 -1.174 0.4638 -2.354 0.9168 -3.544 1.3588 0.472 2.4308 1.188 3.5384 3.79 6.0634l0.012 0.0114c0.782 0.7586 1.592 1.5432 2.298 2.4526 2.216 2.848 2.77 7.222 -0.216 9.312 -0.42 0.296 -0.998 0.222 -1.334 -0.168 -1.06 -1.238 -2.28 -2.256 -3.778 -3.144 -0.402 2.338 -1.25 4.866 -2.448 7.262 -0.33 0.66 -1.258 0.758 -1.706 0.138l-6.608 -9.15c-1.48 -1.72 -2.64 -4.132 -3.216 -6.722 -0.064 -0.5698 -0.1 -1.1206 -0.11 -1.6524 -6.86 1.9972 -13.912 3.6472 -21.096 4.9326 0.402 1.6402 -0.144 3.5014 -1.498 4.8558 -4.152 4.85 -10.596 1.96 -9.398 -2.826 0.032 -0.1304 0.072 -0.2602 0.116 -0.3886 -4.634 0.5832 -9.3106 1.0164 -14.015 1.2948 -2.231 1.2432 -4.0258 2.888 -5.383 4.9238 -0.902 2.038 -1.46 4.272 -1.73 6.98 -0.172 1.036 -0.558 3.344 -2.714 3.344 -2.196 0 -4.628 -2.368 -6.184 -3.924 -2.9358 -2.9358 -4.5452 -6.874 -4.6034 -11.1026 -3.3716 -0.1274 -6.7468 -0.3358 -10.1206 -0.627 -0.578 1.2798 -1.4344 2.4516 -2.678 3.3636l-0.22 0.226c-3.164 2.116 -7.452 1.398 -9.604 -1.562 -0.7498 -1.1994 -0.9016 -2.4046 -0.7716 -3.605 -6.4164 -0.975 -12.8024 -2.2582 -19.1224 -3.861h-0.002c-1.9936 8.8028 -3.6444 17.6394 -4.9668 26.3992 3.3436 -1.468 4.6756 -5.6464 6.0784 -10.0468 1.7438 -5.4698 3.5968 -11.2826 9.5584 -12.6584 5.214 -1.204 8.976 2.338 8.492 6.682 -0.254 2.784 0.28 5.8 1.5 8.484 0.3206 0.5748 0.649 1.1836 0.9876 1.8114 0.9268 1.7178 1.9294 3.5766 3.0544 5.2626 4.988 7.48 4.746 19.044 -4.004 20.794 -2.8574 0.3206 -5.146 -0.4192 -7.122 -1.0582 -1.9062 -0.6162 -3.5214 -1.1386 -5.076 -0.5238 2.136 1.956 3.978 4.382 5.272 6.96 0.334 0.378 0.32 1.046 -0.038 1.402 -2.188 1.918 -4.586 2.624 -7.132 2.116 -2.254 -0.224 -4.674 0.364 -7.166 1.748 -2.3252 1.5514 -4.2048 3.6276 -6.0856 5.7052l-0.0002 0.0002c-0.6996 0.7728 -1.3994 1.5458 -2.1224 2.2922 -0.2488 5.721 -0.351 11.3254 -0.3118 16.7764 30.812 8.692 68.332 10.316 105.866 1.932 18.948 -4.164 35.65 -9.9236 49.91 -17.1688 0.18 -0.3368 0.344 -0.6802 0.494 -1.0292 -0.36 -7.6002 -1.026 -15.396 -2.028 -23.2418 -2.478 3.1736 -4.028 6.9678 -5.62 10.8668 -0.486 1.1894 -0.976 2.3886 -1.498 3.583 -1.932 4.42 -5.23 6.572 -9.024 5.9 -0.85 -0.1492 -1.592 -0.4612 -2.218 -0.89 0.03 -0.0504 0.058 -0.1012 0.088 -0.152 0.352 -0.5096 0.704 -1.0176 1.056 -1.5238 2.166 1.5026 6.076 0.8736 8.266 -4.1362 0.494 -1.1328 0.966 -2.2866 1.44 -3.445l0 -0.0002c1.862 -4.5534 3.752 -9.1772 7.156 -12.871 -0.092 -0.667 -0.186 -1.3342 -0.284 -2.0016 0.594 -0.7664 1.188 -1.5304 1.782 -2.2926 0.128 0.8328 0.252 1.666 0.37 2.499 0.054 -0.0458 0.11 -0.0912 0.164 -0.1366 0.434 -0.36 1.096 -0.292 1.442 0.176 3.044 4.13 8.852 5.262 13.258 2.704 -0.7 -1.362 -2.816 -1.85 -5.46 -2.326 -10.566 -1.9 -4.534 -14.162 3.544 -6.082 2.91 2.91 7.04 4.466 9.196 3.472 1.772 -0.818 1.962 -3.294 1.808 -5.228 -0.2 -3.019 -1.676 -6.0302 -3.198 -9.136 -1.322 -2.6944 -2.678 -5.46 -3.266 -8.3638 0.572 -0.7136 1.144 -1.4274 1.716 -2.1416 0.198 3.3092 1.75 6.4362 3.32 9.595 1.588 3.1952 3.19 6.4228 3.422 9.9044 0.366 4.64 -1.412 6.472 -2.966 7.188 -3.37 1.554 -8.412 -0.836 -11.448 -3.874 -3.512 -3.51 -6.022 -2.078 -5.746 -0.09 0.25 1.794 2.34 2.496 3.97 2.79l0.014 0.0024c2.814 0.5078 6.656 1.201 7.266 4.5436 0.072 0.388 -0.092 0.782 -0.418 1.004 -5.038 3.45 -11.962 2.538 -15.938 -1.932 -0.116 0.108 -0.232 0.217 -0.346 0.3272 0.948 7.032 1.624 14.0506 2.042 20.94 1.036 -1.8728 2.354 -3.5488 3.864 -4.8892 2.97 -2.0946 7.488 -1.8108 9.338 1.1468 10.074 -6.8764 18.64 -14.9102 25.458 -24.3948 -0.624 -2.2476 -2.08 -4.3566 -4.478 -5.88 -1.46 2.74 -3.694 5.35 -6.656 7.772 -0.628 0.516 -1.596 0.098 -1.632 -0.73l-1.016 -23.13c-0.3 -3.8868 -1.192 -6.1902 -2.716 -6.9834 0.41 -0.5188 0.822 -1.0382 1.232 -1.5582 2.98 1.909 3.35 6.6974 3.48 8.4176l0.928 21.09c2.282 -2.124 3.974 -4.368 5.046 -6.69 0.232 -0.504 0.84 -0.732 1.356 -0.476 2.916 1.4576 4.846 3.66 5.88 6.129 5.252 -7.7462 9.376 -16.4326 12.252 -26.209 0.006 -0.011 0.01 -0.022 0.016 -0.0328 0.012 -0.0224 0.024 -0.0442 0.036 -0.0656 -3.946 -7.8106 -8.508 -15.2596 -13.618 -22.283 0.392 -0.5378 0.786 -1.0772 1.178 -1.618 19.87 27.086 31.616 60.4856 31.616 96.5774 0 90.224 -73.402 163.622 -163.624 163.622Zm17.13 -259.242c0.23 0.627 0.454 1.3172 0.664 2.0938 -0.804 1.6144 -1.528 3.0864 -2.208 4.4936 0.194 -1.2462 0.152 -2.5596 -0.122 -3.9334l-0.018 -0.0498c-0.488 -1.2942 -0.994 -2.6374 -1.576 -3.9078 1.244 0.5028 2.354 0.9456 3.26 1.3036Zm-17.13 -66.098c-4.597 0 -9.1496 0.1928 -13.6506 0.5708 -2.0074 1.532 -5.3424 4.4562 -7.0934 6.2072 -1.7836 1.725 -3.4792 3.51 -5.0922 5.3494 17.2686 -4.3258 36.1118 -6.5474 51.0282 -2.0994 5.886 1.464 6.23 6.232 3.954 11.834 11.078 1.6524 20.934 7.4234 27.874 15.7134 -10.414 -14.8682 -23.638 -27.261 -40.54 -36.742 -5.4194 -0.551 -10.9174 -0.8334 -16.48 -0.8334Zm-24.6954 1.8822c2.4414 -0.3756 4.9008 -0.6966 7.3766 -0.9614 -4.5162 3.653 -8.5666 7.7414 -12.212 12.1696 -6.4516 1.746 -12.62 3.7476 -18.2052 5.7556 0.914 -2.582 3.712 -4.952 8.472 -7.192 2.4792 -1.0444 4.868 -2.762 7.2174 -4.4514 2.2752 -1.6358 4.5132 -3.245 6.7606 -4.1906 0.4508 -0.1892 0.689 -0.6688 0.5906 -1.1298ZM137.936 59.796c5.2136 -1.9206 10.9958 -3.8542 17.0736 -5.582 -10.242 13.3832 -17.0984 29.533 -22.1146 46.0258 -2.3802 -0.0114 -4.3672 -0.3556 -4.151 -2.7118 0.234 -1.876 0.924 -3.86 2.01 -5.762 1.5144 -3.4072 1.5032 -6.9882 1.492 -10.542v-0.001c-0.004 -1.271 -0.0078 -2.5382 0.058 -3.793 0.228 -3.668 2.3 -9.124 7.07 -9.124 0.422 0 0.808 -0.386 0.806 -0.766 0.506 -3.546 -3.694 -5.942 -4.356 -4.024 -0.156 0.456 0.134 0.912 0.442 0.97 0.848 0.17 1.458 0.886 1.568 1.736 -2.888 0.302 -5.636 2.258 -6.858 4.948 -1.8572 3.4824 -1.8378 7.2888 -1.818 11.1492 0.002 0.3964 0.004 0.7934 0.004 1.1908 0 3.515 -0.8768 5.5586 -1.8834 7.9052 -0.5588 1.3026 -1.1574 2.6984 -1.6686 4.4908 -0.354 1.772 0.318 3.822 0.59 4.084 1.482 1.484 3.108 2.11 4.786 1.868 0.4628 0 0.9274 0.041 1.3872 0.1206 -1.5484 5.2298 -2.9176 10.4856 -4.1568 15.6904 -1.1578 0.3942 -2.3926 0.9088 -3.5446 1.5726 -4.9956 -1.399 -9.9396 -3.0206 -14.8878 -4.6756 -7.7504 -2.5906 -15.307 -6.4332 -21.427 -11.8954 2.854 -3.7674 4.2652 -6.9302 5.6524 -10.0386 1.4178 -3.1776 2.8104 -6.2982 5.6926 -9.95 3.372 -4.15 7.44 -7.37 12.102 -9.58 0.604 -0.302 0.752 -0.944 0.388 -1.674 -0.014 -0.028 -0.034 -0.054 -0.056 -0.078l-0.3 -0.292c-0.636 -0.424 -0.958 -1.004 -0.958 -1.722 0 -1.268 1.026 -2.736 1.956 -3.358 5.066 -2.814 15.106 -2.658 21.132 -1.242 1.438 0.368 2.036 -2.112 0.64 -2.112 -2.9 -0.484 -6.298 -1.012 -9.464 -1.276 -3.446 0 -6.462 0.336 -9.178 1.018 -2.878 0.262 -5.242 1.806 -6.85 4.486 -0.766 1.534 -0.59 3.412 0.33 4.856 -4.166 2.22 -8.11 5.49 -11.232 9.334 -3.416 4.728 -6.164 9.796 -8.162 15.042 -0.8884 1.8658 -1.9528 3.5936 -3.1476 5.217 -5.7644 -5.7796 -10.482 -15.0372 -6.5598 -22.8862 21.576 -18.8602 48.1908 -32.0922 77.5306 -37.383 -1.5198 0.9078 -3.008 1.9782 -4.4838 3.0396l0 0.0002c-2.2788 1.639 -4.5282 3.2568 -6.8194 4.2224 -6.49 3.054 -9.754 6.492 -9.978 10.508 -0.042 0.716 0.668 1.244 1.344 0.994Zm-6.9718 57.0826c1.135 -4.7236 2.3566 -9.4572 3.7132 -14.1556 0.613 0.298 1.191 0.6682 1.7126 1.103 0.0564 0.045 0.1288 0.1062 0.2186 0.182 0.6164 0.5206 2.0528 1.7338 4.7814 3.174 5.698 3.004 9.074 -4.24 4.856 -11.612 -2.274 -3.974 -4.394 -9.18 0.06 -10.24 2.9726 -0.7094 5.3012 0.8106 7.6384 2.3362 1.7416 1.137 3.4882 2.277 5.5096 2.4998 2.072 0 4.34 -0.608 6.69 -1.79 1.674 -0.478 4.57 -0.812 5.116 0.834 -7.474 3.808 -12.376 11.088 -12.868 19.196 -0.1266 2.5336 0.3416 5.157 0.7962 7.7044 0.621 3.4798 1.2168 6.818 0.2376 9.5932 -2.8798 -0.2858 -5.7662 -0.6326 -8.6566 -1.0418 0.1094 -0.3834 0.2342 -0.7776 0.3622 -1.1822 0.6824 -2.1556 1.4568 -4.6024 0.4846 -7.2456 -0.06 -0.438 -0.698 -0.74 -1.022 -0.74 -6.7116 -0.7466 -13.1434 -0.293 -19.6298 1.3846Zm19.4366 9.7036c2.6768 0.3848 5.3584 0.7162 8.0422 0.9948 -0.4386 0.6012 -0.991 1.1634 -1.679 1.681 -1.684 0.96 -3.612 0.96 -5.246 0.034 -0.9008 -0.7884 -1.1692 -1.697 -1.1172 -2.7098Zm-0.8086 -3.4778c-0.1416 0.4404 -0.284 0.8828 -0.4106 1.3264 -6.3612 -0.9504 -12.7396 -2.204 -19.1076 -3.7768l0.1164 -0.5016c6.2392 -2.1052 13.014 -2.7072 20.0556 -2.1024 0.4468 1.6326 -0.0986 3.3282 -0.6538 5.0544ZM100.78 112.7c8.9202 4.1612 15.7512 6.2422 21.9178 7.925 -1.4228 1.2278 -2.4752 2.7988 -2.6858 4.799 -0.1586 1.7446 0.4946 3.146 1.1592 4.5718 0.4584 0.9836 0.9222 1.9788 1.1288 3.1062 0.3378 4.0546 -0.6194 5.9724 -1.6248 7.987 -0.9466 1.8966 -1.936 3.879 -1.9272 7.811 0.3622 1.6344 1.6858 2.3652 3.2172 2.4008 -1.6132 11.736 -2.766 24.0646 -3.2958 36.3998 -3.093 2.6816 -6.483 3.7838 -11.1194 4.5574 -3.654 0.6096 -7.6606 1.561 -10.7344 3.9092 -3.9218 -1.7164 -7.7888 -3.5724 -11.5976 -5.5672 -16.5894 -9.0306 -31.2114 -22.0968 -39.1068 -38.4252 0.276 -0.8518 0.607 -1.6816 0.9102 -2.4416l0.0002 -0.0002 0.1024 -0.257c2.226 -4.452 5.294 -9.398 9.122 -14.698 6.5126 -8.8386 13.193 -14.427 19.089 -19.3596l0.0002 0c1.9368 -1.6204 3.789 -3.1698 5.5228 -4.7404 2.7402 -2.4826 4.8418 -4.7054 6.507 -6.7464 3.992 3.7172 8.4852 6.6562 13.415 8.7684Zm22.4318 30.2138c-0.3404 2.1274 -0.666 4.2802 -0.976 6.4546 -1.4624 -0.5968 0.2338 -4.9952 0.976 -6.4546Zm0.8966 -12.2236c0.3174 0.6592 0.6376 1.3246 0.8864 2.0052 0.707 -3.7316 1.4576 -7.3566 2.2452 -10.8514l-0.693 -0.1854c-1.8076 0.9764 -3.3156 2.3284 -3.653 4.3494 -0.2672 1.604 0.4652 3.1256 1.2144 4.6822ZM121.01 185.259c0.5672 -11.1474 1.6864 -22.7122 3.3924 -34.429 5.1744 -2.0118 6.8524 -7.4004 8.4284 -12.4612 1.708 -5.4848 3.2962 -10.5848 9.0852 -10.5848 2.558 0 3.998 1.704 4.276 5.038 0 6.56 1.252 8.848 4.58 14.176 1.644 2.63 3.342 5.352 4.07 8.264 0.642 2.566 0.566 6.468 -1.116 8.97 -2.3022 3.4262 -5.638 2.4498 -9.0848 1.4408 -3.2574 -0.9534 -6.614 -1.936 -9.2912 0.7412 -0.372 0.374 -0.372 1.324 0.024 1.718 2.566 2.052 4.454 4.288 5.624 6.66 -1.1486 1.0402 -2.7604 1.0068 -4.7092 0.9662 -2.0046 -0.0416 -4.366 -0.0906 -6.9468 1.0138 -0.0576 0.0254 -1.011 0.8954 -1.3384 1.194l-0.1076 0.098c-2.5518 2.307 -4.9658 4.4912 -6.886 7.195Zm-13.3912 8.707c3.9672 -0.838 7.766 -1.6404 10.9606 -4.0106 -0.1728 4.7052 -0.2538 9.4064 -0.2334 14.0706 -6.717 -1.986 -13.3058 -4.3516 -19.7498 -7.0908 1.9944 -1.3042 4.0886 -2.1136 6.0238 -2.3092 1.0052 -0.2388 2.0068 -0.4504 2.998 -0.6598l0.0008 -0.0002Zm-12.6808 11.274c-0.2176 -2.598 0.5096 -5.022 2.0364 -6.9054 6.9142 2.9694 13.9978 5.4134 21.3996 7.5594 0.224 23.112 2.378 44.19 7.894 67.114 -1.9918 -0.55 -3.9808 -1.126 -5.9664 -1.726 -0.1844 -0.214 -0.3636 -0.428 -0.5376 -0.646 0 0 -7.588 -7.852 -7.966 -8.24 -3.192 -3.268 -7.162 -7.332 -11.858 -7.1 -2.24 0.28 -4.034 1.416 -5.026 3.16 -0.2506 0.312 -0.5146 0.71 -0.7898 1.126 -0.3968 0.598 -0.817 1.23 -1.2528 1.694 -1.2774 -0.548 -2.5528 -1.106 -3.8262 -1.674 -1.0904 -1.256 -2.1304 -2.586 -3.1292 -3.864 -0.505 -0.646 -0.9992 -1.278 -1.484 -1.88 -2.04 -2.04 -4.056 -4.334 -6.316 -7.58 -1.839 -2.64 -0.6434 -5.082 0.6172 -7.658 0.7962 -1.626 1.6182 -3.306 1.7188 -5.122 0.1858 -3.364 -2.236 -4.54 -4.5802 -5.68l-0.0058 -0.002 -0.122 -0.06c-1.1708 -0.566 -3.7186 -1.798 -3.622 -2.976 0.0654 -0.78 1.2372 -1.456 2.2518 -2.04l0.0002 0 0.0002 0c0.4442 -0.256 0.8582 -0.494 1.1358 -0.716 1.284 -1.028 2.146 -2.858 2.146 -4.554 0 -3.162 -2.588 -5.638 -5.892 -5.638 -1.6792 0 -2.8964 0.764 -4.082 1.51 -0.4468 0.28 -0.8892 0.558 -1.35 0.792 -1.562 0.518 -3.128 0.16 -4.026 -0.956 -2.392 -2.154 -2.194 -5.568 -1.684 -8.622 0.878 -5.054 3.19 -10.188 6.558 -14.614 3.214 4.548 7.74 7.632 12.904 8.754 3.594 0.83 5.716 1.892 6.634 5.098 0.679 3.73 0.3414 6.022 0.1258 7.484 -0.1952 1.326 -0.2906 1.974 0.5602 2.396 1.914 0.818 4.4 0.272 5.696 -1.368 1.5 -1.898 2.122 -4.516 1.838 -7.066Zm-0.032 -7.274c0.1124 -0.1312 0.227 -0.2594 0.3438 -0.3846 -6.8402 -3.0376 -13.5256 -6.6132 -20.2018 -10.9514 -13.1274 -8.6938 -23.2402 -19.707 -29.5234 -31.8144 -0.097 1.0832 0.0354 2.1214 0.5714 3.0144 0.3614 0.6332 0.862 1.1726 1.3672 1.7168 0.8958 0.9648 1.8054 1.9444 1.9768 3.4892 0.002 2.19 -0.706 4.06 -1.3 5.25 -0.9 1.58 -1.47 3.29 -1.75 5.246 0.0032 1.0394 0.7364 1.533 1.5516 2.0816l0.0002 0c0.2042 0.1376 0.4138 0.2786 0.6182 0.4324 2.77 1.844 3.86 5.302 3.932 8.628 0.0622 2.8684 -0.6198 5.524 -1.2832 8.107 -0.7872 3.0652 -1.5482 6.0286 -1.0088 9.125 0.872 5.006 3.858 9.508 6.748 13.864 0.1432 0.216 1.2234 1.864 2.6892 4.1 3.1592 4.822 8.1094 12.376 9.3268 14.202 1.724 2.218 2.83 5.072 3.098 8.018 -0.266 3.516 0.336 6.708 1.744 9.288 0.3234 0.472 0.6754 0.944 1.0498 1.416 1.4182 0.73 2.8484 1.444 4.2882 2.146 1.8944 0.938 3.7938 1.852 5.698 2.742 -0.4534 -0.554 -0.9064 -1.104 -1.362 -1.644 -0.7562 -0.896 -1.5414 -1.79 -2.339 -2.698 -1.2464 -1.42 -2.523 -2.874 -3.767 -4.426 -1.568 -1.57 -2.36 -3.942 -2.096 -6.322 0.5336 -1.886 1.258 -3.47 1.8814 -4.832 1.2854 -2.808 2.1412 -4.678 0.0106 -6.336 -0.6292 -0.49 -1.4934 -0.906 -2.395 -1.34l-0.0002 0c-2.3316 -1.124 -4.9126 -2.366 -4.3228 -5.31 0.2008 -1.618 1.4282 -2.466 2.6268 -3.294 1.284 -0.886 2.5348 -1.752 2.4552 -3.514 -0.04 -0.882 -0.466 -1.724 -1.168 -2.308 -1.6174 -1.62 -3.361 -0.662 -5.3854 0.45 -0.2112 0.116 -0.4252 0.234 -0.6426 0.35 -1.878 1.008 -4.262 1.058 -6.128 -0.008 -4.916 -2.846 -4.288 -8.868 -3.194 -13.796 1.352 -5.942 5.028 -12.064 7.75 -14.926 0.66 -0.694 1.628 -0.64 1.978 0.408 1.726 2.946 4.238 5.458 7.238 7.208 1.179 0.5904 2.527 1.0258 3.8376 1.4492 0.3146 0.1016 0.627 0.2026 0.9344 0.3048 1.678 0.236 3.242 0.728 4.868 1.542 4.972 2.604 4.888 8.38 4.146 13.864 1.048 -0.126 2.17 -1.3 2.558 -2.27 0.378 -1.136 0.734 -2.922 0.49 -4.93 -0.314 -2.586 0.484 -5.194 2.09 -7.338ZM45.322 148.682c-0.151 0.272 -0.2936 0.5476 -0.4272 0.8262 -2.4128 -5.6226 -4.032 -11.6112 -4.6752 -17.9364 9.1124 -19.3694 21.9574 -36.6494 37.6024 -50.9072 -2.187 7.7848 3.1026 15.8738 4.992 18.4294 1.0016 1.2122 2.0444 2.365 3.1272 3.4572 -3.4364 4.2858 -7.7564 7.8608 -12.0426 11.4076 -2.6436 2.1878 -5.2742 4.3648 -7.6766 6.6912 -8.862 8.34 -15.896 17.776 -20.9 28.032Zm-1.2954 3.0686c-2.5514 -5.5602 -4.3038 -11.3238 -5.182 -17.1768 -8.9366 20.0532 -13.9082 42.2474 -13.9126 65.5802 0.0278 0.072 0.0458 0.142 0.052 0.21 6.4708 23.556 24.3986 38.636 45.6284 50.188 -0.9578 -2.208 -1.4504 -4.714 -1.1784 -7.71 -0.51 -3.266 -1.772 -6.212 -3.748 -8.68 -0.9772 -1.498 -3.3592 -5.184 -5.7168 -8.834l-0.0004 0c-2.284 -3.536 -4.545 -7.036 -5.4828 -8.474 -3.558 -4.57 -5.886 -9.746 -6.906 -15.36 -0.2504 -2.8604 0.5186 -6.0358 1.2774 -9.1688 1.381 -5.7014 2.7278 -11.2624 -2.1654 -14.5292 -1.586 -1.054 -2.422 -2.636 -2.422 -4.57 0.104 -1.362 0.848 -2.756 1.638 -4.23 2.516 -4.708 1.996 -5.716 -0.292 -8.134 -0.354 -0.372 -0.716 -0.758 -1.034 -1.18 -0.544 -1.08 -1.076 -2.144 -1.076 -3.23 -0.147 -1.464 0.0388 -3.088 0.5206 -4.7014Zm28.5398 102.2134c-21.853 -11.892 -40.7354 -27.858 -47.5434 -48.314 0.9466 28.37 9.2358 54.912 23.0234 77.782 0.0722 0.034 0.1342 0.082 0.1816 0.146 9.6058 12.812 25.7516 25.292 48.5928 34.496 -7.5508 -8.484 -15.2932 -18.856 -16.2048 -28.918 0.264 -2.954 1.344 -5.562 3.124 -7.596 4.43 -6.648 -0.062 -14.24 -1.546 -16.408 -1.4334 -2.094 -3.2042 -3.954 -4.9678 -5.808 -1.6546 -1.738 -3.3028 -3.468 -4.6598 -5.38Zm24.1756 66.404c-16.3506 -6.63 -30.4456 -15.166 -41.141 -25.524 18.009 24.864 42.9106 44.422 71.8764 55.85 -1.9914 -1.01 -3.8722 -2.232 -5.5774 -3.636 -2.752 -2.58 -5.122 -5.798 -7.412 -8.91 -3.088 -4.194 -4.302 -5.836 -11.228 -13.126 -1.0194 -1.072 -2.089 -2.202 -3.1856 -3.378 -1.121 -0.416 -2.2322 -0.842 -3.3324 -1.276Zm20.592 16.492c-3.5054 -4.76 -7.3812 -9.006 -11.256 -13.114 14.0084 4.638 29.16 7.878 43.384 10.052 2.8886 5.204 6.12 9.98 9.4374 14.194 -0.3554 0.106 -0.7126 0.22 -1.0734 0.342 -1.6948 0.578 -3.0288 1.246 -4.2734 1.868 -3.3922 1.7 -6.1204 3.066 -13.6806 1.35 -12.518 -2.844 -15.04 -4.504 -22.538 -14.692Zm36.4 15.832c2.9824 -1.356 4.8398 -2.07 6.872 -2.592 3.7494 4.51 7.5518 8.278 11.0442 11.112 -12.952 -1.196 -25.4662 -3.926 -37.3588 -8.006 0.9002 0.216 1.8072 0.388 2.7166 0.518 3.2 0.874 5.968 1.28 8.736 1.28 2.984 -0.272 5.762 -1.074 7.99 -2.312Zm9.1014 -3.084c3.7014 4.386 7.8206 8.412 12.4448 11.898 3.7558 0.262 7.5466 0.396 11.3678 0.396 15.38 0 30.266 -2.158 44.372 -6.188 6.66 -10.562 11.612 -18.77 17.658 -31.186 -18.122 6.682 -36.518 10.86 -56.1984 11.898 -4.8586 6.566 -12.2354 10.9 -20.7956 11.716 -1.6258 0.272 -3.0184 0.494 -4.2376 0.688 -1.8728 0.3 -3.337 0.534 -4.611 0.778Zm139.4966 -36.528c-18.72 19.176 -42.152 33.732 -68.406 41.774 6.558 -10.1 12.438 -20.604 17.608 -31.422 14.584 -5.598 28.366 -12.58 41.114 -20.9 7.818 -4.932 14.676 -10.088 20.852 -15.544 -0.49 1.61 -1.106 3.168 -1.702 4.558 -2.996 6.992 -6.094 14.22 -9.392 21.324l0.002 -0.006c-0.034 0.074 -0.06 0.146 -0.076 0.216Zm11.306 -20.752c0.978 -2.284 2 -4.986 2.492 -7.718 7.366 -6.822 13.76 -14.108 19.698 -21.996 -7.132 16.982 -17.084 32.5 -29.266 45.964 2.45 -5.452 4.794 -10.92 7.076 -16.25Zm24.594 -36.26c0.076 -0.078 0.16 -0.14 0.248 -0.188 6.392 -17.37 9.884 -36.132 9.884 -55.694 0 -3.8174 -0.132 -7.6042 -0.394 -11.3562 -8.704 34.8782 -43.452 62.0242 -76.272 77.0222 -0.942 4.014 -1.95 7.936 -3.018 11.768 1.242 0.76 2.642 1.322 4.098 1.646 4.668 0.584 7.576 -3.6 10.866 -8.338 3.596 -5.178 7.65 -11.014 14.962 -12.01 6.134 -0.842 13.08 3.37 13.08 9.632 0 1.208 0 2.354 0.21 3.484 0.356 0.682 0.968 1.602 1.932 2.324 1.812 1.918 2.532 4.256 2.598 6.716 8.002 -7.528 15.306 -15.846 21.806 -25.006Zm-23.054 -20.924c15.864 -14.422 27.612 -31.88 32.254 -52.374 -1.99 -18.513 -7.118 -36.1008 -14.84 -52.2192 -2.678 8.943 -6.946 17.7588 -13.008 26.1236 0.768 5.2756 -2 10.9128 -7.54 12.9276 -0.368 0.123 -0.718 0.2374 -1.052 0.346 -4.016 1.3096 -5.444 1.7752 -3.452 6.276 0.54 1.216 1.096 2.474 1.096 3.876 0 4.586 -5.476 6.542 -10.6 6.844 -3.208 0 -5.638 -0.552 -6.774 -2.534 -0.13 -0.3522 -0.232 -0.6666 -0.322 -0.9658 -3.72 2.4392 -7.694 4.7746 -11.934 6.9918 0.958 25.472 -1.642 50.388 -6.744 72.994 15.668 -7.26 30.038 -16.712 42.916 -28.286Zm-22.456 -52.7328 -0.038 -0.1306c4.34 -2.946 8.318 -6.0362 11.95 -9.246 -0.066 1.4352 0.52 2.7506 1.074 3.996 0.476 1.0658 0.928 2.0806 0.928 3.0754 0 4.126 -7.262 4.762 -8.658 4.846 -1.912 0 -4.204 -0.174 -4.898 -1.35 -0.126 -0.3764 -0.24 -0.777 -0.358 -1.1908Zm17.564 -14.3454c-0.188 0.0576 -0.376 0.1154 -0.566 0.1746 2.924 -2.943 5.582 -5.9706 7.988 -9.066 -0.246 3.6818 -2.514 7.1592 -6.322 8.5436 -0.356 0.1188 -0.724 0.2324 -1.1 0.3474l0 0.0002 0 0.0002Zm-26.478 12.6002c1.974 -1.3808 5.3 -1.2718 6.448 0.6942 -3.534 2.331 -7.246 4.526 -11.128 6.5968 0.978 -2.8822 2.668 -5.4926 4.68 -7.291Zm-13.822 14.1468c1.084 -0.4884 2.164 -0.9876 3.236 -1.498 -0.364 0.3194 -0.746 0.6216 -1.144 0.9052 -0.666 0.2668 -1.37 0.4468 -2.092 0.5928Zm-52.49 15.7772c14.874 -2.79 29.858 -6.688 44.056 -12.2384 -1 1.204 -1.728 2.6664 -2.116 4.2524 -1.208 2.962 -1.77 5.864 -2.312 8.668 -1.64 8.48 -2.762 9.994 -6.506 14.734 -3.198 4.05 -6.824 8.642 -5.992 14.456 0.236 2.018 1.066 3.882 1.872 5.688l0.004 0.01c2.34 5.248 1.952 6.218 0.934 8.77l-0.08 0.204 0 0.002c-0.65 1.636 -1.322 3.324 -0.896 5.384 0.886 2.36 2.092 3.99 3.848 5.24l0.024 0.02 0 0.002c1.722 1.462 3.464 2.944 5.236 4.41 -37.174 12.998 -81.4292 15.544 -126.924 3.454 -5.496 -22.236 -7.74 -44.234 -8.034 -67.138 31.884 8.87 64.298 9.854 96.886 4.082Zm34.106 53.642c2.032 1.726 4.08 3.466 6.166 5.176 4.12 -1.498 8.152 -3.126 12.084 -4.876h-0.002c5.92 -25.522 7.906 -49.462 7.132 -72.394 -1.048 1.443 -2.35 2.7282 -3.848 3.778 -0.746 0.522 -3.45 0.986 -4.286 1.126 -1.804 0.302 -3.51 0.588 -4.812 1.63 -1.292 1.076 -2.232 2.652 -2.706 4.544 -1.178 2.918 -1.726 5.746 -2.264 8.526 -0.758 3.918 -1.498 7.742 -3.964 11.596 -0.88 1.32 -1.898 2.612 -2.92 3.906l0 0.002c-3.13 3.966 -6.286 7.968 -5.574 12.95 0.206 1.748 0.96 3.44 1.728 5.16 1.064 2.388 2.154 4.83 1.834 7.552 -0.212 1.07 -0.6 2.054 -0.966 2.988 -0.57 1.44 -1.088 2.756 -0.826 4.07 0.702 1.836 1.66 3.142 3.16 4.212l0.064 0.054Zm-122.416 11.49c46.416 12.002 91.092 9.266 128.198 -4.038 2.808 2.278 5.694 4.498 8.688 6.536 0.062 0.052 0.126 0.104 0.19 0.156 -4.22 14.864 -9.634 29.458 -16.222 43.382h0.002c-18.58 7.176 -36.618 11.42 -56.0958 12.494 0.6968 -1.138 1.324 -2.328 1.8758 -3.57 1.0262 -2.312 1.5462 -4.648 2.0492 -6.908l0.0028 -0.012c0.59 -2.662 0.416 -5.202 -0.524 -7.546l-0.002 0.014c-0.012 -0.032 -0.03 -0.06 -0.05 -0.084 -1.73 -2.02 -4.142 -3.422 -6.232 -3.648 -0.3794 -0.128 -0.7508 -0.254 -1.116 -0.376l-0.0004 0c-2.8118 -0.952 -5.2526 -1.776 -8.0616 -2.428 -9.5804 -2.22 -11.7738 -2.366 -13.8744 -2.506 -1.1382 -0.076 -2.2492 -0.15 -4.4936 -0.552 -1.182 0 -2.086 -0.47 -2.816 -1.412 -0.632 -0.818 -0.4738 -2.018 -0.3202 -3.182 0.0666 -0.504 0.1322 -1.002 0.1322 -1.46 0 -6.932 -9.1612 -11.924 -16.1484 -15.734l-0.5296 -0.288c-4.7778 -2.604 -8.874 -4.262 -12.0242 -5.536l-0.0004 0 -0.0004 0c-0.7078 -0.288 -1.368 -0.554 -1.9772 -0.808 -0.2214 -0.834 -0.438 -1.666 -0.6498 -2.494Zm130.396 -4.844c2.358 1.888 4.766 3.722 7.256 5.44 0.86 -3.112 1.668 -6.236 2.422 -9.366 -3.162 1.39 -6.388 2.7 -9.678 3.926Zm-6.74 49.762c5.848 -12.594 11.018 -26.15 15.276 -41.024 1.3 0.726 2.766 1.282 4.318 1.624 6.286 0.784 10.358 -5.358 13.87 -10.658l0.302 -0.454c10.336 -15.562 23.076 -8.486 23.076 -1.572 0 1.3 0 2.642 0.274 4.01 0.092 0.452 1.144 2.258 2.54 3.284 1.774 1.886 2.166 4.444 1.868 7.132 -17.636 16.066 -38.514 28.432 -61.524 37.658Zm-56.826 4.272c-0.7668 3.496 -2.1836 6.678 -4.1106 9.44 -12.8708 0.562 -26.3942 -0.25 -41.1334 -2.502 -8.5386 -15.296 -15.3908 -33.524 -20.195 -50.9 0.806 0.364 1.6664 0.728 2.585 1.096 6.67 2.612 18.652 8.522 23.536 13.404 2.042 2.042 2.88 4.714 2.458 7.374 -0.27 1.702 0.056 3.1 0.862 4.138 1.5966 2.062 5.0434 2.46 7.7442 2.774l0.2978 0.034c6.734 0.788 21.216 3.562 27.06 7.066 2.266 1.586 1.742 5.256 0.896 8.076Zm-69.26 -49.832c0.1612 0.648 0.3256 1.3 0.4934 1.954 -0.0576 -0.03 -0.114 -0.06 -0.1694 -0.09 -1.4616 -0.93 -2.7634 -1.876 -3.922 -2.856 1.2128 0.344 2.4126 0.674 3.598 0.992Zm-1.276 3.124c-2.1428 -1.664 -4.0472 -3.37 -5.6892 -5.09 -8.2678 -2.45 -17.0386 -5.456 -25.7974 -9.042 -1.3882 0.722 -3.183 0.554 -4.1634 -0.67 -0.5894 -0.588 -1.1606 -1.202 -1.7196 -1.83 -3.1494 -1.388 -6.282 -2.852 -9.374 -4.394 5.4764 5.892 11.6502 12.612 8.5636 22.898 -0.4732 1.19 -1.2006 2.202 -1.9238 3.208 -0.8696 1.21 -1.733 2.412 -2.1402 3.902 -0.254 3.13 0.332 6.066 1.754 8.672 4.0648 9.65 10.8114 17.034 17.908 24.53 1.2628 0.454 2.5442 0.896 3.844 1.33 12.42 3.754 26.118 7.174 41.432 9.726 -9.2476 -16.6 -15.7872 -35.058 -20.2394 -51.784 -0.905 -0.484 -1.7206 -0.966 -2.4546 -1.456Zm-12.2214 -11.748c1.026 1.04 2.2576 2.288 3.775 3.814 -7.146 -2.266 -14.2476 -4.862 -21.2912 -7.784 1.0528 -1.138 2.0014 -2.276 2.9216 -3.382 2.194 -2.192 5.164 -0.758 6.732 0.288 2.889 2.022 3.6202 2.764 7.853 7.054l0.0004 0 0.0042 0.004 0.005 0.006ZM262.14 111.938c0.942 2.5268 1.836 5.0876 2.682 7.6764 -1.33 -2.0876 -3.042 -2.9868 -4.666 -3.84 -0.844 -0.4436 -1.666 -0.875 -2.396 -1.4544 -0.118 -0.1176 -0.226 -0.2458 -0.328 -0.3832 1.584 -0.6464 3.154 -1.3128 4.708 -1.9988Zm-7.472 0.7972c-0.996 0.3992 -2 0.7908 -3.008 1.1744 -0.232 -1.6304 -0.508 -3.2944 -1.372 -4.7336 -0.054 -0.0906 -0.106 -0.145 -0.16 -0.2034 -0.156 -0.1658 -0.342 -0.3636 -0.726 -1.5126 -0.018 -0.988 2.902 -0.808 3.73 0.682 0.466 0.842 0.75 1.87 1.05 2.96 0.17 0.6148 0.326 1.1538 0.486 1.6332Zm-14 7.1328c3.186 -0.9642 6.33 -2.0038 9.426 -3.117 0.164 0.7684 0.384 1.5276 0.712 2.249 0.872 1.9198 2.252 3.2564 3.584 4.5492 0.758 0.7342 1.5 1.4542 2.128 2.2588 1.24 1.596 2.018 4.262 0.842 5.842 -1.364 -1.398 -2.99 -2.562 -4.944 -3.538 -0.63 -0.312 -1.38 0.104 -1.444 0.804 -0.18 1.986 -0.8 4.288 -1.738 6.506l-5.658 -7.828c-1.32 -1.542 -2.326 -3.644 -2.814 -5.814 -0.072 -0.6378 -0.104 -1.264 -0.094 -1.912ZM175.404 345.018c5.8512 -1.134 11.0228 -4.146 14.8004 -8.486 -7.9942 0.322 -16.2048 0.126 -24.6984 -0.628 -4.628 -0.504 -9.062 -1.092 -13.42 -1.724 2.6872 4.606 5.6532 9.072 8.968 13.25 1.845 -0.414 3.7526 -0.696 6.003 -1.026 2.3172 -0.342 4.9976 -0.736 8.347 -1.386Zm40.084 -219.2632c-2.13 0.3584 -4.27 0.685 -6.42 0.9792 -0.322 0.4642 -0.516 0.9792 -0.516 1.522 -0.536 2.752 3.772 4.156 6.312 0.342 0.786 -0.794 1.094 -1.9238 0.624 -2.8432ZM188.68 128.5296c-4.6872 0.1868 -9.398 0.2198 -14.1184 0.0946 0.1442 3.6182 1.6996 7.063 4.4084 9.5798 0.482 0.36 0.924 0.676 1.366 0.992 0.323 0.2298 0.5876 0.424 0.8112 0.5882l0.0026 0.0018 0.0004 0.0004c1.0158 0.7458 1.1842 0.8694 2.1378 0.8776 0.2586 -0.286 0.2618 -0.4932 0.2692 -0.985 0.0116 -0.7598 0.0334 -2.199 1.0228 -5.659 1.06 -2.132 2.076 -3.654 3.126 -4.704 0.3212 -0.268 0.6462 -0.5304 0.974 -0.7864Zm61.232 17.2524c-2.56 -1.9194 -8.966 -5.7498 -12.618 -7.9328 -0.516 -0.3078 -0.976 -0.5828 -1.362 -0.8152 -1.318 -0.79 -1.862 0.558 -0.876 1.348 1.416 1.136 3.084 2.118 4.89 2.886 1.314 0.813 2.336 1.447 3.14 1.9444 2.546 1.5776 2.878 1.7828 3.218 1.9708 0.052 0.028 0.102 0.0558 0.16 0.0874l0.002 0.0004 0.178 0.097 0 0.0004c1.242 0.6818 2.528 1.3878 3.018 2.5356 0.678 1.584 0.488 3.688 -0.464 5.118 -0.862 1.294 -4.534 5.432 -5.898 5.064 -0.234 -0.062 -0.436 -0.286 -0.572 -0.588 -0.264 -1.058 -0.182 -2.212 0.262 -3.356 0.528 -3.158 -0.25 -6.358 -2.11 -8.746 -1.238 -1.8576 -3.036 -3.2038 -4.544 -4.3332 -2.068 -1.548 -3.59 -2.6882 -2.378 -4.1788 0.678 -0.83 -0.242 -1.506 -0.906 -0.932 -1.152 0.994 -1.244 3.042 -0.058 4.228 1.536 1.536 3.09 2.832 4.602 4.092 2.156 1.848 4.512 5.872 3.892 8.516 0 0.7356 -0.196 1.4032 -0.404 2.118l0 0.0002c-0.124 0.4222 -0.252 0.8608 -0.348 1.3398 -0.324 1.622 0.964 3.648 2.778 3.648 1.728 0 3.94 -2.2074 5.164 -3.4298l0.02 -0.0202c2.974 -2.976 4.406 -7.752 1.216 -10.666l-0.002 0.004Zm-15.79 0.738c0.472 -0.206 1.066 0.31 0.976 0.928h-0.002c5.812 2.676 0.97 11.128 -1.888 8.27 -3.566 -3.566 -2.288 -7.776 0.914 -9.198Zm0.278 8.02c-1.67 -1.564 -1.894 -4.322 -0.562 -5.778 1.778 0.334 2.562 4.104 0.562 5.778Z" clip-rule="evenodd" stroke-width="1"></path><path id="arrow" fill="#eab308" fill-rule="evenodd" d="M223.608 92.2248c-1.68 0.4942 -3.366 0.977 -5.054 1.4466 -0.71 -1.916 -1.486 -3.8326 -2.29 -5.749 2.456 1.396 4.906 2.8296 7.344 4.3024Zm-13.576 2.2232 5.13 0.1464c-1.024 0.2726 -2.048 0.54 -3.076 0.8016 -4.722 -0.8926 -10.016 -2.0926 -14.677 -3.1496 -6.452 -1.4628 -11.694 -2.6514 -12.537 -2.3704 -2.288 0.762 -4.066 2.034 -5.592 3.558 3.558 2.794 21.35 9.912 25.926 11.692 -3.812 7.624 -5.846 11.946 -9.15 19.826 0.8924 -0.988 1.752 -1.9376 2.5866 -2.8596l0.0002 -0.0002c5.6632 -6.2564 10.1732 -11.2386 15.9392 -18.2582 9.932 0.6104 17.962 1.112 24.51 1.522 -1.966 2.6526 -3.89 5.347 -5.814 8.0414 -2.222 3.1088 -4.442 6.2176 -6.726 9.2626 -25.624 35.4434 -34.0212 54.3104 -37.5872 62.3232 -1.4778 3.3202 -2.126 4.7768 -2.8268 4.7768 -0.762 0.254 -1.27 -0.254 -1.524 -0.762 -0.9446 -5.1256 -1.055 -10.3296 -1.1654 -15.5254 -0.0974 -4.5944 -0.1948 -9.1826 -0.8686 -13.7046 -0.0252 -0.1692 -0.0512 -0.3696 -0.08 -0.5928 -0.2316 -1.7918 -0.6532 -5.0554 -2.462 -5.5072 -2.2322 0 -10.4412 2.4694 -12.9776 3.2322l-0.0004 0.0002 -0.0002 0 -0.2378 0.0716c-39.342 11.802 -63.394 26.926 -82.606 45.498 -0.0476 0.048 -0.1218 0.064 -0.197 0.08 -0.0204 0.004 -0.0408 0.01 -0.0608 0.014 -0.0116 0.004 -0.023 0.006 -0.0342 0.01 -8.086 8.658 -15.678 18.016 -22.074 27.856 -14.6656 22.484 -20.4502 50.778 -14.336 76.33 4.2166 2.648 8.7772 4.776 13.574 6.274 3.6072 1.126 7.2808 2.01 10.9946 2.634 16.6906 16.56 36.9512 29.526 59.5252 37.64 -2.754 0.274 -5.505 0.492 -8.2478 0.648 -21.858 1.016 -43.77 -3.118 -62.78 -14.742 -6.3126 -3.86 -11.38 -8.1 -16.0104 -14.172 -3.9082 -3.988 -7.8342 -8.612 -11.0896 -13.672 -19.96 -29.838 -30.052 -73.938 -18.652 -108.136 16.32 -48.958 61.072 -78.856 108.532 -99.126 17.6688 -7.0664 27.611 -10.776 33.1118 -12.8286l0.0004 0c2.464 -0.9194 4.0368 -1.5062 5.0138 -1.9134 3.064 -1.02 3.504 -4.474 2.796 -7.624 -1.3126 -5.8318 -3.9178 -10.6008 -7.2162 -16.6392l-0.0002 -0.0002 -0.0008 -0.0012c-0.8776 -1.6066 -1.8042 -3.3032 -2.7688 -5.1334l-0.091 -0.042 -0.091 -0.042 0.084 -0.098 -0.084 -0.156c-0.512 -0.514 0.036 -1.806 1.356 -1.328l0.17 -0.198c0.0346 0.0706 0.0692 0.1372 0.1044 0.2048l0 0.0002 0.0006 0.001 0.0002 0.0006c0.0214 0.041 0.043 0.0826 0.0648 0.1254 3.0998 1.4296 6.367 2.912 9.7688 4.4558l0.0034 0.0016 0.0018 0.0008c14.4012 6.535 31.2164 14.1652 47.982 23.5082l-3.534 8.0456Z" clip-rule="evenodd" stroke-width="1"></path><g id="airplane"><path id="vector" fill="#eab308" d="M256.748 37.008c-1.74 -1.044 -3.256 -1.666 -4.698 -1.902 -3.218 -0.292 -6.04 -0.206 -8.626 0.264 -0.802 0.148 -0.998 1.206 -0.31 1.63 10.688 6.6266 33.054 20.9454 50.886 32.3946l2.448 -0.5424c-17.56 -11.279 -39.922 -25.609 -50.276 -32.0462 1.752 -0.14 3.628 -0.12 5.652 0.062 3.986 0.668 0.548 1.264 44.624 22.318l0.088 0.0416c3.788 1.8108 7.614 3.639 11.464 5.5086L310.552 64c-17.878 -8.7254 -35.72 -16.707 -53.804 -26.992Z" stroke-width="1"></path><path id="vector_2" fill="#eab308" d="M383.65 58.148c-4.058 -2.976 -8.536 -4.994 -13.334 -6.004 -7.502 -1.338 -14.89 -1.252 -21.922 0.254 -10.19 1.878 -19.92 4.644 -29.074 7.65 -18.288 6.006 -88.518 29.206 -100.278 32.5 -1.124 -2.966 -2.366 -5.948 -3.618 -8.872 -0.294 -0.684 -1.304 -0.76 -1.632 -0.006l-4.388 9.994c-12.216 -2.382 -23.094 -5.206 -24.818 -4.634 -2.186 0.728 -4.128 1.962 -5.94 3.774 -0.378 0.378 -0.338 1 0.08 1.328 3.63 2.852 21.05 9.81 25.246 11.464 -3.406 6.828 -5.458 11.182 -8.74 19.008 -0.386 0.918 0.812 1.68 1.48 0.94 7.104 -7.866 11.13 -12.646 17.824 -20.826l41.68 2.562c12.214 1.016 23.986 0.848 39.846 -1.552 0 0 -35.21 58.034 -53.738 87.114 -0.446 0.7 0.23 1.576 1.012 1.328 3.226 -0.992 6.538 -2.472 9.966 -4.486 5.004 -4.172 -1.016 -0.808 38.27 -49.724 10.146 -12.634 20.586 -25.644 30.564 -39.674 14.29 -3.742 27.64 -8.352 39.196 -12.632 8.82 -3.43 18.652 -7.522 26.644 -13.844 1.29 -1.02 2.114 -2.234 2.582 -3.178 1.96 -4.9 -5.38 -11.236 -6.908 -12.484Zm-129.294 25.05c3.624 -1.23 47.218 -15.452 65.52 -21.46 9.102 -2.988 18.742 -5.728 28.868 -7.594 9.026 -1.934 18.72 -1.31 24.822 0.738 -1.524 11.402 -6.27 10.536 -5.93 13.944 0.096 0.966 0.706 1.642 1.18 2.044 -0.828 0.512 -1.66 1.024 -2.468 1.536 -33.602 21.312 -78.082 25.044 -115.408 27.59 -12.008 0.72 -24.558 1.704 -37.24 1.526 -0.296 -0.484 -2.648 -4.506 -2.468 -5.022 0.218 -0.57 0.436 1.184 43.124 -13.302Zm-39.758 3.068c0.952 2.236 1.874 4.502 2.73 6.758 -1.53 0.42 -3.056 0.872 -4.588 1.268 -0.868 -0.178 -0.384 -0.072 -1.54 -0.284l3.398 -7.742ZM185.12 90.728c1.428 -0.284 14.326 2.828 24.428 4.776 -0.688 1.066 -0.162 1.628 0.18 2.348 0.534 1.128 1.096 2.286 1.664 3.324 -5.16 -0.54 -10.126 -1.514 -15.084 -3.166 -4.652 -1.628 -11.452 -4.12 -14.166 -5.792 0.944 -0.636 1.922 -1.136 2.98 -1.49h-0.002Zm13.87 29.612c6.116 -14.014 7.41 -14.582 7.044 -15.536 -0.09 -0.234 -0.274 -0.418 -0.508 -0.508 -5.626 -2.188 -20.216 -8.106 -24.834 -10.972 0.24 -0.21 0.482 -0.396 0.726 -0.584 7.266 4.078 20.06 8.75 30.77 9.794 0.292 0.458 0.58 0.866 0.862 1.198 -5.396 6.592 -9.064 10.98 -14.06 16.606v0.002Zm189.948 -50.434c-0.352 0.704 -1.008 1.678 -2.062 2.51 -7.798 6.174 -17.494 10.2 -26.172 13.574 -10.946 4.054 -23.524 8.4 -36.966 12.022 1.068 -1.52 1.162 -1.648 2.216 -3.194 0.662 -0.974 -0.806 -1.974 -1.47 -1.002 -21.106 30.942 -46.188 57.516 -68.706 90.168 -0.96 1.68 -2.174 3.138 -3.49 4.248 -2.34 1.366 -4.752 2.528 -7.092 3.418 17.938 -28.21 56.644 -92 56.644 -92 0.61 -1.006 -0.91 -1.928 -1.522 -0.922l-3.048 5.018c-16.126 2.556 -28.234 2.818 -40.92 1.762l-41.762 -2.566c-0.092 -0.152 -0.2 -0.322 -0.31 -0.496 10.094 0.594 20.794 0.516 33.14 -0.582 11.27 -0.752 22.912 -1.274 34.072 -2.542 38.452 -4.12 57.906 -11.026 78.63 -20.868 3.774 -1.792 7.36 -3.776 10.53 -6.042l0.648 0.566c2.69 2.698 5.296 -1.184 7.166 -4.072 1.75 -2.704 3.058 -5.58 3.506 -9.746 2.95 2.07 8.276 7.47 6.97 10.742l-0.002 0.004Z" stroke-width="1"></path><path id="vector_3" fill="#eab308" d="M260.126 97.734c-0.376 0 -0.736 -0.212 -0.906 -0.576l-0.89 -1.894c-0.234 -0.5 -0.02 -1.096 0.48 -1.33 0.496 -0.234 1.094 -0.02 1.33 0.48l0.89 1.894c0.312 0.668 -0.18 1.426 -0.904 1.426Z" stroke-width="1"></path><path id="vector_4" fill="#eab308" d="M265.37 97.202c-0.376 0 -0.736 -0.212 -0.906 -0.574l-0.89 -1.894c-0.234 -0.5 -0.02 -1.096 0.48 -1.33 0.496 -0.236 1.094 -0.02 1.33 0.48l0.89 1.894c0.312 0.668 -0.18 1.426 -0.904 1.426v-0.002Z" stroke-width="1"></path><path id="vector_5" fill="#eab308" d="m269.708 96.098 -0.89 -1.894c-0.234 -0.5 -0.02 -1.096 0.48 -1.33 0.498 -0.236 1.096 -0.02 1.33 0.48l0.89 1.894c0.564 1.202 -1.25 2.042 -1.81 0.85Z" stroke-width="1"></path><path id="vector_6" fill="#eab308" d="m274.954 95.566 -0.89 -1.894c-0.234 -0.5 -0.02 -1.096 0.48 -1.33 0.5 -0.236 1.094 -0.02 1.332 0.48l0.89 1.894c0.562 1.198 -1.248 2.042 -1.81 0.85h-0.002Z" stroke-width="1"></path><path id="vector_7" fill="#eab308" d="M281.104 95.61c-0.376 0 -0.736 -0.212 -0.906 -0.574l-0.89 -1.894c-0.234 -0.5 -0.02 -1.096 0.48 -1.33 0.496 -0.234 1.094 -0.02 1.33 0.48l0.89 1.894c0.312 0.668 -0.18 1.426 -0.904 1.426v-0.002Z" stroke-width="1"></path><path id="vector_8" fill="#eab308" d="M309.954 90.23c-0.388 0 -0.756 -0.228 -0.92 -0.606l-1.44 -3.346c-0.218 -0.508 0.016 -1.096 0.524 -1.314 0.508 -0.22 1.096 0.016 1.314 0.524l1.44 3.346c0.284 0.662 -0.206 1.396 -0.918 1.396Z" stroke-width="1"></path><path id="vector_9" fill="#eab308" d="M316.302 88.77c-0.388 0 -0.756 -0.228 -0.92 -0.606l-1.44 -3.346c-0.218 -0.508 0.016 -1.096 0.524 -1.314 0.506 -0.22 1.096 0.016 1.314 0.524l1.44 3.346c0.284 0.662 -0.206 1.396 -0.918 1.396Z" stroke-width="1"></path><path id="vector_10" fill="#eab308" d="m321.732 86.754 -1.44 -3.346c-0.218 -0.508 0.016 -1.096 0.524 -1.314 0.506 -0.22 1.096 0.016 1.314 0.524l1.44 3.346c0.522 1.214 -1.316 2.004 -1.838 0.79Z" stroke-width="1"></path><path id="vector_11" fill="#eab308" d="M329 85.662c-0.388 0 -0.756 -0.228 -0.92 -0.606l-1.44 -3.346c-0.218 -0.508 0.016 -1.096 0.524 -1.314 0.506 -0.22 1.096 0.016 1.314 0.524l1.44 3.346c0.284 0.662 -0.206 1.396 -0.918 1.396Z" stroke-width="1"></path><path id="vector_12" fill="#eab308" d="M335.35 83.764c-0.388 0 -0.756 -0.226 -0.92 -0.604l-1.44 -3.346c-0.218 -0.508 0.016 -1.096 0.524 -1.314 0.504 -0.218 1.094 0.014 1.314 0.522l1.44 3.346c0.284 0.664 -0.208 1.396 -0.918 1.396Z" stroke-width="1"></path><path id="vector_13" fill="#eab308" d="M341.7 82c-0.388 0 -0.756 -0.228 -0.92 -0.606l-1.44 -3.346c-0.218 -0.508 0.016 -1.096 0.524 -1.314 0.508 -0.22 1.096 0.016 1.314 0.524l1.44 3.346c0.284 0.662 -0.206 1.396 -0.918 1.396Z" stroke-width="1"></path><path id="vector_14" fill="#eab308" d="M348.048 79.692c-0.388 0 -0.756 -0.226 -0.92 -0.606l-1.44 -3.346c-0.218 -0.508 0.016 -1.096 0.524 -1.314 0.506 -0.218 1.096 0.016 1.314 0.524l1.44 3.346c0.284 0.662 -0.206 1.396 -0.918 1.396Z" stroke-width="1"></path></g></g></svg>