<svg xmlns="http://www.w3.org/2000/svg" viewBox="0 0 400 400" id="Artificial-Intelligence-1--Streamline-Milano.svg" height="400" width="400"><desc>Artificial Intelligence 1 Streamline Illustration: https://streamlinehq.com</desc><g fill="#eab308" fill-rule="evenodd"><path d="M190.9 120.36c4.36 2 4.6 2.9 5.06 2.28a0.42 0.42 0 0 0 0 -0.6c-9.28 -7.66 -23.38 -10 -39.48 -1.46a0.42 0.42 0 0 0 0.34 0.78c11.18 -4.34 23.18 -5.86 34.08 -1zm50.72 13.22c0 -10.14 -12.68 -15.02 -20.34 -7.04 -4.16 4.38 -2.48 12.22 2 16 7.78 6.76 18.86 -0.72 18.34 -8.96zm-17.06 7.4c-3.44 -3.02 -5.02 -9.54 -1.76 -13 6.28 -6.74 17.38 -3.22 18 5.64 -0.08 7.06 -9.9 13 -16.24 7.36zm17.94 185.96c-2.8 -4 -10 -1.7 -9.08 3.62a5.4 5.4 0 0 0 4 4.46 5.04 5.04 0 0 0 6 -5.14 4.6 4.6 0 0 0 -0.92 -2.94zm24.66 -5.52a5 5 0 0 0 -8.84 -3.24 5.3 5.3 0 0 0 0.8 7.3 4.94 4.94 0 0 0 8.04 -4.06zm17.64 -17.64a5 5 0 0 0 -8.84 -3.24 5.28 5.28 0 0 0 0.8 7.3 4.94 4.94 0 0 0 8.04 -4.06zm9.2 -18.12a5 5 0 0 0 -8.84 -3.22 5.28 5.28 0 0 0 0.8 7.3 4.94 4.94 0 0 0 8.04 -4.08zm28 58.16a5 5 0 0 0 -8.84 -3.24 5.28 5.28 0 0 0 4 8.46c0 1.26 0.12 9.26 0 9.64 -1.32 0 -3.82 0 -6.32 0.26a53.68 53.68 0 0 0 -7.6 0.94 0.46 0.46 0 0 0 0 0.48c0.16 0.42 0.38 0.16 2.34 0.34 1.4 0.12 4 0.26 8.34 0.2 0.64 0 3.88 0 4.5 -0.16a1.06 1.06 0 0 0 0.94 -1 43.62 43.62 0 0 0 -1.26 -10.8 5.08 5.08 0 0 0 3.9 -5.12zm-18 16.74zm55.34 -0.56a5 5 0 0 0 -8.84 -3.24 5.26 5.26 0 0 0 4 8.46 20.88 20.88 0 0 0 -0.16 2.2 24.22 24.22 0 0 0 0.18 2.96 40.14 40.14 0 0 0 1.2 7.04 0.42 0.42 0 0 0 0.84 0 16.6 16.6 0 0 0 0.4 -3.76 32.4 32.4 0 0 0 -0.92 -6.46c-0.2 -0.7 -0.52 -2 -0.54 -2.12a5.06 5.06 0 0 0 3.84 -5.08z" stroke-width="1"></path><path d="M253.74 133.32c-0.6 -21.18 -26.98 -29.36 -42.2 -13.88 -8.44 8.64 -4.82 24.22 4 31.68 15.7 13.16 38.7 -0.84 38.2 -17.8zm-26 20.96c-16.84 -1.88 -24 -23.8 -14.68 -33.38 14.56 -15.02 39.3 -6 39.86 12.44 0.32 11.54 -12.64 22.34 -25.2 20.94zM180.62 130.74a5 5 0 0 0 -9.6 2.72v5.64a5.02 5.02 0 0 0 8.44 3.68c3.2 -2.94 1.18 -11.96 1.16 -12.04z" stroke-width="1"></path><path d="M227.08 128a1.02 1.02 0 0 0 -0.56 0.8c0 0.84 0.6 0.84 1.24 1.72a2.12 2.12 0 0 1 0.12 2.84 3.34 3.34 0 0 1 -2.42 1.24c-0.6 0 -0.72 -0.14 -0.94 0a0.42 0.42 0 0 0 -0.1 0.4c0.92 5 6.66 6.54 10.38 2.54 4.68 -5.04 -1.82 -12.66 -7.72 -9.54z" stroke-width="1"></path><path d="M366.9 379.74a229.56 229.56 0 0 0 -12 -50c-6.14 -15.78 -10.78 -20.7 -20.48 -29.36a133.86 133.86 0 0 0 -25.12 -17.54 151.18 151.18 0 0 0 -33.74 -13.26 134.82 134.82 0 0 0 -21.72 -4L237.48 230c12.52 -12.32 24.64 -30.22 30.22 -47.2 4 -12 8.5 -44.28 10 -56.74a268 268 0 0 0 0.62 -40.6C276 59.28 267.08 42.66 252 33.84c-10.92 -6.42 -31.84 -10.8 -51.06 -8.2h-0.18c-2.34 -7.02 -8 -11.26 -14.74 -13.52 -11 -3.66 -25.26 -2.12 -33.48 0.96C146 15.56 134 24.82 130.48 31.4a58.74 58.74 0 0 1 -6 10.32c-1.46 1.62 -8.78 3.26 -11.1 4.3a52.52 52.52 0 0 0 -14.9 9.42c-8.62 8.1 -12.7 22.18 -14.2 34 -0.36 2.96 1.3 13.2 0.84 14.2 -1.26 2.88 -4.98 4.88 -6.84 7.68 -4 6 -10.66 24.18 -11.72 31.42 -1.88 12.64 2.8 24.94 1 37.08a137.84 137.84 0 0 1 -4.24 20c-3.76 12.28 -7.16 14 -8.12 21.54 -0.4 3.08 0 6.96 2.82 8.24 0.88 0.4 1.9 0.5 2.78 0.82 15.48 5.82 17.2 -5.34 28.9 -3.14 4.2 0.78 6.56 3.52 9.52 6.2 14.2 12.84 21.84 -5.38 30.3 -8.58 5.16 -2 8.88 6.5 13.9 8.4 7.04 2.66 12.32 -4.74 18 -6 4.52 -1.04 10.86 0.56 15.24 2.18 0.2 0.1 0 0 2 0.8 -4 8 -11.18 27.06 -14.28 35.38a178.14 178.14 0 0 0 -47.12 13.32c-46.4 20 -76.96 54.84 -84.26 105.5a0.42 0.42 0 1 0 0.84 0.12c7.12 -44.44 34 -80 78.78 -101.2 4.28 5.48 47.66 58 48.86 59.66 -3.08 2.66 -19.28 9.6 -23.68 14 -0.72 0.74 -1.06 0.12 22 28.76a0.44 0.44 0 0 0 0.6 0c0.64 -0.5 -4.32 -0.28 32 -0.86a0.9 0.9 0 0 0 0 0.22 0.42 0.42 0 0 0 0.78 -0.32C188.72 364 180.62 336.66 174 316.2a50.7 50.7 0 0 0 17.36 5.36c4.68 0.46 12.8 -20.52 14.4 -24.78 0.16 6.46 0.3 12.72 0.46 18.74 -0.48 0.6 0.92 54.1 2.16 74a0.44 0.44 0 0 0 0.86 0c0 -4 0 -11.82 -0.16 -22.64 2.68 -0.2 33.88 -1.82 37.7 -1.14 0.3 1.44 2.14 16 2.38 20.98a0.44 0.44 0 0 0 0.86 0c0 -4 0 -16.54 -1.34 -21.5 -0.24 -0.98 -0.62 -1.3 -1.28 -1.46 -2.3 -0.62 -13.04 0 -15.46 0a222 222 0 0 0 -22.9 2.24v-8.76c7.3 -1.04 40 -4 46 -2.72 1.28 3.84 3.08 25.34 3.4 32.46a0.42 0.42 0 1 0 0.84 0c0 -7.64 -0.78 -26.48 -2.16 -32.48 -0.22 -0.94 -0.42 -1.48 -1.16 -1.8 -2 -0.9 -12.2 -0.44 -14.52 -0.34 -9.54 0.42 -23.7 1.56 -32.96 2.96 -0.26 -20 -0.34 -18 0 -17.68A5.02 5.02 0 1 0 208 330c0 -4.12 -0.12 -8.44 -0.18 -12.9 16.14 -0.44 36.48 -5.2 49.74 -15.7a41.88 41.88 0 0 0 16.44 -29.96 238.22 238.22 0 0 1 34.44 13.42c-6.9 8.18 -7.56 28 -7.42 38.78 0.3 20.22 0.7 39.56 2.34 59.78a0.42 0.42 0 0 0 0.84 0c-0.24 -3.78 -0.44 -7.54 -0.6 -11.32a56.4 56.4 0 0 0 16 -0.46 6 6 0 0 0 1.7 2.72 4.92 4.92 0 0 0 8 -4 4.8 4.8 0 0 0 -6.34 -4.74 4.68 4.68 0 0 0 -3.6 5.06c-1.08 -0.16 -2.42 -0.32 -3.52 -0.38a77.5 77.5 0 0 0 -8.4 0.3c-1.48 0.16 -3.12 0.5 -4 0.66 -0.66 -15.8 -0.76 -31.74 -0.76 -47.5 0 -10 0.78 -31.24 8 -38.16a132.46 132.46 0 0 1 22.74 16c5.7 5.02 9.22 8 13.3 14.44a65.82 65.82 0 0 0 -10.42 -0.5 70 70 0 0 0 -10 0.56h-0.98a4.6 4.6 0 0 0 -0.8 -2c-2.78 -4 -10 -1.72 -9.06 3.62a5.4 5.4 0 0 0 4 4.46 5.06 5.06 0 0 0 5.9 -5.14 71.56 71.56 0 0 0 13.58 0.52 64.92 64.92 0 0 0 8.4 -0.66 84 84 0 0 1 5.16 10.22c-2.38 -0.14 -13.6 -0.68 -15.46 0.8a1.6 1.6 0 0 0 -0.52 0.9c-0.6 2.76 1.12 13.72 1.3 15.32 -6.28 0.94 -5.14 9.08 -0.3 10a5.06 5.06 0 0 0 6 -5.14 4.74 4.74 0 0 0 -4.64 -4.96c0.22 -5.48 -0.26 -10.92 -0.26 -13.42v-1.12c0 -0.06 0 0 0.32 0 1.88 -0.44 5.02 -0.48 14 -1.38 6.42 15.32 10.98 35.5 13.22 51.78a0.42 0.42 0 1 0 0.74 -0.16zm-120.52 -198.56a22 22 0 0 1 21.38 -6.48 102.96 102.96 0 0 1 -16.64 35.8c-8.66 -6.66 -11.98 -21.66 -4.74 -29.32zm21.8 -8.56a23.8 23.8 0 0 0 -23.3 7.16c-8 8.68 -4.12 24.62 5.72 31.46 -2 2.82 -4 5.38 -5.8 7.62 -13.08 -10 -18.36 -32.52 -7.16 -44.26 8 -8.4 20.7 -13 32.12 -10 -0.5 2.56 -1.02 5.26 -1.58 8.02zm0.26 -33.68a16.4 16.4 0 0 0 -4.74 -0.5v-6a21.02 21.02 0 0 0 4.6 -0.76 0.44 0.44 0 0 0 0 -0.86 15.56 15.56 0 0 0 -4.6 -0.5V121.8a20.62 20.62 0 0 0 4.66 -0.76 0.44 0.44 0 0 0 0 -0.86 15.76 15.76 0 0 0 -4.62 -0.5 49.22 49.22 0 0 1 0.54 -6.94 90.82 90.82 0 0 1 12 -0.62c0.28 7.86 -2.42 27.88 -3.62 35.72 -1.48 0 -7.08 -0.14 -8.52 -0.42 -0.24 -1.2 -0.34 -5.54 -0.36 -6.76a19.4 19.4 0 0 0 4.7 -0.76 0.44 0.44 0 0 0 -0.04 -0.96zm-63 -111.66a152.4 152.4 0 0 0 0.66 26.46 8 8 0 0 0 -3.38 1.36c-0.26 -14.66 -0.44 -24.52 -0.5 -27.5 1.06 -0.12 2.14 -0.24 3.22 -0.32zM166 266.72c2.66 -7.44 10.68 -29.72 14.16 -36.84 1.26 -2.58 -7.82 -1.08 -20.34 -18a106.78 106.78 0 0 1 -16 -34.34l-0.6 -0.62s-10.8 -3.34 -16.68 -12.14a22.96 22.96 0 0 1 -2.52 -20 7.16 7.16 0 0 1 5.64 -5.78 15.06 15.06 0 0 1 8.58 1.76 0.72 0.72 0 0 0 0.94 -0.2 63.62 63.62 0 0 0 12.32 -38.8c9.74 -2.28 27.74 -8.42 30.34 -18.14 2 0.4 6.86 3.5 11.12 2.82a11.08 11.08 0 0 0 8.12 -6.44c0.34 17.02 0.72 37.1 1.16 58.74 -2.32 10.46 -5.3 27.04 -3.56 37.6 0.34 2 2.36 2.96 4.4 3.38 0.16 8 0.34 16 0.52 24.12a25.42 25.42 0 0 1 -12.3 -6c-2.24 -2.22 -2 -3.2 -2.7 -2.88a0.44 0.44 0 0 0 -0.2 0.58c2.48 6 8.9 9.24 15.24 10.46 0.26 11.88 1.52 67.74 1.88 82.72 -4.92 -2.54 -30.42 -14.38 -40.16 -21.44a0.84 0.84 0 0 0 0.64 -0.56zm26.46 52c-0.12 0.12 -0.72 0.68 -0.88 0.66a50.42 50.42 0 0 1 -18.5 -6.12c-4.68 -14.16 -10.56 -30.88 -16.22 -44.6 3.42 -0.7 6 -1.08 7.28 -1.28 10.5 8.44 41.46 23.08 41.48 23.52 -1.34 5.22 -9.08 23.76 -13.2 27.9zm64 -19.12c-12.78 10.14 -33.06 15.04 -48.88 15.46 -0.24 -12.28 -1.22 -66.52 -2 -108.86a31.56 31.56 0 0 0 15.64 -1.82 0.42 0.42 0 0 0 0.28 -0.54c-0.18 -0.64 -0.42 0 -4.88 0.4a45.02 45.02 0 0 1 -11.08 -0.18c-0.14 -8 -0.3 -16.2 -0.44 -24.22a28.76 28.76 0 0 0 13.86 -2.78 0.42 0.42 0 1 0 -0.36 -0.76c-5.88 2.58 -17.34 2.46 -17.76 -0.4a58.5 58.5 0 0 1 -0.22 -12.44c0.64 -9.68 3.62 -28.76 3.66 -28.98 -0.48 -26 -0.9 -49.5 -1.24 -68a7.3 7.3 0 0 0 11.56 -6 7 7 0 0 0 -7.4 -7.04 82.5 82.5 0 0 0 0.36 -8.72c0 -2 -0.18 -8 -0.4 -10.84s-0.74 -6.74 -0.76 -6.86a93.32 93.32 0 0 1 14.76 0.16c0 16.82 0.76 25.82 0.94 33.7 0 1.06 1.04 1.16 2 1.18 2.36 0 6.3 -0.14 8.76 0.18 0.36 2.22 0.8 10.24 0.92 12.58a8.54 8.54 0 0 0 -5.46 2.48c-2.74 2.82 -1.7 7.84 1.22 10.3a7.28 7.28 0 0 0 11.8 -5.76 6.9 6.9 0 0 0 -6.62 -7c0 -2.94 0.24 -9.74 0 -12.46 0 -0.72 0 -1.32 -0.58 -1.66 -1.42 -1 -8 -0.64 -10 -0.78 -0.38 -12.46 -1.32 -23.38 -2.12 -32.68a85.2 85.2 0 0 1 23.16 5.36 126 126 0 0 0 0.3 18c0.16 1.72 0.46 3.86 0.76 5.76a8.38 8.38 0 0 0 -5.18 2.46c-2.76 2.82 -1.7 7.82 1.22 10.28a7.28 7.28 0 0 0 11.8 -5.74 6.94 6.94 0 0 0 -6.9 -7.04 121.5 121.5 0 0 0 -0.94 -23.28 42.44 42.44 0 0 1 19 16c-0.38 7.62 -0.44 5.5 -0.54 16.26 -7.76 0 -6.54 -2 -5.22 11.72a8.22 8.22 0 0 0 -5.04 2.46c-2.74 2.78 -1.74 7.78 1.2 10.28a6.86 6.86 0 0 0 7.88 0.74 7.12 7.12 0 0 0 -3.1 -13.52c0.16 -3.36 0 -7.18 0.12 -9.68 4.16 0 6.28 0.66 6.28 -0.98 0 -6 0 -9.5 -0.42 -15.44 9.82 16.4 11 39.7 10.2 58.82 -2.14 0 -11.34 0 -13.28 0.8a1.5 1.5 0 0 0 -0.7 0.56c-0.76 1.12 -0.84 6.98 -0.86 8.38a23.28 23.28 0 0 0 -4.74 0.68 0.44 0.44 0 0 0 0 0.86 15.74 15.74 0 0 0 4.72 0.56v8.52a23.14 23.14 0 0 0 -4.84 0.7 0.44 0.44 0 0 0 0 0.86 16.42 16.42 0 0 0 4.9 0.56c0 2 0.22 6 0.22 6a22.8 22.8 0 0 0 -4.94 0.7 0.44 0.44 0 0 0 0 0.86 16.26 16.26 0 0 0 5.06 0.56c0.14 2.32 0.3 4.28 0.44 5.58 0.12 0.96 0.2 2.14 0.86 2.34a63 63 0 0 0 9.12 0q-1.06 6.68 -2.34 13.76c-12.28 -3.04 -25.58 1.88 -34 10.8 -12 12.7 -6.2 36.16 8 46.34 -8.12 9.86 -9.4 9.36 -8.84 10.6l16.92 36.82a0.9 0.9 0 0 0 0.78 0.54 117.06 117.06 0 0 1 18.8 3.04 40 40 0 0 1 -15.56 29.54z" stroke-width="1"></path></g></svg>