<svg width="500" height="504" viewBox="0 0 500 504" fill="none" xmlns="http://www.w3.org/2000/svg">
<path d="M323.733 0.933264C319.467 1.19993 316 1.99993 316 2.6666C316 3.33326 317.6 6.53326 319.467 9.73326C322.8 15.1999 323.333 15.4666 329.333 15.4666C336.667 15.4666 345.6 20.1333 351.333 26.9333C356.133 32.5333 361.333 43.5999 361.333 48.1333C361.333 50.6666 362.133 51.8666 364.4 52.3999C366 52.7999 370.8 54.3999 375.2 55.8666C379.467 57.4666 383.733 58.6666 384.667 58.3999C385.867 58.1333 383.867 53.7333 379.067 45.3333C375.067 38.3999 371.467 32.3999 371.2 32.1333C370.933 31.8666 369.733 32.3999 368.533 33.4666C366.4 35.1999 366.4 35.0666 368 32.5333C369.467 29.9999 368.8 28.1333 361.867 14.9333L354 -6.97591e-05L342.667 0.266597C336.4 0.39993 327.867 0.666597 323.733 0.933264ZM364.933 41.5999C364.533 42.6666 364.133 42.2666 364.133 40.7999C364 39.3333 364.4 38.5333 364.8 39.0666C365.2 39.4666 365.333 40.6666 364.933 41.5999Z" fill="#CA8A04"/>
<path d="M402.667 3.99988C402.667 5.86655 408.933 9.73321 410.933 8.93321C412 8.39988 411.733 8.13321 410.4 8.13321C409.067 7.99988 406.8 6.79988 405.333 5.33321C403.867 3.86655 402.667 3.19988 402.667 3.99988Z" fill="#CA8A04"/>
<path d="M248.133 11.4666C248.133 12.9332 248.533 13.3332 248.933 12.2666C249.333 11.3332 249.2 10.1332 248.8 9.73323C248.4 9.19989 248 9.99989 248.133 11.4666Z" fill="#CA8A04"/>
<path d="M251.467 20.7999C252.4 25.5999 250.133 27.9999 242.933 29.4666C238.133 30.3999 238.133 30.3999 242.133 30.5332C246.933 30.6666 253.333 26.2666 253.333 22.9332C253.333 21.7332 252.667 19.7332 252 18.6666C251.067 17.1999 250.933 17.8666 251.467 20.7999Z" fill="#CA8A04"/>
<path d="M319.2 21.8666C315.733 25.3332 314.667 27.4666 314.933 30.7999L315.067 35.3332L315.6 30.9332C316.133 27.3332 316.667 26.6666 319.6 26.6666C329.6 26.6666 344 45.0666 344 57.9999C344 61.4666 343.467 62.6666 341.733 62.7999C340.267 62.7999 340 63.1999 341.067 63.5999C342 63.8666 345.333 62.6666 348.667 60.6666C361.467 53.1999 361.867 41.3332 349.867 27.9999C343.6 21.0666 336.4 17.3332 329.2 17.3332C324.8 17.3332 322.933 18.1332 319.2 21.8666Z" fill="#CA8A04"/>
<path d="M135.333 23.9999C134.4 25.0666 129.333 34.6666 124 45.1999L114.4 64.3999L116.667 68.5333C121.733 77.8666 114.267 82.2666 108.4 73.4666C104.667 67.8666 104.4 69.7333 108 75.7333C110.133 79.1999 111.467 80.1333 114.267 79.7333C119.467 79.0666 121.733 74.9333 119.467 70.3999L117.6 66.7999L123.733 65.9999C135.067 64.3999 135.333 64.2666 131.867 60.5333L128.933 57.4666L132.4 52.7999C134.667 49.8666 140.533 45.8666 149.333 41.4666C156.667 37.5999 162.667 34.7999 162.667 35.1999C162.667 35.4666 157.467 38.5333 151.067 41.9999C139.733 47.9999 132 53.8666 132 56.2666C132 58.9333 140.667 67.9999 143.067 67.9999C149.467 67.9999 171.2 53.8666 174.667 47.4666C176.133 44.6666 176 43.5999 173.733 39.7333C172 36.7999 169.867 35.0666 167.2 34.6666C163.867 33.9999 163.733 33.7333 165.867 32.9333C167.467 32.2666 169.2 32.6666 170.667 33.9999C171.867 35.0666 173.333 35.9999 173.733 35.9999C175.6 35.9999 181.733 25.1999 180.533 24.1333C179.867 23.4666 169.867 22.6666 158.267 22.3999C140.8 22.1333 136.8 22.3999 135.333 23.9999Z" fill="#CA8A04"/>
<path d="M65.4667 30.1332C65.4667 31.5999 65.8667 31.9999 66.2667 30.9332C66.6667 29.9999 66.5334 28.7999 66.1334 28.3999C65.7334 27.8666 65.3334 28.6666 65.4667 30.1332Z" fill="#CA8A04"/>
<path d="M252.933 42.2666C252.533 42.9332 252.667 44.2666 253.333 45.1999C254.667 47.4666 259.067 45.9999 258.4 43.5999C257.6 41.5999 253.867 40.6666 252.933 42.2666Z" fill="#CA8A04"/>
<path d="M321.067 45.9999C321.867 47.4665 325.6 51.5999 329.467 55.3332L336.533 61.9999L328.667 53.3332C324.4 48.5332 320.533 44.3999 320.267 43.9999C319.867 43.5999 320.267 44.5332 321.067 45.9999Z" fill="#CA8A04"/>
<path d="M364.267 55.3333C364.133 56.7999 364.667 59.1999 365.2 60.6666C365.733 62.1333 365.733 65.3333 365.2 67.8666C364.667 70.2666 364.667 73.5999 365.2 75.0666C366.133 77.4666 366.4 77.3333 368 73.4666C368.933 71.1999 370.267 68.9333 370.933 68.5333C371.6 67.9999 371.2 69.5999 370 71.9999C368.8 74.2666 368.133 76.9333 368.533 77.7333C368.933 78.7999 369.2 78.7999 369.2 77.5999C369.333 76.6666 369.867 76.1333 370.533 76.5333C371.2 77.0666 371.467 75.9999 371.067 74.3999C370.533 71.9999 370.667 71.7333 371.867 73.3333C372.933 74.9333 373.2 74.5333 372.8 71.5999C372.667 69.5999 371.2 66.6666 369.6 64.9333C368.133 63.3333 366.267 59.8666 365.6 57.3333C364.8 54.7999 364.267 53.8666 364.267 55.3333Z" fill="#CA8A04"/>
<path d="M211.2 58.7999C209.867 61.0665 212.933 63.5999 214.8 61.7332C216.4 60.1332 215.333 57.3332 213.333 57.3332C212.667 57.3332 211.733 57.9999 211.2 58.7999Z" fill="#CA8A04"/>
<path d="M98 60.3999C100.667 62.3999 100.667 62.5332 97.3333 63.9999C94.4 65.1999 94.2666 65.3332 97.0666 64.7999C98.6666 64.5332 100 64.6665 100 65.3332C100 65.8665 101.2 66.6665 102.667 67.0665L105.467 67.7332L102.8 63.5999C101.333 61.1999 99.0666 59.0665 97.7333 58.9332C95.6 58.5332 95.6 58.6665 98 60.3999Z" fill="#CA8A04"/>
<path d="M37.7333 64.7999C42.2667 69.8666 42.2667 71.4666 37.3333 73.9999C34.2667 75.5999 33.3333 76.9332 33.4667 79.7332C33.7333 83.0666 33.7333 83.0666 34.2667 80.2666C34.6667 78.5332 36.6667 76.1332 38.8 74.9332C43.7333 71.9999 43.7333 69.4666 38.4 64.5332L34 60.6666L37.7333 64.7999Z" fill="#CA8A04"/>
<path d="M429.333 66.2666C430.4 66.7999 437.6 73.7332 445.333 81.7332C458 94.9332 459.733 96.2666 462 94.7999C464.533 93.1999 464.533 93.1999 461.867 93.9999C459.467 94.6666 456.4 91.9999 445.067 79.9999C437.467 71.9999 430.267 65.3332 429.2 65.4666C427.733 65.4666 427.733 65.7332 429.333 66.2666Z" fill="#CA8A04"/>
<path d="M420 71.3332C418.267 73.1999 417.067 74.9332 417.467 75.1999C417.733 75.4665 419.333 73.8665 421.067 71.8665C424.933 67.0665 424.267 66.7999 420 71.3332Z" fill="#CA8A04"/>
<path d="M416.267 79.9999C416.267 81.8666 416.533 82.5332 416.933 81.5999C417.2 80.7999 417.2 79.1999 416.933 78.2666C416.533 77.4666 416.267 78.1332 416.267 79.9999Z" fill="#CA8A04"/>
<path d="M427.867 86.2666C426.133 88.3999 426.267 88.5332 428.4 86.7999C429.6 85.8666 430.667 84.7999 430.667 84.5332C430.667 83.4666 429.6 84.1332 427.867 86.2666Z" fill="#CA8A04"/>
<path d="M422.4 88.9332C423.333 89.3332 424.533 89.1999 424.933 88.7999C425.467 88.3999 424.667 87.9999 423.2 88.1332C421.733 88.1332 421.333 88.5332 422.4 88.9332Z" fill="#CA8A04"/>
<path d="M202.8 91.4666C203.6 92.3999 204.8 92.9332 205.467 92.5332C206.133 92.1332 206.667 92.5332 206.667 93.1999C206.667 93.9999 207.333 94.6666 208.133 94.6666C210.533 94.6666 207.067 91.0666 203.867 90.2666C201.733 89.7332 201.467 89.8666 202.8 91.4666Z" fill="#CA8A04"/>
<path d="M140 96.3999C141.067 97.3332 142.8 98.9332 143.867 99.9999C145.333 101.733 145.467 101.6 144.267 99.1999C143.333 97.5999 141.733 95.9999 140.4 95.4666C138.267 94.7999 138.267 94.9332 140 96.3999Z" fill="#CA8A04"/>
<path d="M200 96.6666C200 98.5332 199.6 98.6666 198.133 97.4666C196.667 96.2666 196 96.2666 195.2 97.5999C194.667 98.5332 194.667 98.9332 195.333 98.3999C195.867 97.8666 197.2 97.9999 198.133 98.7999C199.6 99.9999 200.133 99.7332 200.8 98.1332C201.333 96.9332 201.333 95.4666 200.8 95.0666C200.4 94.5332 200 95.3332 200 96.6666Z" fill="#CA8A04"/>
<path d="M268.933 96.9333C267.733 98.1333 267.867 102.933 269.067 104.933C269.733 105.867 270.133 104.4 270 101.333C270 98.3999 270 95.9999 269.867 95.9999C269.867 95.9999 269.333 96.3999 268.933 96.9333Z" fill="#CA8A04"/>
<path d="M458.533 101.733C458 105.6 458.4 107.2 460.533 109.067C462 110.4 462.667 110.533 462 109.467C461.2 108 461.6 107.733 464.267 108.4C466.667 109.067 468.267 108.667 469.467 106.933C470.933 105.067 470.933 104.933 469.333 106.267C466.4 108.933 465.067 108.267 466.667 105.2C467.6 103.733 467.867 102.133 467.6 101.733C467.2 101.467 466.533 102.4 466 104C464.667 108.4 460.8 106.667 460 101.333L459.2 96.6666L458.533 101.733Z" fill="#CA8A04"/>
<path d="M208.133 100.8C208.133 102.267 207.067 106.667 206 110.4L203.867 117.333L198.533 114.533C195.467 113.067 192.933 112 192.667 112.267C192.4 112.533 196.533 114.933 201.733 117.733C207.067 120.533 210 121.733 208.267 120.267C205.067 117.867 205.067 117.867 207.333 110.267C208.533 106.133 209.2 101.6 208.933 100.267C208.4 98.3999 208.267 98.5332 208.133 100.8Z" fill="#CA8A04"/>
<path d="M262.667 100.933C262.667 102.267 263.2 102.8 263.733 102C264.267 101.2 265.2 100.267 265.867 99.5999C266.533 99.0666 266.133 98.6666 264.933 98.6666C263.6 98.6666 262.667 99.7332 262.667 100.933Z" fill="#CA8A04"/>
<path d="M470.933 101.333C470.933 103.2 471.2 103.867 471.6 102.933C471.867 102.133 471.867 100.533 471.6 99.5999C471.2 98.7999 470.933 99.4665 470.933 101.333Z" fill="#CA8A04"/>
<path d="M363.467 103.6C363.067 104.133 360.4 104.4 357.6 104.267C354.133 104 351.733 104.8 349.733 106.667C348.133 108.133 345.6 109.333 344.133 109.333C342.533 109.333 340.667 110.533 339.733 112C338.8 113.467 336.667 114.667 335.067 114.667C333.333 114.667 332 115.2 332 115.867C332 116.533 330.8 117.333 329.333 117.733C327.467 118.133 326.667 119.6 326.667 121.867C326.667 123.733 326.133 125.333 325.333 125.333C323.467 125.333 323.6 130.267 325.467 131.467C326.533 132.133 326.533 132.667 325.333 133.333C324.533 133.867 323.733 135.2 323.467 136.267C323.333 137.467 322.533 139.333 321.6 140.4C320.267 141.867 320.533 142.933 322.4 145.467C323.867 147.2 324.667 149.467 324.267 150.533C323.867 151.6 324.667 153.2 325.867 154.133C327.6 155.333 327.867 156.4 326.933 158.267C325.6 160.933 326.267 164 328.267 164C328.933 164 331.467 166.133 333.867 168.667C338.133 173.067 341.2 174.4 343.067 172.533C343.467 172 343.067 170.8 342 169.733C337.6 165.467 341.2 141.6 346.667 138.667C350.667 136.533 356.933 137.067 364.133 140.133C370.133 142.8 370.667 143.333 370.667 147.467C370.667 151.067 371.2 152 373.333 152C374.667 152 376.4 153.067 377.067 154.267C378.4 156.933 376.933 162.667 374.8 162.667C373.467 162.667 370 175.733 371.067 176.933C371.467 177.333 375.467 176.4 380 174.933C388.533 172 396.8 165.2 395.6 162.133C395.2 161.067 396 159.2 397.467 157.867C398.933 156.533 400 153.867 400 151.467C400 149.2 400 145.867 400 144C400 142.133 400 138.933 400 136.8C400 134.667 399.067 131.867 397.867 130.533C396.667 129.2 396 127.2 396.4 126.133C396.933 124.933 396 123.2 394.4 122.133C392.8 120.933 391.333 119.067 391.2 117.733C390.933 116.4 390.133 115.2 389.467 114.933C388.667 114.667 388 113.333 388 111.867C388 109.867 387.067 109.333 383.333 109.333C380.133 109.333 378.667 108.667 378.667 107.467C378.667 104.667 376.4 103.733 373.6 105.2C371.733 106.133 370.4 106 368.533 104.667C365.6 102.533 364.8 102.267 363.467 103.6Z" fill="#CA8A04"/>
<path d="M260 104.533C260 104.8 260.933 105.467 262.133 105.867C263.2 106.267 263.733 106.133 263.333 105.333C262.533 104 260 103.467 260 104.533Z" fill="#CA8A04"/>
<path d="M278.667 104.533C278.667 104.8 279.6 105.467 280.8 105.867C281.867 106.267 282.4 106.133 282 105.333C281.2 104 278.667 103.467 278.667 104.533Z" fill="#CA8A04"/>
<path d="M481.333 110C481.333 110.8 497.467 121.6 498 121.067C498.267 120.933 494.533 118.133 489.867 114.933C485.2 111.867 481.333 109.6 481.333 110Z" fill="#CA8A04"/>
<path d="M51.4667 112.667C51.0667 113.867 51.6 115.067 52.8 115.6C55.3333 116.533 56.5333 115.333 55.6 112.667C54.5333 110.133 52.5333 110.133 51.4667 112.667Z" fill="#CA8A04"/>
<path d="M278.933 115.333C278.933 117.467 279.2 118.267 279.6 116.933C279.867 115.733 279.867 113.867 279.6 112.933C279.2 112.133 278.933 113.067 278.933 115.333Z" fill="#CA8A04"/>
<path d="M438.933 115.067C437.333 116.933 434.4 124 435.2 124C435.467 124 436.933 121.6 438.4 118.667C441.067 113.067 441.2 112.267 438.933 115.067Z" fill="#CA8A04"/>
<path d="M474 122.667C478.4 127.067 482.267 130.667 482.533 130.667C482.933 130.667 479.733 127.067 475.333 122.667C470.933 118.267 467.067 114.667 466.8 114.667C466.4 114.667 469.6 118.267 474 122.667Z" fill="#CA8A04"/>
<path d="M450.133 118.4C449.733 119.067 455.333 123.6 462.667 128.533C476.933 138 480.4 139.467 469.2 131.333C464.667 128 462.8 125.733 463.333 124.267C463.867 122.8 463.6 122.667 462.267 123.733C460.4 125.333 455.733 123.067 452.4 119.067C451.6 118 450.533 117.733 450.133 118.4Z" fill="#CA8A04"/>
<path d="M183.467 130.533C178 147.467 166.667 177.6 164.533 180.933C163.067 183.333 162.933 184 164.267 184C167.6 184 176.133 192.267 179.333 198.667C181.067 202.133 183.6 209.067 184.8 214.133C186.267 219.867 188.4 224.4 190.533 226.667C192.4 228.533 193.067 228.933 191.867 227.333C190.667 225.867 189.333 224 188.8 223.067C188.4 222.267 191.333 214.533 195.467 205.733C205.6 184 214.267 161.867 217.867 148.133L220.8 136.533L204 127.733L187.067 118.933L183.467 130.533Z" fill="#CA8A04"/>
<path d="M282.667 119.6C281.6 120.133 278.8 121.867 276.533 123.6C274.267 125.2 272 126.667 271.6 126.667C271.2 126.667 268.267 129.2 265.067 132.267C259.867 137.2 259.733 137.467 264 134.4C266.533 132.533 272 128.8 276 126C286.267 118.8 287.333 117.867 282.667 119.6Z" fill="#CA8A04"/>
<path d="M125.2 126.4C123.467 127.867 120.267 129.333 118.267 129.867C116.133 130.4 113.867 132.133 113.067 134C112.133 136.133 110.533 137.333 108.4 137.333C106.133 137.333 105.333 138.133 105.333 140.133C105.333 141.733 103.867 144.8 102 146.933L98.6667 150.933L101.2 155.2C102.8 157.733 103.467 160.667 103.067 162.933C102.533 165.6 103.067 166.933 105.2 168.267C106.8 169.2 108 171.067 108 172.4C108 173.733 109.467 176.267 111.333 178.133C114 180.8 115.733 181.467 119.733 181.067C124 180.667 124.667 180 125.067 176.933C125.333 174.933 124.933 173.333 124.133 173.333C122 173.333 120.933 168 122.667 166C123.733 164.8 125.467 164.267 127.467 164.8C130.267 165.467 130.667 165.2 130.667 161.867C130.667 159.733 131.2 157.333 131.733 156.667C134 153.2 141.2 149.467 146 149.067C150.4 148.8 151.467 148 152.667 144.933C153.733 141.867 153.467 140.933 151.733 139.867C150.4 139.067 149.867 137.6 150.267 135.867C150.8 133.867 150.267 132.933 148.267 132.4C146.8 132 145.2 130.933 144.8 129.867C144.4 128.8 143.2 128 142.267 128C141.2 128 139.6 127.067 138.667 126C136.4 123.2 129.067 123.467 125.2 126.4Z" fill="#CA8A04"/>
<path d="M95.2 127.333C94.8 128.4 93.3334 129.6 91.8667 130C90.5334 130.533 89.3334 131.733 89.3334 132.8C89.3334 133.733 88.1334 135.333 86.6667 136.267C85.0667 137.333 84 139.467 84 141.467C84 143.467 83.2 145.733 82.1334 146.533C80.9334 147.6 80.2667 150.933 80.1334 156.133C80.1334 163.333 80.5334 164.267 83.3334 165.6C85.0667 166.4 87.2 168.8 87.8667 170.933C89.2 174.533 89.6 174.8 94.2667 174C102.933 172.533 102.8 172.667 101.867 165.067C101.333 161.333 100.133 156.667 99.2 154.933C97.3334 151.333 97.8667 148.933 101.6 144.133C102.933 142.4 104 140.133 104 139.2C104 138.267 105.733 136.533 107.867 135.333C113.333 132.533 113.867 131.2 110.667 128C107.467 124.8 106.267 124.667 104 127.333C102.4 129.2 102 129.2 100 127.333C97.2 124.8 96.1334 124.8 95.2 127.333Z" fill="#CA8A04"/>
<path d="M282.667 131.6C279.333 134.4 273.2 139.333 269.067 142.8L261.467 148.933L277.6 175.6C286.4 190.267 295.867 205.333 298.8 209.2C301.733 213.067 303.6 216.8 303.2 217.733C300.667 222.133 305.733 215.333 313.2 204.4C317.867 197.6 323.6 190.267 326.133 188.133L330.533 184.133L316.933 165.067C309.467 154.533 300.4 141.6 296.8 136.267C293.2 130.933 289.867 126.667 289.467 126.667C289.067 126.667 286 128.933 282.667 131.6Z" fill="#CA8A04"/>
<path d="M435.333 135.733C426.133 153.333 411.867 175.867 407.733 179.333C402 184.267 393.733 187.867 385.867 188.933C380 189.733 379.333 189.467 376.267 185.867C373.067 182.133 373.067 182.133 375.067 185.6C377.2 189.067 377.2 189.2 372.267 192.933C369.6 194.933 367.333 197.2 367.333 198C367.2 198.667 366.533 202.667 365.6 206.667C364.267 212.533 363.333 214.133 361.333 214.267C359.2 214.4 358.667 213.6 358.667 210C358.667 204.533 354.667 199.2 351.467 200.4C350.267 200.933 348.533 203.2 347.733 205.333C346.4 209.467 346.267 209.467 344.4 206.667C343.333 205.2 342 204.267 341.333 204.667C340.667 205.067 340.133 204.267 340.133 203.067C340 201.733 339.6 198.4 339.2 195.467C338.533 191.867 338.8 190.533 339.867 191.2C340.8 191.867 341.067 191.333 340.533 190.133C340.133 188.933 339.467 188 339.2 188C338.933 188 333.6 196 327.2 205.6C320.933 215.333 313.867 225.733 311.6 228.667C309.2 231.867 308.667 233.067 310.267 231.6C314.533 227.867 315.2 230.4 315.733 252C316.133 267.867 315.733 273.867 313.333 285.2C308.533 308.667 298.667 326.133 285.2 334.8C278.533 339.2 278.4 339.333 279.067 344.933C279.333 348 280.933 352.933 282.4 356C284.8 361.067 284.933 361.867 283.067 367.733C280.667 375.467 281.333 389.867 284.667 399.333C290.8 417.333 309.333 447.6 321.733 459.733L329.067 466.933L332.533 464.667C336 462.4 336.267 462.4 339.733 465.467L343.333 468.667L340.133 465.067L336.933 461.333L342.133 456.8C346.933 452.533 347.467 452.4 349.067 454.4C350 455.6 350.667 458.533 350.4 460.933C350.133 463.2 350.4 464.8 350.933 464.533C351.467 464.133 352 462.667 352 461.067C352 458.667 352.267 458.533 354.267 460.133C355.6 461.2 354.667 459.467 352.267 456.4C349.733 453.067 348.533 450.533 349.333 450C350 449.6 350.667 448.133 350.533 446.933C350.533 445.2 350.267 445.2 349.333 447.467C348.8 448.933 343.867 453.6 338.533 458L328.933 465.867L321.333 457.733C305.2 440.533 286.667 406.933 283.867 389.867C282.4 380.933 283.6 365.2 286 362.933C286.4 362.533 288.133 363.6 289.867 365.2C293.867 369.067 295.867 368.133 305.067 358C313.467 348.8 323.467 329.333 328.667 311.6C331.6 301.867 333.067 298.8 334.533 299.333C336 299.867 336 299.733 334.8 298.133C333.6 296.667 333.6 293.733 335.2 285.067C338.133 268.933 340 248.533 340 231.2C340 216.4 340.133 216 343.467 213.867C346.4 211.867 347.067 211.867 348.133 213.467C349.733 216 349.6 216.8 347.333 218.667C345.6 220.133 344.933 220 343.2 217.867C341.067 215.2 342.133 218.133 344.4 221.067C345.467 222.4 346.133 222.133 347.733 219.867C349.067 218 350.133 217.6 351.067 218.533C352 219.467 354 219.067 357.6 217.2C362.133 214.933 362.8 214.8 363.467 216.667C364 217.733 363.733 219.467 363.067 220.4C362.267 221.333 361.867 239.733 361.867 264.933C362 292.533 361.467 308.267 360.667 308.533C360 308.933 360.267 309.2 361.467 309.2C362.933 309.333 364 311.733 365.2 318.133C367.467 330.533 374.933 350.667 381.6 362.267C388.667 374.667 400.133 387.333 409.067 392.667C413.067 394.933 416.533 398.267 417.467 400.4C418.267 402.4 419.6 404.4 420.267 404.8C421.067 405.333 420.933 404.267 420 402.667C419.2 401.067 418.667 399.6 418.933 399.333C419.2 399.067 422.933 400 427.2 401.467C432.133 403.2 436.8 403.867 439.333 403.467C447.867 401.867 455.2 389.6 459.867 369.333C464.533 348.8 464.533 350 458.533 346.133C433.067 329.2 415.333 296.8 413.733 264C412.4 237.333 417.2 222.133 432.667 205.2C444 192.667 454.667 178.8 465.2 162.8C469.733 155.867 474.933 148.8 476.667 147.2C478.533 145.467 480 143.067 479.867 141.733C479.867 139.733 479.6 139.867 478.667 142.133C478 143.733 476.933 145.467 476.133 145.867C475.333 146.4 466.8 142.533 456.933 137.467L439.333 128.133L435.333 135.733ZM385.867 203.333C389.6 211.067 393.2 224.8 397.2 246.133C400.133 261.867 404.533 275.867 409.333 285.333C412.4 291.2 412.4 291.333 410 300.933C408.8 306.267 407.333 310.667 406.933 310.667C406.4 310.667 402.667 308.4 398.667 305.6C391.733 300.933 391.2 300.267 388.933 291.333C387.067 284.4 386.133 274.267 385.333 251.333C384.267 219.067 383.2 213.067 376.533 199.867C374.267 195.333 373.867 193.333 374.933 192.267C377.2 190 382 194.933 385.867 203.333ZM344.133 208.133C345.6 210.933 344.133 213.2 341.067 213.333C339.733 213.333 339.733 207.467 340.933 206.267C342.133 204.933 342.4 205.067 344.133 208.133Z" fill="#CA8A04"/>
<path d="M496.4 131.6C494.8 133.333 493.867 134.667 494.533 134.667C495.867 134.667 500.667 129.467 499.867 128.933C499.6 128.667 498 129.867 496.4 131.6Z" fill="#CA8A04"/>
<path d="M487.733 135.6C488.533 135.867 490.133 135.867 491.067 135.6C491.867 135.2 491.2 134.933 489.333 134.933C487.467 134.933 486.8 135.2 487.733 135.6Z" fill="#CA8A04"/>
<path d="M256.8 145.733C257.2 147.067 258 147.733 258.4 147.333C258.8 146.933 258.4 145.867 257.467 144.933C256.133 143.733 256 143.867 256.8 145.733Z" fill="#CA8A04"/>
<path d="M35.8667 162.267C34.4 164.267 34.4 164.4 36 162.933C38.8 160.533 45.8667 160.933 48.4 163.733C51.0667 166.667 51.3333 172.133 49.0667 174.4C48 175.467 48 176 48.9333 176C50.6667 176 52 172.933 52 168.8C52 161.867 40 156.933 35.8667 162.267Z" fill="#CA8A04"/>
<path d="M33.4667 168.8C33.4667 170.267 33.8667 170.667 34.2667 169.6C34.6667 168.667 34.5334 167.467 34.1334 167.067C33.7334 166.533 33.3334 167.333 33.4667 168.8Z" fill="#CA8A04"/>
<path d="M39.4667 170C38.2667 173.467 38.5334 174.267 40.1334 171.6C40.9334 170.267 41.3334 168.8 40.9334 168.533C40.6667 168.133 40 168.8 39.4667 170Z" fill="#CA8A04"/>
<path d="M32.1333 175.467C32.1333 176.933 32.5333 177.333 32.9333 176.267C33.3333 175.333 33.2 174.133 32.8 173.733C32.4 173.2 32 174 32.1333 175.467Z" fill="#CA8A04"/>
<path d="M30.8 180.8C30.8 182.267 31.2 182.667 31.6 181.6C32 180.667 31.8667 179.467 31.4667 179.067C31.0667 178.533 30.6667 179.333 30.8 180.8Z" fill="#CA8A04"/>
<path d="M34.6667 184.667C33.7333 188 32.4 190.667 31.6 190.667C30.9333 190.667 31.0667 191.6 32 192.667C32.9333 193.733 33.2 194.667 32.5333 194.667C31.8667 194.667 31.3333 196.133 31.3333 197.867C31.3333 201.6 32.8 200.8 33.6 196.667C34.4 192.133 39.4667 192.533 42 197.2C43.0667 199.467 44.4 201.333 44.8 201.333C45.2 201.333 44.4 199.333 43.0667 196.933C41.2 193.733 39.6 192.667 36.9333 192.667C34.9333 192.8 33.3333 192.667 33.3333 192.667C33.3333 192.533 34.2667 189.6 35.4667 186.133C36.6667 182.667 37.3333 179.6 37.0667 179.2C36.6667 178.933 35.6 181.333 34.6667 184.667Z" fill="#CA8A04"/>
<path d="M153.067 182.267C154.667 182.533 157.333 182.533 159.067 182.267C160.667 182 159.333 181.733 156 181.733C152.667 181.733 151.333 182 153.067 182.267Z" fill="#CA8A04"/>
<path d="M339.867 183.6C338.133 185.733 338.267 185.867 340.4 184.133C342.533 182.4 343.2 181.333 342.133 181.333C341.867 181.333 340.8 182.4 339.867 183.6Z" fill="#CA8A04"/>
<path d="M29.4667 186.133C29.4667 187.6 29.8667 188 30.2667 186.933C30.6667 186 30.5334 184.8 30.1334 184.4C29.7334 183.867 29.3334 184.667 29.4667 186.133Z" fill="#CA8A04"/>
<path d="M124.133 186.133C124.133 187.6 124.533 188 124.933 186.933C125.333 186 125.2 184.8 124.8 184.4C124.4 183.867 124 184.667 124.133 186.133Z" fill="#CA8A04"/>
<path d="M24.8 192.267C23.6 193.867 22.6667 196.133 22.8 197.333C22.8 198.4 23.4667 197.6 24.2667 195.6C25.4667 192.4 25.8667 192.133 27.7333 193.6C29.7333 195.067 29.7333 195.067 28.2667 193.067C26.9333 191.333 26.9333 190.8 28.2667 190.267C29.4667 189.733 29.4667 189.467 28.4 189.467C27.6 189.333 25.8667 190.667 24.8 192.267Z" fill="#CA8A04"/>
<path d="M126.133 199.333C128.8 239.867 135.333 293.2 139.6 310.267C141.6 318.267 141.6 318.533 138.133 324.267C136.267 327.467 132.933 332 130.533 334.4L126.4 338.667L122.8 336.133C120.933 334.667 116.8 330.933 113.733 327.733L108.133 322L111.333 308.8C116.533 287.467 117.733 276.4 116.933 253.067C116.667 241.067 116.8 223.467 117.333 214C117.867 204.4 118 196.4 117.733 196.133C116.933 195.067 102.4 205.867 98.6667 210.4C95.7333 214 91.8667 220.4 89.8667 225.067C89.7333 225.333 82.2667 220.533 73.2 214.667L56.6667 203.867L50.4 216.933C46.9333 224.133 44.1333 230.4 44 231.067C44 233.067 67.7333 249.6 79.6 255.6C94.2667 263.067 103.067 264.4 111.067 260.267C113.733 258.8 116 258.133 116 258.8C116 261.733 106.133 286.667 101.2 296.133C93.7333 310.533 85.2 319.067 76 321.867C72 323.067 67.3333 324 65.6 324C62.4 324 62.4 324.267 63.2 330.267C64.4 339.733 71.2 352.4 78.2667 358.533C81.6 361.6 85.0667 364 85.8667 364C88.2667 364.133 96 381.733 94.2667 382.933C93.2 383.6 93.7333 384 95.4667 384C96.9333 384 100.267 386.133 102.8 388.8C118.533 405.2 155.867 412.267 167.2 400.8L170.267 397.867L176.8 400.933C180.4 402.667 184.667 404 186.267 404C188.4 404 189.333 404.933 189.733 407.6L190.267 411.333L190.533 407.6C190.667 404.4 191.2 404 195.733 404C204 404 217.333 398.533 223.467 392.667C229.467 386.933 233.333 377.2 233.333 368C233.333 358 225.2 340.267 209.733 316.133C198.533 298.8 189.333 275.2 189.333 263.867V258.533L193.067 261.067C198 264.667 207.467 269.333 209.6 269.333C210.533 269.333 208.133 267.867 204.267 266C182.8 256 178 248.667 168.667 211.733C166.267 202.267 160.133 191.467 156.267 190C154.8 189.467 155.467 190.667 157.733 193.067L161.467 197.067L156.667 206.667C153.333 213.333 151.333 216 149.867 215.467C148.933 215.067 143.6 211.733 138 208C129.333 202.133 128 200.8 127.333 196.4C125.733 187.333 125.333 188.4 126.133 199.333ZM160.4 213.867C157.867 219.067 155.067 224 154.4 224.933C152.8 226.933 128.933 212.267 128.267 208.933C127.867 207.333 131.467 208.933 140.267 214.533L152.667 222.4L158 211.867C161.067 205.733 163.6 202 164.133 202.933C164.667 203.733 163.067 208.667 160.4 213.867Z" fill="#CA8A04"/>
<path d="M349.733 190.933C347.2 194.267 346.267 196.4 347.6 195.6C348.4 195.067 349.733 195.6 350.667 196.667C353.6 200.267 361.333 198.8 361.333 194.533C361.333 190.133 352.4 187.467 349.733 190.933Z" fill="#CA8A04"/>
<path d="M145.867 194.933L143.333 198L146.4 195.467C149.2 193.067 150 192 148.933 192C148.667 192 147.333 193.333 145.867 194.933Z" fill="#CA8A04"/>
<path d="M53.6 199.467C54.9334 200.8 56.2667 201.6 56.5334 201.2C56.9334 200.8 55.8667 199.733 54.2667 198.8C51.4667 197.067 51.4667 197.2 53.6 199.467Z" fill="#CA8A04"/>
<path d="M46.1334 202C45.7334 203.2 45.3334 204.933 45.4667 205.733C45.4667 206.667 46.1334 205.867 46.8 204.133C47.4667 202.4 47.8667 200.667 47.4667 200.4C47.2 200.133 46.6667 200.8 46.1334 202Z" fill="#CA8A04"/>
<path d="M13.3334 217.6C10.9334 220.933 10.5334 222.133 11.8667 223.867C12.6667 225.067 13.8667 227.333 14.6667 228.933C16.4 233.067 16.9334 232.8 16.2667 228C15.8667 225.467 16.8 222.4 18.6667 219.333C20.2667 216.8 21.2 214.667 20.8 214.667C20.4 214.667 18.6667 217.2 16.8 220.267C14.1334 224.8 13.3334 225.467 12.5334 223.6C12 222.267 12.5334 220.267 13.6 218.933C16 216.267 17.7334 213.333 16.9334 213.333C16.6667 213.333 15.0667 215.2 13.3334 217.6Z" fill="#CA8A04"/>
<path d="M255.733 214.267C257.333 214.533 259.733 214.533 261.067 214.267C262.267 213.867 260.933 213.6 258 213.733C255.067 213.733 254 214 255.733 214.267Z" fill="#CA8A04"/>
<path d="M40.2667 218C38 222.933 38.4 224 40.8 219.6C42 217.467 42.6667 215.467 42.2667 215.2C42 214.933 41.0667 216.133 40.2667 218Z" fill="#CA8A04"/>
<path d="M246.933 219.333C246.933 221.467 247.2 222.267 247.6 220.933C247.867 219.733 247.867 217.867 247.6 216.933C247.2 216.133 246.933 217.067 246.933 219.333Z" fill="#CA8A04"/>
<path d="M472.267 221.6C472 225.733 472.667 227.067 476.133 229.6C478.4 231.333 481.067 234.133 482.133 236C483.333 238.4 483.867 238.667 484 237.067C484 235.867 481.6 232.933 478.8 230.533C474.667 227.333 473.333 225.2 472.933 221.467L472.4 216.667L472.267 221.6Z" fill="#CA8A04"/>
<path d="M294.667 222.667C293.467 223.467 293.333 224 294.267 224C295.067 224 296.267 223.333 296.667 222.667C297.733 221.067 297.2 221.067 294.667 222.667Z" fill="#CA8A04"/>
<path d="M350.8 223.467C350.8 224.933 351.2 225.333 351.6 224.267C352 223.333 351.867 222.133 351.467 221.733C351.067 221.2 350.667 222 350.8 223.467Z" fill="#CA8A04"/>
<path d="M356 224.667C354.133 225.733 353.333 226.533 354.133 226.667C354.8 226.667 356.667 225.733 358.133 224.667C361.333 222.267 360.267 222.133 356 224.667Z" fill="#CA8A04"/>
<path d="M36.8 226C35.6 229.467 35.8667 230.267 37.4667 227.6C38.2667 226.267 38.6667 224.8 38.2667 224.533C38 224.133 37.3334 224.8 36.8 226Z" fill="#CA8A04"/>
<path d="M248.267 228C248.267 230.533 248.533 231.6 248.933 230.267C249.2 229.067 249.2 226.933 248.933 225.6C248.533 224.4 248.267 225.467 248.267 228Z" fill="#CA8A04"/>
<path d="M346.667 224.533C346.667 224.8 347.733 225.867 349.067 226.8C351.067 228.533 351.2 228.4 349.467 226.267C347.733 224.133 346.667 223.467 346.667 224.533Z" fill="#CA8A04"/>
<path d="M277.067 227.6C278.667 227.867 281.067 227.867 282.4 227.6C283.6 227.2 282.267 226.933 279.333 227.067C276.4 227.067 275.333 227.333 277.067 227.6Z" fill="#CA8A04"/>
<path d="M19.7333 232.933C20.6667 233.333 21.8667 233.2 22.2667 232.8C22.8 232.4 22 232 20.5333 232.133C19.0667 232.133 18.6667 232.533 19.7333 232.933Z" fill="#CA8A04"/>
<path d="M199.333 236C200.667 237.467 202 238.667 202.4 238.667C202.8 238.667 202 237.467 200.667 236C199.333 234.533 198 233.333 197.6 233.333C197.2 233.333 198 234.533 199.333 236Z" fill="#CA8A04"/>
<path d="M249.6 236C249.6 237.867 249.867 238.533 250.267 237.6C250.533 236.8 250.533 235.2 250.267 234.267C249.867 233.467 249.6 234.133 249.6 236Z" fill="#CA8A04"/>
<path d="M302 240.267L296.667 246L302.4 240.667C307.6 235.867 308.667 234.667 307.6 234.667C307.333 234.667 304.8 237.2 302 240.267Z" fill="#CA8A04"/>
<path d="M252.667 242.4C254.133 244.133 256.533 246.133 258 246.933C260.8 248.4 260.4 248 254 242.667C250.133 239.467 250.133 239.467 252.667 242.4Z" fill="#CA8A04"/>
<path d="M10.9333 243.6C7.73333 244.667 5.46666 245.867 5.73333 246.133C6.39999 246.8 14.9333 244 16.6667 242.533C18.1333 241.067 18 241.067 10.9333 243.6Z" fill="#CA8A04"/>
<path d="M263.067 249.467C264.533 250.267 269.333 251.2 273.733 251.467L282 251.867L274.667 250.8C270.667 250.267 265.867 249.333 264 248.8C261.067 248 260.933 248.133 263.067 249.467Z" fill="#CA8A04"/>
<path d="M465.333 254.667C465.333 256.667 466 257.333 467.733 257.067C468.933 256.8 470 255.733 470 254.667C470 253.6 468.933 252.533 467.733 252.267C466 252 465.333 252.667 465.333 254.667Z" fill="#CA8A04"/>
<path d="M219.333 264.133C218.8 264.933 218.667 265.733 219.067 266.133C219.333 266.533 220 265.867 220.4 264.667C221.333 262.4 220.533 262 219.333 264.133Z" fill="#CA8A04"/>
<path d="M34.8 272.8C34.6667 277.6 32.5334 278.933 26.2667 278C22.5334 277.467 22.4 277.467 25.3334 278.533C31.6 280.8 34.5334 280.267 35.4667 276.8C35.8667 274.933 36 272.4 35.6 271.067C35.2 269.733 34.9334 270.4 34.8 272.8Z" fill="#CA8A04"/>
<path d="M213.067 270.267C213.867 270.533 215.467 270.533 216.4 270.267C217.2 269.867 216.533 269.6 214.667 269.6C212.8 269.6 212.133 269.867 213.067 270.267Z" fill="#CA8A04"/>
<path d="M33.3334 294.8C33.3334 298.133 37.7334 297.733 38.4 294.267C38.6667 292.667 38 292 36.1334 292C34.1334 292 33.3334 292.8 33.3334 294.8Z" fill="#CA8A04"/>
<path d="M345.6 305.333C345.6 307.2 345.867 307.867 346.267 306.933C346.533 306.133 346.533 304.533 346.267 303.6C345.867 302.8 345.6 303.467 345.6 305.333Z" fill="#CA8A04"/>
<path d="M360.133 304.8C360.133 306.267 360.533 306.667 360.933 305.6C361.333 304.667 361.2 303.467 360.8 303.067C360.4 302.533 360 303.333 360.133 304.8Z" fill="#CA8A04"/>
<path d="M338.667 307.333C338.667 309.2 339.2 310.667 339.867 310.667C340.4 310.667 340.667 309.2 340.267 307.333C340 305.467 339.467 304 339.2 304C338.933 304 338.667 305.467 338.667 307.333Z" fill="#CA8A04"/>
<path d="M334.267 308.133C335.2 309.067 336.267 309.467 336.667 309.067C337.067 308.667 336.4 307.867 335.067 307.467C333.2 306.667 333.067 306.8 334.267 308.133Z" fill="#CA8A04"/>
<path d="M344.4 311.6C345.6 311.867 347.467 311.867 348.4 311.6C349.2 311.2 348.267 310.933 346 310.933C343.867 310.933 343.067 311.2 344.4 311.6Z" fill="#CA8A04"/>
<path d="M15.2 335.333L19.0667 338.4L13.6 339.867C7.86668 341.467 4.13335 345.467 1.60001 352.933C0.800013 355.333 0.66668 357.6 1.33335 358C2.00001 358.4 6.40001 357.2 11.2 355.2C18.9333 352.133 19.7333 351.467 18.6667 349.2C17.6 347.2 18 346.267 20.9333 344.4C23.7333 342.533 28.5333 341.867 43.3333 341.2L62 340.533L46.5333 340.267C34.2667 340 30.8 339.6 30.2667 338.133C29.8667 337.067 26.2667 335.2 22.5333 334.133C12.5333 331.067 10.5333 331.467 15.2 335.333Z" fill="#CA8A04"/>
<path d="M352.8 377.333C354.267 383.2 362.4 400.933 368 410.267C378.267 427.067 385.867 436.533 401.867 452.667L417.733 468.667L401.733 451.733C392.933 442.533 381.867 429.333 377.333 422.4C370 411.467 358.4 389.733 353.733 378C352.533 375.067 352.267 374.8 352.8 377.333Z" fill="#CA8A04"/>
<path d="M341.2 386.933C333.867 395.467 333.6 396 339.2 390.667C345.2 384.933 351.6 377.333 350.267 377.333C349.867 377.333 345.867 381.733 341.2 386.933Z" fill="#CA8A04"/>
<path d="M89.0667 382.267C90 382.667 91.2 382.533 91.6 382.133C92.1334 381.733 91.3334 381.333 89.8667 381.467C88.4 381.467 88 381.867 89.0667 382.267Z" fill="#CA8A04"/>
<path d="M424 412C424.8 413.467 425.733 414.667 426.133 414.667C426.4 414.667 426.133 413.467 425.333 412C424.533 410.533 423.6 409.333 423.2 409.333C422.933 409.333 423.2 410.533 424 412Z" fill="#CA8A04"/>
<path d="M186.8 422.133C185.867 427.733 185.333 432.533 185.733 432.8C186 433.067 187.067 428.8 188 423.333C188.933 417.867 189.467 413.067 189.067 412.667C188.8 412.4 187.733 416.667 186.8 422.133Z" fill="#CA8A04"/>
<path d="M152.267 434.667C152.267 436.533 152.533 437.2 152.933 436.267C153.2 435.467 153.2 433.867 152.933 432.933C152.533 432.133 152.267 432.8 152.267 434.667Z" fill="#CA8A04"/>
<path d="M183.467 439.467C182.933 442.133 182.8 444.533 183.067 444.8C183.467 445.2 184.133 443.333 184.533 440.533C185.067 437.867 185.2 435.467 184.933 435.2C184.533 434.8 183.867 436.667 183.467 439.467Z" fill="#CA8A04"/>
<path d="M153.733 446.667C153.733 450 154 451.333 154.267 449.6C154.533 448 154.533 445.333 154.267 443.6C154 442 153.733 443.333 153.733 446.667Z" fill="#CA8A04"/>
<path d="M181.467 448.8C181.467 450.267 181.867 450.667 182.267 449.6C182.667 448.667 182.533 447.467 182.133 447.067C181.733 446.533 181.333 447.333 181.467 448.8Z" fill="#CA8A04"/>
<path d="M180.133 454.133C180.133 455.6 180.533 456 180.933 454.933C181.333 454 181.2 452.8 180.8 452.4C180.4 451.867 180 452.667 180.133 454.133Z" fill="#CA8A04"/>
<path d="M155.067 459.333C155.067 462.267 155.333 463.333 155.6 461.6C155.867 460 155.867 457.6 155.6 456.267C155.2 455.067 154.933 456.4 155.067 459.333Z" fill="#CA8A04"/>
<path d="M178.8 459.467C178.8 460.933 179.2 461.333 179.6 460.267C180 459.333 179.867 458.133 179.467 457.733C179.067 457.2 178.667 458 178.8 459.467Z" fill="#CA8A04"/>
<path d="M176.8 466.133C176.267 468 176.133 469.867 176.4 470.267C176.8 470.533 177.467 469.2 177.867 467.2C178.4 465.333 178.533 463.467 178.267 463.067C177.867 462.8 177.2 464.133 176.8 466.133Z" fill="#CA8A04"/>
<path d="M357.467 465.467C357.333 466.667 353.333 471.333 348.533 476C341.733 482.667 339.467 484 338.533 482.533C337.6 481.067 337.333 481.067 337.333 482.933C337.333 484.267 338 485.333 338.8 485.333C341.6 485.333 359.067 467.2 358.267 465.2C357.733 463.733 357.467 463.733 357.467 465.467Z" fill="#CA8A04"/>
<path d="M450.267 472.533C441.6 484.267 440.8 484.8 436.4 482.133L432.667 479.867L435.867 482.533C437.6 484.133 439.467 485.333 440.133 485.333C441.067 485.333 445.6 480.267 453.067 470.8L455.6 467.6L458 471.733C459.333 474 460.933 475.6 461.467 475.2C462 474.933 464 476.533 465.867 478.8C467.733 481.067 469.333 482.4 469.333 481.733C469.333 481.067 466.267 477.6 462.667 474C458.933 470.4 456.267 466.667 456.667 465.733C457.733 462.667 456.533 463.867 450.267 472.533Z" fill="#CA8A04"/>
<path d="M155.6 471.333C153.467 483.467 153.067 490.533 154.4 492.8C155.733 495.067 156 494.933 157.467 490.8C158.933 486.533 159.2 486.4 160.933 488.8C166 495.867 167.867 497.067 174.667 498C178.667 498.533 182.133 498.4 182.8 497.733C183.6 496.933 181.867 493.467 178 488.667C174.667 484.4 172 481.467 172 482.267C172 484.667 167.067 485.2 164.133 483.067C160.667 480.667 158.4 476.533 157.333 470.667L156.533 466L155.6 471.333Z" fill="#CA8A04"/>
<path d="M422 472C423.333 473.467 424.667 474.667 425.067 474.667C425.467 474.667 424.667 473.467 423.333 472C422 470.533 420.667 469.333 420.267 469.333C419.867 469.333 420.667 470.533 422 472Z" fill="#CA8A04"/>
<path d="M173.467 478.133C173.467 479.6 173.867 480 174.267 478.933C174.667 478 174.533 476.8 174.133 476.4C173.733 475.867 173.333 476.667 173.467 478.133Z" fill="#CA8A04"/>
<path d="M339.333 477.467C337.867 479.6 339.2 480 341.067 477.867C342 476.8 342.133 476 341.467 476C340.8 476 339.733 476.667 339.333 477.467Z" fill="#CA8A04"/>
<path d="M428 476.533C428 476.8 429.067 477.867 430.4 478.8C432.4 480.533 432.533 480.4 430.8 478.267C429.067 476.133 428 475.467 428 476.533Z" fill="#CA8A04"/>
<path d="M460.133 479.467C460.133 480.933 460.533 481.333 460.933 480.267C461.333 479.333 461.2 478.133 460.8 477.733C460.4 477.2 460 478 460.133 479.467Z" fill="#CA8A04"/>
<path d="M451.467 488.8C451.067 490 450.667 493.867 450.667 497.467C450.667 503.733 452.133 505.733 454.133 502.4C454.667 501.467 454.533 501.333 453.6 501.867C452.533 502.533 452 501.467 452 498.8C452 496.533 452.533 494.667 453.333 494.667C454 494.667 454.267 493.733 453.733 492.533C453.333 491.333 453.733 490 454.533 489.333C455.867 488.667 455.733 488.133 454.267 487.6C453.067 487.2 451.867 487.733 451.467 488.8Z" fill="#CA8A04"/>
<path d="M457.867 496.267L455.333 499.333L458.4 496.8C460 495.333 461.333 494 461.333 493.733C461.333 492.667 460.267 493.467 457.867 496.267Z" fill="#CA8A04"/>
</svg>
