<svg width="216" height="82" viewBox="0 0 216 82" fill="none" xmlns="http://www.w3.org/2000/svg">
<g clip-path="url(#clip0_206_51)">
<path fill-rule="evenodd" clip-rule="evenodd" d="M131.244 55.6493C154.875 51.4459 178.988 42.9781 196.68 26.7816C203.118 20.8891 207.859 13.9037 212.776 6.79595C213.121 6.29808 212.997 5.61068 212.497 5.26285C211.995 4.91685 211.308 5.04142 210.962 5.54338C206.139 12.5131 201.505 19.3763 195.192 25.1548C177.75 41.1216 153.946 49.4032 130.651 53.5167L130.559 53.1634C129.569 49.3253 125.494 45.8174 119.975 43.1268C112.063 39.269 101.231 36.9805 93.3323 37.2426C89.7829 37.361 86.8076 38.0093 84.8705 39.1923C83.3596 40.1138 82.4273 41.361 82.1715 42.908C81.6288 46.2048 84.0784 49.1405 88.3765 51.3829C97.3645 56.0752 114.405 58.1084 121.962 57.0951C124.321 56.7778 126.695 56.4229 129.074 56.0232C129.267 56.6935 129.453 57.3507 129.605 57.9979C130.032 59.8431 130.18 61.6362 129.308 63.6401C127.947 66.7616 125.297 69.2249 122.152 71.2027C117.243 74.2859 111.118 76.1699 106.43 77.3326C80.3216 83.8062 58.7415 76.1531 41.5073 64.942C24.1043 53.6168 11.0998 38.6692 2.30623 30.7459C1.85473 30.3375 1.15842 30.3763 0.749966 30.8278C0.341515 31.2793 0.378111 31.9774 0.831883 32.3841C9.68148 40.3592 22.786 55.3904 40.3067 66.7889C57.9963 78.3015 80.1589 86.1176 106.96 79.4745C111.844 78.2638 118.213 76.2815 123.325 73.0704C126.863 70.846 129.798 68.0329 131.33 64.5196C132.703 61.3664 132.082 58.6481 131.244 55.6493ZM128.469 53.8892L128.425 53.7128C127.56 50.3576 123.835 47.4615 119.009 45.1097C111.406 41.4025 100.999 39.1952 93.4046 39.4484C90.8008 39.5335 88.5405 39.9054 86.8718 40.6334C85.4962 41.2356 84.5453 42.0636 84.3492 43.2661C84.1587 44.4012 84.5531 45.4414 85.3329 46.3972C86.2466 47.521 87.6596 48.5216 89.3951 49.4287C98.0322 53.9367 114.407 55.8842 121.668 54.9097C123.923 54.6053 126.192 54.2674 128.469 53.8892Z" fill="white"/>
<path fill-rule="evenodd" clip-rule="evenodd" d="M212.838 2.3836C213.058 2.81331 213.177 3.47946 213.296 4.19725C213.581 5.9067 213.649 7.91575 213.72 8.86143C213.767 9.46983 214.298 9.92239 214.904 9.87744C215.512 9.83068 215.967 9.30179 215.92 8.6934C215.832 7.53509 215.737 4.85786 215.294 2.92823C215.056 1.89336 214.691 1.05266 214.254 0.588037C213.511 -0.204502 212.42 -0.20003 211.118 0.889602C209.577 2.17953 207.288 5.29094 204.091 6.28998C203.511 6.47006 203.186 7.09217 203.369 7.67048C203.55 8.25287 204.169 8.57693 204.751 8.39505C207.798 7.44101 210.168 4.84469 211.851 3.2074C212.171 2.89668 212.588 2.57208 212.838 2.3836Z" fill="white"/>
</g>
<defs>
<clipPath id="clip0_206_51">
<rect width="216" height="82" fill="white"/>
</clipPath>
</defs>
</svg>
