<svg width="215" height="144" viewBox="0 0 215 144" fill="none" xmlns="http://www.w3.org/2000/svg">
<g clip-path="url(#clip0_107_173)">
<rect x="0.0625" y="0.324097" width="214.052" height="143.077" transform="rotate(-0.0526273 0.0625 0.324097)" fill="#111111"/>
<path d="M37.7467 24.918L37.5952 31.4709L36.8017 31.4526L36.9532 24.8996L37.7467 24.918ZM38.9631 25.6504L38.9794 24.9465L43.8941 25.0601L43.8778 25.764L41.8172 25.7164L41.682 31.5654L40.8885 31.547L41.0237 25.698L38.9631 25.6504Z" fill="white"/>
<rect x="14.0807" y="101.705" width="56.3294" height="28.1647" transform="rotate(-0.0526273 14.0807 101.705)" fill="#BCA219"/>
<rect x="14" y="13.8307" width="56.3294" height="28.1647" transform="rotate(-0.0526273 14 13.8307)" stroke="white" stroke-width="0.563294"/>
<rect x="79.342" y="13.7708" width="56.3294" height="28.1647" transform="rotate(-0.0526273 79.342 13.7708)" stroke="white" stroke-width="0.563294"/>
<rect x="144.684" y="13.7108" width="56.3294" height="28.1647" transform="rotate(-0.0526273 144.684 13.7108)" stroke="white" stroke-width="0.563294"/>
<path d="M89.6297 26.4309L88.8362 26.4128C88.7945 26.1834 88.7169 25.981 88.6036 25.8056C88.4924 25.6301 88.3549 25.4819 88.1912 25.3607C88.0297 25.2375 87.8494 25.1437 87.6502 25.0794C87.4511 25.0151 87.2427 24.9804 87.0251 24.9755C86.6284 24.9664 86.2666 25.0584 85.9399 25.2515C85.6154 25.4447 85.3537 25.7343 85.1549 26.1203C84.9582 26.5064 84.8534 26.9831 84.8404 27.5505C84.8274 28.1179 84.9103 28.599 85.0891 28.9936C85.27 29.3883 85.5181 29.6896 85.8335 29.8975C86.151 30.1054 86.5081 30.2139 86.9049 30.223C87.1225 30.2279 87.3322 30.2029 87.5341 30.1477C87.7359 30.0926 87.9204 30.0083 88.0873 29.8947C88.2564 29.7791 88.4006 29.6362 88.5197 29.466C88.641 29.2938 88.7278 29.0952 88.7799 28.8701L89.5734 28.8883C89.506 29.2218 89.3903 29.5191 89.2264 29.7799C89.0625 30.0408 88.8611 30.2614 88.6222 30.4416C88.3834 30.6197 88.1167 30.7533 87.8223 30.8426C87.53 30.932 87.2185 30.9729 86.8879 30.9653C86.329 30.9525 85.8351 30.8046 85.4062 30.5216C84.9773 30.2385 84.6438 29.8425 84.4058 29.3333C84.1677 28.8242 84.0566 28.2241 84.0725 27.5329C84.0883 26.8418 84.2268 26.2474 84.4879 25.7497C84.749 25.252 85.1003 24.8716 85.5417 24.6085C85.9831 24.3455 86.4833 24.2203 87.0421 24.2331C87.3728 24.2407 87.682 24.2958 87.9699 24.3985C88.26 24.5011 88.5202 24.648 88.7506 24.8389C88.981 25.0278 89.1721 25.2562 89.3239 25.5244C89.4758 25.7903 89.5777 26.0925 89.6297 26.4309ZM92.7006 31.1113C92.2569 31.1011 91.87 30.9866 91.54 30.7678C91.2121 30.549 90.9586 30.2476 90.7796 29.8636C90.6027 29.4796 90.5201 29.0338 90.5317 28.5261C90.5434 28.0142 90.6465 27.5694 90.8408 27.1918C91.0373 26.8143 91.3043 26.5237 91.6419 26.3202C91.9816 26.1167 92.3734 26.02 92.817 26.0302C93.2607 26.0404 93.6465 26.1548 93.9745 26.3736C94.3045 26.5925 94.558 26.895 94.7348 27.281C94.9138 27.6672 94.9974 28.1162 94.9857 28.6282C94.974 29.1359 94.87 29.5774 94.6736 29.9528C94.4793 30.3282 94.2123 30.6177 93.8726 30.8212C93.5349 31.0248 93.1443 31.1215 92.7006 31.1113ZM92.7162 30.433C93.0532 30.4407 93.3325 30.3606 93.554 30.1928C93.7756 30.0251 93.9418 29.8016 94.0528 29.5224C94.1638 29.2432 94.223 28.9394 94.2305 28.6109C94.2381 28.2824 94.1928 27.9751 94.0948 27.689C93.9968 27.4029 93.841 27.1699 93.6274 26.99C93.4138 26.8101 93.1385 26.7162 92.8015 26.7085C92.4645 26.7008 92.1852 26.7819 91.9636 26.9518C91.742 27.1218 91.5757 27.3474 91.4647 27.6287C91.3536 27.91 91.2944 28.2149 91.2868 28.5434C91.2793 28.8719 91.3246 29.1781 91.4226 29.4621C91.5207 29.7461 91.6766 29.977 91.8902 30.1547C92.1038 30.3325 92.3791 30.4252 92.7162 30.433ZM96.0826 31.0864L96.1953 26.1716L96.9504 26.1889L96.8378 31.1037L96.0826 31.0864ZM96.598 25.3613C96.4508 25.3579 96.325 25.3049 96.2207 25.2022C96.1184 25.0995 96.0689 24.9778 96.0722 24.837C96.0754 24.6962 96.1304 24.5769 96.2372 24.4791C96.3462 24.3813 96.4743 24.334 96.6215 24.3374C96.7686 24.3408 96.8933 24.3938 96.9956 24.4964C97.0999 24.5991 97.1505 24.7209 97.1473 24.8617C97.144 25.0025 97.088 25.1218 96.979 25.2196C96.8722 25.3174 96.7452 25.3647 96.598 25.3613ZM98.2208 31.1354L98.3335 26.2206L99.063 26.2373L99.0454 27.0053L99.1094 27.0067C99.2178 26.7467 99.3878 26.5468 99.6193 26.407C99.851 26.265 100.127 26.1977 100.447 26.205C100.771 26.2125 101.039 26.2922 101.251 26.4444C101.465 26.5944 101.63 26.802 101.746 27.0672L101.797 27.0683C101.929 26.8174 102.122 26.6201 102.377 26.4766C102.633 26.3309 102.936 26.2621 103.288 26.2701C103.727 26.2802 104.084 26.426 104.357 26.7076C104.63 26.9871 104.76 27.4158 104.747 27.9939L104.671 31.2832L103.916 31.2659L103.992 27.9766C104 27.614 103.907 27.3525 103.712 27.1922C103.517 27.032 103.285 26.9488 103.017 26.9426C102.671 26.9347 102.401 27.0331 102.206 27.2378C102.012 27.4403 101.911 27.7005 101.903 28.0184L101.83 31.2181L101.062 31.2005L101.139 27.8344C101.146 27.555 101.06 27.3278 100.883 27.153C100.705 26.9761 100.474 26.8843 100.188 26.8778C99.9917 26.8733 99.8071 26.9213 99.6341 27.022C99.4631 27.1226 99.3233 27.2645 99.2145 27.4477C99.1079 27.6288 99.0519 27.8399 99.0463 28.081L98.976 31.1527L98.2208 31.1354ZM106.154 31.3172L106.305 24.7642L107.06 24.7815L107.004 27.2005L107.068 27.2019C107.126 27.1179 107.205 27.0108 107.306 26.8808C107.41 26.7488 107.555 26.6326 107.743 26.5323C107.933 26.4299 108.188 26.3824 108.508 26.3898C108.922 26.3993 109.285 26.5111 109.596 26.7252C109.906 26.9394 110.146 27.2383 110.314 27.6221C110.483 28.0058 110.561 28.4558 110.549 28.972C110.537 29.4925 110.438 29.9416 110.253 30.3194C110.067 30.6951 109.815 30.9838 109.497 31.1857C109.178 31.3854 108.814 31.4806 108.405 31.4712C108.089 31.4639 107.837 31.4059 107.65 31.297C107.463 31.186 107.319 31.0621 107.22 30.9254C107.121 30.7865 107.044 30.6717 106.991 30.5808L106.901 30.5788L106.884 31.3339L106.154 31.3172ZM106.953 28.8768C106.945 29.248 106.991 29.5767 107.094 29.8629C107.196 30.1469 107.35 30.3713 107.555 30.5361C107.761 30.6988 108.015 30.7836 108.318 30.7905C108.634 30.7977 108.899 30.7206 109.114 30.559C109.331 30.3954 109.496 30.173 109.609 29.8917C109.725 29.6083 109.786 29.2918 109.794 28.9419C109.802 28.5964 109.756 28.2837 109.656 28.0039C109.558 27.7221 109.404 27.4977 109.194 27.3307C108.987 27.1616 108.723 27.0734 108.403 27.0661C108.096 27.059 107.836 27.131 107.624 27.2819C107.411 27.4307 107.248 27.6425 107.135 27.9174C107.022 28.1901 106.962 28.5099 106.953 28.8768ZM113.092 31.5914C112.781 31.5843 112.499 31.5191 112.248 31.396C111.997 31.2707 111.799 31.0944 111.655 30.867C111.511 30.6374 111.443 30.3627 111.45 30.0427C111.456 29.7611 111.517 29.5342 111.632 29.3618C111.747 29.1873 111.898 29.052 112.086 28.956C112.274 28.86 112.481 28.7901 112.706 28.7461C112.933 28.7001 113.161 28.6648 113.39 28.6402C113.69 28.6086 113.932 28.5854 114.118 28.5704C114.307 28.5534 114.444 28.5213 114.53 28.4742C114.619 28.4271 114.665 28.3428 114.667 28.2212L114.668 28.1956C114.675 27.8799 114.594 27.6326 114.426 27.4538C114.259 27.2749 114.002 27.1815 113.654 27.1736C113.294 27.1653 113.009 27.2378 112.801 27.3909C112.592 27.5441 112.445 27.7093 112.357 27.8866L111.646 27.6142C111.781 27.3185 111.957 27.0899 112.174 26.9284C112.394 26.7648 112.631 26.6529 112.886 26.5925C113.144 26.5301 113.396 26.5018 113.644 26.5075C113.802 26.5111 113.983 26.5344 114.186 26.5775C114.393 26.6185 114.59 26.6988 114.78 26.8184C114.971 26.938 115.128 27.1156 115.251 27.351C115.373 27.5865 115.43 27.8994 115.421 28.2897L115.347 31.5278L114.592 31.5105L114.607 30.845L114.569 30.8441C114.515 30.9496 114.427 31.0618 114.305 31.1806C114.183 31.2995 114.022 31.3993 113.821 31.4801C113.621 31.5608 113.378 31.5979 113.092 31.5914ZM113.223 30.9157C113.521 30.9225 113.774 30.8697 113.982 30.757C114.191 30.6444 114.351 30.4966 114.459 30.3134C114.57 30.1302 114.628 29.9363 114.633 29.7315L114.649 29.0404C114.616 29.078 114.545 29.1116 114.435 29.1411C114.328 29.1685 114.203 29.1924 114.062 29.2126C113.923 29.2308 113.787 29.2468 113.654 29.2609C113.524 29.2728 113.418 29.2832 113.337 29.292C113.14 29.3131 112.955 29.3505 112.784 29.4042C112.614 29.4558 112.475 29.5369 112.368 29.6476C112.263 29.7562 112.209 29.9064 112.204 30.0984C112.198 30.3608 112.291 30.5614 112.482 30.7002C112.675 30.837 112.922 30.9088 113.223 30.9157ZM118.975 26.6937L118.961 27.3336L116.414 27.2752L116.429 26.6353L118.975 26.6937ZM117.198 25.4748L117.953 25.4921L117.846 30.1765C117.841 30.3898 117.868 30.5505 117.927 30.6586C117.989 30.7645 118.068 30.8368 118.166 30.8753C118.265 30.9117 118.37 30.9312 118.481 30.9338C118.565 30.9357 118.633 30.933 118.686 30.9257C118.74 30.9162 118.783 30.9087 118.815 30.903L118.953 31.5848C118.901 31.6029 118.829 31.6204 118.737 31.6375C118.645 31.6568 118.529 31.6648 118.388 31.6615C118.175 31.6566 117.967 31.606 117.764 31.5096C117.563 31.4132 117.398 31.2696 117.268 31.0788C117.14 30.8881 117.079 30.6498 117.086 30.364L117.198 25.4748ZM121.94 31.7814C121.497 31.7712 121.11 31.6567 120.78 31.4378C120.452 31.219 120.198 30.9176 120.019 30.5336C119.842 30.1497 119.76 29.7039 119.771 29.1962C119.783 28.6842 119.886 28.2395 120.08 27.8619C120.277 27.4843 120.544 27.1938 120.881 26.9903C121.221 26.7867 121.613 26.6901 122.057 26.7002C122.5 26.7104 122.886 26.8249 123.214 27.0437C123.544 27.2626 123.798 27.565 123.974 27.9511C124.153 28.3372 124.237 28.7863 124.225 29.2982C124.214 29.8059 124.11 30.2475 123.913 30.6229C123.719 30.9983 123.452 31.2878 123.112 31.4913C122.775 31.6948 122.384 31.7915 121.94 31.7814ZM121.956 31.103C122.293 31.1107 122.572 31.0307 122.794 30.8629C123.015 30.6951 123.181 30.4716 123.292 30.1925C123.403 29.9133 123.463 29.6094 123.47 29.2809C123.478 28.9524 123.432 28.6451 123.334 28.359C123.236 28.0729 123.081 27.8399 122.867 27.66C122.653 27.4801 122.378 27.3863 122.041 27.3786C121.704 27.3709 121.425 27.452 121.203 27.6219C120.982 27.7918 120.815 28.0174 120.704 28.2988C120.593 28.5801 120.534 28.885 120.526 29.2135C120.519 29.542 120.564 29.8482 120.662 30.1322C120.76 30.4161 120.916 30.647 121.13 30.8248C121.343 31.0026 121.619 31.0953 121.956 31.103ZM125.322 31.7564L125.435 26.8417L126.164 26.8584L126.147 27.6007L126.199 27.6019C126.294 27.3608 126.46 27.1672 126.698 27.0211C126.937 26.875 127.203 26.8054 127.497 26.8121C127.553 26.8134 127.622 26.816 127.705 26.8201C127.788 26.8241 127.851 26.8288 127.894 26.834L127.876 27.6019C127.851 27.595 127.792 27.584 127.701 27.5691C127.612 27.5521 127.517 27.5425 127.416 27.5402C127.178 27.5347 126.963 27.5799 126.773 27.6759C126.585 27.7698 126.435 27.9029 126.322 28.0753C126.212 28.2457 126.154 28.4418 126.149 28.6636L126.077 31.7737L125.322 31.7564ZM130.583 31.9794C130.11 31.9686 129.704 31.8547 129.365 31.6378C129.029 31.4188 128.772 31.1184 128.595 30.7365C128.42 30.3526 128.339 29.909 128.35 29.4056C128.362 28.9022 128.464 28.4606 128.656 28.0808C128.85 27.699 129.115 27.4041 129.451 27.1962C129.789 26.9863 130.179 26.8864 130.623 26.8966C130.879 26.9024 131.131 26.9509 131.378 27.0419C131.626 27.133 131.85 27.2768 132.05 27.4735C132.251 27.668 132.408 27.9235 132.523 28.2398C132.637 28.5562 132.689 28.9437 132.678 29.4023L132.671 29.7223L128.883 29.6355L128.898 28.9827L131.918 29.0519C131.925 28.7746 131.875 28.5259 131.769 28.3058C131.665 28.0857 131.513 27.9104 131.313 27.78C131.116 27.6495 130.881 27.5811 130.607 27.5749C130.307 27.568 130.045 27.6367 129.822 27.781C129.601 27.9232 129.429 28.1113 129.306 28.3454C129.183 28.5795 129.119 28.832 129.113 29.1029L129.103 29.5381C129.094 29.9092 129.151 30.2253 129.273 30.4864C129.397 30.7453 129.573 30.9446 129.8 31.0843C130.028 31.2218 130.294 31.2941 130.599 31.3011C130.797 31.3056 130.977 31.282 131.138 31.2302C131.302 31.1763 131.443 31.0942 131.563 30.9839C131.683 30.8713 131.777 30.7305 131.845 30.5613L132.57 30.7828C132.488 31.0285 132.354 31.2431 132.168 31.4267C131.982 31.6081 131.755 31.748 131.486 31.8464C131.217 31.9427 130.916 31.9871 130.583 31.9794Z" fill="white"/>
<path d="M159.275 31.3679L159.251 30.7923L161.316 28.3374C161.558 28.0499 161.757 27.8004 161.913 27.589C162.069 27.3755 162.183 27.1766 162.254 26.9921C162.328 26.8055 162.36 26.6119 162.352 26.4115C162.343 26.1813 162.279 25.9842 162.161 25.8203C162.046 25.6564 161.891 25.5324 161.698 25.4485C161.504 25.3646 161.289 25.3275 161.052 25.3372C160.801 25.3475 160.583 25.4087 160.4 25.5208C160.219 25.6307 160.081 25.7805 159.986 25.9702C159.893 26.1598 159.852 26.3793 159.862 26.6287L159.108 26.6596C159.092 26.2758 159.167 25.9354 159.332 25.6382C159.497 25.341 159.728 25.1052 160.027 24.9307C160.327 24.7561 160.668 24.661 161.05 24.6454C161.433 24.6297 161.777 24.6968 162.08 24.8467C162.383 24.9966 162.624 25.2056 162.804 25.4737C162.983 25.7418 163.08 26.0443 163.094 26.3812C163.104 26.6221 163.07 26.8594 162.992 27.0933C162.916 27.3249 162.777 27.5857 162.575 27.8759C162.376 28.1638 162.096 28.5169 161.738 28.9352L160.331 30.5687L160.333 30.6199L163.378 30.4953L163.406 31.1988L159.275 31.3679ZM166.867 31.1469C166.385 31.1666 165.969 31.0523 165.62 30.804C165.27 30.5535 164.995 30.1814 164.796 29.6877C164.596 29.1919 164.481 28.588 164.452 27.8759C164.423 27.1682 164.488 26.5601 164.647 26.0518C164.807 25.5412 165.052 25.1468 165.38 24.8686C165.71 24.5882 166.114 24.4382 166.592 24.4186C167.069 24.3991 167.483 24.5156 167.833 24.7683C168.185 25.0187 168.46 25.3918 168.66 25.8876C168.862 26.3811 168.977 26.9818 169.006 27.6896C169.035 28.4017 168.971 29.0129 168.812 29.5234C168.653 30.0317 168.41 30.425 168.082 30.7032C167.754 30.9793 167.349 31.1272 166.867 31.1469ZM166.838 30.4434C167.316 30.4239 167.677 30.1784 167.923 29.7071C168.168 29.2358 168.273 28.5738 168.239 27.721C168.215 27.1539 168.135 26.6735 167.997 26.2799C167.861 25.8861 167.676 25.5893 167.442 25.3897C167.209 25.1899 166.935 25.0965 166.62 25.1094C166.147 25.1287 165.786 25.3773 165.539 25.8551C165.291 26.3308 165.185 26.9939 165.22 27.8445C165.243 28.4116 165.322 28.891 165.458 29.2826C165.594 29.6743 165.778 29.9689 166.01 30.1666C166.244 30.3641 166.52 30.4564 166.838 30.4434ZM172.39 24.2711L172.658 30.8203L171.865 30.8528L171.631 25.135L171.592 25.1366L170.037 26.2637L170.004 25.4578L171.597 24.3035L172.39 24.2711ZM176.643 30.7469C176.204 30.7649 175.812 30.703 175.469 30.5611C175.128 30.4171 174.858 30.2114 174.659 29.944C174.46 29.6745 174.354 29.3628 174.342 29.0088C174.329 28.7318 174.373 28.4737 174.474 28.2347C174.575 27.9935 174.718 27.7901 174.904 27.6245C175.091 27.4567 175.303 27.3465 175.54 27.2941L175.539 27.2558C175.222 27.1876 174.966 27.0219 174.769 26.7587C174.572 26.4934 174.468 26.187 174.456 25.8394C174.44 25.5069 174.512 25.2061 174.672 24.9369C174.832 24.6677 175.058 24.4513 175.35 24.2877C175.645 24.124 175.984 24.0344 176.367 24.0187C176.747 24.0031 177.089 24.0649 177.394 24.2041C177.698 24.3432 177.941 24.5404 178.123 24.7957C178.306 25.0508 178.406 25.3447 178.421 25.6772C178.433 26.0248 178.351 26.3388 178.175 26.6194C178 26.8977 177.761 27.0837 177.458 27.1773L177.459 27.2156C177.698 27.2486 177.915 27.3411 178.111 27.4933C178.307 27.6433 178.467 27.8343 178.589 28.0663C178.712 28.2962 178.78 28.5496 178.794 28.8267C178.806 29.1807 178.723 29.5001 178.544 29.785C178.368 30.0677 178.116 30.2948 177.788 30.4663C177.461 30.6355 177.08 30.7291 176.643 30.7469ZM176.614 30.0434C176.91 30.0313 177.164 29.9729 177.376 29.8681C177.587 29.7634 177.748 29.6212 177.858 29.4416C177.968 29.262 178.019 29.0548 178.012 28.8203C177.999 28.573 177.927 28.3571 177.793 28.1725C177.659 27.9879 177.482 27.8457 177.26 27.7459C177.04 27.646 176.792 27.6017 176.514 27.613C176.235 27.6245 175.988 27.689 175.773 27.8068C175.56 27.9244 175.394 28.0806 175.276 28.2755C175.16 28.4703 175.109 28.6913 175.121 28.9385C175.128 29.1731 175.193 29.3755 175.315 29.5456C175.44 29.7156 175.613 29.8441 175.834 29.9312C176.056 30.0182 176.315 30.0556 176.614 30.0434ZM176.487 26.9351C176.721 26.9255 176.927 26.8701 177.105 26.7689C177.284 26.6676 177.423 26.5306 177.52 26.3579C177.618 26.1852 177.663 25.9858 177.656 25.7597C177.645 25.5381 177.585 25.3473 177.475 25.1873C177.366 25.0252 177.219 24.9031 177.034 24.821C176.849 24.7367 176.637 24.6995 176.396 24.7094C176.15 24.7194 175.938 24.774 175.759 24.8732C175.579 24.9702 175.442 25.104 175.349 25.2743C175.255 25.4426 175.214 25.6375 175.225 25.8592C175.233 26.0852 175.291 26.2804 175.4 26.4446C175.511 26.6088 175.661 26.734 175.848 26.8203C176.035 26.9066 176.248 26.9449 176.487 26.9351Z" fill="white"/>
<path d="M12.8576 72V62.168H14.9363V66.5031H15.066L18.6042 62.168H21.0958L17.4472 66.5703L21.139 72H18.6522L15.9589 67.9577L14.9363 69.2059V72H12.8576ZM24.2427 72.1392C23.7722 72.1392 23.3529 72.0576 22.9849 71.8944C22.6168 71.728 22.3256 71.4831 22.1111 71.1599C21.8999 70.8334 21.7943 70.4269 21.7943 69.9405C21.7943 69.5308 21.8695 69.1867 22.0199 68.9083C22.1704 68.6298 22.3752 68.4058 22.6344 68.2362C22.8937 68.0665 23.1881 67.9385 23.5178 67.8521C23.8506 67.7657 24.1995 67.7049 24.5643 67.6697C24.9932 67.6249 25.3389 67.5833 25.6013 67.5449C25.8638 67.5033 26.0542 67.4424 26.1726 67.3624C26.291 67.2824 26.3502 67.164 26.3502 67.0072V66.9784C26.3502 66.6743 26.2542 66.4391 26.0622 66.2726C25.8734 66.1062 25.6045 66.023 25.2557 66.023C24.8876 66.023 24.5948 66.1046 24.3771 66.2678C24.1595 66.4279 24.0155 66.6295 23.945 66.8727L22.0535 66.7191C22.1495 66.271 22.3384 65.8838 22.62 65.5573C22.9017 65.2277 23.2649 64.9748 23.7098 64.7988C24.1579 64.6196 24.6764 64.53 25.2653 64.53C25.6749 64.53 26.067 64.578 26.4415 64.674C26.8191 64.77 27.1536 64.9188 27.4448 65.1205C27.7393 65.3221 27.9713 65.5813 28.1409 65.8982C28.3106 66.2118 28.3954 66.5879 28.3954 67.0264V72H26.4559V70.9774H26.3983C26.2798 71.2079 26.1214 71.4111 25.923 71.5871C25.7245 71.76 25.4861 71.896 25.2077 71.9952C24.9292 72.0912 24.6076 72.1392 24.2427 72.1392ZM24.8284 70.7278C25.1292 70.7278 25.3949 70.6686 25.6253 70.5502C25.8558 70.4285 26.0366 70.2653 26.1678 70.0605C26.299 69.8556 26.3646 69.6236 26.3646 69.3644V68.5818C26.3006 68.6234 26.2126 68.6618 26.1006 68.6971C25.9918 68.7291 25.8686 68.7595 25.7309 68.7883C25.5933 68.8139 25.4557 68.8379 25.3181 68.8603C25.1805 68.8795 25.0556 68.8971 24.9436 68.9131C24.7036 68.9483 24.4939 69.0043 24.3147 69.0811C24.1355 69.1579 23.9963 69.2619 23.897 69.3932C23.7978 69.5212 23.7482 69.6812 23.7482 69.8732C23.7482 70.1517 23.849 70.3645 24.0507 70.5118C24.2555 70.6558 24.5147 70.7278 24.8284 70.7278ZM30.0205 72V62.168H32.0656V65.8646H32.128C32.2176 65.6661 32.3472 65.4645 32.5169 65.2597C32.6897 65.0516 32.9137 64.8788 33.189 64.7412C33.4674 64.6004 33.8131 64.53 34.226 64.53C34.7636 64.53 35.2597 64.6708 35.7142 64.9524C36.1687 65.2309 36.5319 65.6517 36.804 66.215C37.076 66.7751 37.2121 67.4776 37.2121 68.3226C37.2121 69.1451 37.0792 69.8396 36.8136 70.4061C36.5511 70.9694 36.1927 71.3967 35.7382 71.6879C35.2869 71.976 34.7812 72.12 34.2212 72.12C33.8243 72.12 33.4866 72.0544 33.2082 71.9232C32.9329 71.792 32.7073 71.6271 32.5313 71.4287C32.3552 71.2271 32.2208 71.0238 32.128 70.819H32.0368V72H30.0205ZM32.0224 68.313C32.0224 68.7515 32.0832 69.1339 32.2048 69.4604C32.3264 69.7868 32.5025 70.0413 32.7329 70.2237C32.9633 70.4029 33.2434 70.4925 33.573 70.4925C33.9059 70.4925 34.1876 70.4013 34.418 70.2189C34.6484 70.0333 34.8229 69.7772 34.9413 69.4508C35.0629 69.1211 35.1237 68.7419 35.1237 68.313C35.1237 67.8873 35.0645 67.5129 34.9461 67.1896C34.8277 66.8663 34.6532 66.6135 34.4228 66.4311C34.1924 66.2486 33.9091 66.1574 33.573 66.1574C33.2402 66.1574 32.9585 66.2454 32.7281 66.4215C32.5009 66.5975 32.3264 66.8471 32.2048 67.1704C32.0832 67.4937 32.0224 67.8745 32.0224 68.313ZM38.5767 72V64.626H40.6218V72H38.5767ZM39.6041 63.6754C39.3 63.6754 39.0392 63.5746 38.8215 63.373C38.6071 63.1681 38.4999 62.9233 38.4999 62.6384C38.4999 62.3568 38.6071 62.1152 38.8215 61.9135C39.0392 61.7087 39.3 61.6063 39.6041 61.6063C39.9081 61.6063 40.1673 61.7087 40.3818 61.9135C40.5994 62.1152 40.7082 62.3568 40.7082 62.6384C40.7082 62.9233 40.5994 63.1681 40.3818 63.373C40.1673 63.5746 39.9081 63.6754 39.6041 63.6754ZM44.3052 62.168V72H42.2601V62.168H44.3052ZM48.0463 72.1392C47.5758 72.1392 47.1565 72.0576 46.7884 71.8944C46.4204 71.728 46.1291 71.4831 45.9147 71.1599C45.7035 70.8334 45.5978 70.4269 45.5978 69.9405C45.5978 69.5308 45.6731 69.1867 45.8235 68.9083C45.9739 68.6298 46.1787 68.4058 46.438 68.2362C46.6972 68.0665 46.9917 67.9385 47.3213 67.8521C47.6542 67.7657 48.003 67.7049 48.3679 67.6697C48.7968 67.6249 49.1424 67.5833 49.4049 67.5449C49.6673 67.5033 49.8578 67.4424 49.9762 67.3624C50.0946 67.2824 50.1538 67.164 50.1538 67.0072V66.9784C50.1538 66.6743 50.0578 66.4391 49.8658 66.2726C49.6769 66.1062 49.4081 66.023 49.0592 66.023C48.6912 66.023 48.3983 66.1046 48.1807 66.2678C47.963 66.4279 47.819 66.6295 47.7486 66.8727L45.8571 66.7191C45.9531 66.271 46.1419 65.8838 46.4236 65.5573C46.7052 65.2277 47.0685 64.9748 47.5134 64.7988C47.9614 64.6196 48.4799 64.53 49.0688 64.53C49.4785 64.53 49.8706 64.578 50.245 64.674C50.6227 64.77 50.9571 64.9188 51.2484 65.1205C51.5428 65.3221 51.7749 65.5813 51.9445 65.8982C52.1141 66.2118 52.1989 66.5879 52.1989 67.0264V72H50.2594V70.9774H50.2018C50.0834 71.2079 49.925 71.4111 49.7265 71.5871C49.5281 71.76 49.2897 71.896 49.0112 71.9952C48.7328 72.0912 48.4111 72.1392 48.0463 72.1392ZM48.632 70.7278C48.9328 70.7278 49.1984 70.6686 49.4289 70.5502C49.6593 70.4285 49.8402 70.2653 49.9714 70.0605C50.1026 69.8556 50.1682 69.6236 50.1682 69.3644V68.5818C50.1042 68.6234 50.0162 68.6618 49.9042 68.6971C49.7953 68.7291 49.6721 68.7595 49.5345 68.7883C49.3969 68.8139 49.2593 68.8379 49.1216 68.8603C48.984 68.8795 48.8592 68.8971 48.7472 68.9131C48.5071 68.9483 48.2975 69.0043 48.1183 69.0811C47.939 69.1579 47.7998 69.2619 47.7006 69.3932C47.6014 69.5212 47.5518 69.6812 47.5518 69.8732C47.5518 70.1517 47.6526 70.3645 47.8542 70.5118C48.0591 70.6558 48.3183 70.7278 48.632 70.7278ZM59.921 66.7287L58.0487 66.8439C58.0167 66.6839 57.9479 66.5399 57.8423 66.4119C57.7367 66.2806 57.5974 66.1766 57.4246 66.0998C57.255 66.0198 57.0518 65.9798 56.8149 65.9798C56.4981 65.9798 56.2308 66.047 56.0132 66.1814C55.7955 66.3127 55.6867 66.4887 55.6867 66.7095C55.6867 66.8855 55.7571 67.0344 55.898 67.156C56.0388 67.2776 56.2804 67.3752 56.6229 67.4488L57.9575 67.7177C58.6744 67.8649 59.2089 68.1018 59.561 68.4282C59.913 68.7547 60.0891 69.1835 60.0891 69.7148C60.0891 70.1981 59.9466 70.6222 59.6618 70.987C59.3801 71.3519 58.9929 71.6367 58.5 71.8416C58.0103 72.0432 57.4454 72.144 56.8053 72.144C55.8292 72.144 55.0514 71.9408 54.4721 71.5343C53.896 71.1247 53.5584 70.5678 53.4592 69.8636L55.4707 69.758C55.5315 70.0557 55.6787 70.2829 55.9124 70.4397C56.146 70.5934 56.4453 70.6702 56.8101 70.6702C57.1686 70.6702 57.4566 70.6014 57.6743 70.4637C57.8951 70.3229 58.0071 70.1421 58.0103 69.9213C58.0071 69.7356 57.9287 69.5836 57.7751 69.4652C57.6214 69.3436 57.3846 69.2507 57.0646 69.1867L55.7875 68.9323C55.0674 68.7883 54.5313 68.5386 54.1793 68.1834C53.8304 67.8281 53.656 67.3752 53.656 66.8247C53.656 66.3511 53.784 65.943 54.0401 65.6005C54.2993 65.2581 54.6626 64.994 55.1298 64.8084C55.6003 64.6228 56.1508 64.53 56.7813 64.53C57.7127 64.53 58.4456 64.7268 58.9801 65.1205C59.5178 65.5141 59.8314 66.0502 59.921 66.7287ZM63.422 67.7369V72H61.3769V62.168H63.3644V65.927H63.4508C63.6172 65.4917 63.8861 65.1509 64.2574 64.9044C64.6286 64.6548 65.0943 64.53 65.6544 64.53C66.1665 64.53 66.6129 64.642 66.9938 64.866C67.3779 65.0868 67.6755 65.4053 67.8868 65.8214C68.1012 66.2342 68.2068 66.7287 68.2036 67.3048V72H66.1585V67.6697C66.1617 67.2152 66.0465 66.8615 65.8128 66.6087C65.5824 66.3559 65.2591 66.2294 64.8431 66.2294C64.5646 66.2294 64.3182 66.2886 64.1037 66.4071C63.8925 66.5255 63.7261 66.6983 63.6044 66.9256C63.486 67.1496 63.4252 67.42 63.422 67.7369Z" fill="white"/>
<path d="M12.737 84.4453H13.9372L16.0239 89.5406H16.1007L18.1875 84.4453H19.3877V91H18.4467V86.2568H18.3859L16.4528 90.9904H15.6719L13.7388 86.2536H13.6779V91H12.737V84.4453ZM20.8255 91V84.4453H24.935V85.2967H21.8145V87.2938H24.7206V88.1419H21.8145V90.1487H24.9734V91H20.8255ZM26.256 91V84.4453H28.5924C29.1002 84.4453 29.5216 84.5328 29.8566 84.7078C30.1938 84.8827 30.4455 85.1249 30.612 85.4343C30.7784 85.7415 30.8616 86.0968 30.8616 86.5001C30.8616 86.9012 30.7773 87.2543 30.6088 87.5594C30.4423 87.8624 30.1906 88.0982 29.8534 88.2667C29.5184 88.4353 29.097 88.5196 28.5892 88.5196H26.8193V87.6682H28.4996C28.8197 87.6682 29.08 87.6224 29.2805 87.5306C29.4832 87.4389 29.6315 87.3055 29.7254 87.1306C29.8193 86.9556 29.8662 86.7454 29.8662 86.5001C29.8662 86.2525 29.8182 86.0381 29.7222 85.8567C29.6283 85.6754 29.48 85.5367 29.2773 85.4407C29.0768 85.3425 28.8133 85.2935 28.4868 85.2935H27.245V91H26.256ZM29.4918 88.0427L31.1112 91H29.9847L28.3972 88.0427H29.4918ZM37.3555 84.4453V91H36.4465L33.1148 86.1928H33.054V91H32.065V84.4453H32.9804L36.3153 89.2589H36.3761V84.4453H37.3555ZM42.3731 86.1672C42.339 85.8642 42.1982 85.6295 41.9506 85.4631C41.7031 85.2945 41.3916 85.2102 41.0161 85.2102C40.7472 85.2102 40.5147 85.2529 40.3184 85.3383C40.1221 85.4215 39.9695 85.5367 39.8607 85.6839C39.754 85.829 39.7007 85.9944 39.7007 86.18C39.7007 86.3358 39.7369 86.4702 39.8095 86.5833C39.8842 86.6964 39.9813 86.7913 40.1007 86.8681C40.2224 86.9428 40.3525 87.0057 40.4912 87.0569C40.6299 87.106 40.7632 87.1466 40.8913 87.1786L41.5314 87.345C41.7405 87.3962 41.9549 87.4655 42.1747 87.553C42.3945 87.6405 42.5982 87.7557 42.786 87.8987C42.9738 88.0416 43.1252 88.2187 43.2405 88.43C43.3578 88.6412 43.4165 88.894 43.4165 89.1885C43.4165 89.5598 43.3205 89.8894 43.1284 90.1775C42.9385 90.4655 42.6622 90.6927 42.2995 90.8592C41.9389 91.0256 41.5026 91.1088 40.9905 91.1088C40.4997 91.1088 40.0751 91.0309 39.7167 90.8752C39.3582 90.7194 39.0776 90.4986 38.8749 90.2127C38.6722 89.9246 38.5602 89.5832 38.5389 89.1885H39.531C39.5502 89.4253 39.6271 89.6227 39.7615 89.7806C39.898 89.9364 40.0719 90.0526 40.2832 90.1295C40.4965 90.2041 40.7302 90.2415 40.9841 90.2415C41.2636 90.2415 41.5122 90.1977 41.7298 90.1103C41.9496 90.0206 42.1224 89.8969 42.2483 89.739C42.3742 89.579 42.4371 89.3923 42.4371 89.1789C42.4371 88.9847 42.3817 88.8258 42.2707 88.702C42.1619 88.5783 42.0136 88.4758 41.8258 88.3948C41.6402 88.3137 41.43 88.2422 41.1953 88.1803L40.4208 87.9691C39.8959 87.8261 39.4798 87.616 39.1726 87.3386C38.8675 87.0612 38.7149 86.6942 38.7149 86.2376C38.7149 85.8599 38.8173 85.5303 39.0222 85.2486C39.227 84.967 39.5044 84.7483 39.8543 84.5925C40.2042 84.4346 40.599 84.3557 41.0385 84.3557C41.4823 84.3557 41.8738 84.4336 42.2131 84.5893C42.5545 84.7451 42.8233 84.9595 43.0196 85.2326C43.2159 85.5036 43.3183 85.8151 43.3269 86.1672H42.3731ZM44.275 85.2967V84.4453H49.3479V85.2967H47.3027V91H46.317V85.2967H44.275ZM50.248 91H49.1983L51.557 84.4453H52.6996L55.0584 91H54.0087L52.1555 85.6359H52.1043L50.248 91ZM50.4241 88.4332H53.8294V89.2653H50.4241V88.4332ZM61.141 86.5769H60.1425C60.1041 86.3635 60.0326 86.1757 59.928 86.0136C59.8235 85.8514 59.6955 85.7138 59.544 85.6007C59.3925 85.4876 59.2229 85.4023 59.0351 85.3447C58.8495 85.287 58.6521 85.2582 58.443 85.2582C58.0653 85.2582 57.7271 85.3532 57.4284 85.5431C57.1318 85.733 56.8971 86.0114 56.7243 86.3784C56.5536 86.7454 56.4683 87.1935 56.4683 87.7227C56.4683 88.2561 56.5536 88.7063 56.7243 89.0733C56.8971 89.4403 57.1329 89.7177 57.4316 89.9054C57.7303 90.0932 58.0664 90.1871 58.4398 90.1871C58.6468 90.1871 58.8431 90.1593 59.0287 90.1039C59.2165 90.0462 59.3861 89.962 59.5376 89.851C59.6891 89.7401 59.8171 89.6046 59.9216 89.4445C60.0283 89.2824 60.1019 89.0968 60.1425 88.8876L61.141 88.8908C61.0877 89.213 60.9842 89.5096 60.8306 89.7806C60.6791 90.0494 60.4839 90.282 60.2449 90.4783C60.0081 90.6725 59.7371 90.8229 59.432 90.9296C59.1268 91.0363 58.794 91.0896 58.4334 91.0896C57.8658 91.0896 57.3601 90.9552 56.9163 90.6863C56.4725 90.4154 56.1226 90.0281 55.8666 89.5246C55.6127 89.021 55.4857 88.4204 55.4857 87.7227C55.4857 87.0228 55.6137 86.4222 55.8698 85.9208C56.1258 85.4172 56.4757 85.031 56.9195 84.7622C57.3633 84.4912 57.868 84.3557 58.4334 84.3557C58.7812 84.3557 59.1055 84.4058 59.4064 84.5061C59.7093 84.6043 59.9814 84.7494 60.2225 84.9414C60.4636 85.1313 60.6631 85.3639 60.821 85.6391C60.9789 85.9122 61.0856 86.2248 61.141 86.5769ZM62.3244 91V84.4453H63.3134V87.5754H63.3934L66.1427 84.4453H67.3877L64.744 87.3962L67.3973 91H66.2067L64.0879 88.0715L63.3134 88.9613V91H62.3244ZM72.8166 91H70.6946V84.4453H72.8838C73.526 84.4453 74.0776 84.5765 74.5385 84.839C74.9993 85.0993 75.3525 85.4737 75.5978 85.9624C75.8454 86.4488 75.9691 87.0324 75.9691 87.7131C75.9691 88.3958 75.8443 88.9826 75.5946 89.4733C75.3471 89.9641 74.9887 90.3418 74.5193 90.6063C74.0499 90.8688 73.4823 91 72.8166 91ZM71.6836 90.1359H72.7622C73.2615 90.1359 73.6765 90.042 74.0072 89.8542C74.3379 89.6643 74.5854 89.3901 74.7497 89.0317C74.914 88.6711 74.9961 88.2315 74.9961 87.7131C74.9961 87.1988 74.914 86.7625 74.7497 86.404C74.5875 86.0456 74.3454 85.7735 74.0232 85.5879C73.701 85.4023 73.3009 85.3095 72.823 85.3095H71.6836V90.1359ZM77.1989 91V84.4453H81.3084V85.2967H78.1879V87.2938H81.094V88.1419H78.1879V90.1487H81.3468V91H77.1989ZM83.2023 84.4453L85.0266 89.7838H85.1002L86.9245 84.4453H87.9935L85.6347 91H84.4921L82.1333 84.4453H83.2023ZM88.9401 91V84.4453H89.929V90.1487H92.8991V91H88.9401ZM99.4658 87.7227C99.4658 88.4225 99.3378 89.0242 99.0818 89.5278C98.8257 90.0292 98.4747 90.4154 98.0288 90.6863C97.585 90.9552 97.0804 91.0896 96.5149 91.0896C95.9474 91.0896 95.4406 90.9552 94.9947 90.6863C94.5509 90.4154 94.2009 90.0281 93.9449 89.5246C93.6889 89.021 93.5608 88.4204 93.5608 87.7227C93.5608 87.0228 93.6889 86.4222 93.9449 85.9208C94.2009 85.4172 94.5509 85.031 94.9947 84.7622C95.4406 84.4912 95.9474 84.3557 96.5149 84.3557C97.0804 84.3557 97.585 84.4912 98.0288 84.7622C98.4747 85.031 98.8257 85.4172 99.0818 85.9208C99.3378 86.4222 99.4658 87.0228 99.4658 87.7227ZM98.4865 87.7227C98.4865 87.1892 98.4 86.7401 98.2272 86.3752C98.0565 86.0082 97.8218 85.7309 97.5231 85.5431C97.2265 85.3532 96.8905 85.2582 96.5149 85.2582C96.1373 85.2582 95.8001 85.3532 95.5036 85.5431C95.207 85.7309 94.9723 86.0082 94.7994 86.3752C94.6287 86.7401 94.5434 87.1892 94.5434 87.7227C94.5434 88.2561 94.6287 88.7063 94.7994 89.0733C94.9723 89.4381 95.207 89.7155 95.5036 89.9054C95.8001 90.0932 96.1373 90.1871 96.5149 90.1871C96.8905 90.1871 97.2265 90.0932 97.5231 89.9054C97.8218 89.7155 98.0565 89.4381 98.2272 89.0733C98.4 88.7063 98.4865 88.2561 98.4865 87.7227ZM100.699 91V84.4453H103.035C103.545 84.4453 103.968 84.5381 104.303 84.7238C104.638 84.9094 104.888 85.1633 105.055 85.4855C105.221 85.8055 105.304 86.1661 105.304 86.5673C105.304 86.9705 105.22 87.3333 105.052 87.6554C104.885 87.9755 104.633 88.2294 104.296 88.4172C103.961 88.6028 103.54 88.6956 103.032 88.6956H101.425V87.8571H102.942C103.265 87.8571 103.526 87.8016 103.727 87.6906C103.927 87.5776 104.074 87.4239 104.168 87.2298C104.262 87.0356 104.309 86.8148 104.309 86.5673C104.309 86.3198 104.262 86.1 104.168 85.908C104.074 85.7159 103.926 85.5655 103.723 85.4567C103.523 85.3479 103.258 85.2935 102.93 85.2935H101.688V91H100.699ZM106.464 91V84.4453H110.573V85.2967H107.453V87.2938H110.359V88.1419H107.453V90.1487H110.612V91H106.464ZM111.894 91V84.4453H114.231C114.738 84.4453 115.16 84.5328 115.495 84.7078C115.832 84.8827 116.084 85.1249 116.25 85.4343C116.417 85.7415 116.5 86.0968 116.5 86.5001C116.5 86.9012 116.416 87.2543 116.247 87.5594C116.081 87.8624 115.829 88.0982 115.492 88.2667C115.157 88.4353 114.735 88.5196 114.227 88.5196H112.458V87.6682H114.138C114.458 87.6682 114.718 87.6224 114.919 87.5306C115.121 87.4389 115.27 87.3055 115.364 87.1306C115.458 86.9556 115.504 86.7454 115.504 86.5001C115.504 86.2525 115.456 86.0381 115.36 85.8567C115.267 85.6754 115.118 85.5367 114.916 85.4407C114.715 85.3425 114.452 85.2935 114.125 85.2935H112.883V91H111.894ZM115.13 88.0427L116.749 91H115.623L114.035 88.0427H115.13Z" fill="white"/>
<path d="M31.0625 113.445L32.8868 118.784H32.9604L34.7847 113.445H35.8536L33.4949 120H32.3523L29.9935 113.445H31.0625ZM36.7234 120V115.084H37.6804V120H36.7234ZM37.2067 114.325C37.0402 114.325 36.8973 114.27 36.7778 114.159C36.6604 114.046 36.6018 113.912 36.6018 113.756C36.6018 113.598 36.6604 113.463 36.7778 113.352C36.8973 113.239 37.0402 113.183 37.2067 113.183C37.3731 113.183 37.515 113.239 37.6323 113.352C37.7518 113.463 37.8116 113.598 37.8116 113.756C37.8116 113.912 37.7518 114.046 37.6323 114.159C37.515 114.27 37.3731 114.325 37.2067 114.325ZM41.0865 120.099C40.6022 120.099 40.185 119.996 39.8351 119.789C39.4873 119.58 39.2185 119.286 39.0286 118.909C38.8408 118.529 38.7469 118.084 38.7469 117.574C38.7469 117.07 38.8408 116.627 39.0286 116.243C39.2185 115.859 39.4831 115.559 39.8223 115.343C40.1637 115.128 40.5627 115.02 41.0193 115.02C41.2967 115.02 41.5655 115.066 41.8258 115.158C42.0862 115.249 42.3198 115.393 42.5268 115.59C42.7337 115.786 42.897 116.041 43.0164 116.355C43.1359 116.666 43.1957 117.045 43.1957 117.491V117.83H39.2878V117.113H42.2579C42.2579 116.861 42.2067 116.638 42.1043 116.444C42.0019 116.248 41.8578 116.093 41.6722 115.98C41.4887 115.867 41.2732 115.811 41.0257 115.811C40.7569 115.811 40.5222 115.877 40.3216 116.009C40.1232 116.139 39.9695 116.31 39.8607 116.521C39.754 116.73 39.7007 116.957 39.7007 117.203V117.763C39.7007 118.091 39.7583 118.371 39.8735 118.601C39.9909 118.832 40.1541 119.008 40.3632 119.129C40.5723 119.249 40.8166 119.309 41.0961 119.309C41.2775 119.309 41.4428 119.283 41.5922 119.232C41.7416 119.179 41.8706 119.1 41.9795 118.995C42.0883 118.89 42.1715 118.761 42.2291 118.608L43.1349 118.771C43.0623 119.038 42.9322 119.271 42.7444 119.472C42.5588 119.67 42.3251 119.825 42.0435 119.936C41.764 120.045 41.445 120.099 41.0865 120.099ZM45.3144 120L43.8678 115.084H44.8567L45.8201 118.694H45.8681L46.8347 115.084H47.8236L48.7838 118.678H48.8318L49.7888 115.084H50.7777L49.3343 120H48.3581L47.3596 116.451H47.2859L46.2874 120H45.3144Z" fill="white"/>
</g>
<defs>
<clipPath id="clip0_107_173">
<rect width="214" height="143" fill="white" transform="translate(0.0625 0.324097) rotate(-0.0526273)"/>
</clipPath>
</defs>
</svg>
