<svg xmlns="http://www.w3.org/2000/svg" fill="none" viewBox="0 0 400 400" id="College-University--Streamline-Milano.svg" height="400" width="400"><desc>College University Streamline Illustration: https://streamlinehq.com</desc><g id="college-university--infrastructure-college-university"><g id="tree 3"><path id="vector" fill="#cdf80b" d="M269.04 231.448c-1.89 1.388 -3.424 3.012 -3.94 5.292l2.068 0.008c0.744 -2.236 2.842 -3.598 4.848 -4.9 0.756 -0.492 0.522 -1.66 -0.364 -1.822 -3.356 -0.618 -9.108 -2.856 -10.176 -4.684 -0.886 -1.514 0.51 -3.71 2.274 -5.008 2.004 -1.474 4.358 -2.486 6.806 -2.924 0.944 -0.17 1.128 -1.448 0.27 -1.878 -3.388 -1.696 -5.09 -6.252 -3.64 -9.754 1.45 -3.502 5.874 -5.524 9.47 -4.326 0.88 0.298 1.652 -0.672 1.172 -1.466 -3.998 -6.594 -2.098 -15.304 5.416 -15.862 2.008 -0.146 3.738 0.474 4.896 1.75 0.73 0.802 2.042 0.024 1.684 -1 -1.488 -4.276 -0.112 -8.344 4.082 -8.158l0.074 -2c-4.258 -0.178 -7.252 3.126 -6.672 8.134 -1.25 -0.576 -2.706 -0.834 -4.212 -0.716 -7.644 0.566 -11.606 8.608 -7.958 16.996 -4.054 -0.292 -8.224 2.074 -9.8 5.886 -1.556 3.756 -0.342 8.31 2.638 10.976 -1.938 0.606 -3.778 1.534 -5.412 2.736 -2.45 1.802 -4.376 4.958 -2.816 7.628 1.286 2.2 5.898 4.122 9.29 5.096l0.002 -0.004Z" stroke-width="1"></path><path id="vector_2" fill="#cdf80b" d="M217.086 205.09c0.036 0.788 0.07 1.576 0.102 2.364 1.218 -0.942 2.714 -1.624 4.332 -1.912 0.898 -0.16 1.132 -1.35 0.35 -1.834 -0.976 -0.604 -1.69 -1.672 -1.956 -2.932 -0.982 -4.626 4.252 -6.656 7.06 -4.558 0.85 0.634 1.976 -0.326 1.484 -1.266 0.094 -0.24 0.384 -0.726 0.968 -1.182 3.746 -2.92 9.972 3.28 6.594 7.108 -0.366 0.414 -0.33 1.05 0.084 1.414 0.416 0.366 1.048 0.324 1.414 -0.09 0.844 -0.954 2.062 -0.982 2.712 -0.912 4.496 0.476 5.21 5.752 2.544 9.802 -0.472 0.72 0.15 1.62 0.844 1.55 3.872 0.056 7.98 6.304 0.57 13.412 -0.576 0.554 -0.302 1.524 0.476 1.698 2.848 0.63 5.346 4.46 3.404 8.956h2.14c1.462 -4.284 -0.036 -8.502 -3.544 -10.334 2.334 -2.59 3.59 -5.342 3.65 -8.03 0.072 -3.24 -2.038 -6.59 -5.112 -7.478 3.178 -6.5 -0.794 -12.386 -6.29 -11.53 0.656 -3.818 -2.72 -7.74 -6.506 -8.284 -2.722 -0.402 -4.844 1.306 -5.634 2.792 -2.778 -1.082 -6.234 -0.134 -7.914 2.33 -1.588 2.33 -1.336 5.67 0.446 7.886 -0.784 0.272 -1.526 0.62 -2.216 1.032l-0.002 -0.002Z" stroke-width="1"></path></g><g id="building"><g id="group"><path id="vector_3" fill="#cdf80b" d="M24.546 242.362c-0.69 -33.3 -0.136 -67.016 1.664 -100.708 16.682 -6.512 37.976 -10.422 63.322 -11.628 -1.52 36.02 -1.678 76.506 -1.222 109.528l1.998 -0.072c-0.484 -37.324 -0.05 -78.684 1.226 -109.396 19.772 2.204 49.506 10.896 62.488 18.28 -0.234 4.31 -0.468 8.48 -0.702 12.542 0.664 -0.06 1.336 -0.118 2.014 -0.172 0.238 -4.164 0.48 -8.446 0.718 -12.874 0.02 -0.374 -0.17 -0.726 -0.494 -0.916 -13.086 -7.68 -44.542 -16.88 -64.788 -18.952 -1.47 -0.288 -38.074 1 -65.892 12.038 -0.362 0.144 -0.608 0.486 -0.63 0.876 -1.83 33.976 -2.396 67.98 -1.7 101.562l1.998 -0.104v-0.004Z" stroke-width="1"></path><path id="vector_4" fill="#cdf80b" d="M31.802 241.994c-0.14 -3.8 -0.258 -7.606 -0.356 -11.422l8.06 -0.408c0.072 3.808 0.14 7.648 0.288 11.436l1.994 -0.096c-0.148 -3.808 -0.21 -7.654 -0.282 -11.444l11.088 -0.574c0.044 3.84 0.108 7.676 0.19 11.51l1.998 -0.09c-0.082 -3.838 -0.146 -7.68 -0.188 -11.524l12.094 -0.626c0.11 3.876 0.246 7.75 0.404 11.622l1.998 -0.082c-0.158 -3.878 -0.294 -7.76 -0.404 -11.644l12.146 -0.63c0.08 3.942 0.174 7.876 0.288 11.798l2 -0.076c-0.998 -34.94 -0.664 -69.582 0.758 -103.042 0.026 -0.61 -0.496 -1.082 -1.042 -1.042 -20.972 0.928 -37.83 4.024 -51.538 9.462 -0.362 0.144 -0.608 0.486 -0.63 0.876 -1.734 32.21 -2.02 64.45 -0.858 96.094l1.998 -0.1 -0.006 0.002Zm-0.406 -13.408c-0.168 -7.15 -0.266 -14.326 -0.288 -21.52 2.532 -0.51 5.302 -1.016 8.256 -1.508 -0.058 7.546 -0.024 15.084 0.104 22.606 0 0 -8.044 0.418 -8.072 0.422Zm21.174 -1.102 -11.104 0.576c-0.128 -7.596 -0.162 -15.212 -0.1 -22.832 3.536 -0.568 7.304 -1.118 11.214 -1.63 -0.084 7.966 -0.088 15.928 -0.01 23.886Zm0.034 -25.906c-0.034 0.004 -7.706 1.06 -11.218 1.622 0.07 -6.77 0.214 -13.546 0.432 -20.316 3.722 -0.706 7.464 -1.306 11.218 -1.796 -0.204 6.826 -0.348 13.658 -0.432 20.49Zm1.964 25.804c-0.078 -8.008 -0.072 -16.022 0.016 -24.038 4.17 -0.512 8.078 -0.872 11.714 -1.078 0.004 8.168 0.114 16.334 0.33 24.492l-12.06 0.624Zm14.058 -0.728c-0.216 -8.156 -0.324 -16.32 -0.328 -24.486 4.548 -0.19 8.638 -0.128 12.242 0.192 0.018 7.916 0.098 15.808 0.246 23.664l-12.16 0.63Zm1.792 -88.122c3.676 -0.356 7.48 -0.63 11.41 -0.82 -0.256 6.144 -0.474 12.288 -0.654 18.424 -3.938 0.106 -7.876 0.32 -11.804 0.638 0.292 -6.09 0.638 -12.172 1.048 -18.242Zm-1.144 20.256c3.94 -0.324 7.89 -0.542 11.84 -0.65 -0.18 6.44 -0.318 12.874 -0.414 19.296 -4.034 -0.04 -8.07 0.042 -12.098 0.246 0.162 -6.304 0.384 -12.602 0.672 -18.892Zm11.396 20.646c-0.094 6.988 -0.14 13.962 -0.134 20.918 -3.622 -0.312 -7.71 -0.374 -12.24 -0.186 0.012 -6.83 0.096 -13.66 0.256 -20.484 4.034 -0.206 8.076 -0.29 12.118 -0.248ZM56.976 140.298c3.65 -0.618 7.46 -1.138 11.422 -1.56 -0.406 6.058 -0.754 12.128 -1.042 18.208 -3.814 0.346 -7.622 0.79 -11.414 1.334 0.298 -6.004 0.642 -12 1.032 -17.982h0.002Zm-1.132 20.018c3.794 -0.552 7.602 -1.004 11.42 -1.354 -0.284 6.268 -0.506 12.546 -0.666 18.83 -3.84 0.232 -7.672 0.574 -11.492 1.028 0.196 -6.174 0.442 -12.344 0.738 -18.504Zm10.706 19.478c-0.158 6.82 -0.242 13.644 -0.252 20.47 -3.636 0.202 -7.536 0.556 -11.692 1.062 0.086 -6.832 0.232 -13.664 0.438 -20.488 3.824 -0.46 7.662 -0.81 11.506 -1.044ZM43.966 143.088c3.476 -0.922 7.138 -1.734 10.984 -2.436 -0.388 5.964 -0.73 11.94 -1.024 17.926 -3.722 0.57 -7.43 1.236 -11.118 1.996 0.33 -5.842 0.718 -11.674 1.16 -17.488l-0.002 0.002Zm9.862 17.53c-0.292 6.142 -0.536 12.292 -0.73 18.446 -3.752 0.484 -7.492 1.074 -11.214 1.77 0.21 -6.072 0.48 -12.138 0.808 -18.194 3.694 -0.772 7.406 -1.444 11.136 -2.022Zm-21.206 -13.87c2.92 -1.134 6.02 -2.168 9.296 -3.098 -0.434 5.77 -0.814 11.556 -1.138 17.354 -2.982 0.646 -5.952 1.352 -8.904 2.12 0.208 -5.458 0.456 -10.916 0.746 -16.376Zm-0.824 18.462c2.94 -0.774 5.896 -1.488 8.868 -2.138 -0.326 6.042 -0.59 12.094 -0.796 18.15 -2.868 0.568 -5.724 1.2 -8.568 1.894 0.116 -5.962 0.282 -11.934 0.496 -17.906Zm-0.534 19.974c2.834 -0.7 5.68 -1.336 8.54 -1.91 -0.214 6.748 -0.356 13.5 -0.422 20.248 -2.954 0.49 -5.732 0.994 -8.278 1.5 -0.008 -6.6 0.046 -13.214 0.162 -19.838h-0.002Z" stroke-width="1"></path><path id="vector_5" fill="#cdf80b" d="M109.78 139.8082c0.178 0.538 0.866 15.552 0.974 18.212 4.124 0.694 8.24 1.4698 12.334 2.3258 -0.808 -13.6758 -2.028 -16.9578 -1.818 -17.7698 -3.848 -1.04 -7.736 -1.978 -11.49 -2.768Z" stroke-width="1"></path><path id="vector_6" fill="#cdf80b" d="M123.298 143.136c0.954 5.878 1.484 11.812 1.816 17.642 4.24 0.916 8.106 1.836 12.084 2.856 -0.116 -5.18 -0.268 -10.354 -0.462 -15.52 -0.01 -0.262 0.066 -0.476 0.192 -0.642 -4.224 -1.528 -8.876 -3.002 -13.63 -4.336Z" stroke-width="1"></path><path id="vector_7" fill="#cdf80b" d="M123.784 208.01c-4.104 -0.628 -8.214 -1.206 -12.33 -1.73 -0.06 6.778 -0.18 13.45 -0.342 19.992 4.246 0.134 8.354 0.328 12.192 0.55 0.21 -6.174 0.376 -12.456 0.48 -18.812Z" stroke-width="1"></path><path id="vector_8" fill="#cdf80b" d="M111.062 228.276c-0.092 3.548 -0.198 7.056 -0.314 10.524l12.112 -0.358c0.134 -3.17 0.26 -6.378 0.376 -9.616 -3.832 -0.224 -7.936 -0.416 -12.174 -0.55Z" stroke-width="1"></path><path id="vector_9" fill="#cdf80b" d="M133.738 209.64c-2.648 -0.46 -5.3 -0.902 -7.958 -1.32 -0.104 6.292 -0.27 12.512 -0.478 18.624 2.88 0.18 5.586 0.372 8.058 0.564 0.054 -5.974 0.178 -11.944 0.378 -17.868Z" stroke-width="1"></path><path id="vector_10" fill="#cdf80b" d="M133.808 207.622c0.246 -6.702 0.586 -13.34 1.032 -19.854 -2.962 -0.588 -5.958 -1.142 -8.976 -1.664 0.07 6.786 0.044 13.53 -0.052 20.196 2.67 0.418 5.336 0.86 7.996 1.322Z" stroke-width="1"></path><path id="vector_11" fill="#cdf80b" d="M125.838 184.0718c3.072 0.53 6.124 1.09 9.142 1.688 0.248 -3.458 1.44 -17.906 1.888 -20.146 -3.176 -0.824 -7.402 -1.8418 -11.644 -2.7658 0.158 3.158 0.562 17.2698 0.614 21.2238Z" stroke-width="1"></path><path id="vector_12" fill="#cdf80b" d="M123.202 162.414c-4.104 -0.864 -8.23 -1.65 -12.366 -2.352 0.28 7.312 0.462 14.558 0.564 21.716 4.156 0.616 8.312 1.258 12.436 1.952 -0.052 -3.82 -0.464 -17.992 -0.634 -21.316Z" stroke-width="1"></path><path id="vector_13" fill="#cdf80b" d="M133.328 233.408c0 -1.298 0.006 -2.596 0.016 -3.894 -2.484 -0.194 -5.208 -0.388 -8.11 -0.568 -0.114 3.178 -0.238 6.326 -0.37 9.44l1.382 -0.038c2.174 -1.546 4.566 -3.214 7.082 -4.94Z" stroke-width="1"></path><path id="vector_14" fill="#cdf80b" d="M109.062 228.218c-4.692 -0.124 -9.522 -0.17 -14.316 -0.094 0.056 3.734 0.126 7.464 0.21 11.192l13.788 -0.456c0.118 -3.506 0.224 -7.052 0.318 -10.642Z" stroke-width="1"></path><path id="vector_15" fill="#cdf80b" d="M94.576 202.416c0.874 0.02 9.846 0.978 14.898 1.6 0.048 -6.7382 0.034 -13.5822 -0.052 -20.5082 -3.818 -0.558 -13.9 -1.978 -14.67 -2.086 -0.106 7.008 -0.166 14.004 -0.176 20.9942Z" stroke-width="1"></path><path id="vector_16" fill="#cdf80b" d="M149.38 152.852c-2.838 -1.548 -6.498 -3.15 -10.644 -4.71 0.184 4.892 0.328 9.79 0.44 14.696 1.716 -0.594 9.076 -1.424 10.88 -1.614l0.362 -6.506c0.042 -0.77 -0.362 -1.496 -1.038 -1.866Z" stroke-width="1"></path><path id="vector_17" fill="#cdf80b" d="M109.114 226.214c0.164 -6.604 0.284 -13.34 0.344 -20.186 -4.962 -0.612 -9.928 -1.148 -14.884 -1.608 -0.002 7.244 0.046 14.478 0.146 21.702 4.82 -0.078 9.678 -0.034 14.396 0.09l-0.002 0.002Z" stroke-width="1"></path><path id="vector_18" fill="#cdf80b" d="M111.424 183.804c0.084 6.912 0.094 13.738 0.046 20.462 4.12 0.524 8.236 1.1 12.344 1.726 0.094 -6.678 0.116 -13.434 0.042 -20.23 -4.122 -0.696 -8.276 -1.342 -12.434 -1.958h0.002Z" stroke-width="1"></path><path id="vector_19" fill="#cdf80b" d="M109.394 181.484c-0.104 -7.172 -0.29 -14.432 -0.574 -21.756 -4.122 -0.672 -8.254 -1.262 -12.382 -1.768 -0.548 -0.066 -0.938 -0.566 -0.872 -1.114 0.066 -0.548 0.564 -0.944 1.114 -0.872 4.02 0.492 8.042 1.064 12.058 1.714 -0.238 -5.804 -0.538 -11.648 -0.91 -17.522 -0.018 -0.27 0.074 -0.52 0.236 -0.71 -3.484 -0.698 -6.828 -1.258 -9.892 -1.642 -1.16 -0.146 -2.2 0.734 -2.246 1.904 -0.546 13.268 -0.928 26.504 -1.144 39.708 0.232 -0.014 14.366 2.022 14.612 2.058Z" stroke-width="1"></path></g><g id="group_2"><path id="vector_20" fill="#cdf80b" d="M294.682 236.942c-0.904 -33.674 -0.12 -67.1198 2.304 -94.8438 0.194 -2.228 0.414 -2.928 2.306 -3.334 13.888 -2.996 37.674 -3.458 53.78 -2.244 0.912 0.068 1.136 0.0238 1.416 1.7698 4.728 29.536 4.73 69.808 3.776 99.706 8.668 0.2 17.356 0.424 26.062 0.67 0.432 -27.522 0.66 -60.576 -4.012 -89.746 -0.116 -0.732 -0.292 -1.84 -0.996 -2.58 -0.606 -0.636 -19.864 -8.912 -23.582 -10.606 -0.61 -0.902 -1.48 -1.1278 -2.516 -1.2078 -16.22 -1.226 -40.198 -0.7662 -54.35 2.2818 -2.938 0.6322 -3.62 2.184 -3.876 5.116 -2.426 27.776 -3.214 61.274 -2.312 95l2 0.018Z" stroke-width="1"></path><path id="vector_21" fill="#cdf80b" d="M303.006 237.032c-0.148 -5.254 -0.258 -10.514 -0.326 -15.748 15.358 -0.104 30.918 -0.568 46.276 -1.378 -0.104 7.872 -0.108 10.718 -0.38 17.876l1.67 0.036c0.738 -29.892 1.444 -64.4478 -2.26 -91.7458 -0.252 -1.844 -0.714 -2.94 -2.604 -3.108 -11.794 -1.05 -29.416 -0.674 -39.824 1.976 -2.368 0.604 -2.832 2.112 -3.008 4.534 -2.026 27.338 -2.354 58.7138 -1.54 87.5378l2 0.022 -0.004 -0.002Zm1.534 -87.4138c0.048 -0.654 0.116 -1.55 0.398 -2.056 0.194 -0.346 0.484 -0.526 1.11 -0.686 13.498 -3.424 39.128 -2.422 39.628 -1.808 0.52 0.642 1.7 13.562 1.772 14.384 -14.466 0.308 -29.116 0.486 -43.584 0.534 0.202 -3.544 0.428 -7.004 0.676 -10.368Zm-0.786 12.368c14.562 -0.046 29.308 -0.228 43.864 -0.536 0.48 5.87 0.81 11.832 1.034 17.79 -15.134 0.42 -30.472 0.364 -45.62 -0.16 0.184 -5.86 0.424 -11.574 0.722 -17.092v-0.002Zm-0.782 19.092c15.264 0.53 30.484 0.584 45.752 0.162 0.196 5.85 0.294 11.686 0.328 17.422l-46.418 0.34c0.056 -6.082 0.168 -12.074 0.338 -17.924Zm-0.354 19.9238 46.444 -0.34c0.02 5.898 -0.02 11.676 -0.082 17.238 -15.374 0.814 -30.952 1.28 -46.324 1.384 -0.068 -6.148 -0.08 -12.258 -0.038 -18.282Z" stroke-width="1"></path></g><path id="vector_22" fill="#cdf80b" d="M134.316 232.732c0.058 -23.548 1.194 -46.182 3.384 -65.916 0.252 -2.284 0.604 -2.926 3.102 -3.348 17.938 -3.052 48.37 -3.444 68.446 -2.25 1.508 0.088 1.716 0.242 2.04 1.81 4.228 20.792 5.274 43.624 5.326 64.998 4.744 2.928 9.362 5.906 13.428 8.716l4.264 -0.014c-0.026 -21.72 -1.048 -45.014 -5.368 -66.252 -0.152 -0.75 -0.38 -1.882 -1.274 -2.62 -0.758 -0.626 -12.778 -6.408 -15.318 -7.468 -1.082 -1.312 -2.684 -1.166 -6.354 -1.348 -1.174 -6.994 -1.176 -7.818 -1.874 -8.708 -0.554 -0.706 -1.36 -1.032 -2.072 -1.284 -2.954 -1.042 -6.018 -1.812 -9.122 -2.292 -0.93 -0.36 -1.994 -0.466 -3.002 -0.506 -7.464 -0.29 -15.29 0.09 -25.358 1.228 -2.894 0.328 -3.742 1.268 -4.286 3.312 -0.756 2.848 -1.158 5.766 -1.206 8.702 -6.902 0.458 -11.786 0.848 -18.606 2.006 -3.438 0.584 -4.41 1.992 -4.754 5.1 -2.24 20.186 -3.38 43.392 -3.398 67.508l2.002 -1.374Zm67.064 -81.798c1.238 0.434 1.328 0.624 1.526 1.806l1.042 6.202c-2.506 -0.11 -5.046 -0.194 -7.61 -0.254 -0.916 -9.314 -0.866 -8.86 -1.056 -9.468 2.068 0.44 4.108 1.012 6.098 1.714Zm-39.168 0.368c0.32 -1.208 0.494 -1.602 2.578 -1.836 9.964 -1.126 17.692 -1.502 25.056 -1.218 1.314 0.05 2.734 0.218 3.302 1.08 0.37 0.556 0.272 0.292 1.178 9.32 -10.922 -0.2 -22.23 0.042 -33.25 0.716 0.056 -2.72 0.436 -5.422 1.136 -8.062Z" stroke-width="1"></path><path id="vector_23" fill="#cdf80b" d="M207.988 188.5018c-0.684 -6.602 -1.576 -12.556 -2.724 -18.202 -0.404 -2.002 -1.186 -2.764 -3.292 -2.888 -16.284 -0.968 -40.73 -0.638 -55.252 1.826 -2.862 0.484 -3.688 1.694 -3.974 4.26 -0.58 5.22 -1.084 10.9 -1.494 16.878 -0.04 0.586 0.43 1.07 0.998 1.068 22.322 -0.076 45.148 -1.03 64.784 -1.84 0.582 -0.024 1.012 -0.534 0.954 -1.102Zm-15.486 -19.492c1.656 6.22 2.59 12.628 2.778 19.066 -3.408 0.132 -6.884 0.264 -10.41 0.388l-1.348 -19.568c0.122 0 6.142 0.038 8.98 0.114Zm-35.35 0.954c3.622 -0.294 7.308 -0.526 11.016 -0.7 0.324 6.548 0.424 13.174 0.296 19.718 -4.136 0.112 -8.304 0.21 -12.48 0.288 0.156 -6.418 0.548 -12.91 1.168 -19.306Zm13.014 -0.788c3.78 -0.154 7.578 -0.244 11.35 -0.27l1.352 19.63c-4.08 0.142 -8.222 0.272 -12.404 0.392 0.126 -6.554 0.026 -13.192 -0.298 -19.752Zm-25.434 4.544c0.196 -1.772 0.434 -2.192 2.32 -2.508 2.142 -0.364 5.376 -0.836 8.074 -1.076 -0.608 6.356 -0.992 12.796 -1.146 19.17 -3.554 0.06 -7.114 0.106 -10.66 0.134 0.394 -5.556 0.868 -10.842 1.412 -15.72Zm52.546 14.28c-0.188 -6.386 -1.094 -12.746 -2.692 -18.926 2.46 0.084 4.886 0.194 7.266 0.336 1.128 0.068 1.216 0.142 1.452 1.292 1.072 5.278 1.918 10.834 2.582 16.952l-8.606 0.348 -0.002 -0.002Z" stroke-width="1"></path><path id="vector_24" fill="#cdf80b" d="M141.022 223.138c1.206 0.072 4.034 0.02 7.89 -0.116 1.114 -0.722 2.216 -1.43 3.298 -2.12 -4.572 0.186 -8.182 0.292 -10.12 0.268 0.078 -7.128 0.258 -13.666 0.546 -19.922 3.674 -0.026 7.342 -0.072 11 -0.132 -0.432 6.378 -0.622 12.838 -0.568 19.24 0.674 -0.428 1.338 -0.848 1.994 -1.26 -0.022 -6 0.172 -12.044 0.582 -18.016 4.312 -0.078 8.61 -0.178 12.88 -0.292l-0.16 10.53c0.884 -0.428 1.336 -0.606 2.012 -0.834l0.15 -9.752c4.54 -0.128 9.05 -0.272 13.522 -0.43l0.282 9.676c0.618 0.288 1.296 0.614 2.03 0.974l-0.312 -10.722 9.604 -0.36c0.638 5.472 1 11.022 1.08 16.546 0.66 0.364 1.33 0.736 2.012 1.116 -0.044 -5.918 -0.408 -11.872 -1.088 -17.74l9.222 -0.374c0.348 5.642 0.558 11.762 0.638 18.648 -1.548 0.068 -4.038 0.196 -7.174 0.362 1.056 0.596 2.13 1.208 3.222 1.834 2.316 -0.12 4.052 -0.204 4.998 -0.236 0.542 -0.018 0.97 -0.466 0.966 -1.008 -0.076 -7.722 -0.31 -14.494 -0.714 -20.702 -0.036 -0.542 -0.536 -0.966 -1.04 -0.934 -22.038 0.912 -43.94 1.734 -66.092 1.874 -0.532 0.002 -0.968 0.42 -0.994 0.952 -0.33 6.852 -0.528 14.024 -0.604 21.924 -0.004 0.534 0.41 0.976 0.942 1.008l-0.004 -0.002Z" stroke-width="1"></path><path id="vector_25" fill="#cdf80b" d="M108.458 302.098c-0.402 0.716 -0.912 1.378 -1.494 1.984 5.254 0.138 10.506 0.262 15.754 0.37 -0.032 -0.674 -0.064 -1.35 -0.092 -2.026 -4.74 -0.098 -9.462 -0.208 -14.168 -0.328Z" stroke-width="1"></path><path id="vector_26" fill="#cdf80b" d="M12.694 241.994c-0.458 0.024 -0.84 0.358 -0.926 0.808 -3.672 19.058 -3.672 38 0 56.302 0.088 0.444 0.466 0.772 0.918 0.8 21.986 1.384 43.886 2.466 65.726 3.274 0.308 -0.73 0.756 -1.4 1.308 -1.972 -22.478 -0.814 -44.532 -1.898 -66.14 -3.25 -3.424 -17.566 -3.422 -35.73 0.004 -54.01 36.468 -1.996 73.566 -3.51 111.188 -4.548 0.94 -0.674 1.928 -1.378 2.958 -2.104 -37.94 1.018 -76.144 2.564 -115.036 4.7Z" stroke-width="1"></path><path id="vector_27" fill="#cdf80b" d="M252.482 302.342c-8.25 0.172 -16.46 0.312 -24.628 0.422 -0.03 0.658 -0.06 1.316 -0.092 1.972 8.57 -0.122 17.142 -0.278 25.718 -0.464 -0.396 -0.66 -0.728 -1.304 -0.998 -1.93Z" stroke-width="1"></path><path id="vector_28" fill="#cdf80b" d="M388.228 238.514c-0.092 -0.456 -0.488 -0.788 -0.954 -0.8 -53.848 -1.42 -106.354 -2.124 -158.638 -1.936 0.98 0.666 1.932 1.324 2.852 1.972 46.758 -0.17 94.14 0.368 141.958 1.618 3.356 17.034 3.24 36.684 -0.348 58.428 -31.53 1.7 -62.572 2.988 -93.08 3.864 0.258 0.606 0.422 1.26 0.478 1.922 35.454 -1.038 71.01 -2.586 106.808 -4.532 0.468 -0.024 0.854 -0.37 0.932 -0.832 3.708 -22.004 3.706 -41.534 -0.006 -59.706l-0.002 0.002Z" stroke-width="1"></path><path id="vector_29" fill="#cdf80b" d="M45.03 281.458c-7.222 0.232 -14.432 0.47 -21.616 0.726 -0.968 0.034 -1.81 0.618 -2.146 1.484 -1.16 2.996 -1.04 8.406 2.156 8.434l21.576 0.184c0.652 0 1.26 -0.254 1.714 -0.72 0.998 -1.016 0.576 -1.658 0.704 -5.29 0.074 -2.05 0.354 -3.138 -0.59 -4.096 -0.47 -0.478 -1.134 -0.752 -1.798 -0.722Zm0.256 8.708c-0.192 0.2 -0.018 0.09 -21.844 -0.064 -0.174 0 -0.328 -0.106 -0.392 -0.264 -0.644 -1.612 -0.614 -3.648 0.084 -5.448 0.13 -0.334 -0.008 -0.574 21.974 -0.932 0.232 -0.004 0.426 0.194 0.414 0.434 -0.294 6.112 0.044 5.988 -0.236 6.274Z" stroke-width="1"></path><path id="vector_30" fill="#cdf80b" d="m80.67 290.516 -23.04 -0.14c-0.228 0 -0.416 -0.182 -0.422 -0.402 -0.046 -2.15 0.042 -4.304 0.146 -6.506 0.01 -0.218 0.186 -0.392 0.404 -0.398 8.43 -0.25 16.908 -0.466 25.388 -0.68 0.218 -0.018 0.434 0.18 0.414 0.448 -0.126 1.634 -0.198 2.92 -0.242 3.936 0.638 -0.432 1.336 -0.726 2.048 -0.868 0.054 -1.006 0.116 -1.974 0.188 -2.912 0.104 -1.33 -0.864 -2.572 -2.458 -2.604 0 0 -16.964 0.43 -25.396 0.68 -1.256 0.038 -2.284 1.05 -2.342 2.306 -0.104 2.238 -0.194 4.43 -0.148 6.642 0.028 1.292 1.108 2.35 2.408 2.358l22.756 0.138c0.018 -0.714 0.12 -1.382 0.296 -1.998Z" stroke-width="1"></path><path id="vector_31" fill="#cdf80b" d="m105.854 292.632 16.456 0.06c-0.014 -0.664 -0.028 -1.33 -0.04 -1.998l-15.754 -0.016c-0.104 0.684 -0.326 1.352 -0.662 1.954Z" stroke-width="1"></path><path id="vector_32" fill="#cdf80b" d="m100.5 281.956 21.69 -0.434c0 -0.666 0 -1.334 0.004 -2.002 -7.356 0.132 -14.698 0.278 -22.02 0.44 0.144 0.654 0.25 1.324 0.328 1.994l-0.002 0.002Z" stroke-width="1"></path><path id="vector_33" fill="#cdf80b" d="m269.572 281.212 7.028 0.094c0.67 0.008 0.33 0.544 0.292 8.802 0 0.23 -0.18 0.41 -0.41 0.41 -2.04 0.008 -0.53 -0.29 0.618 1.918 1.024 -0.274 1.784 -1.212 1.79 -2.318 0.012 -2.782 0.064 -5.564 0.118 -8.348 0.026 -1.34 -1.044 -2.444 -2.38 -2.464l-10.66 -0.148c1.442 0.17 2.686 0.906 3.604 2.054Z" stroke-width="1"></path><path id="vector_34" fill="#cdf80b" d="M258.296 291.102c-0.038 -0.168 -0.072 -0.338 -0.102 -0.51l-9.596 0.038c-0.222 0 -0.41 -0.18 -0.418 -0.4 -0.084 -2.708 -0.076 -5.432 0.066 -8.45l0.864 -0.808c3.104 0.028 7.27 0.076 11.416 0.126 1.158 -1.094 2.69 -1.816 4.234 -1.956 -5.35 -0.068 -10.694 -0.126 -16.034 -0.174 -0.282 0.038 -0.504 0.094 -0.692 0.27 -1.46 1.368 -1.738 1.498 -1.766 2.038 -0.148 2.934 -0.186 5.938 -0.086 9.018 0.042 1.312 1.104 2.336 2.416 2.336l5.08 -0.02c1.312 -1.23 3.03 -1.796 4.618 -1.508Z" stroke-width="1"></path><path id="vector_35" fill="#cdf80b" d="M364.72 282.786c-0.392 -0.708 -1.162 -1.17 -2.006 -1.204 -9.248 -0.36 -19.028 -0.69 -29.898 -1.008 -1.438 -0.006 -2.464 1.09 -2.472 2.402 -0.016 2.576 -0.164 4.352 -0.34 6.618 -0.11 1.404 0.994 2.608 2.404 2.608l30.292 -0.222c0.832 -0.004 1.608 -0.426 2.022 -1.096 1.506 -2.43 1.506 -5.382 0 -8.096l-0.002 -0.002Zm-1.698 7.042c-0.142 0.232 -0.018 0.148 -30.612 0.372 -0.176 -0.08 -0.258 -0.082 -0.302 -0.13 -0.3 -0.32 0.206 -1.97 0.236 -7.084 0 -0.236 0.174 -0.418 0.406 -0.414 30.232 0.474 30.074 0.918 30.222 1.182 1.164 2.094 1.182 4.25 0.05 6.074Z" stroke-width="1"></path><path id="vector_36" fill="#cdf80b" d="M320.88 280.522c-0.182 -0.186 -0.428 -0.294 -0.688 -0.3 -10.318 -0.268 -20.624 -0.498 -30.914 -0.686 -1.302 0 -2.438 1.042 -2.464 2.374 -0.054 2.706 -0.102 5.41 -0.116 8.114 -0.006 1.342 1.08 2.436 2.42 2.432 31.878 -0.09 31.43 -0.032 31.874 -0.442 0.982 -0.906 1.09 -0.95 1.126 -1.404 0.208 -2.59 0.428 -5.204 0.46 -7.928 0.006 -0.544 -0.23 -0.658 -1.7 -2.16h0.002Zm-0.724 9.54 -0.238 0.22 -30.8 0.174c-0.236 0 -0.422 -0.194 -0.42 -0.422 0.014 -2.694 0.062 -5.39 0.116 -8.084 0.004 -0.23 0.192 -0.414 0.42 -0.414 0 0 20.322 0.412 30.498 0.674l0.84 0.86c-0.044 2.328 -0.232 4.694 -0.416 6.99v0.002Z" stroke-width="1"></path><path id="vector_37" fill="#cdf80b" d="M45.03 264.912c-7.222 0.23 -14.432 0.47 -21.616 0.724 -0.968 0.034 -1.81 0.618 -2.146 1.484 -1.16 2.996 -1.04 8.406 2.156 8.434l21.576 0.184c0.652 0 1.26 -0.254 1.716 -0.72 0.996 -1.018 0.574 -1.654 0.704 -5.29 0.074 -2.054 0.386 -3.104 -0.59 -4.096 -0.472 -0.48 -1.14 -0.744 -1.8 -0.72Zm0.258 8.706c-0.196 0.2 -0.078 0.09 -21.844 -0.064 -0.174 0 -0.328 -0.106 -0.392 -0.264 -0.646 -1.61 -0.614 -3.646 0.084 -5.446 0.13 -0.336 -0.016 -0.574 21.974 -0.932 0.23 -0.004 0.426 0.192 0.414 0.434 -0.294 6.106 0.044 5.986 -0.234 6.274l-0.002 -0.002Z" stroke-width="1"></path><path id="vector_38" fill="#cdf80b" d="M83.094 263.844c-8.482 0.212 -16.962 0.43 -25.396 0.68 -1.254 0.038 -2.284 1.052 -2.342 2.306 -0.104 2.238 -0.194 4.43 -0.148 6.642 0.028 1.292 1.108 2.35 2.408 2.36l25.174 0.152c1.3 0 2.38 -1.054 2.412 -2.356 0.066 -2.64 0.18 -4.99 0.35 -7.182 0.108 -1.388 -0.962 -2.614 -2.458 -2.602Zm0.464 2.448c-0.56 7.21 -0.046 7.692 -0.768 7.692l-25.16 -0.152c-0.228 0 -0.418 -0.182 -0.422 -0.402 -0.046 -2.148 0.042 -4.302 0.146 -6.506 0.01 -0.218 0.188 -0.394 0.404 -0.4 8.43 -0.25 25.4 -0.68 25.4 -0.68 0.242 0 0.418 0.206 0.4 0.448Z" stroke-width="1"></path><path id="vector_39" fill="#cdf80b" d="m98.496 276.06 23.72 0.086 0.022 -1.998c-15.408 -0.026 -22.12 0.004 -25.034 -0.064 0.548 0.512 0.868 1.432 1.292 1.976Z" stroke-width="1"></path><path id="vector_40" fill="#cdf80b" d="M96.168 265.506c7.704 -0.176 21.958 -0.452 26.266 -0.534 0.02 -0.666 0.04 -1.334 0.062 -2.002 -8.94 0.16 -17.862 0.34 -26.754 0.544 -0.246 0.006 -0.48 0.102 -0.658 0.268 -1.49 1.392 -1.674 1.46 -1.716 1.956 -0.182 2.096 -0.468 7.506 -0.35 8.268 0.616 -0.116 1.306 -0.302 1.984 -0.386 0.044 -2.216 0.13 -4.93 0.326 -7.33l0.842 -0.786 -0.002 0.002Z" stroke-width="1"></path><path id="vector_41" fill="#cdf80b" d="M276.63 262.76c-9.314 -0.142 -18.618 -0.256 -27.904 -0.338 -0.282 -0.024 -0.506 0.094 -0.692 0.27 -1.462 1.368 -1.738 1.504 -1.766 2.04 -0.148 2.92 -0.186 5.928 -0.086 9.016 0.042 1.312 1.104 2.336 2.416 2.336l27.896 -0.11c1.316 -0.006 2.392 -1.084 2.4 -2.4 0.012 -2.782 0.064 -5.566 0.118 -8.348 0.026 -1.342 -1.044 -2.444 -2.38 -2.464l-0.002 -0.002Zm0.262 10.802c0 0.228 -0.18 0.41 -0.41 0.41l-27.886 0.11c-0.222 0 -0.41 -0.18 -0.418 -0.4 -0.086 -2.772 -0.072 -5.492 0.066 -8.448l0.864 -0.808c9.15 0.082 27.49 0.334 27.49 0.334 0.66 0.008 0.332 0.54 0.294 8.802Z" stroke-width="1"></path><path id="vector_42" fill="#cdf80b" d="m332.406 275.654 30.296 -0.222c0.832 -0.006 1.606 -0.428 2.02 -1.096 1.506 -2.43 1.506 -5.382 -0.002 -8.098 -0.392 -0.708 -1.162 -1.168 -2.006 -1.202 -30.26 -1.18 -30.438 -1.49 -31.632 -0.34 -1.042 1.006 -0.568 1.522 -0.92 6.29 -0.166 2.254 -0.38 2.976 0.482 3.9 0.454 0.49 1.094 0.768 1.762 0.768Zm-0.41 -2.448c0.184 -2.38 0.33 -4.122 0.346 -6.764 0 -0.236 0.176 -0.418 0.406 -0.414 30.232 0.476 30.076 0.92 30.222 1.182 1.164 2.094 1.182 4.25 0.05 6.074 -0.052 0.086 -0.194 0.15 -0.336 0.15 -31.976 0.228 -30.74 0.432 -30.688 -0.226v-0.002Z" stroke-width="1"></path><path id="vector_43" fill="#cdf80b" d="M320.88 263.976c-0.182 -0.186 -0.428 -0.294 -0.688 -0.3 -10.318 -0.268 -20.624 -0.498 -30.912 -0.686 -1.338 -0.006 -2.438 1.038 -2.464 2.374 -0.054 2.706 -0.102 5.41 -0.116 8.114 -0.006 1.342 1.08 2.436 2.42 2.432 31.878 -0.09 31.43 -0.03 31.876 -0.444 0.978 -0.908 1.088 -0.948 1.124 -1.402 0.208 -2.594 0.428 -5.17 0.46 -7.926 0.006 -0.544 -0.23 -0.66 -1.7 -2.162Zm-0.724 9.538 -0.238 0.22 -30.8 0.174c-0.236 0 -0.422 -0.194 -0.42 -0.422 0.014 -2.694 0.062 -5.39 0.116 -8.084 0.004 -0.228 0.192 -0.412 0.42 -0.412 0 0 20.324 0.412 30.5 0.674l0.84 0.86c-0.044 2.328 -0.234 4.694 -0.418 6.99Z" stroke-width="1"></path><path id="vector_44" fill="#cdf80b" d="M45.03 248.08c-7.222 0.23 -14.432 0.47 -21.614 0.726 -0.968 0.032 -1.812 0.616 -2.148 1.484 -1.156 2.986 -1.046 8.402 2.156 8.434l21.578 0.182c0.65 0 1.258 -0.254 1.712 -0.718 0.998 -1.02 0.574 -1.656 0.704 -5.292 0.074 -2.054 0.386 -3.104 -0.59 -4.096 -0.472 -0.48 -1.138 -0.738 -1.798 -0.72Zm0.376 8.392c0.008 0.274 -0.246 0.474 -0.41 0.432l-21.554 -0.182c-0.174 0 -0.33 -0.106 -0.392 -0.264 -0.646 -1.612 -0.614 -3.648 0.084 -5.448 0.044 -0.114 0.192 -0.202 0.352 -0.208 21.912 -0.778 21.722 -0.802 21.916 -0.602 0.344 0.344 -0.132 1.32 0.004 6.272Z" stroke-width="1"></path><path id="vector_45" fill="#cdf80b" d="M83.094 247.012c-8.486 0.028 -16.962 0.43 -25.396 0.68 -1.254 0.038 -2.284 1.052 -2.342 2.306 -0.104 2.238 -0.194 4.43 -0.148 6.642 0.028 1.292 1.108 2.35 2.408 2.36l25.174 0.152c1.3 0 2.38 -1.054 2.412 -2.354 0.066 -2.642 0.18 -4.992 0.35 -7.182 0.108 -1.38 -0.948 -2.608 -2.458 -2.602v-0.002Zm0.464 2.448c-0.562 7.23 -0.048 7.692 -0.768 7.692l-25.16 -0.152c-0.228 0 -0.418 -0.182 -0.422 -0.402 -0.046 -2.148 0.042 -4.302 0.146 -6.506 0.01 -0.218 0.188 -0.394 0.404 -0.4 8.43 -0.25 25.4 -0.68 25.4 -0.68 0.242 0 0.418 0.206 0.4 0.448Z" stroke-width="1"></path><path id="vector_46" fill="#cdf80b" d="M96.168 248.674c5.17 -0.118 13.286 -0.282 19.37 -0.4 -0.014 -0.848 0.078 -1.726 0.376 -2.014 -6.738 0.128 -13.464 0.268 -20.172 0.424 -0.246 0.006 -0.48 0.102 -0.66 0.27 -1.49 1.392 -1.672 1.458 -1.716 1.954 -0.234 2.694 -0.334 5.33 -0.378 7.852 -0.022 1.35 1.06 2.452 2.404 2.458l27.23 0.1 0.08 -2 -27.3 -0.1c-0.232 0 -0.418 -0.19 -0.414 -0.422 0.042 -2.326 0.124 -4.68 0.338 -7.334l0.842 -0.788Z" stroke-width="1"></path><path id="vector_47" fill="#cdf80b" d="M276.63 245.928c-9.314 -0.142 -18.618 -0.256 -27.904 -0.338 -0.282 0.028 -0.504 0.094 -0.692 0.27 -1.46 1.37 -1.738 1.498 -1.766 2.038 -0.148 2.938 -0.186 5.946 -0.086 9.016 0.042 1.312 1.104 2.336 2.418 2.336l27.892 -0.112c1.316 -0.006 2.392 -1.084 2.4 -2.4 0.012 -2.782 0.064 -5.566 0.118 -8.348 0.026 -1.342 -1.044 -2.442 -2.38 -2.462Zm0.262 10.802c0 0.228 -0.18 0.41 -0.41 0.41l-27.884 0.112c-0.224 0 -0.412 -0.18 -0.42 -0.402 -0.086 -2.742 -0.074 -5.458 0.066 -8.448l0.864 -0.808c9.148 0.082 27.49 0.334 27.49 0.334 0.66 0.008 0.332 0.54 0.294 8.802Z" stroke-width="1"></path><path id="vector_48" fill="#cdf80b" d="m332.406 258.822 30.296 -0.222c0.832 -0.006 1.606 -0.428 2.02 -1.096 1.506 -2.43 1.506 -5.382 -0.002 -8.098 -0.392 -0.708 -1.162 -1.168 -2.006 -1.202 -30.152 -1.176 -30.436 -1.496 -31.632 -0.338 -1.04 1.004 -0.568 1.51 -0.92 6.288 -0.166 2.254 -0.38 2.974 0.48 3.9 0.456 0.49 1.096 0.768 1.764 0.768Zm-0.41 -2.448c0.184 -2.394 0.33 -4.116 0.346 -6.764 0 -0.232 0.174 -0.418 0.406 -0.414 30.232 0.476 30.076 0.92 30.222 1.182 1.164 2.094 1.182 4.25 0.05 6.074 -0.052 0.086 -0.194 0.15 -0.336 0.15 -31.87 0.226 -30.74 0.436 -30.688 -0.226v-0.002Z" stroke-width="1"></path><path id="vector_49" fill="#cdf80b" d="M320.88 247.144c-0.182 -0.186 -0.428 -0.294 -0.688 -0.3 -10.318 -0.268 -20.624 -0.498 -30.912 -0.686 -1.338 -0.012 -2.438 1.04 -2.464 2.374 -0.054 2.706 -0.102 5.41 -0.116 8.114 -0.006 1.346 1.086 2.434 2.42 2.43 31.878 -0.09 31.43 -0.03 31.874 -0.442 0.982 -0.906 1.088 -0.95 1.126 -1.404 0.216 -2.636 0.43 -5.324 0.46 -7.928 0.006 -0.544 -0.23 -0.656 -1.7 -2.158Zm-0.724 9.54 -0.238 0.22 -30.8 0.174c-0.238 0 -0.422 -0.196 -0.42 -0.42 0.014 -2.696 0.062 -5.39 0.116 -8.084 0.004 -0.23 0.192 -0.414 0.42 -0.414 0 0 20.322 0.412 30.5 0.674l0.84 0.86c-0.044 2.328 -0.234 4.694 -0.418 6.99Z" stroke-width="1"></path><path id="vector_50" fill="#cdf80b" d="M170.33 242.994c-7.158 0 -12.982 -5.824 -12.982 -12.982 0 -7.158 5.824 -12.982 12.982 -12.982 7.158 0 12.982 5.824 12.982 12.982 0 7.158 -5.824 12.982 -12.982 12.982Zm0 -23.964c-6.056 0 -10.982 4.926 -10.982 10.982 0 6.056 4.926 10.982 10.982 10.982 6.056 0 10.982 -4.926 10.982 -10.982 0 -6.056 -4.926 -10.982 -10.982 -10.982Z" stroke-width="1"></path><path id="vector_51" fill="#cdf80b" d="M173.338 220.498c-0.53 -0.136 -1.08 0.184 -1.218 0.72 -3.518 13.686 -4.33 5.854 -0.274 15.318 0.22 0.516 0.816 0.738 1.314 0.524 0.506 -0.218 0.742 -0.806 0.524 -1.314 -0.744 -1.736 -1.588 -3.456 -2.506 -5.118 1.136 -2.904 2.104 -5.902 2.88 -8.914 0.138 -0.534 -0.184 -1.078 -0.72 -1.216Z" stroke-width="1"></path><path id="vector_52" fill="#cdf80b" d="M242.06 244.84c-11.514 -11.104 -58.188 -37.916 -61.692 -37.332 -2.618 -0.016 -5.628 0.556 -10.092 1.998 -4.576 1.164 -56.026 33.792 -56.052 37.644 -0.002 0.522 0.514 1.076 1.034 1.118 1.996 0.166 4.296 0.314 6.848 0.444 -1.264 23.668 -1.214 45.512 0.154 64.958 0.034 0.49 0.418 0.882 0.91 0.926 34.254 3.034 61.022 3.312 104.15 0 0.564 -0.044 0.71 0.168 1.154 -0.212 11.278 -9.686 12.202 -9.456 12.22 -14.812 0.048 -17.388 -0.166 -35.006 -0.628 -52.402 1.63 -0.656 2.142 -0.738 2.28 -1.414 0.068 -0.334 -0.04 -0.68 -0.286 -0.916Zm-61.644 -35.338c3.074 0.204 45.072 23.15 59.122 35.726 -1.616 0.664 -3.752 1.446 -6.746 1.576 -10.706 -10.05 -47.234 -31.288 -58.97 -36.27 2.69 -0.722 4.776 -1.03 6.594 -1.032Zm-9.774 1.966c3.292 0.366 44.866 23.082 59.256 35.43 -17.892 0.498 -86.3 1.444 -112.758 -0.486 7.236 -6.598 49.054 -34.084 53.502 -34.944ZM157.024 307.8c-1.346 -0.788 -8.06 -9.408 -9.964 -11.948 -0.642 -0.856 0.228 -0.754 0.572 -0.374 4.052 4.482 9.452 10.254 9.996 11.858 0.118 0.346 -0.31 0.636 -0.604 0.464Zm6.31 -12.832c-1.304 -1 -2.334 -2.552 -3.276 -3.888 -3.324 -4.716 -6.154 -8.534 -8.866 -13.018 -0.138 -0.228 0.186 -0.478 0.368 -0.284 2.394 2.552 4.632 5.292 6.776 8.06 3.976 5.132 5.288 6.65 5.916 8.422 0.172 0.488 -0.488 1.038 -0.918 0.708Zm8.75 18.376c-0.824 -15.072 -1.148 -26.422 -0.962 -41.494 0.006 -0.548 0.46 -0.99 1.006 -0.988 2.224 0.014 -0.266 1.732 1.952 42.372 0.074 1.338 -1.926 1.42 -1.996 0.11Zm17.12 -6.882c-1.32 -0.642 -3.184 -2.944 -4.876 -4.866 -2.674 -3.038 -1.134 -1.142 -4.472 -5.37 -0.214 -0.272 0.118 -0.626 0.386 -0.386 3.742 3.332 1.24 0.96 7.686 7.356 0.776 0.77 1.594 1.67 2.02 2.692 0.188 0.45 -0.396 0.742 -0.744 0.574Zm9.184 -7.466c-1.768 -1.15 -5.552 -8.37 -14.328 -19.842 -0.096 -0.126 0.11 -0.272 0.214 -0.166 3.318 3.328 14.548 15.728 15.088 19.256 0.08 0.524 -0.438 1.1 -0.976 0.75l0.002 0.002Zm27.916 13.672c-5.414 0.41 -10.784 0.758 -16.108 1.044 0.876 -13.358 0.854 -28.096 -0.064 -43.824 -0.03 -0.528 -0.468 -0.942 -0.998 -0.942H140.438c-0.53 0 -0.968 0.414 -0.998 0.942 -0.916 15.986 -0.938 30.744 -0.06 43.882 -5.13 -0.296 -10.194 -0.662 -15.184 -1.094 -1.304 -19.152 -1.334 -40.624 -0.092 -63.87 26.758 1.216 77.542 0.744 102.304 0.168 1.232 22.836 1.198 44.246 -0.104 63.694Z" stroke-width="1"></path></g><g id="sun"><path id="vector_53" fill="#cdf80b" d="M282.854 103.8378c2.424 -9.578 2.71 -10.262 2.508 -11.652 -0.844 -5.84 -10.954 -5.552 -16.75 -5.17 -0.528 0.034 -1.018 -0.404 -1.042 -0.956 -0.024 -0.552 0.41 -1.018 0.96 -1.042 1.53 -0.068 2.922 -0.948 4.578 -2.086 1.834 -1.266 3.732 -2.574 5.224 -4.198 4.086 -4.444 1.438 -9.754 -3.01 -13.74 -0.412 -0.37 -0.446 -1.002 -0.078 -1.412 0.372 -0.412 1.002 -0.446 1.412 -0.078 2.024 1.814 9.546 1.584 11.502 -0.35 2.016 -1.994 0.884 -7.4 0.588 -10.046 -0.062 -0.548 0.332 -1.046 0.882 -1.108 0.542 -0.058 1.038 0.33 1.104 0.874 0.174 0.988 3.484 8.252 5.994 9.752 1.646 0.984 2.468 0.754 4.006 -0.39 2.554 -1.902 4.744 -4.21 6.506 -6.858 0.646 -0.972 2.158 -0.224 1.778 0.878 -0.894 2.602 -1.464 5.312 -1.696 8.05 -0.172 2 0.134 2.746 2.876 3.02 4.054 0.41 8.156 0.312 12.19 -0.292 1.142 -0.152 1.596 1.386 0.592 1.884 -2.722 1.354 -5.806 2.886 -8.11 5.228 -0.758 0.77 -3.116 3.474 -1.584 5.912 2.068 3.292 6.534 4.446 9.944 6.324 0.732 0.402 0.676 1.474 -0.094 1.798 -1.196 0.502 -2.412 0.324 -3.678 0.164 -1.826 -0.232 -7.376 -0.928 -9.6 0.736 -1.252 0.936 -2.182 3.59 -2.422 5.614 -0.272 2.29 0.074 4.672 0.408 6.976 0.162 1.11 -1.358 1.598 -1.876 0.604 -0.91 -1.756 -2.01 -3.756 -3.552 -5.274 -1.568 -1.542 -3.456 -2.43 -5.234 -2.35 -4.372 0.122 -10.078 6.37 -12.526 9.996 -0.622 0.922 -2.072 0.274 -1.798 -0.804l-0.002 -0.004Zm-9.058 -18.954c5.726 0.072 12.698 1.152 13.544 7.018 0.272 1.888 -0.312 3.584 -1.386 7.832 1.36 -1.514 2.854 -2.906 4.466 -4.164 1.696 -1.32 3.988 -2.846 6.7 -2.922 2.674 -0.032 5.712 1.296 8.232 4.716 -0.042 -0.962 -0.024 -1.932 0.092 -2.908 0.222 -1.866 1.148 -5.436 3.212 -6.98 2.21 -1.656 6.046 -1.642 9.512 -1.294 -2.54 -1.186 -5.06 -2.644 -6.58 -5.06 -1.838 -2.926 -0.25 -6.248 1.85 -8.38 1.254 -1.274 2.712 -2.328 4.198 -3.232 -2.552 0.124 -5.106 0.06 -7.644 -0.196 -5.352 -0.538 -5.19 -3.606 -4.136 -8.988 -1.2 1.28 -2.514 2.454 -3.932 3.51 -0.906 0.674 -1.912 1.31 -3.12 1.398 -3.34 0.264 -5.838 -3.362 -7.47 -6.256 0 2.154 -0.392 4.23 -1.774 5.596 -1.81 1.792 -6.406 2.49 -10.056 1.986 3.406 4.462 4.08 9.41 0.296 13.528 -1.716 1.866 -3.868 3.334 -6.004 4.796Z" stroke-width="1"></path><path id="vector_54" fill="#cdf80b" d="M295.396 87.1358c-4.958 0 -8.99 -4.034 -8.99 -8.992 0 -4.958 4.034 -8.99 8.99 -8.99s8.992 4.034 8.992 8.99 -4.034 8.992 -8.992 8.992Zm0 -15.982c-3.854 0 -6.99 3.136 -6.99 6.99s3.136 6.992 6.99 6.992 6.992 -3.136 6.992 -6.992 -3.136 -6.99 -6.992 -6.99Z" stroke-width="1"></path></g><g id="tree 1"><path id="vector_55" fill="#cdf80b" d="M93.272 318.188c-2.47 0.958 -4.914 0.964 -8.05 0.044 -4.146 -1.218 -5.334 -4.28 -4.388 -6.452 -2.342 -1.234 -3.948 -3.818 -3.888 -6.488 0.06 -2.682 1.794 -5.2 4.206 -6.32 -1.228 -2.228 -2.266 -5.222 -1.556 -8.334 0.662 -2.894 3.258 -5.624 6.368 -5.824 -0.316 -2.292 -0.28 -5.622 1.688 -8.442 2.168 -3.106 6.396 -4.356 9.42 -2.788 3.384 1.754 4.258 5.738 4.552 9.604 4.588 0.53 7.394 5.358 5.23 9.688 0.854 0.386 1.616 1.02 2.222 1.862 2.316 3.222 1.846 8.126 -3.698 11.99 2.09 3.396 1.354 8.218 -1.686 10.714 -2.74 2.252 -7.452 2.564 -10.42 0.746Zm0.71 -1.93c2.158 1.608 6.258 1.432 8.44 -0.36 2.506 -2.058 2.88 -6.318 0.772 -8.782 -0.4 -0.466 -0.288 -1.18 0.236 -1.502 1.898 -1.168 4.282 -3.128 4.86 -5.832 0.274 -1.29 -0.046 -2.774 -0.838 -3.876 -1.412 -1.964 -2.658 -0.974 -3.096 -2.068 -0.136 -0.342 -0.074 -0.732 0.162 -1.012 1.154 -1.376 1.404 -3.462 0.61 -5.074 -0.796 -1.61 -2.608 -2.702 -4.398 -2.6 -0.486 0.036 -1.012 -0.394 -1.042 -0.944 -0.2 -3.572 -0.776 -7.416 -3.534 -8.848 -2.356 -1.22 -5.448 0.128 -6.86 2.156 -1.418 2.032 -1.836 5.002 -1.148 8.148 0.152 0.688 -0.442 1.324 -1.156 1.198 -2.528 -0.462 -4.904 1.854 -5.444 4.22 -0.528 2.316 0.158 5.116 1.932 7.884 0.372 0.58 0.06 1.352 -0.61 1.512 -2.15 0.512 -3.874 2.646 -3.922 4.856 -0.05 2.21 1.576 4.418 3.702 5.028 0.76 0.216 0.98 1.194 0.382 1.714 -1.022 0.89 -0.668 3.226 2.756 4.23 5.94 1.746 7.004 -0.942 8.198 -0.054l-0.002 0.006Z" stroke-width="1"></path><path id="vector_56" fill="#cdf80b" d="M109.326 334.314c-0.124 -4.138 -8 -6.37 -15.416 -6.37s-15.304 2.236 -15.416 6.38c-0.516 3.5 0.362 5.07 3.734 6.692 3.004 1.444 6.826 2.146 11.682 2.146 5.262 0 14.32 -1.116 15.392 -6.266 0.158 -0.758 0.166 -1.692 0.024 -2.58v-0.002Zm-15.416 -4.37c8.314 0 13.418 2.602 13.418 4.468s-5.104 4.468 -13.418 4.468 -13.418 -2.602 -13.418 -4.468 5.106 -4.468 13.418 -4.468Z" stroke-width="1"></path><path id="vector_57" fill="#cdf80b" d="M99.22 333.248c-0.338 -0.258 -1.744 -1.566 -2.112 -1.812 -0.662 -0.44 -0.854 -0.872 -1.096 -1.95 -1.662 -7.4 -1.162 -15.246 -1.614 -22.978 1.95 -1.866 3.59 -4.104 4.774 -6.528 0.242 -0.496 0.038 -1.096 -0.458 -1.338 -0.496 -0.244 -1.094 -0.036 -1.338 0.458 -0.834 1.704 -1.912 3.308 -3.178 4.734 -0.116 -1.26 -0.268 -2.518 -0.468 -3.768 2.306 -3.574 3.838 -8.896 4.124 -14.388 0.028 -0.55 -0.396 -1.022 -0.948 -1.05 -0.546 -0.04 -1.022 0.394 -1.05 0.948 -0.234 4.512 -1.346 8.872 -3.04 12.092 -0.536 -1.106 -1.216 -3.756 -1.266 -6.482 -0.024 -1.366 -2.022 -1.262 -2 0.038 0.046 2.538 0.632 6.11 1.986 8.256 -0.016 3.434 0.044 6.804 0.114 10.088 -1.408 -0.842 -2.56 -2.112 -3.232 -3.61 -0.226 -0.504 -0.818 -0.73 -1.322 -0.504 -0.504 0.226 -0.73 0.818 -0.504 1.322 1.004 2.24 2.868 4.072 5.108 5.066 0.072 3.19 0.818 16.818 -0.992 19.066 -1.066 1.324 -5.104 2.952 -3.948 4.478 0.272 0.358 0.752 0.488 1.168 0.324 0.99 -0.396 2.792 -0.888 3.74 -1.048 0.058 0.454 0.122 1.128 0.176 1.916 0.068 0.98 1.364 1.284 1.862 0.436 0 0 1.186 -2.046 1.288 -2.214 0.25 0.016 3.654 0.326 3.654 0.326 1.066 0.102 1.53 -1.352 0.57 -1.874l0.002 -0.004Z" stroke-width="1"></path></g><g id="tree 2"><path id="vector_58" fill="#cdf80b" d="M264.402 323.408c-2.47 0.958 -4.914 0.964 -8.05 0.044 -4.146 -1.218 -5.334 -4.28 -4.388 -6.452 -2.342 -1.234 -3.948 -3.818 -3.888 -6.488 0.06 -2.682 1.794 -5.2 4.206 -6.32 -1.228 -2.228 -2.266 -5.222 -1.556 -8.334 0.662 -2.894 3.258 -5.624 6.368 -5.824 -0.316 -2.292 -0.28 -5.622 1.688 -8.442 2.168 -3.106 6.396 -4.356 9.42 -2.788 3.384 1.754 4.258 5.738 4.552 9.604 4.588 0.53 7.394 5.358 5.23 9.688 0.854 0.386 1.616 1.02 2.222 1.862 2.316 3.222 1.846 8.126 -3.698 11.99 2.09 3.396 1.354 8.218 -1.686 10.714 -2.74 2.252 -7.452 2.564 -10.42 0.746Zm0.71 -1.93c2.158 1.608 6.258 1.432 8.44 -0.36 2.506 -2.058 2.88 -6.318 0.772 -8.782 -0.4 -0.466 -0.288 -1.18 0.236 -1.502 1.898 -1.168 4.282 -3.128 4.86 -5.832 0.274 -1.29 -0.046 -2.774 -0.838 -3.876 -1.412 -1.964 -2.658 -0.974 -3.096 -2.068 -0.136 -0.342 -0.074 -0.732 0.162 -1.012 1.154 -1.376 1.404 -3.462 0.61 -5.074 -0.796 -1.61 -2.608 -2.702 -4.398 -2.6 -0.486 0.036 -1.012 -0.394 -1.042 -0.944 -0.2 -3.572 -0.776 -7.416 -3.534 -8.848 -2.356 -1.22 -5.448 0.128 -6.86 2.156 -1.418 2.032 -1.836 5.002 -1.148 8.148 0.152 0.688 -0.442 1.324 -1.156 1.198 -2.528 -0.462 -4.904 1.854 -5.444 4.22 -0.528 2.316 0.158 5.116 1.932 7.884 0.372 0.58 0.06 1.352 -0.61 1.512 -2.15 0.512 -3.874 2.646 -3.922 4.856 -0.05 2.21 1.576 4.418 3.702 5.028 0.76 0.216 0.98 1.194 0.382 1.714 -1.022 0.89 -0.668 3.226 2.756 4.23 5.94 1.746 7.004 -0.942 8.198 -0.054l-0.002 0.006Z" stroke-width="1"></path><path id="vector_59" fill="#cdf80b" d="M280.454 339.536c-0.124 -4.138 -8 -6.37 -15.416 -6.37s-15.304 2.236 -15.416 6.38c-0.516 3.5 0.362 5.07 3.734 6.692 3.004 1.444 6.826 2.146 11.682 2.146 5.262 0 14.32 -1.116 15.392 -6.266 0.158 -0.758 0.166 -1.694 0.024 -2.582Zm-15.416 -4.37c8.314 0 13.418 2.602 13.418 4.468s-5.104 4.468 -13.418 4.468 -13.418 -2.602 -13.418 -4.468 5.106 -4.468 13.418 -4.468Z" stroke-width="1"></path><path id="vector_60" fill="#cdf80b" d="M270.35 338.47c-0.338 -0.258 -1.744 -1.566 -2.112 -1.812 -0.662 -0.44 -0.854 -0.872 -1.096 -1.95 -1.662 -7.4 -1.162 -15.246 -1.614 -22.978 1.95 -1.866 3.59 -4.104 4.774 -6.528 0.242 -0.496 0.038 -1.096 -0.458 -1.338 -0.496 -0.244 -1.094 -0.036 -1.338 0.458 -0.834 1.704 -1.912 3.308 -3.178 4.734 -0.116 -1.26 -0.268 -2.518 -0.468 -3.768 2.306 -3.574 3.838 -8.896 4.124 -14.388 0.028 -0.55 -0.396 -1.022 -0.948 -1.05 -0.546 -0.04 -1.022 0.394 -1.05 0.948 -0.234 4.512 -1.346 8.872 -3.04 12.092 -0.536 -1.106 -1.216 -3.756 -1.266 -6.482 -0.024 -1.366 -2.022 -1.262 -2 0.038 0.046 2.538 0.632 6.11 1.986 8.256 -0.016 3.434 0.044 6.804 0.114 10.088 -1.408 -0.842 -2.56 -2.112 -3.232 -3.61 -0.226 -0.504 -0.818 -0.73 -1.322 -0.504 -0.504 0.226 -0.73 0.818 -0.504 1.322 1.004 2.24 2.868 4.072 5.108 5.066 0.072 3.19 0.818 16.818 -0.992 19.066 -1.066 1.324 -5.104 2.952 -3.948 4.478 0.272 0.358 0.752 0.488 1.168 0.324 0.99 -0.396 2.792 -0.888 3.74 -1.048 0.058 0.454 0.122 1.128 0.176 1.916 0.068 0.98 1.364 1.284 1.862 0.436 0 0 1.186 -2.046 1.288 -2.214 0.25 0.016 3.654 0.326 3.654 0.326 1.066 0.102 1.53 -1.352 0.57 -1.874l0.002 -0.004Z" stroke-width="1"></path></g></g></svg>