<svg width="493" height="523" viewBox="0 0 493 523" fill="none" xmlns="http://www.w3.org/2000/svg">
<path d="M89.4666 1.66669C61.6 5.26669 26.5333 17.8 5.06664 31.9334C-4.40003 38.2 1.19997 36.8667 15.6 29.2667C35.0666 19.2667 48.1333 14.2 68 9.26669C84 5.26669 85.7333 5.13336 112 5.13336C137.867 5.13336 140 5.26669 151.067 8.73336C178.267 17.1334 196.667 31 206.533 50.6L209.333 56.3334L206.667 64.3334C202 78.3334 203.867 95.4 210.4 98.8667C212 99.6667 215.867 100.333 219.2 100.333H225.2L228.133 113C229.733 120.067 230.8 125.933 230.533 126.2C230.267 126.467 227.067 126.067 223.333 125.267C217.333 124.067 216.4 123.4 214.133 118.467C209.2 108.2 195.733 89.6667 185.333 78.6L174.8 67.4L178.267 62.2C180.133 59.4 182.933 55.6667 184.4 53.9334C185.867 52.3334 186.533 51 185.733 51C184.133 51 174 61.6667 173.067 64.3334C172.667 65.5334 169.467 63.6667 163.067 58.8667C157.867 54.8667 152.667 51 151.467 50.3334C149.333 49.1334 149.333 48.3334 150.8 42.6C152.8 34.3334 151.6 33.2667 148.533 40.8667L146.133 46.7334L134 40.7334C122.533 34.8667 112 30.6 112 31.6667C112 31.9334 118.267 35.4 126 39.5334C148.4 51.1334 162 61 178.8 77.6667C195.333 94.0667 205.067 107.267 213.467 124.867C219.867 138.067 221.467 148.067 217.867 151.533C210.4 159 183.6 143.533 146.933 110.6C138.133 102.733 130 96.3334 128.933 96.3334C127.867 96.3334 120.933 98.7334 113.467 101.8C84.4 113.4 63.3333 116.6 34.5333 113.667C25.0666 112.733 16.9333 112.2 16.5333 112.733C15.2 114.067 25.3333 116.2 40.2666 117.933C65.0666 120.733 90.4 115.8 118.667 102.733L130 97.5334L132.4 101C136.133 106.067 160.133 127.267 173.467 137.267C184.8 145.667 185.2 146.2 191.2 159.133C198.533 174.6 200.4 184.6 196.4 186.733C191.867 189.133 183.467 183.933 168.533 169.4C155.733 157 125.067 121.933 119.333 113.133C116.8 109.4 113.867 108.333 115.2 111.8C115.6 112.867 121.867 122.333 129.2 132.733C151.2 164.467 162.933 186.2 163.2 196.067C163.333 200.733 163.2 201 159.067 200.867C156.667 200.733 151.733 198.467 147.467 195.667C140.133 190.867 107.067 161.267 103.733 156.6C102.8 155.267 98 149.8 93.2 144.467L84.4 134.867L73.8666 138.6C64.2666 141.933 61.6 142.2 45.3333 142.2C31.3333 142.2 24.6666 141.533 15.4666 139.267C8.9333 137.667 3.3333 136.6 3.06664 136.867C1.86664 138.067 18 143.133 28.9333 145C48.1333 148.333 62.4 147.267 76.2666 141.4L82.5333 138.733L104.267 161C136.133 193.8 151.333 205.133 161.733 204.067C165.733 203.667 166 203.267 166.4 198.067C166.933 191.133 161.333 176.467 152.8 162.2L146.4 151.667L162.267 167.133C179.2 183.667 183.467 187.133 190.533 189.533C194.267 190.733 195.733 190.6 198.267 189C202.933 185.8 202.4 177.8 196.133 162.467C193.333 155.4 191.333 149.8 191.867 150.067C192.267 150.333 194.667 151.267 196.933 152.2C200.267 153.533 201.6 155.133 202.667 158.867C204 163.933 208 168.6 212.4 170.067C213.733 170.6 219.333 170.067 225.067 169C238.267 166.467 242.667 166.467 246.533 169.133C249.867 171.533 249.867 171.667 247.2 187.933C245.2 200.6 250.8 209.533 262.667 212.333C278.933 216.2 292.4 203 288.133 187.533C287.333 184.6 286.667 180.067 286.667 177.4C286.667 169 292.133 167.8 311.067 172.333C324.267 175.533 328 174.733 331.467 168.067C334 163.267 334.667 149.8 332.933 141.4C332.4 138.6 330.4 134.6 328.533 132.333C324.667 127.8 320.533 127.267 308 129.933C298.667 131.8 293.733 130.333 289.733 124.333C285.6 118.333 285.733 111 290 105.933C294.533 100.6 299.067 99.8 309.867 102.2C322.267 105.133 326.933 105 330.4 101.267C335.733 95.5334 337.867 74.2 334.133 65C331.067 57.9334 327.6 56.8667 312.267 59C290.933 61.8 288.267 59.5334 292.667 42.3334C295.333 31.6667 293.733 24.7334 287.2 19.1334C281.333 13.9334 274.4 12.8667 265.333 15.9334C254.267 19.6667 252.533 22.8667 253.067 39.9334C253.2 49 252.8 54.7334 251.867 55.8C249.867 58.3334 240.267 58.2 230.267 55.5334C225.733 54.3334 219.733 53.6667 216.933 53.9334C211.867 54.4667 211.733 54.3334 207.6 46.3334C196.667 25.5334 173.333 10.0667 143.333 3.53335C131.867 1.00002 102.8 0.0666881 89.4666 1.66669ZM282.667 19.6667C290.267 23.5334 292.533 33.2667 288.667 44.3334C283.067 60.3334 289.6 65 313.2 61.8C326.933 59.9334 329.733 60.8667 332.133 68.2C334 73.8 332.933 88.8667 330.133 95.4C327.6 101.533 324.133 102.467 313.733 99.8C303.467 97.1334 296.933 97.1334 292 99.6667C280.933 105.4 281.067 126.067 292.267 131.8C296.533 133.933 301.6 133.933 316.8 131.533C323.467 130.467 327.067 133.267 329.2 141.267C331.2 148.067 331.067 161.667 328.933 165.533C326 171.267 323.733 171.8 311.733 169.267C298.267 166.467 293.067 166.467 288.133 169C283.6 171.267 282.4 175.133 284 182.333C284.667 185.267 285.333 190.467 285.333 193.8C285.333 204.467 277.6 210.6 266 209.4C258.4 208.467 253.867 205.4 251.067 199.533C249.067 195.4 249.067 194.067 250.667 186.6C253.467 174.467 253.067 169.8 249.2 166.6C246.4 164.333 244.667 164.067 234.667 164.867C228.4 165.4 220.933 166.067 218 166.467C212 167.267 207.6 164.733 206 159.267C205.2 156.467 205.6 156.333 211.2 156.333C222.133 156.333 225.2 149.267 220.8 134.467L218.8 128.067L223.067 128.867C236 131.267 240.933 131.267 245.067 129.133C255.2 123.8 257.067 107.133 248.533 98.4667C245.6 95.6667 243.733 95 237.867 95C234 95 227.867 95.6667 224.267 96.4667C215.467 98.6 211.467 97.4 209.2 92.0667C206 84.2 208.267 64.0667 212.933 58.6C215.6 55.6667 217.333 55.8 231.467 59.1334C244.267 62.2 250.533 61.8 254.8 57.5334C257.067 55.2667 257.2 53.8 256.533 41.6667C255.733 30.4667 256 27.9334 257.867 25C262.267 18.2 274.8 15.5334 282.667 19.6667ZM246.133 100.733C249.067 103.267 249.867 105.267 250.4 111.4C250.933 118.6 250.8 119.133 246.267 123.667C242.667 127.267 240.533 128.467 237.867 128.067C234.533 127.667 234.133 126.867 231.867 116.333C230.533 110.067 229.067 103.667 228.667 102.067C227.6 98.8667 229.333 98.0667 237.6 97.8C240.933 97.6667 243.6 98.6 246.133 100.733Z" fill="#CA8A04"/>
<path d="M388.4 31.2667C384.133 35.9334 365.6 64.6 363.333 70.2C359.2 80.2 363.867 74.3334 376.933 53.2667C391.733 29.4 392.4 28.3334 391.6 28.3334C391.333 28.3334 389.867 29.6667 388.4 31.2667Z" fill="#CA8A04"/>
<path d="M437.333 94.2C420 99.6667 410.933 103 400.933 107.533C391.2 111.8 391.867 114.733 401.733 110.733C405.6 109.267 419.2 104.067 432 99.4C444.8 94.6 455.6 90.4667 455.867 90.2C457.467 88.6 449.733 90.3333 437.333 94.2Z" fill="#CA8A04"/>
<path d="M398.133 166.867C399.467 168.333 460.267 188.467 461.067 187.8C461.867 187 438.933 177.8 420.667 171.667C403.6 165.933 395.333 164.2 398.133 166.867Z" fill="#CA8A04"/>
<path d="M333.867 203.533C320 209.933 312.933 219.533 316 227.8C316.8 229.933 320.933 235 325.333 239.133C332.533 245.933 333.333 247.133 333.333 252.067C333.333 262.733 322 270.467 311.333 267C307.333 265.667 305.867 264.2 303.2 258.467C301.467 254.733 300 250.6 300 249.4C300 248.2 298.4 245.4 296.533 243.133C293.733 239.8 292.133 239 287.867 239C277.6 239 260.267 250.733 257.333 259.8C255.067 266.6 257.6 272.6 265.6 279.4C277.733 289.4 278.933 290.733 278.4 294.733C278.133 297.8 277.2 298.467 272.667 299.4C260.667 301.933 257.333 303.267 253.6 307C248.667 311.933 247.733 316.467 250.267 324.733C252.667 333.133 261.733 342.467 268.533 343.8C277.467 345.4 281.333 343.667 290.8 333.533C298.933 324.867 300 324.2 302.667 325.667C304.267 326.467 306.533 329.4 307.6 332.067C309.6 336.733 309.467 337 306.533 339C304.933 340.067 300.933 343.533 297.733 346.467C290.8 353.133 290.267 357.4 295.733 363C300.533 367.667 307.6 368.867 325.333 368.067L338.533 367.4L329.2 373.933C323.467 377.933 319.067 382.2 317.733 385C315.733 389.133 315.733 389.8 317.867 393C319.067 394.867 321.6 397 323.467 397.667C328.533 399.667 349.067 399.267 360.8 397C366.533 395.933 371.467 395.267 371.733 395.667C372.667 396.467 372.933 396.333 363.2 402.067C345.2 412.867 335.867 423 338.8 428.6C340.533 431.8 349.2 433.8 359.733 433.4L368.667 433L371.467 447C373.067 455.267 376.267 465.4 379.2 471.533C384.667 483.4 384.8 484.467 381.867 492.467C378.133 503.133 374.8 516.333 375.867 516.333C376.533 516.333 378.933 510.333 381.2 503C383.467 495.8 385.867 489.533 386.533 489.133C387.067 488.733 389.733 491.533 392.4 495.4C397.067 502.2 405.333 511 405.333 509.267C405.333 508.867 401.333 502.6 396.4 495.4C379.733 470.867 373.2 451.933 373.2 428.2C373.2 420.467 373.867 410.2 374.667 405.4L376.267 396.6L362.667 380.2C331.333 341.933 316.133 313.267 321.2 302.2C324.8 294.2 343.333 300.867 364.667 317.8C371.333 323.133 385.467 336.2 396.267 347.133C407.067 358.067 416.667 367 417.467 367C418.267 367 420.533 365.933 422.4 364.467C426.8 361.4 439.067 355.267 445.333 352.867C449.333 351.4 449.6 351.133 446.667 351.133C443.867 351.133 438.8 352.867 425.467 358.6C423.867 359.267 423.733 357.933 424.267 351.267C425.2 341 430.133 330.333 437.6 322.2C442.667 316.467 442.933 316.067 439.333 318.2C437.2 319.533 433.6 322.6 431.333 325L427.333 329.533L415.6 325.667C409.2 323.667 403.067 321.533 401.867 321.133C400.267 320.467 400.8 319.4 404.533 315.533C412.667 307.133 413.333 298.467 406.667 287.667C405.067 285.133 404.267 283 404.933 283C409.333 283 435.333 290.467 442 293.667C465.733 305 478.4 319.933 485.6 345C488.267 354.467 488.667 358.6 488.667 381.667C488.667 415.533 485.6 435.933 472 492.2C465.467 519 464.4 524.333 466.267 522.467C468.667 520.2 485.333 453.933 489.467 430.333C493.733 406.733 494 360.867 490.133 346.333C486.667 333 480 319.4 473.467 312.067C466.133 303.8 450 293.267 437.333 288.467C428.8 285.133 423.067 283.667 403.067 279.533C399.333 278.867 393.333 270.2 393.333 265.533C393.333 261 394.933 259.8 404.267 257C412.933 254.6 417.867 251.133 420.667 245.667C427.333 232.867 416.8 215.4 401.733 214.067C393.333 213.4 388.4 216.467 382.133 226.2C374.533 238.067 370.8 236.2 364.667 217.533C360.133 203.933 356.533 200.333 347.467 200.333C343.2 200.333 338.267 201.533 333.867 203.533ZM417.467 329.133C424.533 331.133 425.467 331.8 424.8 334.2C424.533 335.8 423.2 340.6 422.133 345C420.933 349.4 420 355.267 420 357.933C420 364.867 417.333 364.467 410.4 356.6C407.2 353.133 400.267 345.8 394.933 340.2L385.2 329.933L388.267 327.667C392 325 404.8 325.533 417.467 329.133ZM312 348.067C313.6 353 315.067 354.867 318.933 357C323.6 359.533 324 359.533 331.467 357.133L339.067 354.733L341.467 357.8C342.8 359.533 344 361.4 344 361.8C344.133 364.733 313.333 366.733 304.667 364.333C297.2 362.2 294 358.2 295.867 353.4C297.2 349.933 306.267 341.667 308.667 341.667C309.333 341.667 310.933 344.467 312 348.067ZM357.2 378.467C362.533 384.733 367.067 390.6 367.467 391.533C368.933 395.533 331.067 398.2 324 394.6C320.133 392.6 319.067 388.067 321.733 384.333C324.933 379.667 342.933 367.4 346.8 367C347.333 367 352 372.2 357.2 378.467ZM371.2 407.933C370.267 413 369.467 419.8 369.333 423.133C369.333 430.467 368.533 431 357.467 431C336.4 431 336.267 423 356.933 409.533C361.867 406.2 367.467 402.6 369.333 401.267C371.2 400.067 372.667 399.133 372.8 399.133C372.8 399 372.133 403 371.2 407.933Z" fill="#CA8A04"/>
<path d="M104 234.867L92.6666 235.667L104 236.6C119.6 238.067 158.667 237.933 158.667 236.467C158.667 234.067 130.267 233.133 104 234.867Z" fill="#CA8A04"/>
<path d="M164.933 293.667C148.8 303.533 128 317.533 128 318.333C128 321.133 179.867 289.4 180 286.6C180 284.733 177.733 285.8 164.933 293.667Z" fill="#CA8A04"/>
<path d="M218.4 326.333C215.333 332.2 198.533 381.933 199.067 383.533C200 386.467 221.733 327.933 220.933 324.467C220.667 323 219.867 323.533 218.4 326.333Z" fill="#CA8A04"/>
</svg>
