<svg xmlns="http://www.w3.org/2000/svg" viewBox="0 0 400 400" id="Hack-3--Streamline-Milano.svg" height="400" width="400"><desc>Hack 3 Streamline Illustration: https://streamlinehq.com</desc><g fill="#eab308"><path d="M102.16 164a0.44 0.44 0 1 0 0 -0.86c-30.68 -0.62 -63.62 1.24 -63.82 1.12a6.92 6.92 0 0 0 -3.76 -5.48 8.34 8.34 0 0 0 -9.72 1.62 7.86 7.86 0 0 0 -0.14 8.86c3.58 5.24 14 3.42 13.72 -4.12C48.28 166.62 102 164 102.16 164zm-63.62 0.68a0.34 0.34 0 0 0 0 -0.28 0.34 0.34 0 0 1 0 0.3z" stroke-width="1"></path><path d="M276 256.94c17.72 11.22 32 33.76 41.86 52.16a0.42 0.42 0 0 0 0.76 -0.4c-10.52 -20.38 -24.62 -42.86 -43.84 -54.6 -1.26 -12.48 -8.34 -26.22 -12.16 -38 -4.32 -13.26 -0.34 -27.88 -9.02 -54.94h4.26a1.08 1.08 0 0 0 1.08 -1.1s-0.28 -13.8 -0.56 -27.34c26 -0.26 23.6 -0.24 31.46 -0.62 0.16 3.78 0.5 9.76 0.56 11.46a0.44 0.44 0 0 0 0.86 0c0 -1.42 0.24 -7.4 0.36 -11.54l9.46 -0.5a7.76 7.76 0 0 0 1.26 5.04c2.92 4.3 9.2 3.38 11.82 0.9 3.82 -3.6 1.26 -10.28 -2 -11.36 -4.16 -2 -10 -0.62 -11 4.5h-9.54c0 -1.54 0.22 -26.4 -0.98 -45.7a8.46 8.46 0 0 0 4.76 -2c3.84 -3.62 1.24 -10.3 -2 -11.36a8.28 8.28 0 0 0 -9.72 1.62 7.88 7.88 0 0 0 -0.14 8.86 7.1 7.1 0 0 0 6.18 2.98c0 1.12 -0.62 30 0 45.64 -11.22 0 -21.48 0 -31.44 0.2 -0.22 -11.22 -0.42 -21.88 -0.44 -24a8.56 8.56 0 0 0 5.46 -2c3.82 -3.6 1.26 -10.28 -2 -11.36a8.28 8.28 0 0 0 -9.7 1.62 7.86 7.86 0 0 0 -0.16 8.86 6.96 6.96 0 0 0 5.44 2.96c-0.26 3.36 -0.34 13.58 -0.34 24.12 -6.46 0.12 -12.8 0.32 -19.2 0.58a53.24 53.24 0 0 0 -16 -12.26c-0.42 -12.88 -1.14 -28.46 -2 -37.66a8.84 8.84 0 0 0 6 -2c3.8 -3.62 1.26 -10.3 -2 -11.38a8.32 8.32 0 0 0 -9.7 1.62 7.38 7.38 0 0 0 4.8 11.78c-0.14 2 0 10.1 0.34 20.38h-15.44c-2 0 -28.5 0.92 -31.02 1.06s-11.7 0.8 -14.86 1.04c-0.3 -4.54 -0.6 -9.44 -0.88 -15.12a8.78 8.78 0 0 0 6 -2c3.82 -3.64 1.22 -10.3 -2 -11.36a8.28 8.28 0 0 0 -9.72 1.62c-2.86 3.34 -1.66 10.98 4.8 11.76 -0.18 12.3 -0.38 9.7 0.82 31.12 -20.7 -0.28 -4.28 -0.14 -52 0.72 -0.42 -0.14 -0.22 1.7 -0.54 -12.88a8.38 8.38 0 0 0 4.4 -2c3.82 -3.62 1.26 -10.28 -2 -11.36a8.24 8.24 0 0 0 -9.7 1.62 7.82 7.82 0 0 0 -0.16 8.84 7.12 7.12 0 0 0 6.48 2.98c-0.2 5.82 0 18.42 0.14 33.56 -5.38 -0.44 -39.1 1.12 -43.1 0.3 -0.66 -3.1 -1.04 -16.12 -2.82 -49.86a8.44 8.44 0 0 0 5 -2c3.82 -3.62 1.24 -10.28 -2 -11.36a8.26 8.26 0 0 0 -9.7 1.62 7.88 7.88 0 0 0 -0.16 8.86 7.06 7.06 0 0 0 6 2.98c0 5.88 0.14 48.24 2 51.16a1.1 1.1 0 0 0 0.52 0.5c3.78 2 40 -1.52 44.5 -1.64 0.2 12.74 0.5 27.2 0.78 40.94 -6 0 -35.28 0.68 -39.22 1.6 -0.76 0.18 -1.12 0.54 -1.24 1.6 -0.5 5.04 2.12 30.98 1.56 31.6a7.5 7.5 0 0 0 -5.22 2.44 7.86 7.86 0 0 0 -0.16 8.86c2.92 4.28 9.2 3.38 11.82 0.88 3.82 -3.6 1.26 -10.28 -2 -11.36A8.72 8.72 0 0 0 66 218c0.42 -3.38 -0.88 -27.88 -0.48 -31.24 1.3 -0.2 19.84 -0.84 38.5 -1.44 0.34 16 0.66 30.72 0.84 40.4a7.22 7.22 0 0 0 -4.32 2.28 7.86 7.86 0 0 0 -0.16 8.86c2.92 4.26 9.2 3.38 11.82 0.88 3.84 -3.64 1.24 -10.3 -2 -11.36a8.94 8.94 0 0 0 -4.48 -0.86c0.2 -23.6 0 -25.32 -0.22 -40.32 13.36 -0.44 26.56 -0.84 33.26 -1.04a248.26 248.26 0 0 0 -13.32 31.64c-3.48 10.7 -2 22.46 -7.1 32.32 -30.44 16.58 -49.5 77.4 -57.76 110.12 -2.18 8.58 -2.36 9.12 -1.48 8.76s24.14 -106.74 66.56 -119.7c45.92 -14.04 109.9 -16.04 150.34 9.64zm-19.36 -124c0 12.6 0.1 25.06 0.12 26.26h-3.84a80.4 80.4 0 0 0 -14.14 -26.12zm-36.64 0.1c12.54 7.44 21.72 26 24.22 40.42a0.86 0.86 0 0 1 -1.68 0.32c-2.66 -12.44 -13.2 -30.58 -24.68 -36.96a2.14 2.14 0 0 1 -0.82 -2.96 2.18 2.18 0 0 1 2.96 -0.82zM139.56 182.68c-0.46 0.92 2.52 0 -34 0.5 -0.36 -18.4 -0.88 -45.24 -1.2 -61.72 2.68 0.96 28 0.6 32.34 0.48 5.68 -0.14 8.18 -0.22 20 -1.16 0.66 11.82 0.64 11 1.08 16 -7.96 13.84 -10.84 30.98 -18.22 45.9zm19.66 -48.38c-0.26 -11.12 -0.94 -19.42 -1.62 -29.44h14.86c2.52 0 29 -0.94 31 -1.04 3.34 -0.18 13.48 -0.9 15.4 -1.04 0.16 4.88 0.32 10.2 0.5 15.52 -11.26 -5.02 -23.5 -7.16 -35.24 -3.24a45.26 45.26 0 0 0 -24.9 19.24zm-43.84 -72.8c8 2.94 6.34 -11.76 -0.84 -7.56a4 4 0 0 0 -5.38 2.56 4.34 4.34 0 0 0 6.22 5zM119.8 58a2.32 2.32 0 0 1 -3 1.88 5.02 5.02 0 0 0 -0.36 -4.44A2.98 2.98 0 0 1 119.8 58zm-4.66 -1.74a2.42 2.42 0 0 1 1.08 2 2.82 2.82 0 0 1 -0.52 1.16 2.16 2.16 0 0 1 -0.56 -3.2zm-2.12 -0.62a4.18 4.18 0 0 0 0.4 4.48 3.52 3.52 0 0 1 -1.6 -0.78 2.16 2.16 0 0 1 1.2 -3.74z" stroke-width="1"></path><path d="M80.56 69.02c8.82 0.84 33.38 -0.28 42.76 -2.88 1.36 -0.38 3.5 -1.04 4.14 -2.3 1.3 -2.56 -0.66 -29.6 -2.66 -32.1 -0.8 -1.02 -3.12 -1.32 -4.52 -1.46 -10.4 -1.14 -45.82 1.2 -46.44 4.3 -0.9 4.58 0.54 25.5 3.12 33.14 0.32 1 2.14 1.18 3.6 1.3zm-5.88 -34.24c3.2 -2.14 43.16 -4.34 48.5 -1.68a11.16 11.16 0 0 1 0.82 3.02c-18 0.66 -40.52 2.74 -49.36 3.52a29.86 29.86 0 0 1 0.04 -4.86zm0.48 12.46c21.02 -0.58 39.84 -1.8 49.76 -2.7 0.72 8 1.12 17.32 0.6 18.32 -0.22 0.44 -2.3 1.08 -2.78 1.2 -9.44 2.66 -38 4 -44.2 2.8a110 110 0 0 1 -3.38 -19.62z" stroke-width="1"></path><path d="M89.06 60.88c8.76 -0.4 8.46 -2.58 -0.1 -2.16 -2.84 0.12 -8.38 0.34 -8.4 1.44s4.96 0.88 8.5 0.72zm35.38 265.98c-2.32 -0.72 -5.54 47.22 -5.4 53.32a0.44 0.44 0 0 0 0.86 0c0.1 -6.46 6.1 -52.84 4.54 -53.32zm210.68 -121.34a8 8 0 0 0 4.7 7.06 8.94 8.94 0 0 0 8.62 -1.76c2 -2 2.64 -4.92 -0.24 -8.92 -3.24 -4.32 -11.84 -2.06 -13.08 3.62zm12.88 2.24c-0.64 3.04 -5.36 4.68 -7.9 4a7.08 7.08 0 0 1 -3.22 -5.8c1.1 -3.82 7.44 -5.68 9.6 -2.78a5.7 5.7 0 0 1 1.52 4.58zm-38.18 -53.2c1.88 1.74 -0.42 -0.24 7.04 6.54a0.7 0.7 0 0 0 1.08 -0.9 47.34 47.34 0 0 0 -5.6 -8 1.74 1.74 0 0 0 -2.52 2.36zm-1.08 14.76a0.7 0.7 0 1 0 0.86 -1.08 51.1 51.1 0 0 0 -7.86 -6.5 1.74 1.74 0 0 0 -2 2.9c3.8 2.16 7.52 3.8 9 4.68zm-14.52 9.76a82 82 0 0 0 11.52 0.74 0.68 0.68 0 1 0 0.2 -1.36c-5.68 -1.5 -3.12 -1.1 -11.22 -2.82a1.74 1.74 0 0 0 -0.5 3.44zm11.28 19.4c1.14 -1.84 1.36 -1.9 6 -8.3a0.7 0.7 0 0 0 -1 -0.96 38.18 38.18 0 0 0 -8 7.24 1.74 1.74 0 0 0 3 2.02zm-103.04 -147.18a286.7 286.7 0 0 0 45.22 4.2c1 0.18 1.32 -0.84 1.62 -1.8a123.26 123.26 0 0 0 13.1 -22c0.4 -0.94 0.68 -1.68 0 -2.56 -1.2 -1.78 -5.84 -2.58 -7.34 -2.64 0.56 -3.54 0.86 -4.14 -1.64 -4.78 -5.86 -1.54 -24.86 -2.74 -29.84 -3.54a23.12 23.12 0 0 0 -2.76 -7.54 0.66 0.66 0 0 0 -0.34 -0.38c-1.2 -0.68 -11.8 -0.3 -14.64 0.28a0.4 0.4 0 0 0 -0.34 0.34 241.3 241.3 0 0 0 -4 39.4 0.92 0.92 0 0 0 0.96 1.02zm4 -39.86a69.62 69.62 0 0 1 13.44 0c3.12 6 1.78 8 3.02 8.22 4 0.9 25.26 2.72 30.56 4.26 -0.34 4 -4.8 25.26 -6.2 29.38a311.14 311.14 0 0 1 -43.64 -3.74 262.76 262.76 0 0 1 2.72 -38.12zM163.78 292.18c-4.9 10 -8 27.1 -0.14 37.08a37.5 37.5 0 0 0 12.36 9.58c-0.16 2.88 -0.88 10.8 1.2 12.62 0.8 0.7 6.66 2 13.78 2.76 -3.14 -18.74 4 -17.74 1.52 0.16a116.52 116.52 0 0 0 13.36 0.74c-3.88 -16.42 3.52 -24.68 1.46 0 4.14 -0.14 11.66 -0.64 12.74 -4.62s-0.64 -10 1.6 -11.86c2.78 -2.38 6.9 -4.48 9.86 -7.86 7.04 -8 6.48 -26.72 2 -36 -12.66 -25.08 -59.52 -23.3 -69.74 -2.6zm25.88 29.16c-2.62 1.84 -16.36 0.14 -18 -1.14s-1.84 -3.2 -1.82 -5.58a10.4 10.4 0 0 1 4.16 -8.18c11.34 -8.24 18.18 12.86 15.66 14.9zm31.38 -1.7c-1.72 1.28 -15.48 2.98 -18 1.16 -2 -1.72 2 -10.8 3.52 -12.74a8.7 8.7 0 0 1 12.18 -2.18c5.08 3.76 5.26 11.66 2.3 13.76z" stroke-width="1"></path><path d="M374.9 191.74c-0.56 -1.12 -3.08 -1.26 -5.02 -1.44 -0.86 -19.46 -3.66 -38.74 -23.24 -38.46 -15.36 0.34 -25 6.74 -27.78 24.82 -0.62 4 14.48 2.36 14.92 0.68 5.14 -19.5 14.64 -14.7 17.4 -6.5 1.7 5.02 1.82 12 2 19.08 -7.1 0.1 -30 1.42 -34.56 3.58 -1.42 0.66 -1.66 1.26 -1.84 2.84 -0.72 6.66 0.74 33.78 1.68 35 0.62 0.82 7.02 1.12 15.1 1.14 0.58 5.24 1.34 10.64 1.8 14h-2a1.16 1.16 0 0 0 -0.84 0.5c-2.84 3.64 -11.74 19.82 -17 37.18a122.56 122.56 0 0 0 -3.14 12.56 0.42 0.42 0 0 0 0.84 0.18c0.68 -3.16 1.48 -6.26 2.36 -9.26 10.72 0 44.92 5.14 53.46 10 14 107.56 -82 103.72 -106.34 68.86a0.44 0.44 0 0 0 -0.72 0.5c20.72 30.6 91.16 37.56 107.26 -21.72 10.76 -39.58 -8.3 -95.02 -11.26 -96a30 30 0 0 0 -3.4 -0.86 31.76 31.76 0 0 0 3.82 -8.42 65.5 65.5 0 0 0 1.54 -8.12c7.04 -0.34 14.48 -1.22 14.8 -1.3a1.2 1.2 0 0 0 0.94 -0.8c1.62 -5.32 0.8 -34.86 -0.78 -38.04zm-33.26 -30c-9.48 0.24 -11.78 6.44 -14 15.76 -1.84 1.04 -8.18 0.64 -8 -0.8 1.82 -12 9.48 -22.54 22 -22.52 17.8 0 20.26 18 21.02 35.66h-7.4c-0.32 -13.26 -0.32 -28.28 -13.62 -28zm25.26 122.9c-13 -4.28 -35.24 -7.34 -48.42 -6 0.94 -2.56 2 -5.02 2.92 -7.34s26.42 -3.02 44 6.34c0.6 2.36 1.04 4.8 1.5 7.1zm-9.84 -33.76c2.64 4.18 6.86 20.26 8 25.38 -13.5 -8.78 -34.14 -10 -43.1 -6.46a136 136 0 0 1 11.66 -21.76c5.86 0.18 17.9 1.14 23.44 2.94zm-3.46 -2.84a124.78 124.78 0 0 0 -17.34 -1.66c-0.42 -4.14 -3.38 -32.82 0 -33.02 2.1 -0.14 2.32 2.54 3.36 16.7a1.08 1.08 0 0 0 2.16 0 17.64 17.64 0 0 1 1 -4.8c0.24 -0.6 0.74 -1.6 1.4 -1.6 1.76 0 2 5.24 2 7.02s2 2 2.14 0.64a11.52 11.52 0 0 1 1.58 -6c2.86 -3.4 2.46 6.3 2.56 6.5s1.68 1.5 2 0c0 -0.46 0.36 -4.14 1.64 -5.3 1.86 0 2.32 1.6 2.38 3.68a38.58 38.58 0 0 1 -4.88 17.94zm15.3 -18.96c-1.26 0.22 -4.56 0.48 -8.88 0.76 0 -2.84 -1.04 -4.96 -4 -5.04a2.24 2.24 0 0 0 -1.82 1.16 4 4 0 0 0 -3.58 -3.08 3.28 3.28 0 0 0 -2.92 2c-1.26 -4.16 -4.76 -4.28 -6.44 -1.34 -0.6 -6.36 -0.84 -9.08 -2 -10.66a3.34 3.34 0 0 0 -3.14 -1.46c-3.44 0.26 -3.12 6.12 -3.28 9.4a80.38 80.38 0 0 0 0.58 10.28c-15.86 0.4 -14.46 -0.54 -14.24 -0.3 -0.66 0 -1.52 -29.44 -0.54 -34.8 0.1 -0.58 0.1 -0.58 0.72 -0.86 7.14 -3.18 49.62 -3 48.92 -1.58 -0.1 0.24 2.52 26.62 0.62 35.62z" stroke-width="1"></path></g></svg>