<svg xmlns="http://www.w3.org/2000/svg" fill="none" viewBox="0 0 400 400" id="Investment-Data-2--Streamline-Milano.svg" height="400" width="400"><desc>Investment Data 2 Streamline Illustration: https://streamlinehq.com</desc><g id="investment-data-2--finance-business-investment-data"><path id="graph" fill="#eab308" d="m337.39 92.4358 -33.58 -6.592h-40.676c-0.552 0 -1 0.448 -1 1v54.956h-31.368c-0.552 0 -1 0.448 -1 1v18.018l-23.058 -4.526H176.3598v-49.104c0 -0.478 -0.338 -0.888 -0.806 -0.98l-33.58 -6.592h-40.676c-0.552 0 -1 0.448 -1 1v170.2382c0 0.368 0.2 0.704 0.522 0.878 0.202 0.11 194.2602 105.684 194.6822 105.684h41.696c0.552 0 1 -0.448 1 -1V93.4178c0 -0.478 -0.338 -0.888 -0.806 -0.98l-0.002 -0.002Zm-75.256 51.364v4.35l-21.42 -4.35h21.42Zm-30.368 0.224 30.368 6.168V357.14l-30.368 -16.508V144.0238Zm-2 195.5222 -30.3682 -16.508V197.9358l30.3682 6.1682v135.442Zm-64.7342 -35.188 -30.368 -16.508v-74.846l30.368 6.168v85.186Zm-21.42 -91.578h21.42v4.35l-21.42 -4.35Zm53.788 109.172 -30.368 -16.508V158.5158l30.368 6.168v157.2682Zm32.3682 -126.2402H199.3998v-30.848h30.3682v30.848Zm-21.42 2h21.42v4.3502l-21.42 -4.3502Zm21.42 -34.862v0.014H198.4998l-22.52 -4.574h30.6322l23.156 4.56Zm-55.4062 -6.558h-8.328c-0.552 0 -1 0.448 -1 1V210.78h-30.368V108.1878h39.696v48.104Zm-32.484 -54.676 23.228 4.574h-31.34l-22.52 -4.574h30.632Zm-39.578 0.224 30.368 6.168v178.7582l-30.368 -16.508V101.8398ZM294.504 374.734l-30.368 -16.506V88.0678l30.368 6.168V374.734Zm-21.42 -286.8902h30.632l23.228 4.574h-31.34l-22.52 -4.574ZM336.2 375.416h-39.696V94.4178H336.2V375.416Z" stroke-width="1"></path><path id="arrow" fill="#eab308" d="M375.228 117.5376c-7.412 4.462 -14.552 9.514 -21.222 15.02 -3.964 3.272 -1.554 9.688 3.546 9.604l-97.982 122.8124 -19.208 -16.56c-2.244 -1.938 -5.634 -1.71 -7.606 0.516l-39.5822 44.782 -30.782 -23.624c-2.242 -1.718 -5.416 -1.432 -7.316 0.654l-26.274 28.898 -22.91 -65.122c-1.432 -4.08 -6.842 -4.914 -9.448 -1.464l-37.226 49.396c-1.802 2.392 -1.324 5.792 1.068 7.596 2.388 1.802 5.792 1.326 7.596 -1.068l31.136 -41.316 22.566 64.15c1.36 3.87 6.37 4.882 9.128 1.848l29.032 -31.928 30.838 23.666c2.26 1.734 5.476 1.426 7.368 -0.71l39.3842 -44.558 19.416 16.742c2.304 1.992 5.846 1.698 7.782 -0.724l101.518 -127.2422c2.542 3.444 7.902 2.7098 9.426 -1.2902 4.588 -12.012 5.01 -11.134 7.85 -24.284 1.002 -4.636 -4.036 -8.24 -8.098 -5.794Z" stroke-width="1"></path><g id="cash 2"><path id="vector" fill="#eab308" d="M60.586 221.076c-16.172 -5.686 -26.318 -21.5758 -24.676 -38.6378 0.066 -0.724 -0.634 -1.276 -1.314 -1.042 -7.138 2.4 -20.04008 2.9 -24.21208 2.704 -0.492 -0.018 -0.978 0.36 -1.04 0.88C6.62592 207.688 20.49 231.758 42.314 242.208c0.46 0.22 1.006 0.058 1.276 -0.364 4.652 -7.296 10.466 -13.702 17.282 -19.036 0.622 -0.49 0.456 -1.47 -0.286 -1.732Zm-18.2 18.942c-20.328 -10.146 -33.27808 -32.552 -31.15808 -53.8918 4.702 0.08 15.53408 -0.434 22.57608 -2.398 -0.988 16.8238 8.844 32.3238 24.456 38.6098 -6.172 5.058 -11.502 10.994 -15.874 17.68Z" stroke-width="1"></path><path id="vector_2" fill="#eab308" d="M38.472 205.502c-0.196 -0.518 -0.776 -0.772 -1.29 -0.578 -0.534 0.202 -1.03 0.476 -1.486 0.81 -2.738 -3.636 -8.6 -1.374 -7.748 3.048 0.384 1.992 2.738 2.972 1.67 5.222 -1.148 2.42 -5.636 2.106 -6.478 -2.47 -0.29 -1.046 -0.068 -2.19 0.592 -3.052 0.336 -0.44 0.25 -1.066 -0.188 -1.402 -0.44 -0.334 -1.064 -0.252 -1.402 0.188 -1.404 1.838 -1.388 4.042 -0.524 6.188 -0.634 0.346 -1.27 0.674 -1.92008 0.974 -1.184 0.544 -0.384 2.374 0.83608 1.818 0.702 -0.324 1.388 -0.678 2.072 -1.052 3.722 4.886 10.814 1.256 9.014 -3.758 -0.376 -1.292 -1.57 -2.318 -1.708 -3.034 -0.432 -2.226 2.458 -3.316 3.982 -1.718 0.75 0.786 1.034 1.912 0.8 2.97 -0.12 0.54 0.222 1.074 0.762 1.192 1.462 0.33 1.48 -1.984 1.134 -3.274 0.212 -0.156 0.562 -0.498 1.302 -0.78 0.516 -0.198 0.778 -0.776 0.58 -1.292Z" stroke-width="1"></path></g><g id="cash 1"><path id="vector_3" fill="#eab308" d="M332.176 75.8568c-0.528 -0.088 -0.892 -0.574 -0.83 -1.104 0.56 -4.776 0.508 -17.308 -1.592 -24.238 -0.21 -0.69 0.364 -1.384 1.098 -1.28 16.996 2.424 33.344 -7 39.76 -22.922 0.3 -0.742 1.298 -0.84 1.742 -0.206 5.012 7.054 11.142 13.156 18.222 18.136 0.414 0.292 0.544 0.846 0.304 1.292 -11.36 21.128 -35.966 34.072 -58.706 30.32l0.002 0.002Zm1.252 -1.83c21.206 3.06 44.198 -8.854 55.268 -28.666 -6.48 -4.67 -12.166 -10.266 -16.932 -16.664 -6.988 15.324 -22.908 24.452 -39.7 22.702 1.674 6.898 1.796 17.526 1.364 22.628Z" stroke-width="1"></path><path id="vector_4" fill="#eab308" d="M362.954 63.9484c3.614 -2.462 3.13 -7.2 0.09 -8.802 -3.192 -1.686 -5.474 1.06 -6.504 1.202 -0.958 0.132 -1.914 -0.44 -2.234 -1.324 -0.776 -2.138 1.45 -4.024 3.678 -3.382 0.526 0.154 1.084 -0.152 1.238 -0.682 0.152 -0.532 -0.152 -1.084 -0.684 -1.238 -0.842 -0.244 -1.718 -0.268 -2.552 -0.086 -0.424 -0.654 -0.508 -0.754 -0.678 -1.28 -0.172 -0.524 -0.736 -0.816 -1.26 -0.642 -0.526 0.172 -0.812 0.736 -0.642 1.26 0.17 0.524 0.41 1.02 0.712 1.48 -3.738 2.582 -1.744 8.49 2.696 7.876 1.912 -0.264 3.148 -2.546 5.298 -1.412 2.394 1.262 1.834 5.698 -2.764 6.304 -1.066 0.236 -2.18 -0.028 -3.034 -0.728 -0.424 -0.35 -1.054 -0.29 -1.408 0.138 -0.35 0.426 -0.29 1.056 0.138 1.408 1.786 1.47 3.932 1.556 6.12 0.808 0.332 0.666 0.636 1.334 0.924 2.018 0.516 1.216 2.358 0.44 1.844 -0.778 -0.306 -0.724 -0.63 -1.43 -0.982 -2.136l0.004 -0.004Z" stroke-width="1"></path></g><path id="dollar sign" fill="#eab308" d="M150.484 65.694c-1.924 -5.922 -7.412 -9.606 -13.064 -12.71 -2.314 -1.26 -9.832 -5.894 -9.352 -12.596 0.526 -7.98 11.042 -10.338 15.038 -3.592 0.612 1.03 1.936 1.374 2.972 0.762 1.032 -0.61 1.372 -1.94 0.762 -2.972 -1.668 -2.818 -4.322 -4.886 -7.81 -5.758v-5.242c0 -1.2 -0.972 -2.17 -2.17 -2.17s-2.17 0.97 -2.17 2.17v4.98c-1.702 0.2 -3.36 0.756 -4.878 1.656 -8.534 5.052 -9.326 18.48 5.528 26.568 4.864 2.67 9.562 5.76 11.022 10.248 3.92 12.016 -11.246 20.438 -20.142 12.544 -2.158 -1.92 -4.322 -5.166 -3.322 -8.006 0.4 -1.128 -0.194 -2.37 -1.324 -2.768 -1.124 -0.396 -2.37 0.194 -2.766 1.324 -2.394 6.782 4.684 16.39 14.626 16.856v5.82c0 1.2 0.972 2.17 2.17 2.17s2.17 -0.97 2.17 -2.17v-6.172c9.416 -1.958 16.03 -10.78 12.712 -20.944l-0.002 0.002Z" stroke-width="1"></path></g></svg>