<?xml version="1.0" standalone="no"?>
<!DOCTYPE svg PUBLIC "-//W3C//DTD SVG 20010904//EN"
 "http://www.w3.org/TR/2001/REC-SVG-20010904/DTD/svg10.dtd">
<svg version="1.0" xmlns="http://www.w3.org/2000/svg"
 width="400.000000pt" height="400.000000pt" viewBox="0 0 400.000000 400.000000"
 preserveAspectRatio="xMidYMid meet">

<g transform="translate(0.000000,400.000000) scale(0.100000,-0.100000)"
fill="#000000" stroke="none">
<path d="M2890 3694 c-14 -2 -63 -9 -110 -15 -77 -10 -99 -19 -235 -91 -183
-98 -390 -228 -456 -286 -75 -67 -90 -98 -88 -184 1 -40 8 -91 15 -114 11 -32
12 -63 4 -144 -5 -57 -11 -105 -13 -107 -7 -6 -120 74 -192 137 -38 33 -96 73
-127 88 -31 15 -57 30 -57 33 -1 4 23 29 51 57 35 34 49 55 43 61 -7 7 -43 7
-106 0 -81 -9 -102 -8 -134 5 -49 21 -78 20 -123 -3 -56 -27 -90 -33 -129 -20
-42 14 -50 7 -34 -28 7 -16 13 -30 12 -33 0 -3 -19 -10 -42 -15 -23 -6 -44
-16 -46 -22 -2 -5 19 -25 46 -42 70 -45 79 -58 54 -76 -37 -26 -36 -55 3 -92
22 -20 30 -33 20 -33 -20 0 -76 -48 -76 -65 0 -8 15 -26 34 -41 l34 -28 -24
-19 c-31 -24 -30 -48 2 -86 14 -17 24 -38 20 -46 -3 -8 0 -29 6 -46 12 -36 21
-27 -123 -134 -113 -84 -170 -147 -215 -236 -88 -175 -109 -269 -87 -392 20
-118 60 -193 140 -267 120 -109 224 -144 402 -135 84 5 148 3 229 -9 62 -9
132 -16 155 -16 60 0 158 49 215 108 91 93 182 325 182 463 l0 58 95 -40 c53
-22 247 -92 433 -156 295 -101 343 -115 387 -111 90 8 628 244 777 342 54 35
68 64 68 143 0 45 -4 58 -25 77 -14 13 -39 27 -57 33 -31 8 -33 12 -30 49 1
21 13 175 27 342 14 167 25 343 25 391 0 67 4 92 15 101 21 17 20 113 -1 134
-8 9 -21 16 -28 16 -6 0 -65 57 -131 126 -135 144 -309 304 -374 346 l-45 28
-180 -1 c-100 -1 -192 -3 -206 -5z m413 -33 c111 -76 510 -467 486 -475 -8 -3
-98 -34 -201 -70 -103 -35 -195 -69 -205 -75 -43 -25 22 -7 217 60 113 39 214
71 225 72 18 2 20 -4 20 -58 l0 -60 -245 -92 c-135 -51 -245 -92 -246 -93 -1
0 1 34 4 75 4 62 2 76 -11 81 -9 3 -33 29 -53 56 -55 78 -190 226 -372 409
l-165 167 54 7 c69 10 248 21 362 23 82 2 91 0 130 -27z m-427 -148 c157 -159
371 -392 397 -434 15 -22 16 -29 5 -29 -7 0 -101 18 -208 39 -358 72 -832 141
-972 141 -27 0 -48 4 -48 9 0 41 600 410 667 411 16 0 64 -42 159 -137z m-661
-313 c266 -30 553 -76 953 -152 l162 -30 0 -79 c0 -72 -2 -79 -20 -79 -11 0
-109 20 -218 45 -256 57 -539 108 -822 146 -124 16 -231 32 -237 34 -14 5 -19
116 -6 128 8 9 -10 10 188 -13z m-770 -177 c4 -39 3 -63 -3 -63 -13 0 -22 36
-22 95 0 67 16 46 25 -32z m726 22 c156 -23 154 -22 129 -62 -19 -31 -23 -33
-77 -33 -63 0 -155 21 -179 40 -19 16 -19 84 0 77 7 -3 65 -13 127 -22z m-867
-38 c38 -50 31 -68 -9 -23 -19 22 -35 43 -35 48 0 18 20 6 44 -25z m1315 -37
c340 -59 331 -57 331 -86 0 -14 6 -37 14 -52 11 -23 11 -51 -5 -192 -24 -221
-39 -438 -39 -554 0 -52 -4 -98 -10 -101 -5 -3 -10 -15 -10 -25 0 -27 -13 -31
-49 -19 -32 11 -32 12 -27 63 3 28 11 202 17 386 12 358 11 375 -34 405 -33
21 -190 55 -260 55 -74 0 -102 -24 -112 -96 -15 -116 -12 -113 -91 -93 l-44
11 0 127 c0 111 2 132 22 173 18 36 27 46 43 43 11 -3 125 -23 254 -45z m1198
-67 c-12 -222 -52 -714 -62 -769 -5 -22 -74 -57 -355 -182 l-155 -69 -7 30
c-3 16 -11 33 -18 37 -8 5 -7 35 4 118 9 62 23 242 31 402 15 285 15 291 41
330 20 30 39 44 77 58 27 9 133 49 236 88 102 40 192 72 200 73 12 1 13 -19 8
-116z m-2155 65 c28 -12 99 -62 157 -110 58 -49 133 -101 166 -117 68 -33 324
-100 525 -137 198 -36 208 -40 220 -83 11 -40 14 -280 4 -330 -4 -17 -12 -31
-19 -31 -6 0 -189 61 -406 135 -228 79 -417 138 -449 141 -30 4 -79 2 -108 -4
l-52 -9 -36 39 c-45 50 -64 95 -64 149 l0 42 29 -40 c32 -44 101 -83 146 -83
37 0 23 14 -30 30 -75 23 -132 101 -158 217 -8 31 -18 58 -23 60 -5 2 -35 -42
-67 -96 -33 -54 -73 -114 -90 -132 -29 -33 -30 -33 -40 -12 -13 30 15 159 51
237 48 102 105 155 170 156 13 0 46 -10 74 -22z m577 -45 l44 5 -5 -119 c-3
-66 -7 -122 -10 -124 -3 -3 -19 -2 -36 1 l-32 7 -1 91 c-1 76 -3 85 -10 51 -5
-22 -11 -61 -14 -87 -6 -46 -6 -47 -34 -37 l-29 10 5 87 c5 102 -11 94 -22
-10 -3 -38 -10 -68 -13 -68 -4 0 -16 3 -27 6 -19 5 -20 11 -13 97 3 51 7 99 7
108 1 14 9 13 74 -3 41 -11 90 -17 116 -15z m-811 -10 c-2 -5 -17 -37 -33 -71
-29 -63 -30 -64 -63 -59 -53 9 -107 40 -107 61 0 26 41 55 95 65 58 11 113 13
108 4z m1690 -38 c165 -35 162 -34 162 -46 0 -21 -50 -59 -78 -59 -47 0 -186
39 -204 58 -9 9 -20 29 -23 45 -9 34 -8 34 143 2z m-598 -101 c-6 -32 -10 -79
-10 -103 l0 -43 -32 6 c-17 3 -32 7 -33 9 -7 8 16 161 25 172 9 11 47 24 57
20 2 -1 -2 -28 -7 -61z m542 -5 c33 -11 87 -21 119 -22 l59 -2 0 -65 c0 -85
-16 -331 -37 -548 -17 -189 -19 -192 -83 -192 -37 0 -150 36 -168 54 -10 10
-11 51 -3 207 9 189 42 589 48 589 2 0 31 -9 65 -21z m-1706 -35 c-3 -9 -9
-34 -12 -56 -7 -38 -8 -40 -37 -34 -135 27 -133 105 2 106 44 0 52 -3 47 -16z
m179 -54 c23 -26 12 -39 -41 -47 l-38 -6 15 24 c8 13 19 30 23 37 10 17 20 15
41 -8z m-217 -66 c12 -4 22 -12 22 -19 0 -7 7 -18 15 -25 16 -13 36 -7 75 21
12 9 27 6 63 -11 26 -12 47 -28 47 -35 0 -39 -207 -53 -277 -18 -28 13 -39 25
-41 45 -3 23 2 29 30 37 43 12 39 12 66 5z m126 -131 c69 6 126 -9 126 -34 0
-24 -76 -43 -171 -43 -82 -1 -100 2 -118 18 -19 18 -28 55 -16 68 3 3 29 1 58
-4 28 -6 83 -8 121 -5z m504 -89 l52 -17 0 -52 0 -53 -39 -7 c-39 -6 -71 10
-211 114 l-35 26 35 7 c48 9 135 1 198 -18z m124 -69 c-2 -15 0 -25 7 -25 6 0
11 9 11 20 0 23 -2 23 39 9 21 -7 31 -18 32 -32 1 -17 2 -18 6 -4 5 20 10 21
50 7 28 -10 29 -14 24 -48 -6 -36 -7 -37 -56 -40 -30 -2 -72 5 -105 16 l-55
19 -3 61 -3 61 29 -10 c24 -8 28 -14 24 -34z m276 -72 l42 -15 0 -69 c0 -77
-2 -78 -72 -57 -36 11 -38 14 -33 40 4 18 1 37 -8 51 -20 30 -11 81 12 72 9
-4 35 -14 59 -22z m-348 0 c0 -5 -6 -16 -14 -25 -10 -13 -15 -15 -24 -6 -17
17 -15 26 6 31 28 7 32 7 32 0z m-442 -60 c3 -38 6 -41 36 -47 69 -13 145 -91
118 -118 -8 -8 -22 -1 -48 21 -45 40 -73 51 -130 51 -94 0 -165 -66 -142 -132
13 -37 50 -56 139 -68 126 -18 189 -74 189 -167 0 -79 -48 -134 -135 -157 -48
-12 -50 -14 -57 -54 -8 -50 -15 -62 -33 -62 -19 0 -24 21 -15 67 l7 41 -42 7
c-53 7 -135 60 -135 85 0 31 19 33 60 6 85 -56 225 -56 269 0 29 37 35 78 16
113 -19 38 -54 56 -125 65 -79 10 -121 25 -153 54 -86 81 -29 214 106 246 22
5 27 12 27 35 0 42 10 62 29 59 11 -2 17 -16 19 -45z m535 6 c58 -18 74 -20
112 -10 24 6 47 11 50 11 3 0 5 -19 3 -42 -3 -39 -5 -43 -38 -50 -19 -4 -64
-3 -100 2 -57 8 -68 13 -96 47 -30 35 -36 80 -10 69 6 -3 42 -15 79 -27z m356
20 c31 -11 31 -12 31 -80 0 -72 -2 -75 -44 -59 -25 9 -26 14 -26 80 0 38 2 70
4 70 1 0 17 -5 35 -11z m1399 -86 c32 -20 38 -41 16 -58 -41 -31 -380 -197
-564 -276 -259 -111 -229 -112 -600 20 -425 151 -597 220 -614 246 -14 21 -14
21 73 21 58 -1 93 3 103 12 13 11 66 -4 321 -90 261 -87 307 -105 316 -125 17
-37 111 -75 195 -81 82 -5 123 8 135 42 6 13 21 26 37 30 42 11 424 184 466
212 21 13 40 35 44 49 7 28 26 27 72 -2z m32 -113 c0 -32 -6 -47 -27 -66 -34
-31 -378 -201 -588 -290 -212 -90 -220 -90 -405 -24 -80 29 -228 80 -330 115
-157 53 -376 137 -388 149 -8 8 -30 106 -24 106 4 0 61 -21 127 -46 66 -26
219 -82 340 -124 121 -43 267 -95 325 -115 84 -30 114 -36 155 -32 88 8 635
251 775 344 19 13 36 23 37 23 2 0 3 -18 3 -40z m-925 -59 c9 -16 103 -43 148
-43 23 -1 57 2 75 6 l32 8 0 -46 c0 -37 -4 -46 -22 -52 -57 -18 -194 5 -245
41 -27 19 -34 95 -9 95 8 0 17 -4 21 -9z"/>
<path d="M2401 3416 c-6 -7 -14 -43 -18 -80 -6 -64 -5 -66 20 -75 30 -12 82 2
90 23 3 8 -1 26 -9 41 -10 20 -11 32 -4 39 14 14 12 32 -6 50 -19 20 -58 21
-73 2z m56 -22 c6 -16 -12 -34 -34 -34 -14 0 -18 32 -6 43 12 12 34 7 40 -9z
m2 -73 c23 -15 5 -41 -29 -41 -25 0 -30 4 -30 25 0 19 5 25 23 25 12 0 28 -4
36 -9z"/>
<path d="M2557 3357 c-38 -57 -56 -107 -39 -107 6 0 14 9 17 20 5 16 15 20 46
20 35 0 39 -3 39 -24 0 -14 5 -28 10 -31 16 -10 12 112 -5 145 -9 17 -19 30
-24 30 -5 0 -25 -24 -44 -53z m57 -19 c6 -26 4 -28 -24 -28 -35 0 -36 2 -13
41 19 31 27 28 37 -13z"/>
<path d="M2690 3373 c0 -5 -5 -37 -11 -72 -6 -41 -6 -68 0 -74 6 -6 12 8 16
39 4 27 8 53 9 58 1 5 17 -16 34 -47 45 -81 50 -78 71 36 5 29 5 50 -1 53 -13
8 -14 6 -24 -56 l-9 -54 -33 62 c-29 54 -52 78 -52 55z"/>
<path d="M2846 3323 c-8 -54 -7 -113 2 -113 5 0 19 11 32 25 l23 25 24 -40
c34 -56 50 -40 18 18 l-25 45 27 29 c47 49 15 44 -36 -6 l-48 -47 5 50 c5 60
-12 70 -22 14z"/>
<path d="M3590 2746 c-138 -48 -198 -76 -205 -94 -4 -10 -9 -103 -12 -207 -5
-168 -4 -192 10 -204 14 -11 36 -7 155 34 76 26 143 50 149 53 17 10 38 389
24 425 -6 15 -14 27 -18 27 -5 0 -51 -15 -103 -34z m95 -202 c-4 -99 -10 -186
-14 -191 -5 -9 -244 -93 -264 -93 -8 0 -10 345 -1 376 8 31 277 131 283 106 2
-9 0 -98 -4 -198z"/>
<path d="M3610 2690 c-11 -7 -15 -28 -15 -77 0 -66 1 -68 25 -65 34 4 37 8 44
85 6 65 6 67 -16 67 -13 0 -30 -5 -38 -10z"/>
<path d="M3480 2642 c-34 -17 -35 -18 -38 -84 -2 -38 1 -68 6 -68 5 0 29 7 55
16 l47 16 0 69 c0 78 -7 83 -70 51z"/>
<path d="M3596 2485 c-10 -10 -16 -33 -16 -58 0 -58 10 -70 43 -58 23 9 27 17
29 56 0 25 1 51 2 58 2 19 -39 20 -58 2z"/>
<path d="M3475 2448 c-39 -14 -45 -24 -45 -80 0 -55 9 -60 68 -40 39 13 42 16
44 53 1 21 2 47 2 57 1 21 -27 25 -69 10z"/>
<path d="M3056 2693 c-10 -35 -26 -190 -41 -400 -18 -254 -18 -260 -5 -247 10
10 17 87 45 464 13 186 14 224 1 183z"/>
<path d="M3136 2643 c-16 -143 -41 -640 -32 -632 17 15 62 667 48 681 -6 6
-12 -12 -16 -49z"/>
<path d="M1726 3630 c-43 -66 -126 -225 -126 -244 0 -35 22 -2 91 136 71 142
84 182 35 108z"/>
<path d="M1200 3622 c0 -53 55 -252 70 -252 8 0 -55 259 -66 269 -2 2 -4 -5
-4 -17z"/>
<path d="M740 3362 c0 -8 136 -127 197 -171 17 -13 36 -22 43 -19 6 2 -28 35
-77 74 -123 98 -163 126 -163 116z"/>
<path d="M680 2885 c88 -20 250 -31 250 -18 0 12 -67 20 -215 27 l-100 5 65
-14z"/>
<path d="M962 2555 c-66 -38 -204 -137 -198 -142 8 -9 256 148 250 158 -7 11
-2 13 -52 -16z"/>
<path d="M2360 1401 c0 -8 64 -16 250 -27 58 -4 102 -3 98 1 -20 21 -348 46
-348 26z"/>
<path d="M733 1231 c-165 -41 -278 -126 -341 -258 -34 -73 -34 -73 -91 -89
-152 -43 -191 -55 -196 -64 -3 -6 2 -10 13 -10 28 0 234 59 249 72 7 6 27 39
43 73 36 74 106 156 164 190 122 71 374 110 364 57 -2 -10 -50 -40 -123 -77
l-120 -60 3 -76 c4 -79 -5 -108 -51 -171 -16 -22 -29 -28 -56 -28 -41 0 -108
-17 -115 -29 -3 -4 39 -6 94 -3 99 5 99 5 177 -34 103 -51 104 -51 59 -10 -33
30 -78 52 -145 72 -11 4 -8 11 12 32 31 33 57 91 57 130 l0 28 104 13 c62 7
167 30 257 56 151 44 222 55 234 35 12 -20 -20 -43 -130 -95 -163 -77 -228
-102 -232 -89 -2 6 -10 20 -18 30 -23 32 -27 9 -6 -38 10 -25 27 -83 36 -129
18 -90 35 -124 35 -71 0 25 5 33 23 36 12 2 78 16 147 30 170 34 205 39 240
31 65 -14 25 -52 -115 -107 -62 -24 -105 -33 -190 -40 -118 -9 -180 -22 -191
-39 -4 -7 0 -9 12 -5 11 3 62 10 113 16 95 11 157 7 219 -12 44 -13 29 -31
-51 -57 -72 -24 -366 -71 -448 -71 -146 0 -252 42 -334 132 -54 60 -79 72 -55
27 7 -12 30 -41 51 -64 44 -47 45 -44 -36 -90 -176 -99 -285 -167 -280 -175 8
-12 62 16 239 123 l139 83 57 -23 c79 -32 176 -44 269 -33 309 35 427 59 479
95 32 23 28 51 -10 71 l-32 17 74 29 c155 62 194 127 86 145 l-41 6 35 15 c46
18 100 60 100 76 0 7 -9 21 -21 32 -31 28 -154 24 -293 -10 -60 -14 -111 -25
-113 -23 -2 2 18 12 44 22 74 28 186 85 211 108 12 11 22 29 22 38 0 54 -126
50 -311 -9 -155 -50 -307 -71 -326 -45 -19 25 -16 32 15 45 102 43 193 89 211
107 70 70 -46 104 -216 62z m731 -307 c35 -14 13 -37 -76 -79 -84 -39 -150
-57 -364 -100 -18 -4 -23 3 -33 51 -7 31 -11 57 -9 58 1 1 41 11 88 21 47 10
121 26 165 36 80 18 200 24 229 13z"/>
<path d="M2060 1099 c0 -18 354 -349 374 -349 16 0 -77 99 -202 216 -136 126
-172 154 -172 133z"/>
<path d="M1790 931 c0 -21 165 -375 168 -360 3 14 -85 232 -134 332 -17 35
-34 49 -34 28z"/>
<path d="M870 874 c0 -31 37 -155 50 -167 12 -13 11 -6 -16 108 -15 62 -34 95
-34 59z"/>
</g>
</svg>
