<svg xmlns="http://www.w3.org/2000/svg" viewBox="0 0 400 400" id="Eco-Friendly-Tech-3--Streamline-Milano.svg" height="400" width="400"><desc>Eco Friendly Tech 3 Streamline Illustration: https://streamlinehq.com</desc><g fill="#2596be"><path d="M145 63.78c11.48 0.88 42.12 2.9 52.74 -1.24 1 -0.48 2.7 -0.74 2.84 -2.24s-1.76 -1.8 -2.72 -2c0 0.28 -0.12 0.5 0 0a43.78 43.78 0 0 0 -5.08 -0.74 2.56 2.56 0 0 0 0.48 -4.58 14 14 0 0 0 -9.36 -2c2.68 -4 1.82 -10 0.2 -14 -3.04 -7.46 -13.14 -8.84 -16.24 2.46a8.12 8.12 0 0 0 -10.28 0.34 9.08 9.08 0 0 0 -1.58 11.32 12.68 12.68 0 0 0 3.78 3.52c-7.42 2.16 -20.24 4 -21.72 4.28 -2.22 0.48 -2.46 1.8 -1.82 2.64 1.1 1.46 5.04 1.94 8.76 2.24zm39.22 -19.68c0 7.06 -3.14 6.86 -2.46 8a0.62 0.62 0 0 0 0.7 0.3c6.4 -1.76 13.4 2 9.78 4 -1.28 0.68 -2.92 0.42 -4.36 1.12a0.74 0.74 0 0 0 0.36 1.36 40.32 40.32 0 0 1 10.7 1.38c0 0.24 -0.94 0.62 -2.5 1.14 -10 3.38 -35.56 1.82 -48.24 1.36a37.34 37.34 0 0 1 -10 -1.26c-5.9 -2 13.02 -2.48 23.42 -6a0.72 0.72 0 0 0 0.14 -1.32c-11.4 -5.24 -3.24 -20.44 6 -13.28a0.62 0.62 0 0 0 1.06 -0.3c2.48 -13.16 15.6 -9.52 15.4 3.5zm89.12 38a7.04 7.04 0 0 0 4.14 0.94 0.88 0.88 0 0 0 0.28 0.44c0.86 0.64 1.76 0.72 3.82 0.72 20.52 -0.14 67.26 -3.76 68.92 -4 3.9 -0.34 4.98 -3.46 3.28 -5.06a6.4 6.4 0 0 0 -4 -1.24 82.5 82.5 0 0 0 -9.18 -0.38c3.32 -4.44 -0.68 -9.54 -6 -8.84a5.18 5.18 0 0 0 -7.36 -6.12c0.44 -11.04 -6.52 -19.1 -15.52 -12.8a12.4 12.4 0 0 0 -4.28 15.4c-7.62 -2.42 -16 6.38 -6.56 13.4a83.62 83.62 0 0 0 -12 1.34c-8 1.52 -15.34 3.22 -16 5.38a0.64 0.64 0 0 0 0.46 0.82zm30 -7.5c-2.88 -1.52 -6.48 -5.12 -4.58 -8.8a7.36 7.36 0 0 1 10.2 -2.42 0.7 0.7 0 0 0 0.96 -0.98c-8 -11.46 9.74 -25.66 15.08 -11.26a21.86 21.86 0 0 1 0.84 9.02 0.76 0.76 0 0 0 1.28 0.58 3.72 3.72 0 0 1 5.72 4.76 0.76 0.76 0 0 0 0.86 1.12 5.28 5.28 0 0 1 6.14 1.64 4 4 0 0 1 -1.38 5.44 0.78 0.78 0 0 0 0.4 1.44c8.88 0.14 16.3 -0.32 13.88 2.94a4.8 4.8 0 0 1 -3.2 0.96c-20 1.26 -44.26 4 -66.52 3.8a16.92 16.92 0 0 1 -3.64 -0.1c0.3 -0.3 0.78 -0.6 0.42 -1.16a0.58 0.58 0 0 0 -0.74 -0.24 5.62 5.62 0 0 1 -4.34 0c1.84 -1.76 12.4 -3.72 15.1 -4.24a103.86 103.86 0 0 1 13.24 -1.28 0.62 0.62 0 0 0 0.18 -1.22zM58 254.96a22.16 22.16 0 0 1 4.64 4.28c0.12 0.72 -2.2 8.92 -2.9 11.74 -0.14 0.62 0.58 1.22 1.12 0.82 2.52 -2 17.02 -13.26 14 -14.3a72 72 0 0 1 -7.14 -3.5c0.2 -1.48 5.04 -12.28 4.88 -13.28a0.68 0.68 0 0 0 -1.16 -0.3c-2 2.48 -12.4 12.36 -13.58 13.32a0.74 0.74 0 0 0 0.14 1.22zm8.6 0a39.68 39.68 0 0 0 6.84 3.62c-2.1 3.34 -9.42 9.04 -11.72 10.78 0.66 -2.54 2.58 -10 2.22 -10.8a24.18 24.18 0 0 0 -4.32 -4.26c1.62 -1.46 7.68 -7.26 10.48 -10.14 -2.82 6.62 -4 10.24 -3.54 10.76zm205.4 3.86c14 -26.14 34.5 -37.54 31.38 -37.7a596.26 596.26 0 0 0 -73.56 0.6C210.4 229.18 198.52 238.46 176 258a0.32 0.32 0 0 0 0.18 0.54c39.16 3.2 95.82 0.48 95.82 0.28zm40.34 -0.46a126.24 126.24 0 0 0 19.26 -2.24 0.3 0.3 0 0 0 0.24 -0.34c-2.3 -14.14 -2.38 -22 -6.12 -35.22a0.32 0.32 0 0 0 -0.28 -0.22c-22.44 -1.34 -36.22 23.76 -42.44 38.86 -0.24 0.58 0.84 0.4 4.1 0.4a6.62 6.62 0 0 0 6.32 6.94c0.54 0 1.06 0 1.2 -0.36a0.6 0.6 0 0 0 -0.62 -0.78c-3.62 0.46 -6 -3.8 -5.06 -6.9a19.48 19.48 0 0 1 7.32 -8.12 17.22 17.22 0 0 1 9.22 -1.72c3.42 0 4.92 0.16 6 1.22 2.84 2.74 -1.56 9.86 -3.34 11.74a8.72 8.72 0 0 1 -6.12 3.02 0.46 0.46 0 0 0 0 0.92c4.56 0.12 8.3 -3.24 10.32 -7.2zm23.66 -3.24c3.14 0 27.74 -6 30.82 -6.82a0.32 0.32 0 0 0 0.24 -0.32c-1.5 -15.28 -22.3 -26 -37.34 -27.78a0.3 0.3 0 0 0 -0.32 0.38c5.4 16.8 5.34 34.54 6.6 34.54zM155.54 292c6.66 5.3 6.42 5.38 6.7 5.38s3.46 -2.44 9.72 -5.76c26.78 -0.78 26.8 -2 26.82 -2.6a0.5 0.5 0 0 0 -0.18 -0.42c-1.46 -1.5 -16.4 -3.38 -31.04 -3.3s-30.12 2.16 -31.68 3.76c-0.3 0.32 -0.32 0.82 0.44 1.14 1.34 0.64 5.68 1.32 19.22 1.8zM136 324a0.32 0.32 0 0 0 -0.26 0.48 45.6 45.6 0 0 1 4.7 8.56 0.28 0.28 0 0 0 0.28 0.18c23.78 0.54 50 0.24 74 -0.82 0.26 0 -0.16 0.62 5.54 -9.62 0.78 -1.42 -30.64 3.22 -84.26 1.22zm149.04 -0.2a18.44 18.44 0 0 0 9.76 -3.46 0.32 0.32 0 0 0 0.12 -0.3 12.6 12.6 0 0 0 -9.84 -10.18 0.32 0.32 0 0 0 -0.36 0.24 47.28 47.28 0 0 0 0 13.44 0.32 0.32 0 0 0 0.32 0.26zm-15.32 -3.16a33.18 33.18 0 0 0 10.44 3.16 0.3 0.3 0 0 0 0.3 -0.26 80.2 80.2 0 0 0 0.7 -14 0.3 0.3 0 0 0 -0.34 -0.28 13.08 13.08 0 0 0 -11.26 11.12 0.36 0.36 0 0 0 0.16 0.26zm4.02 21.36c0.78 0.7 4 -5.32 4.6 -10.42a0.3 0.3 0 0 0 0 -0.26 29.36 29.36 0 0 0 -8.26 -5.1 0.28 0.28 0 0 0 -0.4 0.2 16.42 16.42 0 0 0 4.06 15.58zm10.54 -6.5a0.28 0.28 0 0 0 -0.46 0 50.72 50.72 0 0 0 -6.8 11.4 0.3 0.3 0 0 0 0 0.32c4.98 5.28 12 3.52 14 -2 0.16 -0.5 -6.4 -9.22 -6.74 -9.72zM286 330a0.32 0.32 0 0 0 0 0.32 19.86 19.86 0 0 0 4.74 6.78 16.36 16.36 0 0 0 3.32 2.44c0.96 0 5.18 -7.14 2.16 -13.7a0.32 0.32 0 0 0 -0.28 -0.18A13.84 13.84 0 0 0 286 330zm86.72 -10a7.62 7.62 0 0 0 -3.88 -4 0.3 0.3 0 0 0 -0.46 0.22 16.58 16.58 0 0 0 1.42 9.38 0.28 0.28 0 0 0 0.46 0 7.12 7.12 0 0 0 2.48 -5.66l-0.02 0.06zm4.86 -0.82v0.14a9.52 9.52 0 0 0 2.58 5.2c0.88 0.58 2.22 -5.34 0.44 -8.96 -0.4 -0.8 -2.6 1.48 -3.02 3.62zm1.7 11.96a0.34 0.34 0 0 0 0 -0.24 30.22 30.22 0 0 0 -3.46 -5.26 0.3 0.3 0 0 0 -0.48 0 32 32 0 0 0 -3.18 6.88 0.28 0.28 0 0 0 0 0.32 4.52 4.52 0 0 0 7.12 -1.7zm-3.1 -17.14a9.56 9.56 0 0 0 4 -2.32 6 6 0 0 0 -2.6 -4.66 0.28 0.28 0 0 0 -0.38 0c-2.52 2.48 -1.82 6.98 -1.02 6.98zm-2.9 0.22a0.32 0.32 0 0 0 0.3 -0.24 16 16 0 0 0 -0.86 -7.64 0.32 0.32 0 0 0 -0.4 -0.16 5.7 5.7 0 0 0 -3.18 5 8.4 8.4 0 0 0 4.14 3.04zm-92.74 12.54a2.32 2.32 0 0 0 2 3.88 2.46 2.46 0 0 0 1.2 -4.64 2.68 2.68 0 0 0 -3.2 0.76zm0.96 0.8a1.3 1.3 0 0 1 2.36 0.84c-0.36 2.36 -3.66 0.88 -2.36 -0.84zm-46.56 -8.8c-4.44 1.22 -8 2.44 -11.06 6a0.3 0.3 0 0 0 0.24 0.5c0.38 0 10.32 -1.46 12.84 -2.18 1.42 -0.12 0.82 2 -0.66 2.2 -3.1 1 -13.68 1.88 -14 2s-0.72 0.46 -1.22 2.4a0.32 0.32 0 0 0 0 0.26c0.4 0.5 8.18 -0.64 9.4 -0.86 1.76 -0.28 1.4 1.8 -0.56 2.14 -2.6 0.46 -7.3 0.98 -9.72 1.1a0.3 0.3 0 0 0 -0.28 0.26 3.38 3.38 0 0 0 0.44 2.56c1.38 2 16.32 1.06 18.2 0 2.48 -1.46 9.5 -14.16 7.68 -16.84 -1.4 -2.3 -6.88 -0.8 -11.3 0.46zm-64.42 -5.1c19.56 -0.6 39.3 0.46 57.6 0.88a0.4 0.4 0 0 0 0 -0.78c-21.62 -2.58 -72.72 -1.12 -94.52 0a0.5 0.5 0 0 0 0 0.98zm124.64 -34.8a22.12 22.12 0 0 0 -32 19.2 0.4 0.4 0 0 0 0.78 0 22.18 22.18 0 0 1 30.8 -18.34 0.5 0.5 0 0 0 0.42 -0.86zm35.24 -11.54c-0.36 1.52 -1.68 39.52 -1.64 42a0.42 0.42 0 0 0 0.82 0c0 -4.16 2 -41.84 2 -42a0.6 0.6 0 0 0 -1.18 0zm23.6 29.72a0.36 0.36 0 0 0 0.72 -0.14c-1.56 -9.86 9.6 -24.7 19.76 -19.7a0.5 0.5 0 0 0 0.5 -0.86c-11.24 -5.58 -23.82 9.76 -20.98 20.7zm-37.14 -30.42a10.54 10.54 0 0 0 -5.22 0.84 4 4 0 0 0 -2.26 1.78 1.74 1.74 0 0 0 1.22 2.28c2.44 0.8 6.5 0.6 8.12 -1.58a2.14 2.14 0 0 0 -1.86 -3.32zm-0.24 1.16c1.22 0 1.76 1.04 0.72 1.88a7.46 7.46 0 0 1 -6.8 0.48c-0.34 -0.3 0 -0.78 0.46 -1.04a9.8 9.8 0 0 1 5.62 -1.32zm39.38 -7.04a5.74 5.74 0 0 0 4.36 0.94 17.36 17.36 0 0 0 5.1 -0.9c1.78 -0.58 2.88 -1.02 3.4 -2 0.82 -1.66 -0.72 -2.86 -2.54 -3 -4.32 -0.38 -12.32 2.22 -10.32 4.96zm5.26 -0.36a9.72 9.72 0 0 1 -4.32 -0.36c-0.3 -1.8 5.88 -3.38 8.5 -3.38 4 0.04 3.1 3.12 -4.28 3.74zM111.48 272.2c-3.44 -3.12 -9.82 -0.16 -7.26 9.06a0.42 0.42 0 0 0 0.48 0.28c0.48 -0.1 0.3 -0.64 0.2 -1.4a8.64 8.64 0 0 1 0.8 -6.34 3.72 3.72 0 0 1 2.56 -1.62c1.18 -0.12 2 0.74 3.12 1.38a0.52 0.52 0 0 0 0.78 -0.32 2.28 2.28 0 0 1 1.26 -1.58 1.26 1.26 0 0 1 1.58 0.62c0.22 0.56 1.08 0.24 0.86 -0.3a2.4 2.4 0 0 0 -4.38 0.22zm52.96 -28.08c0.36 0 0.78 0 0.74 -0.4a0.4 0.4 0 0 0 -0.36 -0.32c-3.14 0 -3.52 -3.66 -0.9 -3.72a28.26 28.26 0 0 0 3.26 0.2c2.24 -0.32 2.62 -2.22 2.26 -4.42 0 -1 0 -1.84 1.1 -1.84s1.74 1.24 2.42 2.14a2 2 0 0 0 1.72 0.94c2.12 0 2.7 -2.22 3.8 -2.5a1.14 1.14 0 0 1 1.28 0.82c0.36 1.32 -1.28 1.62 -0.72 2.32s2.62 -1.44 1.56 -3.36a2.36 2.36 0 0 0 -3.02 -0.98c-2 0.9 -2.46 3.74 -4 1.32s-4.36 -2.48 -5.32 -0.88A4.12 4.12 0 0 0 168 236c0.48 4.82 -3.48 1.26 -6 3.02a2.92 2.92 0 0 0 2.44 5.1zm173.34 -33.44c0.78 -0.68 -1.16 -1.46 -1.16 -3 0 -2.2 3.64 -1.28 4.56 2a0.72 0.72 0 0 0 0.54 0.5c0.88 0.16 0.88 -1.1 2.98 -2.52 3.58 -2.42 1.88 0.26 2.44 1.68s1.7 1.18 2.9 1.2c0.36 0 0.22 0.2 0.32 0.78 0.16 0.9 0.94 1.22 1.84 1s0.88 -0.26 1.24 0a1.58 1.58 0 0 1 0.66 0.98c0.42 1.76 -1.8 3.12 -0.98 3.68a0.42 0.42 0 0 0 0.6 0c2.76 -3.54 0.82 -5.76 -0.68 -6a4.5 4.5 0 0 0 -1.12 0.14c-0.22 0 -0.24 0 -0.26 -0.42 -0.22 -2.42 -3.12 -0.84 -3.26 -2 0 -0.76 0.2 -1.54 -0.2 -2.36 -1.1 -2.28 -4.52 0 -6.2 2 -2.36 -4 -6.32 -3.38 -6.46 -0.7a4.76 4.76 0 0 0 1.54 3.24 0.5 0.5 0 0 0 0.7 -0.2zm37.48 110.36a1.4 1.4 0 0 0 0 -2.78 1.4 1.4 0 0 0 0 2.78zm-118.04 -50.76c-17.76 5.16 -36.8 8.52 -53.66 13.86a0.62 0.62 0 0 0 -0.4 0.7c0.28 1.34 2.22 6.56 3.34 6.86a96.1 96.1 0 0 0 37.72 0.98c6.26 -2.46 14.5 -9.24 17.46 -16.32 0.32 -0.84 -3.26 -6.36 -4.46 -6.08zm-2 9.7a30.2 30.2 0 0 1 -10.32 9.1 0.3 0.3 0 0 1 -0.3 -0.52 19.74 19.74 0 0 0 8.14 -11.56c-7.7 2.2 -6.72 1.6 -6.86 2.24 -1.24 6.16 -1.2 6.14 -3.24 6.76a81.32 81.32 0 0 1 -17.48 3.8c-2.92 0.26 -10.46 0.4 -11.26 0.36s-1.24 -0.18 -1.48 -0.54a29.44 29.44 0 0 1 -1.42 -3.52l-3.16 0.4c-0.8 0.1 -1.06 -0.78 -0.14 -0.98 42.78 -8.96 47.62 -12.9 49.3 -10.24 0.4 0.52 0.48 1.54 -1.7 4.72z" stroke-width="1"></path><path d="M213.1 285.86c0.96 3.04 1.24 2.76 2 2.76a66 66 0 0 0 25.76 -4.16c0.76 -0.28 1.52 -0.44 1.76 -1.3a33.44 33.44 0 0 0 0.92 -3.64 250.58 250.58 0 0 1 -30.44 6.34zM44.92 194.7l-24.24 0.32 4.86 10.96 23.74 -0.34 -4.36 -10.94zm2.14 -0.02 4.36 10.92 22.1 -0.32 -4.76 -10.9 -21.7 0.3zm-0.8 -2 21.62 -0.28 -4.66 -10.64H41.9l4.36 10.92zm28.14 14.58 -22.18 0.34 4.1 10.22H79l-4.6 -10.56zm-24.4 0.36 -23.58 0.38 4.34 9.8c0 0.2 -1.38 0.14 23.4 0.14zm-5.88 -14.9 -4.38 -10.96c-26.24 0 -25.02 -0.18 -24.76 0.44l4.82 10.84zm49.68 1.34 -22.88 0.3 4.76 10.88 22.58 -0.32 -4.46 -10.86zm9.54 23.22 -4.26 -10.38 -22.52 0.34 4.62 10.48h21.88a0.34 0.34 0 0 0 0.28 -0.44zM70 192.38 92.98 192l-4.18 -10c0 -0.28 1.22 -0.18 -23.4 -0.18z" stroke-width="1"></path><path d="M390 277.5c-1.04 -10.94 -3.7 -22.94 -12 -30.2 2.68 -1.6 2 -5.28 2.16 -7.82 0.12 -3.34 4 -5.52 4.52 -9.02 0.58 -3.08 -1.68 -5.5 -4.56 -3.46a9.88 9.88 0 0 1 -2.54 1.7c-0.8 0.24 -1.02 -0.58 -1.26 -1.48 -0.46 -1.64 -1.04 -2 -2.72 -2.5 -0.84 -0.22 -1.5 -0.36 -1.82 -1.16 -0.92 -2.26 1.84 -4.4 2.12 -7.06a6.46 6.46 0 0 0 -4.18 -6.52c-1.78 -0.42 -2.92 -0.42 -2.46 -2.24 0.4 -1.4 1.72 -2.28 2.58 -3.54a3.62 3.62 0 0 0 0.2 -4c-3.1 -4.86 -9.56 -0.32 -13 -3.32 -2.32 -2 1.18 -4.48 0.54 -8.48a8.6 8.6 0 0 0 -4.78 -6.32 8 8 0 0 0 -3.82 -0.58c-2.86 0 -2.98 -0.1 -4 -1.5s-3.02 -1.4 -4.52 -1.38a17.88 17.88 0 0 0 -9.76 3.02c-2.84 2 -4 4 -3.64 6s2.62 2.8 2 5.68a210.3 210.3 0 0 0 -20.78 -10.76 140.4 140.4 0 0 1 75.22 -38.76c0.64 -0.12 0.42 -1.12 -0.24 -1.04a123.72 123.72 0 0 0 -43.52 14.22l-1.54 -31.16A177.06 177.06 0 0 0 352.28 146a0.3 0.3 0 0 0 0.5 -0.3 493.14 493.14 0 0 0 -9.46 -22.56 0.26 0.26 0 0 0 -0.3 -0.16 5.52 5.52 0 0 1 -4.82 -2.3 4.46 4.46 0 0 0 0.18 -4c4.84 -8.62 9.8 -18.32 14 -27.32a0.3 0.3 0 0 0 -0.5 -0.32c-5.68 6.6 -11.64 14 -16.8 20.96a0.34 0.34 0 0 0 0.1 0.46 3.68 3.68 0 0 1 1.3 5.36 3.32 3.32 0 0 0 -3 1.6 149.78 149.78 0 0 1 -29.3 1.82c-3.18 0.3 13.48 6 26 1.42a0.32 0.32 0 0 0 0.16 -0.12 2.16 2.16 0 0 1 2.5 -0.76l2 3.18 -0.84 37.28A117.16 117.16 0 0 0 307 182a233.24 233.24 0 0 0 -68.84 -18.58c-2.52 -88.72 -2.56 -82.12 -2.26 -82.4l50.32 28.68a0.7 0.7 0 0 0 0.72 -1.2c-4.8 -3.68 -35.8 -28 -35.8 -28 -4.96 -3.84 -4.46 0.46 -9.4 -1.18a10.56 10.56 0 0 1 -4.12 -2.2 6 6 0 0 0 -2.18 -4.76c0.18 -5.22 -0.54 -57.58 -0.56 -58.12a0.7 0.7 0 0 0 -1.38 0c-0.66 5.5 -6.12 45.38 -6.16 45.68a4 4 0 0 0 1.64 4.5 6.16 6.16 0 0 1 2.34 6.9 6 6 0 0 0 -4.2 6.58C223.74 80 179.82 106.68 178 107.8a0.7 0.7 0 0 0 0.68 1.2c48.86 -21.6 44.42 -16.96 45.5 -22.36a8.24 8.24 0 0 1 5.56 -5.36l-1.78 81.78a249.7 249.7 0 0 0 -85.82 11.46c-1.7 -1.32 -12.88 -8 -16.52 -9.78 -0.62 -22.1 -2 -63.22 -2 -63.22 3.74 2 34.76 19.82 35.46 20.2a0.7 0.7 0 0 0 0.72 -1.18c-25.86 -19.6 -26 -21.76 -28.6 -20.88a5.86 5.86 0 0 1 -1.56 0.5 7.1 7.1 0 0 1 -4.6 -1.76 4.56 4.56 0 0 0 -1.04 -3.02c-0.26 -0.34 0.3 3.78 -0.74 -41.28A0.7 0.7 0 0 0 122 54c-0.66 7.02 -4.82 32.32 -4.3 34.12a2.68 2.68 0 0 0 1.06 1.34 4.48 4.48 0 0 1 1.82 4.6 4 4 0 0 0 -2.98 3.14 6.48 6.48 0 0 0 -0.22 1.74C114.78 100.58 84 119.3 82.84 120a0.7 0.7 0 0 0 0.7 1.22c5.24 -2.36 28.82 -12.22 28.82 -12.22 1.6 -0.62 3.4 -1.3 3.36 -3.46a5.46 5.46 0 0 1 3.58 -3.84c-0.14 4.42 -0.82 36.54 -1.28 59.34a127.36 127.36 0 0 0 -46.14 -11.84l-4 -47.2 1.86 -2a138.52 138.52 0 0 1 25.64 -2.48 0.3 0.3 0 0 0 0.3 -0.26c0 -0.42 1.26 -0.34 -21.4 -3.46a0.3 0.3 0 0 0 -0.28 0.2 7.78 7.78 0 0 1 -5.04 3.52l-2.76 -1.72a134 134 0 0 0 -14.68 -23.2 0.3 0.3 0 0 0 -0.52 0.3 139.1 139.1 0 0 1 6.8 20.88 0.32 0.32 0 0 0 0.3 0.24 8.88 8.88 0 0 1 6 3.28 2.88 2.88 0 0 0 0.42 4.3 7.68 7.68 0 0 1 -5.28 3.44 0.26 0.26 0 0 0 -0.26 0.28c-0.22 8.3 -4 14 -8 23.54a0.3 0.3 0 0 0 0.5 0.3 164.76 164.76 0 0 0 13.56 -21.28l1.4 41.04a138.66 138.66 0 0 0 -28 2.22 0.3 0.3 0 1 0 0 0.58c25.26 -3.66 50.52 -0.88 71.34 7.4 1.3 0.5 6.68 2.8 8.12 3.34 -0.22 10.5 -0.38 18.78 -0.44 21.04a180.7 180.7 0 0 0 -19.46 9.6c-3.8 -9.1 -6 -14.28 -6.6 -14.28 -3.2 0 -78.3 -0.28 -81.18 0a0.7 0.7 0 0 0 -0.5 0.82c4.36 11.08 16 40.12 17 42 0.12 0.78 -1.22 0.6 33.56 -0.48v3.3c-11.08 0.54 -17.56 2.44 -19.3 5.62 -0.18 0.32 -3.56 36.68 -3.58 36.9 -4.16 -2.48 -11.84 0 -13.38 4.58a4.46 4.46 0 0 0 0.62 4.2c1.44 1.88 2.26 3.18 0 3.6a5.74 5.74 0 0 0 -4 5.86 3.34 3.34 0 0 1 -1.04 2c-3.24 3.8 -2.76 8 -0.52 10 1.2 1.16 3.08 2.12 3.16 3.84 0 0.58 0.94 0.56 0.9 0a4.86 4.86 0 0 0 -2 -3.32 6 6 0 0 1 -1.68 -8c0.82 -1.52 2.32 -2.46 2.56 -4.36s0.58 -3.58 3.08 -4.44c1.2 -0.42 2.24 -1 2.2 -2.52 0 -2 -1.88 -2.8 -2.28 -4.36 -1.1 -4.4 6.7 -8.16 12 -5.56 -0.84 8.84 -6.32 68 -6.72 69.38a2.16 2.16 0 0 0 0.26 1.66 40.42 40.42 0 0 0 4.92 4.32 58.48 58.48 0 0 0 32.92 9.78 18.32 18.32 0 0 0 9.44 12 27.86 27.86 0 0 1 7.1 5.28c7.84 7.5 21.66 15.52 34.88 15.7 11.52 0.14 26.38 -8.74 20 -19.6 -2.16 -4.56 -4.48 -6.4 -7.74 -9.62 -11.5 -11.4 -11.66 -14.86 -12.52 -22.94 -0.78 -7.38 -1.18 -13.86 1.8 -20.72a31.42 31.42 0 0 0 6.12 12.62 9.66 9.66 0 0 0 0.62 3.56c-1.72 5.78 2.42 13.68 14 15.56 1.28 5.22 6.82 6.2 12.2 6.24 2.12 0 12.76 -1.18 14.86 -5.1 9.8 0 76.5 -2.38 81.34 -2.56a26 26 0 0 0 25.78 20.94c16.48 0 26.52 -14 28.58 -30.34 3.52 -0.48 32.86 -5.02 48.66 -10 0.24 2.98 1.5 13.7 8.28 16.68a28.22 28.22 0 0 0 15.44 0.66c6.56 -2.16 10 -17.54 9.02 -30a88.38 88.38 0 0 0 3.74 -34.5zM125.02 99.88a7.08 7.08 0 0 0 6 1.24c0.78 -0.28 1.2 -0.4 1.8 0 0.94 0.68 13.5 10.48 19.36 15.04 -7.62 -4.16 -24.44 -13.8 -27.54 -15.58a3.24 3.24 0 0 0 0.38 -0.7zm-10.38 4.94c-0.24 1.82 -0.26 2 -2 2.48 -1.02 0.4 -21.4 9.2 -21.46 9.22l26.6 -16.34a3.54 3.54 0 0 0 0.52 0.7 6.6 6.6 0 0 0 -3.66 3.94zm215.88 86.9a8.28 8.28 0 0 0 -1.88 -4c-1.2 -2.7 3.3 -5.24 6 -6.3a15.56 15.56 0 0 1 8.26 -0.94 1.56 1.56 0 0 1 0.76 0.76c2 2.96 5.3 1.34 7.8 2.2a6.84 6.84 0 0 1 4.36 5.78c0.24 2.72 -2.82 5.74 -0.38 8.44 3.58 4.12 9.78 -0.74 13.02 2.92 2 2.72 -2.54 4.32 -2.88 7.18a2.62 2.62 0 0 0 1.7 3.08c0.7 0.24 1.42 0.26 2 0.52a4.78 4.78 0 0 1 2.86 4.72c-0.24 2.6 -3.42 5.22 -1.82 8.34 0.76 1.46 2.46 1.46 3.54 2s0.74 2.3 1.74 3.22c1.86 1.76 4 -0.82 5.3 -1.64s2.12 -0.12 2.24 1.28c0.16 3.36 -3.44 5.3 -4.34 8.52a23.72 23.72 0 0 0 -0.3 5.3c0 0.78 -0.38 2.62 -1.84 3.18h-0.14c-1.7 -1.34 -3.5 -2.54 -5.14 -4 -10 -8.44 -13.58 -28.58 -66.98 -28.88 2 -3.54 -0.62 -10.52 5.72 -9.16a15.62 15.62 0 0 0 4.62 0.62 5.54 5.54 0 0 0 4.8 -5.78c0.16 -1.42 0.48 -2.5 1.78 -2a5.88 5.88 0 0 0 9.2 -5.36zm-2 2.82a4.28 4.28 0 0 1 -5.04 2 17.06 17.06 0 0 0 -2.36 -0.94c-3.56 -0.34 -2.48 4.14 -3.52 5.88 -2.94 4.84 -8.36 -1.26 -12 2.4 -2.58 2.72 -0.56 7.08 -2.76 9.6 -26.82 0 -53.6 1.2 -63.26 2 0 -4.5 -0.74 -27.24 -1.4 -50.9a248.12 248.12 0 0 1 90.36 29.96zm-91.14 -116a9.78 9.78 0 0 0 9.22 1.76 2.18 2.18 0 0 1 2.42 0.38c1.38 1.04 21.88 17.02 30 23.4 -10.42 -5.86 -38 -21.54 -42.38 -24a6.64 6.64 0 0 0 0.76 -1.56zM230 63.5c-0.74 -0.58 -1.32 -1.04 -1.34 -2s1.7 -13.56 5.08 -38.5c0.18 11.36 0.64 43.18 0.7 48.48a6.14 6.14 0 0 0 -1.64 -0.44 7.62 7.62 0 0 0 -2.8 -7.54zm-6.82 22.84c-0.22 2.42 -0.68 2.6 -2.9 3.4l-33.82 14.5c9.68 -6 36.62 -22.54 40.98 -25.2a5.42 5.42 0 0 0 1.1 1.44 8.8 8.8 0 0 0 -5.46 5.86zm5.6 -10.66c0.58 -1.86 1.68 -3.34 3.62 -3.34a4.52 4.52 0 0 1 3.6 6.38c-0.86 2 -2.42 2.9 -5.34 1.78a4.14 4.14 0 0 1 -1.98 -4.82zm2 6a6.76 6.76 0 0 0 3.88 0c0.28 10.68 3.48 126.98 3.68 133.82a90 90 0 0 0 -10.12 1.32c0.34 -10.72 2.44 -127.46 2.56 -135.2zM140.66 175c-5.08 1.62 -10 3.32 -14.52 5.06 0 -2.12 -0.2 -7.26 -0.4 -14 3.46 1.94 12.4 7.36 14.92 8.94zm-20.84 -86c-0.9 -0.7 -0.96 -0.84 -1 -1.16 0 -0.76 2.3 -17.86 3.24 -24.84 0.14 8.38 0.42 27.52 0.46 31.5a3.28 3.28 0 0 0 -0.76 -0.2 5.56 5.56 0 0 0 -1.94 -5.4zm1.54 6.46a3.18 3.18 0 0 1 2.52 4.32 2.62 2.62 0 0 1 -1.42 1.38c-5.06 0.84 -4.46 -5.8 -1.1 -5.8zM120.34 102a5.16 5.16 0 0 0 2.42 0s1.84 71.04 2.12 78.56c-2 0.78 -4 1.6 -6 2.42 0.48 -13.9 1.28 -72.62 1.46 -80.98zM228 164.28c-0.56 26.58 -1.02 49.68 -1.1 52.8a67.84 67.84 0 0 0 -17.64 6.94c-4.66 -1.42 -6 -9.26 -12 -8.22a4 4 0 0 1 -2.68 0.18c-3.16 -1.42 -4.2 -0.64 -6.32 1.64 -2.58 2.72 -5.62 1.72 -6 -0.16 -0.16 -1.06 0.92 -2.18 -1.04 -3.42 -0.76 -0.48 -0.9 -0.58 -0.46 -1.82 1.58 -4.34 -4 -9.74 -10.8 -5.06a4.66 4.66 0 0 1 -3.28 1.1c-5.84 0.32 -8.16 3.74 -3.46 7.78 2.82 2.42 0.6 5.12 -2.64 4.88 -1.78 -0.12 -3.74 -1.1 -5.74 -1.42 -3.14 -0.5 -7.14 0.5 -8.56 3.86a7.36 7.36 0 0 0 0 4.94c0.86 3.08 -0.22 2.86 0.4 6.24 1.2 6.52 -4 3.06 -9 4 -2.7 0.5 -7.7 2.44 -7.24 6.3 0.3 1.6 1.74 2.4 2.48 3.58a3 3 0 0 1 -1.28 3.9 10.54 10.54 0 0 1 -5.16 1.22c-5.6 0.22 -2.64 -3.74 -5.02 -6.22a5.12 5.12 0 0 0 -8.98 2.32 10.34 10.34 0 0 0 0 2.38c0.14 2.18 -1.08 2.42 -2.94 1.32 -2.92 -1.74 -5.4 -1.72 -6.82 0 -2 3.18 -3.22 1.66 -6.36 0.84a6 6 0 0 0 -4.58 1.2c-2 -14.38 -3.46 -24.86 -3.64 -25.2a7.16 7.16 0 0 0 -3.52 -2.8c-6 -2.62 -12.86 -2.48 -19.34 -2.82v-3.38c4.78 0 37.58 -0.52 43.34 -0.54a0.6 0.6 0 0 0 0.54 -0.86c-0.12 -0.26 -7.86 -19 -10.64 -25.58A260.74 260.74 0 0 1 228 164.28zM27.68 221C22.58 208.32 16.78 194 11.04 180c16.6 0.26 70 0 80 0 2.14 5.06 13.06 31.34 16.56 39.36 -18.14 -0.04 -69.84 0.96 -79.92 1.64zm16.96 7.82c4.4 -2.52 10.42 -2.78 15.62 -2.92v4.38a2.58 2.58 0 0 0 5 0v-4.42c5.28 0 14.66 0.34 19.32 2.78 1.7 0.88 2.54 1.84 2.52 2.82 0 1.42 -1.84 2.5 -2.26 2.68 -8.24 3.46 -17.38 3.04 -26.22 2.62a43.02 43.02 0 0 1 -13.42 -2c-1.32 -0.42 -3.32 -1.06 -3.4 -2.46s1.52 -2.72 2.84 -3.48zm24.92 92.6c2.66 -18.22 9.1 -24.4 5.48 -32.24 1.44 -1.78 4 -6.16 -0.74 -11.14a8.96 8.96 0 0 0 -15.76 5.54 8 8 0 0 0 2.14 6 11.06 11.06 0 0 0 11.04 2.26 12 12 0 0 1 -0.72 7.8c-6.44 20 -8.2 30.36 -2.76 52.42a57.76 57.76 0 0 1 -30.5 -8.68 16.86 16.86 0 0 1 -5.74 -4.7c0.34 -2.78 9.3 -100.58 9.66 -104a7.08 7.08 0 0 0 1.36 0.76c5.82 2.6 12.14 2.76 18.46 2.88 7.38 0.16 14.8 0.22 21.74 -2.2a12.12 12.12 0 0 0 4.3 -2.26c0.96 6.88 13.84 103.74 14.38 107.02a57.88 57.88 0 0 1 -29.58 11.02c-2.32 -9.78 -4.22 -20.58 -2.76 -30.48zm-3.14 -36.48a3.42 3.42 0 0 0 3.26 3.38 15.8 15.8 0 0 1 1.62 2.46c-1.28 0.28 -6 1.08 -7.76 -2.16a8.48 8.48 0 0 1 0.82 -8.4A6 6 0 0 1 71.6 278a6.94 6.94 0 0 1 2.92 10.2 16.56 16.56 0 0 0 -1.46 -2.24 3.3 3.3 0 0 0 -0.46 -2.88 3.36 3.36 0 0 0 -6.18 1.86zm-4.16 4.22c-5.8 -4.68 -0.68 -14 6.44 -12.88a7.48 7.48 0 0 0 -4.7 2.16c-2.28 2.36 -3.68 7.56 -1.74 10.72zm58.22 18a33.68 33.68 0 0 0 -4.34 10c-1.52 6.14 -1.02 11.14 -0.38 17.46 0.72 18.96 16.22 24.64 20.62 34a8 8 0 0 1 1.24 3.72c-0.28 4.72 -8.3 9.16 -15.3 10a27.02 27.02 0 0 1 -9.54 -0.94 51.24 51.24 0 0 1 -16.96 -7.4c-8.38 -5.14 -8 -7.72 -15.76 -12a14.18 14.18 0 0 1 -7.28 -8.62 57.06 57.06 0 0 0 30.28 -11.78c0.22 -0.2 1.26 5.52 -10.94 -83.8a0.7 0.7 0 0 0 0.24 -0.68c-0.14 -0.86 1.44 -1.38 2.3 -1.54 2.86 -0.52 5.78 3.14 8.68 -0.8s5.28 0.86 8.44 0.46c1.44 -0.18 2.18 -1.46 2 -3.44a6.98 6.98 0 0 1 0 -2.24 3.78 3.78 0 0 1 5.36 -2.44c3.58 2 0.68 5.84 4.6 7.4a11.44 11.44 0 0 0 9.44 -1.62 4.58 4.58 0 0 0 1.46 -4.34c-0.58 -2.34 -4 -3.26 -2.44 -5.58a10 10 0 0 1 7.1 -3.18c2.42 0 7 1.68 8.6 -1.58a6.22 6.22 0 0 0 0.2 -3.86c-0.52 -3.28 0.5 -3.14 -0.42 -6.68a5.7 5.7 0 0 1 -0.24 -3.36c1.14 -3.54 5.68 -3.78 8.52 -2.94a15 15 0 0 0 5.42 0.96c2.98 -0.3 5.56 -3.08 3.9 -5.84 -0.98 -1.66 -4.8 -3.74 -2.92 -5.64 1.5 -1.5 4 -1.16 5.88 -1.48a6.26 6.26 0 0 0 2.4 -1.18 7.28 7.28 0 0 1 5.78 -1.22 4 4 0 0 1 2.96 4.44c-0.66 1.84 -0.88 2.76 1.1 4 0.4 0.28 0.36 0.6 0.26 1.2 -0.58 3.6 4.28 6.5 8.54 1.76 3.42 -3.8 3.16 0.2 7.72 -1.08s6.6 5.5 10.82 7.6a185.68 185.68 0 0 0 -20.4 14.44c-18 14 -22.44 16 -34.48 21.26 -10.92 4.76 -17.02 7.6 -25.84 15.74 -5.52 5.1 -6.34 12.72 -6.62 15.22a85.08 85.08 0 0 0 0 15.6zm6 -28.1a0.78 0.78 0 1 1 1.5 -0.38c0.42 2.38 3.54 3.8 4.34 4a0.72 0.72 0 0 1 0.46 0.78 0.7 0.7 0 0 1 -0.78 0.54 7.5 7.5 0 0 1 -2.68 -0.82c-0.2 1.06 -0.6 2.58 -1.26 2.58a6.7 6.7 0 0 1 -3.76 -2.3 0.66 0.66 0 0 1 1.04 -0.84 10.54 10.54 0 0 0 2 1.14c0.1 -0.64 0.26 -1.52 0.34 -2a7.88 7.88 0 0 1 -1.28 -2.7zm152.7 82.32c-11.42 -1.1 -16.86 -9.02 -16.32 -16.28a1.36 1.36 0 0 1 2.66 -0.22c1.08 8.9 5.08 12.94 13.9 14.12a1.2 1.2 0 0 1 -0.32 2.38zm6.6 -7.04a11.58 11.58 0 0 1 -8.46 -3.1 30.88 30.88 0 0 1 -10.68 -20.1c-1.02 -11.18 5.2 -25.04 14.76 -26.2 6.12 -0.72 12.26 4.24 15.38 9.14 8.9 14.16 -0.78 38.9 -11.08 40.26zm-12.4 -54.34c5 -12.96 17.04 -15.02 23.26 2.5 -6.52 -6.3 -15.58 -8.08 -23.26 -2.5zm101.68 37.54a5.7 5.7 0 0 1 -3.74 -1.4c-6.32 -4.32 -6.36 -14 -6.36 -17.08s0 -12.3 6 -16.82a6.62 6.62 0 0 1 3.72 -1.68c5.48 0 8.32 11.86 8.38 18.16 0.08 8.34 -3.4 18.36 -8 18.88zm-8.62 -37.74c2.14 -3.7 4.22 -7.04 8.62 -6.78s6.6 5.48 7.28 7.68a0.3 0.3 0 0 1 -0.5 0.28c-1.88 -2 -3.9 -4 -6.92 -4.2s-4.74 1.32 -8 3.42a0.3 0.3 0 0 1 -0.48 -0.34zm12.94 -7.48a10.16 10.16 0 0 0 -12.52 1.44c-4.98 5.7 -6.8 19.74 -6.78 27.42 -1.64 0.64 -14.74 5.5 -54.96 12.12 0.58 -5.2 0.14 -20.84 -6.22 -28.36 -3.46 -11.78 -9.04 -17.64 -16 -16.58 -9.64 1.48 -13.26 16.44 -15.46 25.26 -0.92 3.74 -4.44 15.62 -5.18 25.02a4.24 4.24 0 0 1 -0.94 2.76c-16.46 1.26 -92.74 5.26 -115.3 2.92a25.24 25.24 0 0 1 -11.4 -3.3 10.86 10.86 0 0 1 -5.22 -9.36 5.12 5.12 0 0 0 3.54 2.68c1.84 0.12 2.24 -1.04 2.4 -2.2a0.3 0.3 0 0 0 -0.2 -0.32c-0.6 -0.2 -4 -1.46 -4.52 -1.68 -0.92 -0.46 -0.54 -2.12 0.42 -1.64 0.46 0.24 3.78 1.52 4.26 1.66a0.24 0.24 0 0 0 0.28 0c0.18 -0.14 0.1 -0.34 0 -0.66 0 -0.98 -0.12 -1.6 -0.38 -1.7a38.22 38.22 0 0 1 -4.38 -2 0.88 0.88 0 1 1 0.76 -1.58 18.78 18.78 0 0 0 1.88 0.88c0.64 0.28 0.82 0.44 1.02 0.24a0.3 0.3 0 0 0 0 -0.34c-1.72 -3.46 -5.36 -4 -6.5 -0.54 -7.42 -10.72 -7.74 -27.22 -4.72 -39.2 2.34 2.38 3.64 2.82 10.46 3.46a0.28 0.28 0 0 0 0.32 -0.26 59.82 59.82 0 0 0 0 -6.56 0.3 0.3 0 0 0 -0.24 -0.24 4.86 4.86 0 0 1 -3.82 -6c10.18 -10 24.72 -13.32 36.96 -20.2 13.48 -7.54 24.6 -18.44 37.5 -26.82 16 -10.86 29.06 -11.82 48.98 -12.5 13.26 -0.7 26.3 -0.98 38.72 -0.84 23.06 0.2 48.78 -1.44 66.22 14.92 4 3.78 6.9 8.68 10.96 12.48 2.16 2 4.68 3.58 6.94 5.48 14.5 12 14.36 41.02 9.62 59.8 -0.62 -4.54 -2.16 -12.9 -6.5 -15.6z" stroke-width="1"></path></g></svg>