<svg width="274" height="210" viewBox="0 0 274 210" fill="none" xmlns="http://www.w3.org/2000/svg">
<path d="M219.944 0.67424C218.935 0.823948 212.16 1.94675 204.809 3.21927C197.457 4.41693 180.808 7.63564 167.762 10.3304C154.789 13.0251 144.05 15.121 143.906 14.9713C143.834 14.8216 143.185 13.5491 142.464 12.1269C139.653 6.28827 136.554 4.7912 132.086 7.26137C129.635 8.53389 128.482 11.4532 128.986 15.2707C129.13 16.8427 128.986 18.1152 128.698 18.1152C128.338 18.1152 126.68 15.2707 124.95 11.7526C121.274 4.34208 117.959 0.898802 114.427 0.898802C109.887 0.898802 90.4986 8.53389 50.9298 25.9L32.9112 33.8345L29.9561 30.466C28.3705 28.6696 26.2083 26.9479 25.1992 26.7234C22.9649 26.1245 19.217 27.921 18.0639 30.2415C17.271 31.7386 17.4873 35.8555 18.4963 38.4005C18.8567 39.3736 17.8476 39.8976 12.6583 41.245C4.58594 43.3409 0.982221 45.2871 0.405626 47.7573C-0.67549 52.3234 4.44179 93.2684 6.89232 99.3315C8.18966 102.55 11.433 104.197 16.6944 104.197C18.6404 104.197 20.2982 104.496 20.2982 104.871C20.2982 108.838 34.3527 204.127 35.2896 206.822C36.7311 210.639 38.9654 210.864 53.9569 208.319C76.7324 204.501 91.2914 202.705 121.491 200.01C139.725 198.363 144.338 197.615 147.005 195.818C148.302 194.92 148.879 194.92 150.248 195.668C154.717 198.139 162.861 197.839 192.916 194.022C202.43 192.749 215.548 191.102 222.106 190.279C244.45 187.434 264.054 182.494 270.036 178.227C273.207 175.907 274 174.036 274 168.272C274 148.585 257.999 56.8894 248.414 21.4087C244.81 8.15962 243.585 6.06371 238.828 5.09061C237.458 4.86605 235.512 3.66839 234.359 2.39588C232.413 0.299971 232.053 0.150264 227.008 0.225117C224.125 0.299971 220.953 0.524533 219.944 0.67424ZM232.485 3.8181C235.729 7.56079 237.675 16.6181 246.972 72.7584C254.252 116.623 257.423 138.63 257.423 145.516C257.423 152.927 255.909 154.199 242.504 157.717C227.44 161.61 155.438 174.56 148.518 174.56C143.329 174.56 141.96 171.341 136.77 146.115C135.041 137.806 134.032 131.519 126.248 79.8695C124.229 66.6953 121.779 50.6766 120.842 44.314C118.68 30.2415 118.536 25.5257 120.337 23.8789C121.491 22.7561 131.149 19.6122 133.455 19.6122C134.104 19.6122 135.401 21.3339 136.554 23.7292C139.581 30.2415 143.473 31.7386 146.14 27.397C147.221 25.7503 147.221 25.3011 146.14 21.783C145.419 19.6871 144.987 17.8906 145.131 17.8158C145.78 17.2918 189.024 8.45903 204.088 5.7643C224.269 2.09646 230.611 1.64734 232.485 3.8181ZM118.68 5.46488C120.626 7.93506 124.518 15.3456 124.95 17.5912C125.094 18.4146 124.302 19.3128 122.716 20.1362C118.68 22.307 117.454 24.7023 117.527 30.2415C117.527 32.9362 119.184 46.9339 121.202 61.4555C123.22 75.9771 124.662 88.1035 124.518 88.4029C124.302 88.7023 122.86 89.6005 121.202 90.3491C119.328 91.2473 118.319 92.2204 118.319 93.1187C118.319 94.7654 119.689 94.8403 123.004 93.4181C124.374 92.8192 125.527 92.5947 125.527 92.969C125.527 93.2684 125.743 94.0918 125.959 94.7654C126.248 95.514 125.455 96.3374 123.437 97.4602C121.779 98.2836 120.482 99.3315 120.482 99.7807C120.482 100.978 122.5 101.427 124.662 100.604L126.68 99.8555L127.977 108.239C129.923 121.189 134.752 148.061 136.266 154.723C137.059 158.017 137.491 160.936 137.347 161.236C136.698 162.284 80.2641 185.039 69.8853 188.408C63.8311 190.429 63.1103 189.755 56.3354 175.009C50.209 161.76 47.8306 155.771 36.2266 123.884C31.9021 112.057 24.7668 92.445 20.3702 80.3187C15.9737 68.2672 11.8655 56.3655 11.2168 53.8953C10.2077 49.8532 10.2077 49.2543 11.2889 47.6076C12.2979 45.9608 21.4513 40.5713 23.2532 40.5713C23.6857 40.5713 25.7037 42.4427 27.7939 44.6883C31.8301 49.1795 33.7761 49.7783 36.1545 47.3081C38.0285 45.362 37.9564 43.1163 35.7942 39.2239L34.0644 36.0052L36.0104 35.2567C37.0915 34.8076 46.7495 30.6158 57.4165 25.8251C89.7779 11.4532 110.535 3.21927 114.499 3.14442C116.157 3.14442 117.238 3.74325 118.68 5.46488ZM241.062 8.38418C244.81 11.4532 247.765 23.5795 259.153 82.4894C264.774 111.682 269.964 146.564 271.549 165.353C272.198 173.287 271.333 175.533 266.865 177.853C259.873 181.521 237.891 186.087 211.872 189.156C203.439 190.204 190.394 191.851 182.826 192.899C168.339 194.845 153.996 195.444 151.618 194.096C150.104 193.273 148.591 189.306 146.933 181.671L145.924 177.105L157.167 175.757C168.988 174.335 219.8 165.427 234.215 162.209C248.486 158.99 256.27 155.996 258.432 152.702C260.882 149.109 259.369 132.342 253.459 96.3374C244.81 43.266 240.269 18.2649 237.53 8.53389C236.954 6.36313 238.539 6.28827 241.062 8.38418ZM138.14 9.58184C138.716 10.2555 139.725 11.7526 140.374 12.9503C141.527 15.2707 141.527 15.2707 137.924 16.0941C136.77 16.3935 135.978 16.0193 135.185 14.6719C133.671 12.3514 132.446 12.3514 132.878 14.7468C133.095 15.7947 132.95 16.8427 132.59 17.0672C131.653 17.666 131.509 17.3666 130.932 14.2228C130.5 12.052 130.716 11.2286 131.941 9.95611C133.743 8.08476 136.482 7.93506 138.14 9.58184ZM143.834 21.4836C145.924 27.921 142.753 29.4181 139.221 23.5795C136.698 19.4625 136.626 19.0883 138.356 18.6391C141.888 17.666 142.68 18.0403 143.834 21.4836ZM27.1452 30.9152C30.2444 33.7596 30.3165 34.7327 27.3614 35.9304C25.1992 36.7538 24.9109 36.6789 23.8298 35.2567C22.3162 33.1608 20.6585 33.9842 21.8117 36.1549C22.8208 38.2508 21.8838 39.0742 20.5865 37.2777C19.0008 34.9573 19.2891 31.1397 21.1631 29.7924C23.3974 28.1456 24.1902 28.2953 27.1452 30.9152ZM33.704 40.197C35.7221 43.79 35.5779 45.8111 33.4157 45.8111C32.1904 45.8111 30.0282 43.79 27.5777 40.4216C26.7128 39.2239 26.8569 38.9245 29.0192 37.9514C30.3886 37.3526 31.5418 36.9035 31.6138 36.8286C31.6859 36.8286 32.6229 38.3257 33.704 40.197ZM8.98248 46.6345C7.32477 50.0029 8.18966 53.1467 18.8567 83.0883C37.596 136.01 46.2449 158.765 53.1641 173.811C58.858 186.087 61.0202 189.455 64.0473 190.803C66.2816 191.701 67.0744 191.551 75.6513 188.707C85.8859 185.264 112.698 174.709 128.121 167.972L138.356 163.556L139.221 166.625C139.653 168.347 140.734 170.892 141.527 172.314C142.32 173.736 143.617 177.479 144.338 180.548C145.059 183.617 146.068 187.509 146.645 189.231C148.735 195.219 147.365 195.743 124.446 197.39C96.4808 199.336 76.6603 201.657 55.7588 205.324C42.4971 207.645 37.9564 207.944 37.1636 206.672C36.9473 206.223 34.4968 189.83 31.8301 170.218C25.6317 125.231 22.5325 104.946 21.6676 103.299C21.091 102.251 20.0819 101.951 17.0548 101.951C9.487 101.951 8.9104 101.203 6.60402 88.1035C5.30668 80.6929 2.27956 53.4462 2.27956 49.0298C2.27956 47.6824 3.0003 46.859 5.37876 45.8111C9.70322 43.7152 10.2798 43.8649 8.98248 46.6345Z" fill="#2596BE"/>
<path d="M203.728 29.7924C190.322 32.2626 177.276 35.3316 176.195 36.2298C174.465 37.7269 175.186 39.0742 177.637 39.0742C180.952 39.0742 215.836 31.8134 218.863 30.5409C220.233 29.9421 221.386 29.0438 221.386 28.6696C221.386 27.3971 214.611 27.8462 203.728 29.7924Z" fill="#2596BE"/>
<path d="M153.348 34.5831C140.59 36.3796 133.239 38.1012 131.293 39.6731L129.779 40.9456L131.149 53.6708C133.239 71.7105 135.473 83.8369 137.203 85.6333C138.356 86.831 139.149 86.9807 141.96 86.5316C153.636 84.8848 171.871 80.3187 173.456 78.6719C174.321 77.7737 174.105 74.4801 171.943 60.7819C168.843 40.6462 166.537 32.7866 163.942 33.1608C163.582 33.1608 158.825 33.8345 153.348 34.5831ZM165.024 35.4813C166.177 36.9784 167.762 44.3141 169.42 55.5421C170.285 61.0813 171.078 66.4708 171.222 67.5187L171.582 69.3901H165.528C159.906 69.3901 159.402 69.2404 158.681 67.6684C157.672 65.2731 157.672 65.2731 160.483 65.2731C163.582 65.2731 164.447 63.776 164.447 58.3866C164.447 48.8053 159.906 42.4427 152.05 40.9456C143.329 39.224 134.752 49.6287 137.059 59.0602C137.996 63.1772 140.158 67.5936 141.744 69.0158C142.68 69.8392 143.401 69.8392 145.059 69.2404C147.005 68.4918 147.149 68.4918 147.149 70.2135C147.149 71.2614 146.5 72.3094 145.563 72.8333C144.627 73.2825 142.248 75.0041 140.158 76.576L136.482 79.4205L135.689 74.7795C135.113 71.486 131.293 41.9936 131.293 40.8708C131.293 40.2719 142.608 37.8018 151.257 36.4544C164.519 34.3585 164.087 34.3585 165.024 35.4813ZM154.861 52.7725C155.149 54.1199 155.942 55.1679 156.951 55.617C158.825 56.2907 159.258 58.162 157.672 58.7608C156.158 59.3597 155.726 64.2252 157.023 67.2942C158.104 69.9889 158.032 70.1386 156.158 71.7854C154.284 73.507 151.978 73.9562 149.744 73.0579C148.951 72.7585 148.591 71.6357 148.591 69.2404C148.591 65.4228 146.573 61.8298 143.834 60.7819C141.888 59.9585 141.455 57.7877 143.257 57.7877C144.266 57.7877 144.41 57.2638 144.05 54.4942C143.762 52.6977 143.762 51.1257 143.906 50.9012C144.05 50.7515 146.5 50.6018 149.311 50.6018C154.357 50.6766 154.501 50.6766 154.861 52.7725Z" fill="#2596BE"/>
<path d="M151.113 52.5479C151.33 52.9222 151.834 53.2964 152.266 53.2964C152.627 53.2964 152.915 52.9222 152.915 52.5479C152.915 52.0988 152.411 51.7994 151.762 51.7994C151.185 51.7994 150.897 52.0988 151.113 52.5479Z" fill="#2596BE"/>
<path d="M144.987 53.2964C144.987 53.6707 145.275 54.045 145.635 54.045C146.068 54.045 146.572 53.6707 146.789 53.2964C147.005 52.8473 146.717 52.5479 146.14 52.5479C145.491 52.5479 144.987 52.8473 144.987 53.2964Z" fill="#2596BE"/>
<path d="M151.474 55.1678C151.474 55.7667 151.834 56.2906 152.194 56.2906C152.627 56.2906 152.915 55.7667 152.915 55.1678C152.915 54.569 152.627 54.045 152.194 54.045C151.834 54.045 151.474 54.569 151.474 55.1678Z" fill="#2596BE"/>
<path d="M146.428 56.2906C146.428 56.6649 146.789 57.0392 147.149 57.0392C147.582 57.0392 147.87 56.6649 147.87 56.2906C147.87 55.8415 147.582 55.5421 147.149 55.5421C146.789 55.5421 146.428 55.8415 146.428 56.2906Z" fill="#2596BE"/>
<path d="M149.239 55.9164C148.735 56.4404 149.311 59.9585 149.96 60.3328C150.248 60.5573 150.897 60.4076 151.474 60.0334C152.411 59.4345 152.411 59.21 151.401 58.3866C150.753 57.8626 150.104 56.9644 149.888 56.4404C149.744 55.9164 149.455 55.617 149.239 55.9164Z" fill="#2596BE"/>
<path d="M151.041 62.6532C149.744 63.776 149.744 63.776 151.402 63.6263C152.411 63.4766 153.276 62.9526 153.492 62.4286C153.852 61.1561 152.771 61.3058 151.041 62.6532Z" fill="#2596BE"/>
<path d="M205.241 39.8228C193.781 41.245 180.231 43.79 179.078 44.7631C177.853 45.7362 177.853 45.886 179.15 46.9339C180.736 48.2064 180.159 48.2064 199.619 44.9877C213.025 42.7421 215.908 41.9187 215.403 40.3468C215.043 39.224 211.656 39.0743 205.241 39.8228Z" fill="#2596BE"/>
<path d="M199.475 52.2485C189.601 54.045 181.168 55.8415 180.808 56.2158C179.583 57.4883 181.096 58.5363 184.123 58.5363C190.177 58.5363 215.331 54.045 220.521 52.0988C222.251 51.4251 223.476 50.5269 223.332 50.0029C222.827 48.431 217.422 48.955 199.475 52.2485Z" fill="#2596BE"/>
<path d="M211.656 59.8088C210.503 59.9585 203.656 61.1561 196.52 62.3538C183.114 64.7491 180.159 65.8719 182.61 67.8181C183.619 68.5667 185.493 68.4918 192.7 67.4439C208.34 65.0485 217.061 62.7281 217.061 60.8567C217.061 60.4076 216.773 60.0333 216.413 60.0333C216.052 60.0333 215.332 59.8836 214.755 59.8088C214.25 59.6591 212.881 59.6591 211.656 59.8088Z" fill="#2596BE"/>
<path d="M224.052 88.0287C216.917 89.7503 215.043 90.7234 215.908 92.1456C216.629 93.3433 219.512 93.0439 227.872 90.8731C233.278 89.4509 235.44 88.5527 235.44 87.7293C235.44 86.0076 231.981 86.0825 224.052 88.0287Z" fill="#2596BE"/>
<path d="M198.538 90.1245C196.808 91.0228 195.799 93.1936 196.52 94.4661C196.736 94.8403 196.304 95.2146 195.583 95.2146C192.844 95.2146 192.268 97.0111 193.205 102.7C193.709 105.544 194.502 108.164 194.934 108.613C195.511 109.063 197.169 109.063 199.403 108.688C207.764 107.116 211.295 106.218 211.944 105.395C212.376 104.871 212.16 102.401 211.439 98.583C210.214 92.5947 210.214 92.5947 207.98 92.8193C206.25 92.969 205.601 92.6696 204.953 91.0976C204.016 89.0766 201.493 88.6275 198.538 90.1245ZM202.646 92.5947C202.646 93.1936 202.358 93.7175 201.998 93.7175C201.637 93.7175 200.844 93.9421 200.196 94.1666C199.475 94.4661 199.043 94.2415 199.043 93.493C199.043 92.3702 200.052 91.6216 201.781 91.5468C202.214 91.4719 202.646 91.9959 202.646 92.5947Z" fill="#2596BE"/>
<path d="M223.548 95.6637C218.287 96.8613 216.413 98.2087 217.998 99.5561C219.512 100.903 231.764 97.535 232.053 95.7385C232.341 94.1666 230.323 94.1666 223.548 95.6637Z" fill="#2596BE"/>
<path d="M173.6 97.1608C165.672 98.7327 163.005 99.7807 163.005 101.203C163.005 103.074 167.906 102.401 180.519 98.8824C182.898 98.2087 184.051 96.5619 182.682 95.7386C182.321 95.5888 178.285 96.1877 173.6 97.1608Z" fill="#2596BE"/>
<path d="M144.194 101.128C142.897 102.55 142.104 104.122 142.104 105.47C142.104 110.26 149.6 122.087 151.474 120.216C152.699 118.943 155.798 109.362 155.798 106.592C155.798 103.673 154.14 100.08 152.555 99.4064C149.672 98.2836 146.284 98.9573 144.194 101.128ZM151.041 103.898C152.411 104.422 152.555 108.015 151.329 109.287C150.825 109.811 149.816 110.185 148.951 110.185C148.086 110.185 147.077 109.811 146.572 109.287C146.068 108.763 145.708 107.715 145.708 106.817C145.708 103.972 148.086 102.7 151.041 103.898Z" fill="#2596BE"/>
<path d="M171.943 105.02C166.898 105.919 164.303 107.042 164.591 108.164C165.096 109.587 168.627 109.587 174.177 108.089C177.637 107.116 179.294 106.368 179.438 105.47C179.727 104.047 178.141 103.973 171.943 105.02Z" fill="#2596BE"/>
<path d="M230.972 119.916C224.341 121.488 221.89 122.611 222.323 123.884C222.755 125.381 225.062 125.231 233.278 123.135C239.26 121.563 241.278 120.74 241.422 119.692C241.711 118.045 238.9 118.045 230.972 119.916Z" fill="#2596BE"/>
<path d="M206.611 122.611C200.196 124.033 196.016 125.53 195.511 126.578C194.79 128.001 195.799 135.86 197.097 138.63C197.962 140.351 198.322 140.501 202.646 140.426C207.548 140.351 214.467 138.555 216.773 136.833C217.998 135.86 218.07 135.486 217.133 131.07C215.692 123.434 215.043 122.536 211.295 122.386C209.494 122.386 207.403 122.461 206.611 122.611ZM210.214 125.68C209.566 126.878 208.268 128.749 207.331 129.947L205.674 132.117L202.358 130.096C200.556 129.048 198.971 127.851 198.682 127.477C198.394 126.953 207.187 124.258 210.791 123.734C211.151 123.659 210.863 124.557 210.214 125.68ZM214.395 126.803C215.62 132.192 215.764 135.636 214.683 136.01C211.512 137.357 200.7 139.154 199.619 138.555C198.682 138.031 196.881 132.342 196.881 129.722C196.881 129.348 198.971 130.246 201.493 131.593L206.106 134.139L208.34 131.519C209.566 130.022 211.079 128.001 211.728 127.027C213.169 124.707 213.89 124.632 214.395 126.803Z" fill="#2596BE"/>
<path d="M228.593 128.001C225.494 128.824 223.836 129.647 223.692 130.471C223.332 132.492 225.061 132.567 231.62 130.845C238.323 129.123 239.116 128.674 238.323 127.477C237.675 126.354 234.071 126.503 228.593 128.001Z" fill="#2596BE"/>
<path d="M152.627 129.572C152.338 129.947 152.411 130.77 152.627 131.444C152.915 132.118 152.266 133.54 151.185 134.962C148.951 137.657 148.807 140.052 150.681 142.447C151.834 143.944 152.699 144.244 156.303 144.244C160.339 144.244 160.483 144.319 160.699 146.265C161.059 149.109 158.249 150.906 154.429 150.232C152.771 149.933 151.401 150.082 151.185 150.532C150.465 151.729 153.42 154.349 155.438 154.349C156.591 154.349 157.24 154.798 157.24 155.547C157.24 157.493 160.411 156.52 160.699 154.499C160.843 153.601 161.708 152.029 162.717 150.981C165.096 148.51 165.096 144.468 162.573 141.848C160.915 140.127 160.339 139.977 157.24 140.426C153.492 140.95 152.555 140.351 153.275 137.881C153.852 135.935 156.303 135.261 158.393 136.459C159.69 137.133 160.339 137.208 160.987 136.534C162.213 135.261 161.132 133.39 158.321 132.192C156.951 131.594 155.798 130.62 155.798 130.022C155.798 128.824 153.275 128.45 152.627 129.572Z" fill="#2596BE"/>
<path d="M179.655 131.593C171.366 133.465 169.492 134.139 169.492 135.336C169.492 137.133 171.15 137.282 176.411 136.01C185.637 133.839 188.952 132.641 188.952 131.519C188.952 130.096 185.997 130.171 179.655 131.593Z" fill="#2596BE"/>
<path d="M180.664 139.004C180.303 139.154 178.069 139.678 175.763 140.127C171.654 140.95 169.78 142.672 171.582 143.87C172.519 144.393 179.943 143.046 184.484 141.549C187.727 140.426 187.511 138.63 184.123 138.705C182.61 138.705 181.096 138.854 180.664 139.004Z" fill="#2596BE"/>
<path d="M102.463 32.2626C90.5707 36.5293 68.8042 46.4848 67.7231 48.2813C67.0023 49.479 67.7231 50.3024 69.525 50.3024C71.471 50.3024 106.499 35.107 108.878 33.2357C111.184 31.5141 111.616 30.0918 109.887 30.0918C109.166 30.0918 105.85 31.0649 102.463 32.2626Z" fill="#2596BE"/>
<path d="M100.301 44.0894C89.922 47.7573 73.8494 54.2695 72.9845 55.1678C71.3989 56.7397 72.7683 58.0122 75.7234 57.5631C78.246 57.2637 93.0212 51.6497 102.463 47.4578C110.319 44.0146 108.517 41.1701 100.301 44.0894Z" fill="#2596BE"/>
<path d="M44.8034 51.0509C33.6319 55.3176 24.6947 59.7339 24.1181 61.231C23.3973 63.2521 35.4338 98.0591 38.6771 103.224C39.6862 104.796 40.3348 105.02 42.2088 104.721C47.254 103.898 68.8042 94.0918 72.9124 90.7234L74.7143 89.3012L71.9034 80.8427C67.9393 68.8661 62.3175 54.1948 60.2274 50.4521C57.921 46.3351 57.1282 46.41 44.8034 51.0509ZM59.4345 52.7725C62.3175 58.9854 70.0295 79.645 70.0295 81.0673C70.0295 81.2918 68.1555 81.741 65.9212 81.9655C63.6149 82.2649 60.9481 82.6392 59.9391 82.9386C58.4976 83.238 57.921 82.9386 56.9119 81.1421C55.4704 78.6719 55.2542 75.6029 56.3353 73.507C56.8399 72.5339 56.6957 71.7105 55.6146 70.2883C54.8218 69.2404 54.1731 67.6684 54.1731 66.7702C54.1731 64.1503 52.0829 60.8567 50.1369 60.3328C45.308 59.0603 39.542 61.6053 37.8843 65.7971C37.0194 67.893 37.0194 68.7164 37.8843 71.4111C38.6771 73.5819 38.7492 74.8544 38.2447 75.4532C37.0915 76.9503 38.6771 79.2708 41.488 80.2439C44.5872 81.2918 46.0287 82.9386 46.6053 86.2322C47.0377 88.5526 46.8215 89.0766 44.8034 90.5737C43.5782 91.5468 41.6322 93.6427 40.479 95.2895C39.3979 96.9363 38.2447 97.9842 38.1005 97.6848C36.8752 95.6638 25.992 63.4018 26.2082 62.4287C26.3524 61.6801 28.5146 60.0334 31.1093 58.686C36.3707 55.9913 54.6056 48.8801 56.4795 48.8053C57.2002 48.8053 58.3534 50.2275 59.4345 52.7725ZM50.9298 68.7164C51.7946 70.962 52.2271 71.2614 53.5244 70.8872C54.9659 70.3632 55.038 70.5129 54.6056 72.4591C53.3082 77.9234 53.3803 78.3725 55.2542 81.3667C56.984 83.9866 57.1282 84.5854 56.4074 86.6064C55.975 87.879 55.6146 90.0497 55.6146 91.3222C55.6146 94.1667 54.7497 94.3912 53.1641 91.8462C52.5154 90.7983 51.2181 89.8252 50.2811 89.5257C48.9117 89.2263 48.4792 88.4778 48.0468 85.7831C47.6864 83.238 47.0377 82.0404 45.2359 80.6181C43.9385 79.5702 42.425 78.7468 41.8484 78.7468C39.8303 78.7468 38.9654 77.1 40.1186 75.7526C40.9835 74.7795 41.0556 74.031 40.479 72.4591C39.3979 69.3901 39.6141 68.2673 41.4159 68.1924C42.6412 68.1924 48.8396 66.6205 49.6324 66.0965C49.7766 66.0965 50.2811 67.2193 50.9298 68.7164Z" fill="#2596BE"/>
<path d="M46.6053 68.2673C46.389 68.6415 46.8215 69.0158 47.6864 69.0158C48.5513 69.0158 48.9837 68.6415 48.7675 68.2673C48.5513 67.8181 48.0468 67.5187 47.6864 67.5187C47.326 67.5187 46.8215 67.8181 46.6053 68.2673Z" fill="#2596BE"/>
<path d="M41.1997 70.5128C41.1997 70.8871 41.488 71.2614 41.8484 71.2614C42.2808 71.2614 42.7853 70.8871 43.0016 70.5128C43.2178 70.0637 42.9295 69.7643 42.3529 69.7643C41.7042 69.7643 41.1997 70.0637 41.1997 70.5128Z" fill="#2596BE"/>
<path d="M47.8307 71.1865C47.9748 71.7105 48.3352 72.0848 48.6235 72.0848C49.4884 72.0099 49.2722 70.962 48.4073 70.5877C47.9028 70.438 47.6145 70.7374 47.8307 71.1865Z" fill="#2596BE"/>
<path d="M43.0736 72.6836C42.7853 73.2076 42.7132 73.8064 42.9294 74.031C43.5781 74.7047 44.2988 73.7316 43.9385 72.6836C43.6502 71.8602 43.506 71.8602 43.0736 72.6836Z" fill="#2596BE"/>
<path d="M46.0288 72.5339C45.4522 73.507 46.1729 75.9023 47.1819 76.6509C48.0468 77.2497 49.8487 76.576 49.8487 75.6778C49.8487 75.3035 49.3442 75.0041 48.7676 75.0041C48.1189 75.0041 47.3982 74.2555 47.0378 73.3573C46.7495 72.3842 46.317 72.0848 46.0288 72.5339Z" fill="#2596BE"/>
<path d="M48.7675 78.4474C47.326 79.5702 47.326 79.645 49.0558 79.3456C50.0648 79.1959 50.9297 78.6719 51.146 78.1479C51.5063 76.9503 50.4973 77.0251 48.7675 78.4474Z" fill="#2596BE"/>
<path d="M99.58 56.3655C78.1739 65.0485 76.8766 65.5725 76.8766 66.7702C76.8766 68.7912 81.6335 67.8181 92.0122 63.776C111.112 56.3655 118.247 52.6977 117.166 50.976C116.445 49.7035 114.283 50.3772 99.58 56.3655Z" fill="#2596BE"/>
<path d="M108.95 62.8029C103.184 64.9737 83.5795 72.8333 82.0659 73.5819C79.3271 74.8544 79.6154 77.6988 82.4263 77.4743C85.0209 77.3245 109.526 67.1444 111.761 65.3479C114.427 63.252 112.481 61.4555 108.95 62.8029Z" fill="#2596BE"/>
<path d="M103.184 94.5409C100.301 95.7386 98.7872 97.5351 99.2918 99.1818C99.58 100.155 99.2197 100.978 98.1386 101.727C96.2646 103.074 96.4088 105.47 98.7872 111.084C99.7963 113.554 100.661 114.677 101.598 114.677C102.319 114.677 105.995 113.404 109.743 111.832C117.743 108.464 117.959 108.089 114.788 100.829C112.698 96.038 112.481 95.8134 110.463 96.1877C108.95 96.4871 108.013 96.2625 107.148 95.2146C105.706 93.5678 105.634 93.5678 103.184 94.5409ZM105.346 97.4602C105.346 98.1339 103.112 99.7058 102.175 99.7058C101.31 99.7058 101.742 97.6099 102.679 97.2356C104.121 96.562 105.346 96.6368 105.346 97.4602Z" fill="#2596BE"/>
<path d="M77.237 108.015C73.4891 109.661 69.7413 111.682 69.0205 112.431C67.7232 113.778 67.6511 113.928 68.8764 114.377C70.5341 115.051 74.2099 113.704 81.129 109.961C91.2915 104.422 88.4806 102.999 77.237 108.015Z" fill="#2596BE"/>
<path d="M76.8766 116.398C71.1827 118.794 69.3809 120.815 72.6242 121.264C74.8585 121.563 85.1652 116.473 85.1652 115.126C85.1652 113.404 83.3633 113.704 76.8766 116.398Z" fill="#2596BE"/>
<path d="M50.4974 116.847C47.8306 119.692 47.8306 122.387 50.4974 126.728C52.5155 130.096 58.2814 135.636 59.795 135.636C60.804 135.636 62.1014 129.123 62.1014 123.958C62.1014 119.542 60.7319 115.874 58.858 115.126C55.975 114.003 52.5875 114.677 50.4974 116.847ZM58.4976 120.59C59.5067 122.611 59.4346 123.36 58.0652 124.707C55.1822 127.701 50.7857 124.482 52.6596 120.74C53.7407 118.644 57.4165 118.569 58.4976 120.59Z" fill="#2596BE"/>
<path d="M117.238 125.081C115.292 125.83 111.544 127.477 109.022 128.824C104.625 131.144 104.481 131.369 104.914 133.54C105.634 137.507 109.094 144.543 110.391 144.992C112.914 145.816 124.662 140.95 127.257 137.956C128.554 136.459 128.554 136.309 127.329 132.866C125.743 128.3 122.86 123.659 121.707 123.659C121.274 123.734 119.256 124.333 117.238 125.081ZM117.815 130.995L115.797 135.561L111.472 133.764L107.148 132.043L113.274 129.049C116.662 127.402 119.473 126.129 119.617 126.279C119.761 126.354 118.896 128.525 117.815 130.995ZM124.806 131.968C126.464 136.459 126.464 136.609 125.094 137.432C122.283 139.079 114.716 142.372 112.625 142.822C110.463 143.271 110.319 143.121 108.517 139.079C107.508 136.684 106.787 134.663 106.932 134.438C107.148 134.288 108.373 134.588 109.743 135.187C111.112 135.785 113.346 136.384 114.716 136.534C117.166 136.758 117.31 136.684 119.617 131.668C120.914 128.899 122.283 126.803 122.572 127.027C122.932 127.177 123.941 129.423 124.806 131.968Z" fill="#2596BE"/>
<path d="M91.1472 140.052C83.3632 143.42 80.6244 145.142 81.0568 146.34C81.6334 147.987 85.1651 147.013 92.2284 143.271C98.4988 140.052 100.589 138.031 98.4988 137.432C98.1385 137.282 94.751 138.48 91.1472 140.052Z" fill="#2596BE"/>
<path d="M63.831 145.516C64.0473 147.088 63.831 148.51 63.1824 149.409C60.8039 152.627 62.7499 158.092 66.2095 158.092C67.2906 158.092 69.1645 157.717 70.4619 157.194C74.8584 155.547 76.8044 159.589 73.1286 162.583C71.6871 163.706 70.534 164.08 69.0925 163.781C67.651 163.481 67.0023 163.706 66.6419 164.604C66.0653 166.176 68.4438 167.972 70.606 167.598C71.543 167.374 72.48 167.748 72.8403 168.347C73.7773 170.143 76.1558 169.17 76.1558 167.074C76.1558 166.026 76.7324 164.305 77.5252 163.182C79.1108 160.637 78.6784 156.744 76.4441 154.648C75.0746 153.376 74.0656 153.226 68.2276 153.75C65.705 153.975 64.9842 152.178 66.8582 150.232C67.7231 149.334 68.7321 149.109 70.3898 149.409C72.1196 149.783 72.8403 149.558 73.1286 148.81C73.6332 147.388 71.1106 145.367 68.8762 145.367C68.0114 145.367 67.1465 144.843 66.8582 144.244C66.6419 143.645 65.777 143.121 64.9122 143.121C63.6148 143.121 63.4707 143.42 63.831 145.516Z" fill="#2596BE"/>
<path d="M89.922 148.735C86.8228 150.082 84.084 151.43 83.9399 151.654C83.2912 152.328 84.3723 154.349 85.3093 154.274C87.6877 154.199 98.4989 148.66 98.7151 147.388C99.0755 145.367 96.3366 145.816 89.922 148.735Z" fill="#2596BE"/>
</svg>
