<svg xmlns="http://www.w3.org/2000/svg" viewBox="0 0 400 400" id="Interface-Testing-2--Streamline-Milano.svg" height="400" width="400"><desc>Interface Testing 2 Streamline Illustration: https://streamlinehq.com</desc><g fill="#2596be"><path d="M345.6 100.5c-2.76 -0.38 -8.62 -1.34 -11.06 -1.42 -1.04 0 -1.04 1.48 -0.12 1.74 0 0.24 9.62 1.52 10.78 1.7s1.72 -1.82 0.4 -2.02zm-7.02 76.48c0.14 -2.48 0.26 -4.94 0.36 -7.4a5.7 5.7 0 0 0 0.4 -11.2c0.4 -12.36 0.92 -26.42 1.18 -38.84 0 -0.68 -1.04 -0.76 -1.06 0 -0.26 12 -0.88 26.44 -1.22 38.74 -7.44 -0.38 -8.12 11.4 -0.32 11.64 0 2.36 -0.1 4.7 -0.1 7.06 0 0.42 0.76 0.5 0.76 0zm-47.86 -110.34c0.4 0.64 0.58 0.6 1.16 0.16a66 66 0 0 0 7 -5.2c0.54 -0.52 -0.36 -1.3 -0.92 -0.76a41.34 41.34 0 0 1 -5.82 4.54c0.48 -2.82 1.16 -9.9 0.38 -12.72a0.34 0.34 0 0 0 -0.66 0c-0.44 4.64 -0.12 7.5 -0.94 12.7L286 59.68c-0.34 -0.4 -1.06 0 -0.72 0.48 1.28 1.62 4.72 5.22 5.44 6.48zm45.92 14.28a15.66 15.66 0 0 0 12.7 -12.48 15.78 15.78 0 0 0 -27.14 -13.64c-9.98 10.52 -0.84 28.84 14.44 26.12zM322 56.62a14.56 14.56 0 0 1 16 -5.2 15.16 15.16 0 0 1 10.36 14.44 14.98 14.98 0 0 1 -10.98 13.76A14.66 14.66 0 0 1 322 56.66zM59.62 62.54c12.98 2.5 26 4.34 39.08 6.34 4.34 0.68 8.8 1.52 13.2 2a1.04 1.04 0 0 0 1.16 -0.9 1.04 1.04 0 0 0 -0.88 -1.16c-4.34 -0.92 -8.82 -1.38 -13.2 -2 -12.98 -2 -26 -4.2 -39.16 -5.84a0.8 0.8 0 0 0 -0.86 0.76 0.82 0.82 0 0 0 0.66 0.8zm191.44 26.24c5.76 1.32 57.48 11 59.78 11.06 0.98 0 1.64 -1.42 0.52 -1.82 -2.14 -0.76 -53.18 -10 -60 -11.08a0.94 0.94 0 0 0 -0.3 1.84z" stroke-width="1"></path><path d="M299.04 74c13.42 -6.6 9.9 -27.2 -5.34 -28.6a15.04 15.04 0 1 0 5.34 28.6zm-20.32 -16.22a14.3 14.3 0 0 1 12.7 -11.36c13.36 -1.1 20.7 16.76 9 25.34 -9.94 7.32 -23.78 -1.98 -21.7 -14zM385.84 200c-12.8 -3.44 -41.72 -12 -55.18 -14 -1.06 -0.18 -0.88 2.98 -0.88 3.46 0 2 -0.66 18.98 0 19.18 -0.76 0.36 48 12.26 54.9 14l0.74 -0.3c0.58 -14.9 1.64 -21.98 0.42 -22.34zm-1.06 21.56c-17.32 -4.84 -36.66 -9.38 -54.3 -13.66 0.46 -2.88 0 -9.08 0.32 -21.14 0.3 0 26.4 5.38 54.68 14.14 -0.66 5.66 -0.4 14.56 -0.7 20.7zM141.1 74c19.24 2.24 47.88 4.7 92.28 13.22 1.32 0.26 1.54 -1.82 0.22 -2 -27.6 -5.28 -63.84 -11.68 -92.3 -13a0.92 0.92 0 0 0 -0.94 0.78 0.92 0.92 0 0 0 0.74 1zm238.4 51.32c0 -0.7 -1 -0.46 -1.1 0.1 -0.26 1.7 -0.32 24.34 -0.32 27.1a5.54 5.54 0 0 0 0 10.88c0 6.5 -0.32 14.52 0 20.78a0.5 0.5 0 0 0 0.98 0c0.32 -5.88 0.26 -14.56 0.32 -20.78 6.94 0.12 7.16 -10.94 0.12 -11.02 0.02 -18.92 0 -27.8 0 -27.06zm-23.14 -20.98c1.66 0.7 8.42 2.18 10.2 1.16 0.48 -0.28 0.66 -1.26 0 -1.54 -0.16 0 -8 -0.94 -9.76 -1.36a0.9 0.9 0 0 0 -0.44 1.74zm23.18 -19.34a16 16 0 0 0 10.4 -16 16 16 0 0 0 -12.86 -14 15.36 15.36 0 0 0 -17.04 9.8 15.54 15.54 0 0 0 19.5 20.2zm-19.08 -18.2a14.38 14.38 0 0 1 28 0 14.9 14.9 0 0 1 -7.18 16.12c-10.76 5.92 -23.64 -4.2 -20.82 -16.12zm25.64 40.58a76 76 0 0 0 -10.4 -1.8c-1 -0.1 -1.36 1.36 -0.46 1.64a74.6 74.6 0 0 0 10.62 1.86 0.88 0.88 0 0 0 0.98 -0.74 0.9 0.9 0 0 0 -0.74 -0.96z" stroke-width="1"></path><path d="M368.66 75.88a51.64 51.64 0 0 0 5.4 -4.38 34 34 0 0 0 5.18 5.14c0.46 0.16 0.74 -0.34 0.6 -0.7s-4.34 -4.68 -4.86 -5.26c1.72 -1.5 3.38 -3.02 5 -4.6 0.62 -0.56 -0.3 -1.44 -0.92 -0.86 -1.64 1.54 -3.28 3.04 -4.94 4.54L370 65.22c-0.38 -0.4 -0.96 0.14 -0.64 0.58l3.86 4.74c-1.72 1.52 -3.56 2.94 -5.14 4.58 -0.4 0.4 0.1 1.08 0.58 0.76zM328 66.6c0.2 0 0 0 4 -3.12 -3.58 6.86 -3 10.74 -1.02 11.12 1.54 0.3 7.6 -4.38 4.78 -4 -1.68 0.24 -9.52 10 -2.2 -8.22 0.16 -0.4 -0.28 -0.4 -0.66 -0.38 -1.28 0 -4.86 3.24 -5.56 4 -0.36 0.38 0.26 0.94 0.66 0.6zm6.1 -6.04c0.5 0.22 1.36 -0.38 1.7 -0.98s0.26 -1.56 -0.52 -1.72a1.5 1.5 0 0 0 -1.18 2.7zm25.08 92.8c-0.2 9.06 -0.54 18.12 -0.46 27.16 0 0.5 0.78 0.58 0.78 0 0.54 -9.04 0.7 -18.12 0.94 -27.18a5.76 5.76 0 0 0 0.3 -11.46c0.14 -6.36 0.6 -12.78 0.4 -19.14 0 -0.72 -1.08 -0.86 -1.14 0 -0.56 6.38 -0.4 12.84 -0.56 19.22 -5.64 0.68 -7.44 10.26 -0.26 11.4zm-163.32 -21.8c0.7 -0.46 -18.12 -20 -18.18 -18.74 -0.18 2.6 -1.32 29.28 0.4 28.72 6.48 -2.12 18.1 -9.98 17.78 -9.98zm179.68 110.24c-4.76 -2.58 -18.98 -5.76 -24.5 -6.62 -0.46 0 -0.64 0.62 -0.16 0.72 8.5 1.78 16.62 5.14 24.32 6.78a0.48 0.48 0 0 0 0.34 -0.88zM111.22 162.68a7.22 7.22 0 0 0 3.64 1.24c0.6 0 0.62 -0.9 0 -0.98 -1.46 -0.2 -4.6 -0.96 -4 -3.16 0.44 -1.24 -2.24 0.74 0.36 2.9zm9.96 -3.92c1.76 0.12 1.68 -0.78 1.88 -2.22a46.68 46.68 0 0 0 0.34 -5.02c0 -0.42 -0.58 -0.42 -0.62 0 -0.12 1.52 -0.96 4.94 -0.88 6.2 -3.6 0.04 -1.26 1.04 -0.72 1.04zm257.94 174.02c-14.94 -3.24 -34.6 -7.12 -49.28 -10.72a0.86 0.86 0 0 0 -0.44 1.6c14.24 4 34.52 8.5 49.2 11 1.22 0.22 1.78 -1.6 0.52 -1.88zM128.54 280.82c0.28 -1.8 -0.48 -4 -1.88 -3.16a3.06 3.06 0 0 0 -0.84 3.86c0.78 1.76 2.4 1.42 2.72 -0.7zm128.28 -87.94a5.3 5.3 0 0 0 -2.24 4.22c0 0.58 0.76 0.96 1.22 0.22 0.86 -1.4 0 -1.5 1.86 -2.68s0.12 -2.22 -0.84 -1.76zm0.72 6.98a2 2 0 0 0 -0.26 2c0.54 1.46 1.66 0.84 1.8 -0.74s-0.96 -1.8 -1.54 -1.26zM114.52 148.52c-0.8 0 -1.18 1.28 -1.24 2 0 1.6 1.26 1.82 1.86 1s0.58 -3.08 -0.62 -3zm12.68 4.78a0.78 0.78 0 0 0 1.02 -0.3 4 4 0 0 0 0.42 -2.58 1 1 0 0 0 -1.9 0.12c-0.32 0.76 -0.22 2.36 0.46 2.76zm2.04 151.82c0.76 -1.36 0.36 -4.38 -1.36 -4.2 -0.98 0 -1.44 1.32 -1.4 2.48 0.06 2 1.9 3.2 2.76 1.72zm-0.66 19.66c-1.38 -0.14 -1.56 2 -1.02 3.16s2 0.36 2.16 -1.16c0.1 -1.1 -0.36 -1.92 -1.14 -2zm219.7 -123.3a137.34 137.34 0 0 0 26.62 6.52c0.7 0.12 0.82 -0.96 0.12 -1.06a249.12 249.12 0 0 1 -26.48 -6.14 0.36 0.36 0 1 0 -0.26 0.68zm-11.5 -5.3a4.46 4.46 0 0 0 2.48 7.5 4.24 4.24 0 0 0 4.68 -2.98 4.36 4.36 0 0 0 -7.16 -4.52zm-81.96 -51.04c-3.8 -16.42 11.22 -32.18 28.58 -25.34a21.68 21.68 0 0 1 8 5.42c-4 3.02 -0.48 8.8 0.78 8.32a4.92 4.92 0 0 0 7.44 -3.54 5.06 5.06 0 0 0 -7.3 -5.34c-7.62 -8.44 -21.32 -10.26 -30.36 -3.08 -6.8 5.4 -10.56 15.22 -7.9 23.66 0.14 0.48 0.86 0.4 0.76 -0.1zM83.88 114.92c1.38 -7.54 8 -4.54 8.5 -3.02a9.74 9.74 0 0 1 3.48 -2.48c0.92 -9.06 -7.44 -18 -15.88 -15.86 -9.1 2.26 -12.42 14.82 -6.28 22a14.96 14.96 0 0 0 9.68 4.92 32.38 32.38 0 0 1 0.5 -5.56z" stroke-width="1"></path><path d="M330.32 219.36c-1.38 -0.26 -0.34 12.78 -0.26 14.2 -2.22 -0.44 -1.5 3.36 -1.46 4.5 0.12 5.36 -1.84 10.24 -1.38 10.86 -0.86 2.24 -1.78 4.5 -2.68 6.76 -1.52 0 -2.68 1.34 -3.8 2.26 -10.42 8.66 -18.6 18.76 -20 21.84a86.5 86.5 0 0 0 -6.7 -12.14c8.88 -5.06 13 -16 13.68 -25.74A40.86 40.86 0 0 0 278 199.6c0.1 -5.42 0.18 -10.84 0.28 -16.26a29.28 29.28 0 0 0 25.84 -12.42c12.74 -18 7.74 -46.78 -10.62 -59.12 -20.5 -13.7 -50.9 -0.76 -50 30.14A48.74 48.74 0 0 0 254 171.06c-0.12 0.34 -0.22 0.68 -0.32 1.04 -10.46 -6.64 -27.4 -4 -27.8 -2.26a19.7 19.7 0 0 0 -2 -5.86c2.92 0.48 6.32 1.22 9.22 1.74 0.82 0.14 0.34 -29.74 0.78 -59.7 0 -1.04 -84 -14 -92.9 -14.44a0.78 0.78 0 0 0 -0.7 0.72c-0.36 19.06 -0.28 38.18 -0.42 57.28 -0.18 0.32 0 0.48 0.46 0.56 6.16 1.46 36 6 43.34 7.26 -5.46 5.46 -6.56 13.2 -5.46 20.6 -33.46 -7.2 -32.8 -7.18 -37.56 -8a0.88 0.88 0 0 0 -1 0.72 0.84 0.84 0 0 0 0.6 0.96c4 1.1 2.92 0.78 38.34 8.34a96 96 0 0 0 3.62 12.2l-25.72 -4.38c-2 -0.36 -15.78 -3.34 -16.58 -2.36a82 82 0 0 0 -22.48 -7.8v-3c7.02 -1.16 12.4 -10.32 14 -16.46 1.22 0 1.72 -0.12 2.24 -1.3s3.88 -10.14 2.32 -11.06a11.22 11.22 0 0 0 -3.3 -0.68v-2.6a113.58 113.58 0 0 0 3.22 -24c-0.18 -3.4 -3.02 -4 -4 -2.36a2.32 2.32 0 0 0 -4 -0.62 3.3 3.3 0 0 0 -6.2 0c-1.06 -3 -4.8 -3.86 -6.12 -0.58l-0.86 -1.22C114.76 94 96 79.6 77.82 82.92a31.26 31.26 0 0 0 8.82 61.9 149.46 149.46 0 0 1 -3.14 -20.26c-8.48 0.28 -17.8 1.88 -23.7 8.4a30.82 30.82 0 0 1 -1.52 -36.4 30.18 30.18 0 0 1 54.98 16.4 3.32 3.32 0 0 0 -4.48 1.44 2.88 2.88 0 0 0 -5.36 0.24 3.36 3.36 0 0 0 -5.72 -0.26 3.08 3.08 0 0 0 -5.4 0.36 3.28 3.28 0 0 0 -5.36 1.88c-2 7.24 2.84 32.6 6.56 42.34 -0.18 1.02 -0.4 2 -0.66 3.02 -12.38 -2 -29.1 -4.52 -42.18 -6.66 -1.14 -0.18 -1.34 1.52 -0.26 1.74 13.56 2.82 28.2 5.2 42 6.88 -0.86 3.14 -1.8 6.24 -2.72 9.38a68.2 68.2 0 0 0 -8 2c-0.72 -0.6 -28.28 -4.82 -31.36 -5.2 -0.94 -0.1 -1.32 1.46 -0.34 1.68 9.12 2 18.44 3.22 27.66 4.74a103.02 103.02 0 0 0 -15.44 6.6c-4.24 2.24 -3.32 2.78 -8.28 2 -1.86 -0.32 -3.66 -0.92 -5.52 -1.3 -0.86 -0.14 -3.42 2.14 6.68 3.48a102.92 102.92 0 0 0 -41.26 49.12C2 266.88 18.26 290 50 283.62c-1.74 21.36 -2.4 40.98 -2.54 62.32 0 0.54 0.58 0.58 0.58 0 0.3 -20.94 1.44 -41.76 3.1 -62.58 25.04 -5.72 40 -28.92 51.36 -50.12a79.46 79.46 0 0 0 10 6.54l-6.74 21.24c-0.3 1 -2.72 7.7 -2 7.8 3.12 0.42 13.22 0 16.78 -0.12 -0.54 0.98 0.3 68.44 0.56 79.44 0 0.54 0.56 0.48 0.56 0 0 -4.6 0.4 -78 -0.2 -79.4l32.84 -0.74c0.94 0 3.74 -10.12 4.16 -11.48a700.46 700.46 0 0 1 7.74 92.32c0 0.54 0.58 0.46 0.6 0a664 664 0 0 0 -7.48 -95.06l2.48 -8.44c10.56 5.18 23.5 -4.12 21.68 -16.58a35.16 35.16 0 0 1 7.62 18.2 84.56 84.56 0 0 0 -6.94 23.28c-4.38 5.2 -14.44 6.34 -20.72 5.68 -0.82 0 -1.02 1.18 -0.2 1.26 6 0.64 15.82 -0.48 20.6 -4.74 -3.4 24.26 1.22 48.9 7.66 72.3 0.12 0.4 0.7 0.18 0.6 -0.2 -7.24 -28.18 -12.46 -58.84 -3.78 -87.14 10.4 -33.86 33.46 -30.4 34.56 -31.04 -1.28 3.76 -0.88 5.2 2.6 7.88 6.14 4.66 25.64 5.32 25.32 -1.56a97.6 97.6 0 0 1 53.72 59.04c0.12 0.38 0.72 0.26 0.62 -0.12a78.94 78.94 0 0 0 -3.82 -10.54 137.8 137.8 0 0 1 22.24 -24.24c8.3 0.9 14.36 3 18.96 10.78 -0.28 1.3 -0.56 2.6 -0.82 3.9 -3.6 18.3 -10.4 45.8 -24.14 59.04 -15.84 15.22 -35.88 12.94 -48.7 -4.54 -6.32 -8.58 -9.3 -18.86 -12.74 -28.8 -0.1 -0.32 -0.62 -0.14 -0.54 0.18 3.1 10.9 7.42 23.46 14.84 32.14 8.2 9.52 19.54 14.52 31.84 11.12 -0.24 4.6 -0.46 9.2 -0.54 13.8 0 0.38 0.54 0.36 0.58 0l1.06 -14.14c14.42 -4.54 23.18 -17.32 28.6 -30.7 16 3.36 32 6.78 48 10.76 1.26 0.32 1.64 -1.62 0.38 -2 -12.98 -3.48 -34.64 -8.46 -47.74 -10.4 1.16 -3.4 2.58 -7.44 3.76 -10.86 2.34 0.6 14.56 3 18.56 4 10.54 2.62 25.24 6.18 26.12 6.4 1.24 0.34 1.62 -1.62 0.4 -2 -23.46 -6.58 -26.18 -6 -44.56 -10.24 0.9 -3 1.74 -6 2.54 -9.1 14.22 2.92 28.52 5.4 42.72 8.52 1.26 0.3 1.42 -1.72 0.16 -2 -12.56 -2.74 -29.88 -6.4 -42.46 -8.22 0.98 -3.82 2 -7.68 2.6 -11.56 13.56 2.66 26.94 5.68 40.16 8.44 1.26 0.26 1.82 -1.66 0.56 -2 -13.28 -2.76 -27.06 -6 -40.38 -8.32 0.64 -3.82 0.8 -4 -1.5 -6.94 2.34 -1.62 3.76 -9.22 4.1 -12.12 1.14 1.56 4.64 1.26 4 -6.2 2.66 0.88 32.72 8.28 35.38 8.68 1.26 0.18 1.28 -19.88 1.32 -22 -0.08 -0.18 -46.86 -11.38 -55.76 -13.08zM248.38 124c10.76 -20.46 40.72 -23.34 55.24 0.2 15.5 25.18 1.84 60.34 -25.26 58 0 -5.58 0.22 -11.16 0.74 -16.72 0 -0.62 -1.42 -2 -1.82 -2.28 5.68 -7.12 13 -9.46 14 -12.14 1.28 -3.72 -5.62 -1.74 -7.08 -1.16 -3.4 1.28 -3.04 -1.54 -2.18 -3.78 2 -5.12 8 -10.3 6.58 -12.68s-7.36 3.76 -8.6 5.36c-1.58 -1.06 -4.26 -0.18 -5.74 0.78 -0.48 -0.68 -7.34 -1.36 -10.82 7.72l-3.2 10.7c-2.84 0.48 -1.78 1.4 -6 12 -9.28 -11.84 -13.26 -32 -5.86 -46zM272 142.46c1.6 -0.78 3.32 -4 7.54 -3.14l-3.2 4.44c-0.18 0.32 0.18 0.76 0.48 0.46 3.14 -3.08 5.48 -8.24 9.8 -10.12 3.86 -1.68 -3.78 7.64 -5.06 10.3 -0.86 1.82 -2.38 6.68 1.16 6.68 0.44 0 8.36 -2.8 7.62 -0.42s-10 5.64 -13.58 12a21.32 21.32 0 0 0 -15.5 -4.9c1.8 -6.34 3.68 -18.3 12.28 -17.74 -2.26 1.78 -2.06 2.66 -1.54 2.44zm-46 28.4c7.64 2 3.46 14 -4.4 15.74 -2.18 0.5 -5.74 0.86 -7.68 -0.48a4.56 4.56 0 0 1 -1.78 -4.5c6.86 5.36 16.76 -3.84 13.86 -10.76zm-28 13.28c13.26 2.84 13.52 2.86 13.3 2.86a25.26 25.26 0 0 0 -1.06 10.16l-12.46 -2.22a92.7 92.7 0 0 1 0.22 -10.8zm13.62 0.82 -13.18 -2.78c2 -5.82 8.66 -5.14 12.8 -1.36a5.72 5.72 0 0 0 0.3 4.14zm-1.2 14.3a38.38 38.38 0 0 0 5.22 14.24l-21.8 -4a28.6 28.6 0 0 0 3.8 -12.4zM140.56 149.42c1.24 -16.4 0.66 -38.84 0.8 -56.9 2.84 0.48 5.7 0.86 8.56 1.22 26.44 3.64 57.46 9.6 82.9 13.06 -0.2 19.06 -0.86 38.54 -0.52 57.6l-9.06 -1.48c-7.74 -13.2 -27.26 -16.64 -38.74 -6.38 -13.98 -2.3 -30.22 -4.94 -43.94 -7.12zm42.42 45.1a59.78 59.78 0 0 1 3.38 13.48c-4.88 -0.94 -9.76 -1.88 -14.64 -2.6 0.94 -4.5 1.3 -2.42 -7.76 -3.38a104.24 104.24 0 0 0 -19.82 -14.34c4.34 0.84 -5.46 -0.96 38.84 6.84zm-12.42 16.18a46.88 46.88 0 0 1 8.84 13 13.48 13.48 0 0 0 -5.78 -1.86 9.86 9.86 0 0 0 -4.78 -3.46c0.58 -2.6 1.16 -5.12 1.72 -7.68zM162.38 202h-1.38l-0.32 -1.46c-0.2 -0.12 0.72 0.68 1.7 1.46zm-29.3 -18.44a102.7 102.7 0 0 1 25.8 15.54l-5.1 -0.32c0.52 -6 -8.82 -5.86 -8.48 -0.22a38.98 38.98 0 0 0 -6.82 0.48 5.48 5.48 0 0 0 -1.64 2.54l-4.26 -4.5 4.96 -4.48c1.32 -0.18 -1.14 -2.66 -1.62 -3.28l-5.7 -6.94c0.96 0.4 1.92 0.78 2.86 1.18zm16.92 16.56c-1.42 0.74 -2.42 -2.18 -0.88 -2.6 1.1 -0.3 2.64 1.58 0.88 2.6zM130.48 157a25.22 25.22 0 0 1 -4.82 -0.68c-0.64 -0.5 0 -8.96 -0.96 -11l7 0.94a52.46 52.46 0 0 1 -1.22 10.74zm2.12 -10.6 2.68 0.4a43.2 43.2 0 0 1 -2.8 10.4h-0.86a50.54 50.54 0 0 0 0.98 -10.8zm-30.4 -9.42c2.44 1.58 25.84 2.82 29.46 2.12v6a229.62 229.62 0 0 0 -30.52 -2.82 36.36 36.36 0 0 0 1.06 -5.3zm20.16 8c-1.22 1.12 -3 8.2 -3.68 10.44 -0.66 -0.42 -7.32 0 -8 -1.16 -0.44 -0.64 -0.58 -8.6 -0.86 -10.46zM94.8 155.5c-0.24 -2.84 -1.72 -6 -0.86 -8.74 0.28 -0.94 1.38 -2.68 2.6 -2 0.86 0.46 3.18 4.18 4.32 -1.48l7.86 0.48a54.52 54.52 0 0 0 0.58 10.68c0.24 1.02 2 1.82 6 2 3.48 0.16 3.68 0 4.1 -0.86 1.22 -2 3.2 -9.74 3.72 -9.72 1.46 0 0.7 7.74 1.14 10.48 0.28 1.66 4.38 1.54 5.88 1.72 -3.64 13.6 -13.72 15 -13.62 16a16.8 16.8 0 0 0 -0.3 4.88c-3.86 2.84 -18.64 6.14 -25.9 -4.14 1.68 -3.02 4.76 -15.9 4.48 -19.3zM84 175.72a138.76 138.76 0 0 0 6.76 19.16c-2.76 -0.64 -4.42 3.12 -2.98 4.68 0.32 0.34 6.78 3.68 7.62 4 -4.22 2.28 -4.16 6.8 -4.4 11.1 -1.34 -0.76 -5.4 0.74 -6.92 1.16l-7.08 -7.34c0.66 -1.2 5.36 -8.4 4.78 -8.74L71.54 194c2.2 -9.18 5.76 -14.48 6.2 -16.46a64 64 0 0 1 6.26 -1.82zm18 30.14c1.76 -0.52 9.04 -3.1 10 -0.5a24.18 24.18 0 0 0 -8.26 4c-0.22 0.22 0 0.64 0.28 0.52 1.58 -0.76 2.68 -1.7 4 0 1.74 2.16 1.74 7.2 -1 6.52 -0.42 -5.88 -1.14 -4.34 -1.12 -4 0.28 4 0.62 9.06 -1.26 12.74 -5.2 -1.26 -10.5 -4 -12.9 -9.1 0.26 -1.82 0.52 -3.62 0.8 -5.44 0.48 -3.32 1.12 -4.66 2.88 -5.72a37.8 37.8 0 0 1 8 -2.94 6 6 0 0 1 6 1.32 25.34 25.34 0 0 0 -7.54 2 0.3 0.3 0 0 0 -0.04 0.6zm10.92 5.22 -5.64 -2.78c4.34 -2.28 3.84 -2.44 6.86 -0.88a3.36 3.36 0 0 0 -1.38 3.66zm2.46 -3.08 2.48 2.86 -0.54 1.14 -3.58 -0.4c-0.3 -2.68 0.94 -3.5 1.64 -3.6zm-18.78 -4.86 -2.5 -1.24a4.78 4.78 0 0 1 2.28 -3.24l5.36 2.66zm-3.2 -1.58 -1.72 -0.86a5.54 5.54 0 0 1 2.42 -3.2l1.38 0.68a4.86 4.86 0 0 0 -2.08 3.36zm-43.66 81c-12.28 2.52 -28 0.36 -34.78 -11.4 -8.32 -14.54 -2.3 -32.16 5.2 -45.7A104 104 0 0 1 76.22 178c-0.92 1.84 -6.76 15.46 -5.24 16.56l9.76 5.8c-1.1 1.16 -5.6 8.48 -4.16 8.6a55.76 55.76 0 0 0 6.32 7.2 155.06 155.06 0 0 0 -48.72 23.88c-0.34 0.24 0 0.72 0.32 0.5a163.34 163.34 0 0 1 43.68 -21.74c0.86 9.18 8.98 21 18.18 23.24 -10.36 17.96 -26.14 36.4 -46.62 40.5zm47.16 -41.44c-1.2 -1.2 -15.24 -4.98 -18 -22.52l11.64 -3.18c2.94 9.04 11.64 9.86 14.16 11.2 -2.54 4.86 -5.06 9.72 -7.8 14.48zm15.88 -2.18 -9.72 -6.64 3.04 -5.74c0.22 -0.4 -0.26 -0.78 -0.56 -1.04 0.16 -0.42 0.32 -0.86 0.48 -1.24 0.78 1.24 7.08 11.26 8 11zm1.5 -4.64c-2.72 -3.74 -5.32 -7.58 -7.8 -11.48a19.7 19.7 0 0 0 0.5 -5.3c3.46 0.7 3.56 -4.74 2.54 -6.9 0.58 0.3 3.56 1.6 4.1 1.74s8 1.8 6.86 0a58.14 58.14 0 0 0 -4.8 -5.12 21.54 21.54 0 0 0 -2.72 -1.54c0.14 -1.42 -1.52 -2.34 -2.7 -2.44 -1.46 -3.56 -6.88 -2.34 -7 -2.36L92 195.4c-0.96 -0.98 -6.72 -18 -7.38 -20 1.52 -0.38 3.02 -0.72 4.56 -1.04 1 4.16 6.28 7.32 12.12 8.4 6.46 1.2 12.74 -0.36 15.88 -3.16 0.32 -0.3 0.22 -0.88 0.22 -1.32 1.86 0.56 3.74 1.06 5.6 1.6a261.68 261.68 0 0 1 -0.7 29.1c-0.08 1.18 1.7 -4.62 -8.02 25.3zm10.82 -32c-0.86 0.32 -1.5 3.46 -1.78 4.32A127.28 127.28 0 0 0 124 180.36l4.9 1.62A121.3 121.3 0 0 0 136.74 192c-0.58 0.58 -5.3 4.74 -4.9 5.24l3.84 4.76zm11.82 3.7a0.86 0.86 0 0 1 0.12 -1.72 211.54 211.54 0 0 0 22.3 0c1.84 0 1.56 2 0.38 2a152.22 152.22 0 0 1 -22.8 -0.28zm24 25.58c-2.26 1.2 -2.86 -1.22 0.18 -3.22a6.8 6.8 0 0 1 7 -1.16c0.86 0.36 0.22 -1.88 -2.96 -1.48a8.62 8.62 0 0 0 -3.46 1.34c-2.4 0.54 -6 0.24 -2.7 -1.86s6.7 -3.6 10 -0.92c1.22 0.98 0.18 -3.02 -5.06 -2.16 -0.58 -0.5 -4.32 0 -5.42 -0.26 -3.42 -0.98 7.86 -5.54 12.98 -1.34 4.54 3.7 4.88 8.78 1.18 13.36a9.36 9.36 0 0 1 -8.36 3.18c0.56 -2 1.08 -4 1.6 -6 2.1 1.08 -0.26 -3.7 -5.08 0.58zm19 7.88a15.16 15.16 0 0 1 -17.92 5.08l1.88 -6.68c5.66 1.36 10.88 -3.32 12 -8.56a7.36 7.36 0 0 0 -1.56 -6.42c2 0.48 7.3 3.06 7.66 4.34a14.84 14.84 0 0 1 -2.16 12.3zm12.08 5.4c-1.28 -7.32 -5.08 -15.46 -11.06 -20 0 0 -4.78 -10.9 -10.28 -15.1l0.54 -2.6c5 1.14 10 2 15.14 3 0 5.88 -6.92 10.98 -5.2 10.84 5.04 -0.44 8.5 -5.56 11.36 -9.72 2.6 0.5 23.54 4.7 24.34 4.44a30 30 0 0 0 6.82 7.7l-0.66 2c-14.54 -2.12 -27 12.24 -31 19.44zm34 -11.56a6.14 6.14 0 0 1 -2.82 -4.62 15.6 15.6 0 0 0 1.36 -4.44 19.46 19.46 0 0 0 17.62 -7.88c5.86 -8.16 -1 -10.48 -0.22 -14.78 0.18 -0.96 1.5 -2.66 3.08 -2.34s3.58 5 4 0.18a31.28 31.28 0 0 0 0 -6.12c3.12 0.28 9.32 -3.22 11.38 -5.48 0.46 6.84 0.98 13.66 1.42 20.5 0.12 2.12 -2.16 -0.2 -2.64 1.34s-0.58 3.14 -0.94 4.68c-2.7 0.74 -3.54 -2 -3.82 -2.22 -1.26 -0.98 -0.26 3.84 3.66 2.92 -2.7 10.62 -9.78 9.4 -8.42 10.82a47.84 47.84 0 0 0 0.22 8c-3.76 3.48 -16.8 5.06 -23.88 -0.56zm41.1 6.94a82.8 82.8 0 0 0 -16.3 -8.82l-0.42 -5.52c6.64 -1.46 9.44 -9.82 9.52 -16 2.6 0.24 2.9 0.4 2.8 -2.54a171.22 171.22 0 0 0 -1.72 -20.18c3.58 -3.8 -2.5 -11.72 -6.28 -14.44l5 -13.56a21.4 21.4 0 0 1 18.54 5.84c-3.32 29.72 3.06 47.82 -11.1 75.16zm0.5 0.32c5.1 -5.58 8.66 -21.66 9.38 -27.14a26.22 26.22 0 0 1 17.84 29.16c-5.4 -1.36 -9 6.48 -3.7 9.14 5.7 2.86 10.4 -5.82 4.8 -8.74a26.98 26.98 0 0 0 -18.82 -30.44c0.52 -4 0.82 -8 0.98 -12a41.86 41.86 0 0 1 12.82 6.56c22.18 16.78 19.18 50.36 2.56 59.68a97.3 97.3 0 0 0 -25.92 -26.22zm62 -5.72c0.26 -1.22 3.04 1.22 3.34 5.02a24.56 24.56 0 0 0 -4 5.66c1.46 -5.34 0.06 -8.36 0.58 -10.68zm16.12 16a18.7 18.7 0 0 1 0.7 -3.34c0 -0.32 -0.38 -0.4 -0.52 -0.16 -1.44 2.6 -1.74 13.18 -5.06 16.14a22 22 0 0 0 -15.1 -7.64c3.02 -7.36 4.86 -13.58 11.8 -18.42a22.52 22.52 0 0 1 8.4 -3.48c2.26 -0.44 2.16 0.88 0.76 2 -2 1.46 -6 2.6 -5.86 4.32 -2.64 0.48 -2.92 2.46 -2 2 1.46 -0.78 1.64 -1.28 3.52 -1.2a3.52 3.52 0 0 1 2.92 1.38c-0.96 0 -3.34 0.78 -3.5 2 0 0.64 6 -3.4 6.88 1.4 1 4.32 -1.92 8.44 -3.02 4.96zm38.86 2.64c-10.86 -2.6 -25.12 -6.46 -35.26 -8.42 -1.02 -1.5 -1.5 -2.56 -3.48 -2.76 -0.28 -1.82 -2.54 -2.34 -4.14 -2.32a43.34 43.34 0 0 1 5.2 -3.08c1.54 -1.12 3.68 -4.9 -2 -3.76 -0.62 0.12 -1.26 0.28 -1.88 0.46a3.78 3.78 0 0 0 -6.62 -3.2 3.86 3.86 0 0 0 1.14 5.78l-3.78 2.96a6.96 6.96 0 0 0 -2.74 -5.2l-0.18 -13.76c8.72 2.4 54.24 13 54.34 12.92s-0.92 13.98 -0.68 20.34z" stroke-width="1"></path></g></svg>