<svg xmlns="http://www.w3.org/2000/svg" viewBox="0 0 400 400" id="Interface-Testing-4--Streamline-Milano.svg" height="400" width="400"><desc>Interface Testing 4 Streamline Illustration: https://streamlinehq.com</desc><g><path d="M301.146 61.464c-1.736 -0.114 -2.184 3.91 -0.076 4.158 1.882 0.12 1.982 -4.222 0.076 -4.158Z" fill="#eab308" stroke-width="1"></path><path d="M303.744 59.478c-1.378 -0.584 -4.108 -2.646 -4.918 -0.97a1 1 0 0 0 0.634 1.266 15.6 15.6 0 0 1 3.254 1.42 1 1 0 0 0 1.03 -1.716Z" fill="#eab308" stroke-width="1"></path><path d="M384.046 325.818c-1.662 -0.758 -3.436 -1.172 -4.128 -2.4 1.612 -1.842 1.852 -1.962 1.768 -2.544 -10.8 -7.782 -18.96 -22.322 -23.374 -33.486 -9.814 -23.04 -10.054 -46.938 -9.414 -71.444 0.2 -10.35 -0.314 -22.232 -5.562 -32.094a5.022 5.022 0 0 0 2.32 -4.28 247.47 247.47 0 0 0 -0.862 -56.948c-1.748 -14.83 -6.448 -31.968 -20.97 -39.25l-0.476 -5.092a5.1 5.1 0 0 0 1.62 -2.19 13.874 13.874 0 0 0 1.684 -4.412c5.426 0.688 5.894 -7 4.334 -12.134 4.76 -1.386 5.224 -9.87 -1 -12.866 0.876 -1.672 0.5 -3.888 -1.152 -6.366 -6.972 -8.51 -20.732 -9.12 -30.502 -4.856 -2.97 1.07 -5.786 4.842 -3.4 7.696a8.426 8.426 0 0 0 -5.814 5 3.4 3.4 0 0 0 4.768 4.062 16.434 16.434 0 0 0 -0.668 1.548c-0.726 1.626 -0.074 3.638 2.19 3.474 0.092 0.102 -0.178 4.818 -0.258 5.6l-2.14 6a1.496 1.496 0 0 0 1.176 2.184l1.654 0.332c1.062 5.13 5.488 10.514 11.102 10.538a26.614 26.614 0 0 1 -0.694 4.416c-13.024 6.474 -21.066 20.05 -26.4 33.512 -7.616 -2.462 -7.906 -2.6 -9.6 -2.974 5.814 -6.3 5.588 -5.54 5.588 -6.02 0 -0.648 0 -1.51 -0.646 -1.942 -0.504 -0.466 -1.386 -0.718 -1.728 0 -0.308 0 0.492 -0.718 -6.6 6.484a9.934 9.934 0 0 0 -6.054 -0.2c-7.266 -5.638 -21.972 -15.97 -21.972 -15.97a4.02 4.02 0 0 0 -5.026 -0.2l-14.2 7.892c-0.654 -29.908 -1.882 -66.084 -1.894 -66.42a5.272 5.272 0 0 0 -7.2 -4.81L82.734 87.684a5.246 5.246 0 0 0 -3.2 4.836l1.91 58.364L11.47 180.282a4.246 4.246 0 0 0 -2.494 3.952L12 268.59a4.154 4.154 0 0 0 3.426 3.67l-1.588 0.816a1.15 1.15 0 0 0 -0.53 1.038l0.664 4.41c0.468 1.86 1.476 2.478 2.148 2.642L94.644 309a6.924 6.924 0 0 0 6.276 -0.738l94.154 -59.172a5.326 5.326 0 0 0 2.124 -3.332l0.184 -3.13a0.962 0.962 0 0 0 -0.536 -1.572l-83.522 -18.418c0.232 -0.93 0.19 0.72 -0.32 -22.154l39.47 -19.738v12.576c-29.8 4.966 -21.952 28.26 6.61 28.13 14.356 0 25.6 -6.22 25.6 -14.162 0 -6.238 -7.316 -11.71 -17.91 -13.536 0 0 0 -19.908 -0.028 -20.146l50.938 -25.474a5.862 5.862 0 0 0 2.6 -4.736L220 128.954a16.13 16.13 0 0 0 7.274 7.846 2.464 2.464 0 0 0 1.13 3.096c11.246 8.336 23.544 18.932 36.3 23.448 1.6 0.784 4.754 1.038 6.032 2l-1.056 12.36a4.432 4.432 0 0 0 2.226 5.222c0.298 0.188 0.65 0.2 0.374 0.57 -15.184 52.708 -8.242 124.92 -1.766 159.094 -0.142 1.43 0.814 4.876 3.026 5.676l0.124 2.8c-3.756 -2 -8.514 -4.528 -13.126 -4.294 -1.362 3.352 1.11 6.882 4.684 10.362 7.162 6.718 12.492 10.012 16.22 10.012 8.742 -0.956 4.4 -12.336 3.656 -18a7.96 7.96 0 0 0 3.586 -5.958c3.922 -23.51 3.292 -38.128 12.942 -80.02a99.524 99.524 0 0 1 6.24 -19.532c8.6 33.676 35.694 75.046 63.766 87.988a0.95 0.95 0 0 0 0.886 -0.02 0.712 0.712 0 0 0 0.3 0.388c7.94 4.784 -4.266 13.904 -2.288 20.758 1.378 2.736 4.842 2.05 6.866 0.37 6.2 -4.358 9.874 -11.718 12.77 -17.526 2.904 -4.876 -2.142 -8.594 -6.12 -9.776ZM321.778 82.97c-3.096 2.514 -9.8 4.898 -13.428 3.152 0.144 -0.664 0.308 -1.526 0.434 -2.498a19.186 19.186 0 0 0 12.828 -2.424ZM300.96 77c6.266 -2.98 2.896 -5.514 1.902 -3.958 -5.498 7.05 -6.636 -7.276 -5.068 -16a14.13 14.13 0 0 0 5.458 -2.8c-0.286 1.496 1.508 2.674 2.718 2.626 -0.634 2.346 -1.556 5.868 0.158 7.978a2.32 2.32 0 0 0 1.452 0.4 10.18 10.18 0 0 0 0.494 2.652 1.662 1.662 0 0 0 2.144 1.2c2.368 -1.09 1.546 -4.668 3.086 -5.772 1.268 -0.45 2.618 1.422 2.736 2.422a4.102 4.102 0 0 1 -3.48 4.2 1 1 0 0 0 -0.672 0.44c-0.474 0.9 0.416 1.932 0.082 3.11 -0.532 1.726 1.24 4.95 3.518 3.924 1.352 2.426 3.368 3.238 5.188 1.188 0.15 -0.422 0.354 -0.216 0.682 -0.098 0.074 0.8 0.096 0.514 -0.104 0.64a17.524 17.524 0 0 1 -12.298 2.504c0 -0.524 0.136 -1.154 -0.314 -1.542a1.032 1.032 0 0 0 -0.784 -0.246 8.064 8.064 0 0 1 -6.898 -2.868Zm-29.34 42.292c1.342 0.4 -2.022 -0.68 7.508 2.4a93.8 93.8 0 0 0 -3.234 10.4c-0.624 -0.384 -1.246 -0.8 -1.868 -1.266 0.862 -0.848 2.372 -1.746 1.826 -3.188 -0.366 -1.268 -3.932 -3.424 -4.886 -4.324a4.8 4.8 0 0 0 0.654 -4.022Zm0.918 12.922a27.424 27.424 0 0 0 2.862 1.92c-0.2 0.906 -0.378 1.814 -0.548 2.722 -2.22 -0.53 -4.468 -0.94 -6.726 -1.28a36.226 36.226 0 0 0 4.412 -3.362Zm-4.566 -11.318a0.986 0.986 0 0 0 -0.4 -1.176c0.44 -0.244 0.716 -1.29 1.33 -1.098 2.6 2.894 -0.958 6.222 -4.186 5.158a7.11 7.11 0 0 0 -3.654 0.26c-0.17 -1.708 1.722 -2.928 3.86 -2.87 1.036 -0.17 2.466 1.03 3.05 -0.274Zm-2.718 -3.9 -2.432 2.47a4.722 4.722 0 0 0 -3.39 2.702c-2.584 -3.736 2.276 -6.238 5.822 -5.168ZM14.364 269.082c-1.028 -0.16 -3.016 -84.388 -3.4 -84.886a2.242 2.242 0 0 1 1.33 -2.098l94.532 -39.708a2.138 2.138 0 0 1 1.672 0.01 2.174 2.174 0 0 1 1.25 1.9l1.726 77.228a1.928 1.928 0 0 1 -1.172 1.912L17.032 270.076a1.858 1.858 0 0 1 -2.668 -0.994Zm165.754 -207.4 10.55 -4.4v10.89l-10.514 4.482c0 -12.026 0.018 -10.684 -0.036 -10.982Zm23.324 3.212 0.8 24.26c-0.172 -0.056 -53.706 24.422 -53.896 24.478l-0.83 -25.754Zm-10.778 -8.452 10.352 -4.324 0.354 10.632 -10.702 4.562c-0.004 -0.032 0.008 -10.864 -0.004 -10.88ZM151.258 141.8l-0.838 -26 53.898 -24.536 0.8 24.142ZM205.2 117.582l0.774 23.272 -53.908 26.036 -0.738 -22.902ZM122.7 137.774l-10.614 21.6c-0.124 -0.48 -0.102 -16.858 -0.618 -16.532a4.106 4.106 0 0 0 -5.422 -2.298l-6.87 2.886L98 109.828c0.082 -0.17 24.648 27.972 24.7 27.946ZM100 108.978l46.612 -19.868 -22.958 46.722Zm12.508 54.082 11.624 -23.66 25.324 28.75 -36.778 17.762c-0.582 -26.078 -0.636 -21.902 -0.17 -22.852Zm12.578 -25.6L147.64 91.554c0.478 15.918 1.856 57.498 2.388 74.218Zm53.068 -63.972c-0.704 -0.132 -79.582 34.744 -80.236 33.776l-0.388 -11.098 80.624 -33.674Zm15.682 168.948L99.062 300.48a4.496 4.496 0 0 1 -3.312 0.374L16.836 273.78l95.774 -49.256Zm-27.062 -46.66c9.296 1.692 15.91 6.412 15.91 11.51 -0.916 16.096 -46.8 16.074 -47.2 -0.216 -0.132 -5.384 7.056 -10.19 16.988 -11.734 0 6.498 -0.414 9.954 1.636 11.068a3.174 3.174 0 0 0 3.32 -0.412c9.824 -5.68 9.346 -5.254 9.346 -10.216Zm-12.3 -16.034 10.3 -5.152V198c0 1.118 -0.87 1.738 -2.542 2.822 -0.8 0.308 -6.38 4.182 -7.136 3.834 -1.022 -0.324 -0.622 -24.914 -0.622 -24.914Zm62.2 -33.338 -103.72 51.864 -0.226 -10.158 94.696 -45.738a1 1 0 0 0 0.566 -0.934c-3.048 -96.906 -2.8 -91.2 -3.482 -91.654 -0.848 -1 -107.51 44.898 -108.388 44.8a1 1 0 0 0 -0.614 0.958l1.694 48.724 -13.78 5.788 -1.884 -57.566a3.272 3.272 0 0 1 1.966 -2.958l127.738 -52a3.336 3.336 0 0 1 4.346 2.11c0.472 2.434 1.142 36.64 2.03 68.364l-7.016 3.894c-0.722 0.578 -2.246 1.9 -1.3 3.09a52.896 52.896 0 0 0 8.566 7.898l0.42 20.528a3.78 3.78 0 0 1 -1.604 2.986Zm1.142 -31.086s18.8 -10.1 18.92 -10.13c0.428 0.148 10.516 7.618 15.216 10.822a36.54 36.54 0 0 0 5.2 3.268 6.482 6.482 0 0 0 1.296 4.722c-0.6 0.986 -1.25 2.29 -0.966 2.574s1.59 -0.234 2.626 -0.754a2.2 2.2 0 0 0 1.856 0.016 10.336 10.336 0 0 1 4.38 0.218l1.438 1.176c-2.66 2.23 -6.096 5.174 -8.372 7.246q-2.248 -0.252 -4.45 -0.516c0.638 -0.4 1.582 -1.1 0.956 -1.932 -0.902 -1.28 -2.672 0.894 -3.768 1.506 -1.914 -0.264 -4.4 -0.678 -4.4 -0.678a18.058 18.058 0 0 1 2.772 -1.776 1 1 0 1 0 -1 -1.738 24.452 24.452 0 0 0 -4.324 3.024 41.672 41.672 0 0 1 -11.55 -4.256l-5.246 -4.298a3.756 3.756 0 0 0 -4 -3.032ZM228 135a14.612 14.612 0 0 1 -5.076 -4.876c-1.096 -1.758 -3.7 -6.832 -0.158 -4 0.37 1.142 0.744 3.2 2.232 2.53a1 1 0 0 0 0.338 -1.372c-0.934 -1.564 -1.5 -5.438 0.2 -4.342 1.288 0.692 1.058 2.822 1.43 4.126a6.628 6.628 0 0 0 3.184 3.986A26.066 26.066 0 0 0 228 135Zm85.3 104.132a21.974 21.974 0 0 0 -3.11 5.528c-0.284 -1.726 -1.552 -3.564 -0.472 -5.178a29.336 29.336 0 0 1 13.642 -13.636 32.934 32.934 0 0 0 13.232 -15.67c1.118 -0.744 2 -0.954 1.918 0.382 -0.79 14.078 -18.9 17.71 -25.208 28.578Zm28.46 -56.648a48.868 48.868 0 0 1 -24.1 7.186 115.544 115.544 0 0 1 -25.746 -2.366 54.57 54.57 0 0 1 -19 -6.098 2.512 2.512 0 0 1 -1.282 -3.18l1.08 -12.516c26.714 6.47 41.778 -21.172 51.464 -40.412a1 1 0 0 0 -1.778 -0.916c-6.4 12.4 -16.058 31.116 -29.964 37.75 -23.184 8.916 -43.552 -9.086 -63 -23.728 -0.542 -0.156 -0.242 -0.788 -0.16 -1.122a21.964 21.964 0 0 1 4 -6.876c14.188 7.658 31.724 4.78 46.722 10.26a1 1 0 0 0 1.296 -0.628c-0.61 -3.182 6.136 -18.504 7.938 -22.972 5.286 -9.99 13.31 -23.816 26.284 -23.6a1 1 0 0 0 0 -2c-13.982 0.028 -22.39 13.926 -28.104 24.762 -0.082 0.184 -7.086 16.4 -8.078 22.086 -0.844 -0.282 -1.698 -0.536 -2.556 -0.772 3.056 -17.22 14.544 -42.216 30.544 -49.356a17.354 17.354 0 0 0 4.288 0.732 20.214 20.214 0 0 0 10.898 -3.8c14.182 6.914 18.578 23.554 20.286 37.906a244.55 244.55 0 0 1 0.852 56.616 3.14 3.14 0 0 1 -1.884 3.044Z" fill="#eab308" stroke-width="1"></path><path d="M229.478 115.22c0.4 0 0.058 0.082 5.708 -3.388a1 1 0 0 0 -1.058 -1.696l-5.18 3.238a1 1 0 0 0 0.53 1.846Z" fill="#eab308" stroke-width="1"></path><path d="m228.65 120.75 12.946 -7.768a1 1 0 1 0 -1.026 -1.714l-12.948 7.768a1 1 0 1 0 1.028 1.714Z" fill="#eab308" stroke-width="1"></path><path d="M239.322 120.8a1 1 0 0 0 -1.384 -0.294l-4.316 2.8a1 1 0 0 0 1.09 1.678l4.316 -2.8a1 1 0 0 0 0.294 -1.384Z" fill="#eab308" stroke-width="1"></path><path d="M240.706 122.972 236.6 126a1 1 0 0 0 1.188 1.612l4.102 -3.022a1 1 0 0 0 -1.188 -1.6Z" fill="#eab308" stroke-width="1"></path><path d="m247.466 120.688 0.648 -4.314a1 1 0 1 0 -1.976 -0.298l-0.508 3.378c-0.85 -0.116 -2.016 -1.134 -2.638 0 -0.946 1.706 4.394 3.012 4.474 1.234Z" fill="#eab308" stroke-width="1"></path><path d="m245.814 126.732 -4.1 2.8a1 1 0 0 0 1.128 1.65l4.1 -2.8a1 1 0 0 0 -1.128 -1.65Z" fill="#eab308" stroke-width="1"></path><path d="M254.092 126.856a37.946 37.946 0 0 0 2.384 -5.75 1 1 0 1 0 -1.872 -0.7l-1.574 4.2 -0.452 -0.452c-0.902 -0.928 -2.368 0.538 -1.414 1.416 0.696 0.63 1.75 2.256 2.928 1.286Z" fill="#eab308" stroke-width="1"></path><path d="M24.234 260.184s80.4 -40.26 80.488 -40.352a1 1 0 0 0 0.552 -0.916l-1.51 -67.972a1 1 0 0 0 -1.388 -0.9L20.8 184.354a1 1 0 0 0 -0.612 0.958c1.872 55.088 2.276 69.526 2.6 73.37 0.098 1.118 0.45 2.006 1.446 1.502Zm0.756 -2.616 17.752 -37.768 18.764 19.458Zm17.18 -41.242 -18.586 -19.274 34.692 -14.988Zm17.612 -32.768 1.69 52.786 -17.818 -18.478Zm43.478 34.772 -39.724 19.914 -0.514 -16 39.892 -19.54Zm-0.4 -17.834 -39.912 19.548 -0.6 -18.718 40.118 -18.514Zm-0.44 -19.866 -40.14 18.526 -0.6 -18.566S101.8 163.22 102.036 163.16Zm-7.664 -25.212 7.042 -2.96 0.19 8.544 -7.43 3.2c0.39 -8.966 0.442 -8.384 0.198 -8.784Zm-1.852 0.78 -0.388 8.896 -6.446 2.784c0 -9.046 0.054 -8.4 -0.134 -8.75ZM22.22 185.93l61.85 -26.016v8.828L22.548 195.32Zm19.038 32.334L24.6 253.716 22.676 199Z" fill="#eab308" stroke-width="1"></path><path d="m35.16 273.416 41 11.868c0.856 0.51 77.902 -43.8 78.668 -43.894a1 1 0 0 0 -0.264 -1.848l-39.058 -9.062c-0.744 -0.388 -79.842 41 -80.526 41.084a1 1 0 0 0 0.18 1.852Zm116.44 -32.506 -75.286 42.336 -11.264 -3.262L141.64 238.6Zm-12.902 -3c-0.49 0.616 -75.958 40.366 -75.952 41.4l-11.88 -3.438c0.388 -0.378 77.862 -39.648 77.986 -40.248Zm-23.288 -5.4 10.674 2.476c-0.5 0.6 -77.558 39.172 -77.574 40.2l-10.374 -3Z" fill="#eab308" stroke-width="1"></path><path d="M153.03 258.96c-17 -3.218 -15.756 -3.386 -16.218 -3.138l-22.228 12.086a1 1 0 0 0 0.188 1.836c15.75 4.498 15.138 4.76 15.684 4.436l22.874 -13.38a1 1 0 0 0 -0.3 -1.84Zm-23.2 13.274 -12.186 -3.71 19.8 -10.77 12.632 2.634Z" fill="#eab308" stroke-width="1"></path><path d="M80.816 186.092a1 1 0 0 0 1.626 -0.038l7.338 -10.788a1 1 0 0 0 -1.652 -1.126l-6.552 9.632 -1.748 -2.332a1 1 0 0 0 -1.6 1.2Z" fill="#eab308" stroke-width="1"></path><path d="M83.902 204.61c1.176 -0.152 0.324 -1.144 6.708 -9.446a1 1 0 1 0 -1.586 -1.218 72.276 72.276 0 0 0 -5.452 7.976c-0.692 -0.554 -1.966 -2.902 -3.066 -1.844a1 1 0 0 0 -0.056 1.414c0.688 0.574 2.71 3.438 3.452 3.118Z" fill="#eab308" stroke-width="1"></path><path d="M84 223.324a1 1 0 0 0 1.714 0.028l4.962 -7.984a1 1 0 0 0 -1.698 -1.058l-4.084 6.57 -1.54 -2.658a1 1 0 0 0 -1.73 1Z" fill="#eab308" stroke-width="1"></path><path d="M175.552 95.25a1 1 0 0 0 1.624 -0.046l9.712 -14.458a1 1 0 0 0 -1.66 -1.116l-8.932 13.298 -2.6 -3.42a1 1 0 0 0 -1.6 1.212Z" fill="#eab308" stroke-width="1"></path><path d="M187.232 106.954a74.46 74.46 0 0 0 -7.618 11l-2.52 -2.834a1 1 0 0 0 -1.496 1.33c0.472 0.352 3.576 4.5 4.2 4.218a1 1 0 0 0 0.876 -0.518 73.45 73.45 0 0 1 8.09 -11.926 1 1 0 0 0 -1.532 -1.27Z" fill="#eab308" stroke-width="1"></path><path d="M181.1 146.086a1 1 0 0 0 1.698 0.028l6.69 -10.358a1 1 0 0 0 -1.68 -1.086L182 143.68l-2.412 -4.018a1 1 0 0 0 -1.714 1.03Z" fill="#eab308" stroke-width="1"></path><path d="m158.378 323.1 -27.836 -11.222c-18.226 6.338 -53.986 21.266 -55.068 21.342a0.982 0.982 0 0 0 -0.516 1.466c0.052 1.4 -0.722 3.574 0.306 4.648l27.188 16.832a1 1 0 0 0 0.964 0.05l55.026 -26.758a1 1 0 0 0 0.562 -0.9v-4.314a1.082 1.082 0 0 0 -0.626 -1.144Zm-55.35 25.48 -24.8 -14.28c9.496 -3.69 47.4 -18.634 51.926 -20.418l25.332 10.212Z" fill="#eab308" stroke-width="1"></path><path d="M85.23 333.854a1 1 0 0 0 -0.2 1.844l18.99 10.142c0.65 0.348 -1.95 0.586 40.162 -18.1a1 1 0 0 0 -0.026 -1.828l-19.2 -8.2c-14.838 5.262 -38.642 16.108 -39.726 16.142Zm19.294 9.988 -16.648 -8.89c1.514 -0.614 3.758 -1.536 6.388 -2.622l17.2 8.31Zm9.29 -4.288 -17.074 -8.25c9.344 -3.87 22.1 -9.2 27.814 -11.586l16.746 7.15Z" fill="#eab308" stroke-width="1"></path><path d="M114.848 330.148c-2.222 0.162 -8.96 -0.072 -8.518 2.126a1 1 0 0 0 1.23 0.702 26.2 26.2 0 0 1 6.288 -0.816c0.092 0.86 -0.436 3.026 1 3a1 1 0 0 0 1 -1v-3.02a1 1 0 0 0 -1 -0.992Z" fill="#eab308" stroke-width="1"></path><path d="M118.4 327.4c1.88 -0.17 3.754 -0.2 5.634 -0.32a9.342 9.342 0 0 0 -0.25 2.13 1 1 0 0 0 2 0c-0.248 -1.24 1 -2.724 0.45 -3.834a1 1 0 0 0 -0.894 -0.4c-2.372 0.216 -4.746 0.216 -7.12 0.432a1 1 0 0 0 0.18 1.992Z" fill="#eab308" stroke-width="1"></path><path d="M138.09 321.278c3.974 0.2 2.892 -2.778 0.098 -1.932 -1.344 0.5 -1.774 1.714 -0.098 1.932Z" fill="#eab308" stroke-width="1"></path></g></svg>