<?xml version="1.0" standalone="no"?>
<!DOCTYPE svg PUBLIC "-//W3C//DTD SVG 20010904//EN"
 "http://www.w3.org/TR/2001/REC-SVG-20010904/DTD/svg10.dtd">
<svg version="1.0" xmlns="http://www.w3.org/2000/svg"
 width="400.000000pt" height="400.000000pt" viewBox="0 0 400.000000 400.000000"
 preserveAspectRatio="xMidYMid meet">

<g transform="translate(0.000000,400.000000) scale(0.100000,-0.100000)"
fill="#000000" stroke="none">
<path d="M1329 3837 c-135 -38 -199 -171 -150 -314 27 -80 27 -89 -6 -120
l-28 -26 68 6 c52 4 79 0 118 -14 62 -24 142 -24 194 0 54 24 119 100 135 156
32 113 -23 236 -129 289 -59 30 -142 39 -202 23z m163 -195 c-27 -42 -59 -96
-71 -119 -12 -24 -26 -43 -32 -43 -6 0 -24 11 -41 25 -16 14 -35 25 -43 25 -7
0 -18 7 -25 15 -10 13 -9 15 11 15 14 0 40 -8 59 -18 l34 -19 50 83 c59 97 98
144 104 126 2 -7 -19 -47 -46 -90z"/>
<path d="M940 3777 c-18 -37 -48 -43 -142 -27 -103 16 -138 9 -182 -40 -20
-22 -36 -44 -36 -49 0 -5 -18 -28 -40 -51 -24 -25 -42 -55 -46 -77 -11 -57 19
-134 76 -197 37 -40 50 -62 50 -84 0 -17 -5 -34 -10 -37 -18 -11 -11 -54 10
-65 17 -9 20 -8 20 7 0 22 17 50 25 42 3 -4 1 -18 -5 -33 -9 -24 -7 -28 16
-36 46 -18 54 -13 54 30 0 22 4 40 9 40 5 0 7 -18 4 -41 l-6 -40 34 3 c33 3
34 4 31 41 -2 22 1 37 7 37 6 0 11 -18 11 -39 l0 -40 30 11 c28 9 30 13 25 47
-5 27 -4 32 4 21 6 -8 11 -23 11 -33 0 -14 4 -16 19 -8 13 7 17 18 14 35 -3
15 3 35 16 53 22 30 40 129 41 219 0 28 7 65 16 83 10 20 13 42 9 59 l-7 27
-18 -25 c-15 -20 -18 -48 -22 -164 -3 -120 -6 -146 -24 -176 l-20 -35 -142 -3
-142 -3 6 43 c3 24 10 55 16 70 8 22 6 30 -11 47 -25 25 -27 54 -5 72 12 10
20 10 35 1 27 -17 29 -16 29 21 0 52 11 60 59 47 54 -14 110 1 158 43 60 53
79 133 49 202 l-13 30 -13 -28z"/>
<path d="M2053 3563 c-6 -16 5 -300 14 -350 l5 -33 -77 7 -78 6 7 -149 c4 -82
10 -166 13 -188 l6 -38 45 6 c25 3 82 6 128 6 l84 0 0 33 c0 17 3 56 6 85 l7
52 154 0 c126 0 155 3 159 15 3 8 2 133 -3 277 l-8 263 -110 6 c-279 17 -346
17 -352 2z m435 -20 l22 -5 0 -264 0 -264 -87 0 c-49 0 -118 3 -155 7 l-68 6
0 47 c0 26 -3 62 -6 79 -6 30 -8 31 -59 31 l-52 0 -6 83 c-4 45 -7 131 -7 191
l0 109 198 -7 c108 -4 207 -10 220 -13z m-342 -378 l31 -5 7 -92 c3 -50 6
-122 6 -160 l0 -68 -119 0 -118 0 -7 113 c-3 61 -9 137 -12 167 l-6 55 93 -3
c52 -1 108 -5 125 -7z"/>
<path d="M2289 3463 c-23 -4 -27 -10 -32 -55 -8 -65 -26 -83 -80 -83 -40 0
-42 -1 -45 -33 -3 -27 1 -34 23 -42 32 -12 45 -6 45 21 0 29 59 78 95 79 26 0
35 -8 62 -52 24 -41 28 -54 17 -56 -9 -2 -14 -17 -14 -48 l0 -44 55 0 55 0 0
40 c0 36 -3 40 -31 48 -23 5 -41 22 -65 60 -25 38 -30 52 -19 52 11 0 15 12
15 44 0 45 -19 78 -43 75 -7 -1 -24 -4 -38 -6z m61 -52 c0 -41 -11 -51 -56
-51 -22 0 -24 4 -24 45 l0 45 40 0 c40 0 40 0 40 -39z m-170 -126 c0 -16 -6
-25 -15 -25 -9 0 -15 9 -15 25 0 16 6 25 15 25 9 0 15 -9 15 -25z m280 -95 c0
-28 -2 -30 -40 -30 -38 0 -40 2 -40 30 0 28 2 30 40 30 38 0 40 -2 40 -30z"/>
<path d="M2000 3083 c0 -13 137 -16 145 -4 4 8 -18 11 -69 11 -42 0 -76 -3
-76 -7z"/>
<path d="M2005 3000 c3 -5 30 -10 60 -10 30 0 57 5 60 10 4 6 -18 10 -60 10
-42 0 -64 -4 -60 -10z"/>
<path d="M1995 2900 c-4 -6 20 -10 64 -10 41 0 71 4 71 10 0 6 -28 10 -64 10
-36 0 -68 -4 -71 -10z"/>
<path d="M910 3445 c0 -14 5 -25 10 -25 6 0 10 11 10 25 0 14 -4 25 -10 25 -5
0 -10 -11 -10 -25z"/>
<path d="M3286 3449 c-15 -68 -46 -243 -46 -262 0 -13 4 -17 9 -12 11 12 55
284 48 292 -4 3 -8 -5 -11 -18z"/>
<path d="M787 3454 c-10 -11 -8 -44 2 -44 6 0 13 4 16 10 8 12 -9 43 -18 34z"/>
<path d="M867 3423 c-5 -7 -3 -21 3 -32 15 -28 13 -31 -19 -31 -16 0 -39 -10
-55 -25 -25 -23 -25 -25 -7 -35 24 -13 58 -13 66 -1 3 5 18 9 34 9 47 -2 70
25 32 37 -17 5 -22 13 -40 70 -5 14 -9 16 -14 8z"/>
<path d="M2950 3303 c0 -15 82 -143 91 -143 11 0 12 -1 -44 88 -37 59 -47 71
-47 55z"/>
<path d="M1737 3264 c-4 -4 -7 -28 -7 -53 0 -49 -12 -77 -28 -68 -5 4 -65 -26
-133 -65 -68 -39 -141 -81 -161 -92 l-37 -21 -142 74 c-78 41 -174 84 -213 97
-64 20 -73 21 -94 8 -81 -52 -199 -60 -291 -19 l-58 27 -69 -34 c-92 -44 -222
-173 -282 -279 -81 -145 -127 -317 -121 -457 3 -63 10 -90 37 -144 39 -80 141
-186 256 -268 l78 -55 -6 -42 c-20 -153 -28 -301 -24 -472 l4 -195 -38 -120
c-43 -134 -118 -431 -145 -574 -12 -66 -14 -95 -6 -100 7 -5 4 -26 -10 -70
-25 -74 -33 -66 106 -117 85 -32 101 -35 113 -23 13 12 10 20 -17 57 -22 31
-29 50 -25 66 5 21 10 23 36 15 29 -8 30 -7 74 73 60 110 158 333 217 493 80
217 139 433 200 734 30 148 40 173 60 153 13 -13 4 -68 -58 -351 l-36 -164 22
-45 c19 -40 24 -76 36 -297 8 -138 17 -300 21 -361 4 -76 11 -118 23 -135 9
-14 18 -50 21 -80 l5 -55 88 -8 c154 -15 208 15 123 69 -49 31 -62 67 -27 77
21 5 27 36 61 275 69 490 65 1002 -10 1338 -8 35 -8 55 0 75 10 23 3 64 -45
266 -32 131 -60 243 -62 250 -4 9 8 8 41 -3 129 -44 314 53 499 262 72 81 78
91 72 121 -3 18 -2 33 2 33 4 0 27 18 50 40 38 36 41 43 33 70 -5 17 -9 34 -9
38 0 13 -32 14 -47 1 -8 -6 -15 -10 -17 -8 -1 2 -10 17 -19 34 -17 31 -30 40
-41 29z m43 -76 c0 -9 10 -33 21 -53 21 -35 21 -36 3 -50 -27 -21 -40 -18 -59
11 -14 21 -15 31 -6 51 6 13 11 43 11 66 1 41 1 42 15 17 8 -14 14 -33 15 -42z
m70 14 c0 -5 -12 -14 -27 -21 -28 -13 -28 -13 -9 8 20 22 36 27 36 13z m0 -37
c-7 -8 -20 -15 -28 -15 -13 0 -12 3 4 15 25 19 40 19 24 0z m5 -34 c-8 -13
-35 -15 -35 -2 0 5 8 11 18 13 21 5 26 2 17 -11z m-866 0 c10 -7 -5 -40 -71
-152 -46 -79 -89 -144 -95 -144 -12 0 -295 250 -301 266 -2 4 5 12 15 17 15 8
39 -7 133 -85 63 -52 127 -103 142 -114 l26 -19 64 120 c35 66 65 120 68 120
3 0 11 -4 19 -9z m734 -33 c14 -18 32 -47 41 -64 l15 -32 -105 -111 c-112
-118 -210 -191 -299 -222 -64 -22 -140 -24 -175 -4 -27 16 -54 20 -46 7 13
-21 116 -515 111 -531 -13 -42 -264 -98 -475 -107 l-125 -6 -82 120 -83 120 0
116 c0 64 -4 116 -8 116 -14 0 -92 -85 -92 -101 0 -8 56 -95 125 -194 l124
-179 -27 -16 c-34 -21 -82 -77 -82 -96 0 -24 -18 -16 -118 58 -120 88 -228
196 -267 268 -29 53 -30 60 -30 180 1 140 16 206 80 340 60 124 163 251 259
317 l30 21 160 -144 c88 -79 165 -144 172 -144 6 0 52 70 103 155 103 172 92
165 176 122 22 -10 88 -46 146 -78 58 -33 112 -59 120 -59 8 1 82 41 164 90
83 49 153 89 157 89 4 1 18 -14 31 -31z m-1245 -750 l-3 -43 -31 45 -32 45 32
40 31 39 3 -42 c2 -23 2 -61 0 -84z m230 -361 c27 -25 28 -34 2 -42 -16 -5
-17 -9 -8 -24 11 -18 13 -18 56 0 31 14 49 16 55 10 6 -6 9 -13 6 -15 -10 -10
-273 -126 -286 -126 -23 0 -9 23 23 40 16 8 31 16 33 17 2 1 -6 17 -17 35 -21
33 -21 34 -2 63 22 33 89 77 104 68 6 -3 21 -15 34 -26z m482 -1572 c0 -20
-36 -37 -81 -39 -42 -1 -44 0 -53 32 -7 21 -5 22 63 22 56 0 71 -3 71 -15z
m-839 -36 c64 -23 75 -44 33 -59 -27 -11 -98 2 -109 20 -6 10 4 60 13 60 3 0
31 -10 63 -21z m907 -30 c48 -30 27 -39 -87 -39 -90 0 -110 3 -115 16 -13 35
-7 42 32 37 22 -3 52 1 72 10 28 12 39 12 55 2 11 -6 30 -18 43 -26z m-962
-34 c16 -8 47 -15 69 -15 35 0 43 -5 68 -39 15 -22 27 -42 27 -45 0 -12 -31
-5 -124 31 -71 26 -96 40 -91 50 3 8 5 19 5 24 0 13 13 11 46 -6z"/>
<path d="M3448 3200 c-38 -27 -68 -52 -68 -55 0 -13 21 -1 76 41 72 55 81 64
69 64 -6 0 -40 -23 -77 -50z"/>
<path d="M2634 3036 c3 -32 6 -74 6 -92 l0 -34 100 0 101 0 -3 82 c-3 82 -3
82 -33 89 -16 4 -63 9 -104 11 l-73 4 6 -60z m183 30 c1 -1 5 -34 8 -74 l8
-73 -89 3 -89 3 -3 77 -3 77 83 -6 c46 -3 84 -6 85 -7z"/>
<path d="M3025 3012 c-55 -30 -75 -60 -75 -113 0 -25 7 -42 24 -58 20 -19 23
-32 24 -91 0 -39 -4 -73 -9 -76 -14 -8 -11 -34 6 -50 8 -8 19 -32 25 -53 13
-49 41 -74 85 -75 55 -2 61 -19 19 -51 -59 -45 -109 -137 -159 -291 l-46 -141
-75 -23 c-42 -12 -77 -20 -79 -19 -2 2 1 42 6 89 13 126 13 540 1 572 -21 51
-49 57 -344 73 -150 8 -370 18 -488 21 l-215 6 -35 -24 c-70 -48 -84 -120 -85
-423 0 -211 2 -233 20 -269 36 -72 57 -80 220 -86 l144 -5 -42 -74 -42 -74
-207 6 -208 6 0 -79 0 -80 40 0 40 0 0 -132 c1 -240 18 -1180 22 -1183 6 -6
486 -10 492 -5 6 7 35 237 106 830 28 234 53 437 56 452 l6 28 336 -6 c185 -4
338 -8 340 -9 2 -2 0 -14 -4 -29 -6 -25 -8 -25 -63 -20 -148 16 -417 -83 -501
-184 -65 -79 -95 -263 -70 -445 12 -91 86 -507 96 -538 2 -9 13 -19 23 -22 11
-3 22 -20 28 -45 13 -49 9 -53 -85 -104 -54 -30 -60 -37 -47 -48 17 -14 227
-27 270 -16 l28 7 -7 104 c-7 98 -6 104 14 115 25 13 26 10 34 -78 7 -78 10
-82 47 -82 25 0 29 4 29 28 0 15 9 140 20 277 11 138 23 287 26 332 4 45 10
87 14 93 5 7 20 9 44 5 32 -7 40 -14 66 -64 15 -31 53 -95 83 -143 l55 -87 7
-240 c6 -178 11 -244 21 -252 7 -6 28 -9 46 -7 l33 3 -2 203 -1 204 22 -21
c12 -12 29 -21 38 -21 23 0 39 -47 33 -98 -11 -89 44 -205 111 -237 32 -15 37
-15 59 -1 31 20 39 66 31 159 -11 106 -25 156 -51 173 -26 17 -38 60 -23 84 8
13 -1 54 -40 168 l-50 152 156 0 157 0 84 -347 c46 -192 87 -358 92 -371 7
-19 15 -23 41 -20 30 3 33 6 31 33 -1 17 -31 191 -67 388 -50 267 -64 362 -56
377 13 24 13 66 0 90 -8 15 -6 20 9 25 33 10 88 80 110 140 12 31 34 123 48
204 24 129 27 172 27 371 1 212 0 228 -21 273 -13 27 -35 65 -51 85 -26 33
-27 39 -15 62 7 14 13 35 13 48 0 66 -83 181 -185 257 -38 29 -77 61 -86 71
-37 43 -61 109 -68 188 -9 99 -32 149 -84 187 -45 33 -61 36 -212 43 -106 6
-112 5 -160 -22z m60 -231 c49 -19 50 -20 47 -57 -3 -38 -3 -38 16 -20 11 10
31 16 44 14 34 -5 39 -62 6 -79 -13 -6 -24 -13 -26 -14 -2 -1 13 -29 32 -61
20 -32 32 -62 28 -66 -17 -16 -59 -19 -71 -4 -8 9 -27 16 -43 16 -45 0 -66 17
-79 63 -7 23 -19 50 -27 59 -10 12 -11 21 -3 37 7 12 9 37 5 60 -7 41 -1 71
13 71 4 0 31 -9 58 -19z m-462 -110 c48 -5 99 -16 111 -25 34 -22 39 -85 27
-395 -11 -295 -10 -291 -84 -309 -59 -15 -956 1 -986 18 -43 22 -54 72 -59
265 -6 228 12 358 59 434 l21 34 411 -7 c227 -3 452 -11 500 -15z m656 -291
c10 -52 26 -112 34 -132 14 -34 14 -37 -5 -55 -38 -33 -86 -118 -117 -208 -42
-116 -68 -150 -150 -188 -58 -27 -78 -31 -180 -35 -64 -3 -160 1 -214 8 l-98
12 3 55 3 56 105 29 c58 16 141 40 186 53 91 28 90 26 134 170 32 100 83 203
126 254 38 44 132 97 146 83 4 -4 16 -50 27 -102z m438 -150 c71 -30 127 -93
149 -167 29 -95 24 -365 -9 -568 -31 -189 -46 -244 -85 -306 -54 -84 -156
-109 -366 -89 -71 6 -151 18 -178 26 -90 27 -138 89 -152 199 -6 39 1 85 28
205 19 85 44 205 56 265 58 298 127 409 280 452 69 20 213 11 277 -17z m-1454
-360 l-28 -50 -97 0 c-88 0 -97 -2 -103 -20 -5 -16 -15 -20 -57 -20 -27 0 -48
3 -46 8 2 4 18 35 36 70 l32 62 146 0 145 0 -28 -50z m197 45 c0 -2 -17 -13
-37 -24 -21 -10 -49 -31 -62 -45 -19 -20 -34 -26 -68 -26 l-43 0 15 25 c8 14
22 36 30 50 14 23 21 25 90 25 41 0 75 -2 75 -5z m88 -11 c-11 -12 -25 -14
-47 -9 -47 10 -37 25 16 25 43 0 46 -1 31 -16z m-55 -25 c32 -8 37 -14 37 -38
0 -45 -45 -56 -81 -20 -19 19 -26 20 -55 11 -19 -5 -34 -8 -34 -6 0 5 82 64
89 64 3 0 23 -5 44 -11z m622 -220 c-19 -89 -37 -165 -39 -167 -2 -2 -27 8
-55 22 -28 14 -57 26 -66 26 -19 0 -19 5 5 103 28 112 34 123 68 130 16 3 49
21 73 40 26 20 45 29 47 22 2 -7 -13 -86 -33 -176z m-685 126 c0 -13 -24 -15
-152 -15 -160 0 -228 7 -228 21 0 5 86 9 190 9 162 0 190 -2 190 -15z m80 0
c10 3 21 1 25 -5 4 -6 -10 -10 -39 -10 -35 0 -46 4 -46 15 0 13 4 14 20 5 12
-6 29 -8 40 -5z m-220 -34 c327 -5 614 -6 638 -4 23 3 42 2 42 -2 0 -4 -7 -31
-16 -61 l-15 -54 -257 0 c-141 0 -463 3 -714 7 l-458 6 0 64 0 64 93 -6 c50
-3 360 -10 687 -14z m-60 -134 c0 -1 -11 -81 -25 -177 -20 -145 -96 -802 -120
-1052 l-7 -66 -72 -4 c-39 -2 -144 -1 -232 1 l-162 3 -6 262 c-3 143 -9 435
-12 649 l-6 387 321 0 c177 0 321 -1 321 -3z m848 -481 c1 -2 -3 -26 -10 -54
-8 -39 -9 -61 0 -89 6 -20 10 -39 7 -41 -5 -6 -252 18 -325 32 l-65 12 2 64
c2 36 5 70 7 75 3 9 375 9 384 1z m123 -15 c62 -28 202 -43 354 -39 l130 3 3
-38 c4 -43 -16 -73 -58 -89 -13 -5 -135 -9 -270 -8 -286 1 -275 -3 -275 94 0
97 28 116 116 77z m-448 -161 c4 -4 3 -56 -3 -116 -6 -60 -19 -220 -29 -357
-10 -136 -21 -250 -25 -254 -17 -18 -27 25 -36 162 -9 139 -5 296 16 522 l6
62 31 -6 c18 -3 36 -9 40 -13z m986 -347 c34 -192 65 -361 68 -376 5 -26 3
-28 -18 -25 -22 3 -28 22 -110 358 -48 195 -87 356 -86 357 3 2 72 31 77 32 3
1 34 -155 69 -346z m-634 245 c4 -40 10 -209 14 -376 l6 -302 -27 0 c-26 0
-26 1 -32 83 -3 45 -8 161 -11 257 -3 96 -8 228 -11 293 l-7 117 30 0 c30 0
30 0 38 -72z m229 -300 c5 -23 3 -28 -12 -28 -11 0 -31 -9 -45 -20 l-26 -21
-11 22 c-7 11 -10 22 -8 23 11 9 92 55 94 53 1 -1 4 -14 8 -29z m55 -77 c6
-10 16 -62 22 -114 14 -120 3 -167 -40 -167 -34 0 -56 23 -76 79 -27 77 -16
179 22 209 25 18 61 15 72 -7z m-809 -145 c0 -55 -34 -77 -96 -60 -13 3 -24
19 -31 44 -11 44 -9 46 80 49 l47 1 0 -34z m0 -116 l0 -50 -125 0 c-77 0 -125
4 -125 10 0 6 4 10 8 10 5 0 34 16 65 35 44 26 72 35 115 38 31 2 58 4 60 5 1
1 2 -20 2 -48z"/>
<path d="M3062 2725 c0 -16 2 -22 5 -12 2 9 2 23 0 30 -3 6 -5 -1 -5 -18z"/>
<path d="M3115 2619 c-4 -5 -19 -15 -33 -21 -15 -6 -22 -12 -15 -15 7 -2 21 1
33 7 20 11 21 10 10 -9 -6 -12 -7 -21 -2 -21 9 0 32 43 32 60 0 13 -17 13 -25
-1z"/>
<path d="M1710 2333 l0 -291 103 -6 c56 -3 280 -7 497 -8 l395 -3 6 145 c4 80
7 208 8 286 l1 141 -292 7 c-161 3 -389 9 -505 12 l-213 7 0 -290z m867 257
l123 0 0 -277 0 -276 -352 6 c-194 4 -413 7 -485 7 l-133 0 0 277 0 276 362
-6 c199 -4 417 -7 485 -7z"/>
<path d="M1965 2540 c-92 -6 -87 -6 68 -8 106 -1 167 2 167 8 0 11 -63 11
-235 0z"/>
<path d="M2355 2530 c108 -11 263 -11 270 0 4 7 -54 9 -167 8 -135 -1 -158 -3
-103 -8z"/>
<path d="M2080 2451 c199 -15 550 -21 550 -11 0 6 -54 10 -133 10 -74 0 -223
2 -333 4 -162 4 -177 3 -84 -3z"/>
<path d="M2095 2379 c57 -11 195 -11 195 1 0 6 -45 10 -117 9 -90 -1 -109 -3
-78 -10z"/>
<path d="M2468 2363 c28 -2 76 -2 105 0 28 2 5 3 -53 3 -58 0 -81 -1 -52 -3z"/>
<path d="M1830 2270 l0 -70 84 0 c46 0 91 -3 100 -6 33 -13 30 26 -5 62 l-34
35 -31 -37 c-30 -36 -31 -36 -37 -13 l-6 23 -27 -24 -27 -25 19 33 c21 36 26
38 44 17 11 -14 16 -12 39 15 l26 32 24 -26 c33 -35 41 -33 41 14 l0 40 -105
0 -105 0 0 -70z m96 49 c10 -17 -13 -36 -27 -22 -12 12 -4 33 11 33 5 0 12 -5
16 -11z"/>
<path d="M2100 2265 l0 -75 105 0 c92 0 105 2 105 17 0 9 -15 29 -32 44 l-33
28 -33 -37 c-18 -20 -30 -31 -26 -23 13 25 -19 31 -45 8 l-25 -22 23 33 c25
35 31 38 49 20 10 -10 18 -6 37 17 21 27 25 28 37 15 7 -9 21 -22 31 -29 16
-12 17 -10 17 33 l0 46 -105 0 -105 0 0 -75z m98 38 c-4 -22 -22 -20 -26 1 -2
10 3 16 13 16 10 0 15 -7 13 -17z"/>
<path d="M2377 2268 c-12 -96 -10 -98 104 -98 96 0 99 1 98 23 0 12 -13 32
-30 46 l-30 23 -34 -38 c-19 -22 -32 -32 -29 -23 8 26 -15 33 -38 12 -21 -18
-21 -18 -9 4 15 30 28 36 48 24 14 -8 23 -4 40 17 l21 27 31 -29 31 -30 0 47
0 47 -99 0 -98 0 -6 -52z m93 17 c0 -8 -7 -15 -15 -15 -8 0 -15 7 -15 15 0 8
7 15 15 15 8 0 15 -7 15 -15z"/>
<path d="M3501 2129 c-73 -13 -164 -62 -196 -109 -44 -63 -65 -134 -101 -344
-40 -234 -52 -364 -36 -392 9 -15 11 -3 12 59 0 149 71 527 117 625 38 80 130
138 238 149 30 3 52 10 49 14 -6 10 -9 10 -83 -2z"/>
</g>
</svg>
