<svg width="214" height="48" viewBox="0 0 214 48" fill="none" xmlns="http://www.w3.org/2000/svg">
<path d="M13 3.33333C10.8666 5.06666 8.46664 6.66666 7.66664 6.66666C6.99998 6.8 4.99998 8.53333 3.26664 10.6667C0.333309 14.4 0.33331 14.5333 2.99998 15.3333C6.06664 16.2667 5.66664 20.1333 2.19998 24.1333C0.466643 26 0.599976 26.5333 2.33331 28C4.06664 29.4667 4.59998 28.9333 6.33331 24.9333C7.39998 22.2667 8.33331 19.4667 8.33331 18.6667C8.33331 16.6667 9.93331 17.0667 13.2666 19.8667L16.2 22.2667L13 34.8C11.1333 41.7333 9.66664 47.4667 9.66664 47.6C9.66664 47.8667 11.4 48 13.5333 48C16.2 48 17.5333 47.2 18.0666 45.3333C19.1333 41.4667 29.5333 41.4667 30.6 45.3333C31.1333 47.2 32.4666 48 35.2666 48C38.3333 48 39 47.4667 38.4666 45.6C38.0666 44.4 36.4666 38 34.8666 31.6C32.2 20.8 32.2 19.7333 34.2 17.4667C35.4 16.2667 36.3333 14.5333 36.3333 13.7333C36.3333 13.0667 37.8 11.0667 39.6666 9.33333C41.5333 7.6 42.6 5.73333 42.0666 5.2C40.2 3.6 26.0666 -2.5034e-06 21.4 -2.5034e-06C18.7333 -2.5034e-06 15.5333 1.2 13 3.33333ZM26.6 29.3333L27.9333 36H23.9333C21.1333 36 20.2 35.4667 20.7333 34.1333C21.1333 33.0667 21.9333 30 22.4666 27.4667C23.6666 20.8 25.1333 21.4667 26.6 29.3333Z" fill="white"/>
<path d="M162.6 11.6L155 19.3333V14.2667V9.2L149.4 9.6L143.8 10L140.467 23.3333C138.733 30.6667 136.867 35.7333 136.6 34.6667C136.2 33.6 134.6 27.6 133 21.3333L130.2 10L124.6 9.6L119 9.2V28.5333V48H123H127V38.4C127 27.3333 128.2 27.6 131.133 39.0667C133 46.8 133.4 47.3333 137 47.3333C140.733 47.3333 141 46.9333 143.267 38L145.4 28.6667L145.533 38.2667L145.667 48H150.333H155V38.5333C155 33.3333 154.333 27.8667 153.533 26.2667C152.733 24.6667 155.933 27.2 160.867 32C168.6 39.6 172.2 44.4 168.333 42C167.533 41.4667 167 42.6667 167 44.5333C167 47.3333 167.667 48 170.333 48C173.267 48 173.667 47.4667 173.667 42.8C173.667 40 174.467 36.9333 175.533 36C177.133 34.8 178.067 35.6 181 41.2C183.933 47.0667 184.867 48 188.333 48H192.333V28.6667V9.33333H188.333C184.867 9.33333 184.333 9.86666 184.333 12.9333C184.333 16.5333 184.2 16.5333 177.933 10.2667C174.467 6.8 171.267 4 171 4C170.6 4 166.867 7.46666 162.6 11.6ZM167 23.6V29.7333L163.667 26.6667C159.8 22.9333 159.533 21.7333 162.467 18.5333C165.667 15.0667 167 16.5333 167 23.6ZM181.667 22.4C181.667 24.4 181.4 24.4 180.333 22.6667C178.6 20 178.6 18.2667 180.333 19.3333C181.133 19.7333 181.667 21.2 181.667 22.4Z" fill="white"/>
<path d="M45.9333 25.6C44.3333 35.3333 43 43.7333 43 44.2667C43 44.8 44.6 44.6667 46.4667 44C51 42.2667 51 42.2667 51 45.3333C51 47.7333 51.9333 48 61.6667 48C70.2 48 72.3333 47.6 72.3333 46C72.3333 44.5333 70.7333 44 65.6667 44C59.8 44 59 43.6 59 41.2C59 39.2 61 37.6 67 34.9333L75 31.2L67 23.3333C61.9333 18.2667 59 14.2667 59 12.4C59 10 58.2 9.33333 55.8 9.33333C54.0667 9.33333 51.8 9.06666 50.7333 8.66666C49.4 8.13333 48.2 12.1333 45.9333 25.6ZM63.6667 26.6667C66.0667 29.2 65.9333 29.3333 58.4667 32.6667C49.5333 36.6667 49.6667 36.6667 49.8 33.6C49.8 32.4 50.2 32 50.4667 32.8C51 34 52.2 34 55 32.9333C58.0667 31.7333 59 30.5333 59 27.7333C59 23.3333 60.3333 23.0667 63.6667 26.6667Z" fill="white"/>
<path d="M83 17.8666C83 25.4666 83.4 26.5333 86.4667 28.6666C88.3333 29.8666 90.0667 30.6666 90.3333 30.4C90.7333 30 91.4 15.4666 91.1333 11.6C91 9.99997 89.8 9.3333 87 9.3333H83V17.8666Z" fill="white"/>
<path d="M99 20C99 25.8666 99.5333 30.6666 100.2 30.6666C102.2 30.6666 106.867 26.1333 107.133 24C107.267 22.9333 107.267 19.2 107.133 15.6C107 9.59996 106.867 9.33329 103 9.33329H99V20Z" fill="white"/>
<path d="M204.333 28.6667V48H209H213.667V28.6667V9.33333H209H204.333V28.6667Z" fill="white"/>
<path d="M83.2667 41.0666L83.6667 47.3333L95.4 47.7333L107 48.1333V42C107 38.6666 106.467 36 105.8 36C102.733 36 100.067 38 98.8667 40.9333C97.4 45.0666 91.9334 44.8 91.2667 40.6666C91 38.9333 89.2667 37.2 86.8667 36.4L82.8667 34.8L83.2667 41.0666Z" fill="white"/>
</svg>
