<svg xmlns="http://www.w3.org/2000/svg" fill="none" viewBox="0 0 400 400" id="Media-Content-Multiple-Content--Streamline-Milano.svg" height="400" width="400"><desc>Media Content Multiple Content Streamline Illustration: https://streamlinehq.com</desc><g id="media-content-multiple-content--media-content-multiple-content"><g id="details"><path id="vector" fill="#eab308" d="M134.524 359.63c0 1.126 0.066 1.098 0.57 1.054 2.102 -0.184 8.774 -1.44 9.232 0.8 0.444 2.184 -7 3.04 -9.25 3.35 -0.35 0.048 -0.42 0.094 -0.4 0.628 0.286 10.18 0.622 13.686 -0.916 13.74 -0.716 0.024 -1.552 -0.57 -1.788 -2.112 -0.586 -3.526 -0.9866 -7.078 -1.2 -10.646 -0.108 -1.636 0.06 -1.158 -1.34 -1.162 -2.2988 0.086 -4.6006 0.026 -6.892 -0.178 -0.3016 0.01 -0.5982 -0.078 -0.8456 -0.252 -0.2472 -0.172 -0.4322 -0.42 -0.527 -0.708 -0.095 -0.286 -0.0948 -0.594 0.0006 -0.882 0.0952 -0.286 0.2804 -0.534 0.528 -0.706 1.876 -1.4 3.584 -0.838 8.6 -1.444 0.52 -0.062 0.434 -0.564 0.434 -1.126 0.018 -10.526 -0.22 -10.52 0.782 -11.164 0.884 -0.57 1.704 0 2.04 1 0.6272 3.232 0.9526 6.516 0.972 9.808Z" stroke-width="1"></path><path id="vector_2" fill="#eab308" d="M183 16.86798c0.062 -1.4 0.284 -2.71 1.686 -2.628 1.826 0.106 0.938 3.054 1.534 10.09002 4.018 0.108 8.058 0.022 7.2 1.054 -1.9508 1.0634 -4.073 1.7768 -6.27 2.108 -1.574 0.264 -0.878 -0.14 -1.31 7.94 -0.2208 1.344 -0.288 2.7088 -0.2 4.068 0.118 1.014 -1.368 0.502 -1.758 -0.656 -1.652 -4.904 -0.87 -10.038 -1.25 -10.766 -0.068 -0.13 -7.826 0.88 -7.278 -2.214 0.43 -2.436 7.456 -0.444 7.4 -1.74 0.02 0.2 0.046 -2.464 0.246 -7.25602Z" stroke-width="1"></path><path id="vector_3" fill="#eab308" d="M355.32 66.212c1.042 -0.0028 2.074 0.2036 3.034 0.6072 0.962 0.4036 1.832 0.996 2.558 1.742 0.728 0.7462 1.298 1.6308 1.678 2.6014 0.378 0.9708 0.56 2.0076 0.53 3.0494 -0.012 1.5736 -0.492 3.1082 -1.378 4.4088 -0.886 1.3006 -2.138 2.3086 -3.598 2.896 -1.46 0.5874 -3.062 0.7278 -4.602 0.4032 -1.54 -0.3246 -2.948 -1.0996 -4.046 -2.2264 -1.1 -1.1268 -1.838 -2.5546 -2.124 -4.1022 -0.286 -1.5476 -0.104 -3.1452 0.52 -4.5898 0.624 -1.4448 1.664 -2.6712 2.986 -3.524 1.322 -0.8528 2.868 -1.2934 4.442 -1.2656Zm-5.4 7.628c-0.022 1.0522 0.268 2.0876 0.834 2.9744 0.568 0.887 1.384 1.5858 2.35 2.0076 0.964 0.4218 2.032 0.5478 3.068 0.3618 1.036 -0.1858 1.992 -0.6752 2.75 -1.406 0.758 -0.7308 1.282 -1.6702 1.504 -2.6988 0.224 -1.0286 0.136 -2.1004 -0.252 -3.0792 -0.386 -0.9788 -1.056 -1.8208 -1.922 -2.419 -0.866 -0.598 -1.89 -0.9256 -2.942 -0.9408 -0.696 -0.0166 -1.39 0.1054 -2.038 0.3584 -0.65 0.253 -1.242 0.6324 -1.744 1.116 -0.502 0.4836 -0.902 1.0618 -1.18 1.7014 -0.276 0.6394 -0.422 1.3274 -0.432 2.0242h0.004Z" stroke-width="1"></path></g><g id="image-1"><path id="vector_4" fill="#eab308" d="M81.974 88.484c-0.0408 4.255 -1.7114 8.3326 -4.6676 11.3934 -2.9562 3.0608 -6.9732 4.872 -11.2244 5.0606 -9.768 0.64 -16.262 -6.956 -16.672 -15.974 -1.036 -22.676 32.932 -22.51 32.564 -0.48Zm-25.6 -9.95c-1.5412 1.5178 -2.6792 3.3964 -3.311 5.4652 -0.6318 2.069 -0.7374 4.2628 -0.307 6.3828 2.318 12.626 16.446 14.716 23.07 5.6 1.8602 -2.398 2.8206 -5.3724 2.7144 -8.4054 -0.1064 -3.033 -1.2728 -5.9328 -3.2964 -8.1946 -4.188 -4.544 -12.926 -6.772 -18.866 -0.848h-0.004Z" stroke-width="1"></path><path id="Subtract" fill="#eab308" fill-rule="evenodd" d="M108.3656 141.9692C87.474 151.2366 67.8462 159.7702 65.398 160.344c-0.2768 0.0648 -0.5384 0.1342 -0.7862 0.1996 -1.2978 0.3436 -2.2148 0.5862 -2.9218 -0.4416 -0.842 -1.224 -34.042 -74.724 -35.6 -78.572 -2.0354 -5.009 -1.6756 -5.2574 -0.6896 -5.938 0.0294 -0.0202 0.0592 -0.0408 0.0896 -0.062 1.978 -1.372 97.51 -43.96 99.558 -43.82 1.4204 0.0974 1.738 0.7496 4.1856 5.7754 0.568 1.1662 1.2506 2.5678 2.0884 4.2526 0.997 2.005 4.5048 9.356 8.9018 18.6794 -1.5068 0.0354 -2.9662 0.0696 -4.3744 0.1028 -1.3244 -2.8578 -2.6378 -5.69 -3.861 -8.3272 -3.361 -7.248 -6.0398 -13.0246 -6.3924 -13.815 -1.4152 -3.1376 -1.5812 -3.0636 -2.4562 -2.6726l-0.0238 0.0106c-78.2408 35.577 -80.2176 36.38 -88.0132 39.5466 -1.5322 0.6226 -3.2894 1.3364 -5.8948 2.4234 -0.0798 0.0334 -0.1556 0.0636 -0.227 0.0918 -0.6474 0.2574 -0.9252 0.3678 -0.437 1.3982C37.236 97.516 60.8 149.2 60.592 148.998c0.7324 0.6508 0.802 0.4894 1.6212 -1.4108 0.4246 -0.985 1.0508 -2.437 2.0748 -4.4852 0.547 -1.0952 1.0802 -2.1644 1.6004 -3.2078 16.832 -33.7556 20.1286 -40.3666 41.5156 -25.1102 0.1146 0.082 0.2222 0.1608 0.323 0.2348 0.0076 0.0054 0.015 0.011 0.0226 0.0164 0.0292 1.7106 0.0608 3.4324 0.0948 5.1624 -1.3252 -0.6212 -2.9952 -1.7502 -4.8394 -2.9968 -5.2598 -3.5554 -11.9362 -8.0686 -16.067 -4.4928 -6.968 6.044 -23.258 40.864 -23.698 42.044 0.1042 0.247 0.1946 0.4738 0.2764 0.6792 0.4454 1.118 0.6374 1.5996 1.4416 1.2448 17.0078 -7.5264 31.3334 -13.8506 43.2878 -19.1174 0.0388 1.471 0.0788 2.9416 0.1198 4.4106Z" clip-rule="evenodd" stroke-width="1"></path></g><g id="image-3"><path id="vector_5" fill="#eab308" d="M317.146 137.0222c-2.442 3.4858 -6.126 5.9032 -10.296 6.7546 -4.17 0.8516 -8.508 0.0726 -12.12 -2.1766 -8.416 -5 -9.476 -14.932 -4.714 -22.6 11.984 -19.282 39.892 0.062 27.13 18.022Zm-15.488 -22.682c-2.128 0.3816 -4.128 1.288 -5.82 2.637 -1.69 1.349 -3.018 3.098 -3.862 5.089 -5.23 11.726 5.242 21.438 15.862 17.664 2.888 -0.926 5.36 -2.8354 6.986 -5.396 1.628 -2.5604 2.304 -5.61 1.914 -8.618 -0.888 -6.116 -6.83 -12.9 -15.08 -11.376Z" stroke-width="1"></path><path id="vector_6" fill="#eab308" d="M334.984 131c-5 -4.706 1.032 -13.368 10.95 -10.78 5.292 1.38 5.8 4.122 7.35 2.856 4.726 -3.882 8.62 -2.544 10.412 0.784 1.526 2.834 0.292 3.744 2.758 4.248 2.786 0.3186 5.546 0.8338 8.26 1.542 4.39 1.504 4.302 3.48 4.382 4.528 0.2 2.686 -1.942 4.06 -4.74 4.324 -8.076 0.76 -21.066 -1.766 -29.978 -3.656 -1.578 -0.336 -6.59 -1.208 -9.394 -3.846Zm9.17 0.828c5.558 1.174 30.846 8.122 32.528 3 0.148 -0.448 0.31 -2.276 -2.654 -2.924 -1.35 -0.294 -9.138 -1.688 -10.12 -1.776 -0.87 -0.078 -1.224 -0.21 -1.4 -0.972 -0.198 -1.7748 -0.844 -3.4702 -1.876 -4.928 -1.6 -1.942 -5.044 -0.58 -6.622 1.954 -2.444 3.924 -3.47 -4.22 -12.216 -3.982 -3.43 0.094 -7.064 3.542 -5.026 6.4 1.554 2.2 4.978 2.72 7.386 3.228Z" stroke-width="1"></path><path id="Subtract_2" fill="#eab308" fill-rule="evenodd" d="M327.834 199.9528c21.466 3.9252 40.79 7.3352 42.594 7.5112 4.392 0.432 4.558 -0.192 4.856 -1.31l0.006 -0.022c-0.01 3.668 15.11 -85.39 14.684 -89.024 -0.086 -0.722 -0.368 -1.272 -1.696 -1.664 -5.556 -1.645 -35.782 -7.2438 -62.588 -11.9336 0.034 1.2978 0.068 2.6068 0.102 3.9258 13.12 2.3332 31.94 5.6554 59.532 10.5158l0.018 0.0032c0.952 0.167 1.128 0.198 0.52 3.5968 -0.15 0.8366 -1.168 7.0396 -2.454 14.8918 -2.432 14.827 -5.826 35.5336 -6.17 37.0922 -0.836 -0.1916 -0.918 -0.3024 -8.964 -11.2588 -0.356 -0.4856 -0.728 -0.9922 -1.116 -1.5212 -5.92 -8.062 -8.314 -10.08 -16.8 -4.22 -6.504 4.4878 -12.922 10.7882 -17.17 14.9584 -1.944 1.909 -3.434 3.3716 -4.27 4.0096 -0.66 0.5054 -0.82 0.0518 -1.138 -0.8508 -0.04 -0.1154 -0.082 -0.2382 -0.13 -0.3672 -0.11 -0.298 -0.218 -0.592 -0.326 -0.8818 0.05 2.4146 0.098 4.7778 0.144 7.0788 2.962 -0.389 7.774 -5.0964 13.598 -10.795 0.62 -0.6068 1.252 -1.2248 1.894 -1.85 4.162 -3.9176 8.698 -7.4182 13.542 -10.452 1.536 -1 2.6 0.012 4.166 1.736 1.8 1.98 15.58 19.716 15.35 21.278 -3.054 20.686 -3.122 23.69 -3.914 23.894 -0.194 0.05 -0.43 -0.066 -0.764 -0.134 0.122 -0.002 -16.232 -3.112 -43.578 -8.274 0.026 1.4024 0.05 2.7592 0.072 4.0668Z" clip-rule="evenodd" stroke-width="1"></path></g><g id="video small"><path id="vector_7" fill="#eab308" d="M266.2 304.29c3.862 -11.126 3.166 -10.778 6.436 -11.224 1.474 -0.2 2.292 1.372 17.8 20.134 3.304 3.694 6.168 7.76 8.532 12.116 1.092 2.556 0.162 2.8 -10.04 5.2 -5.484 1.296 -20.2 4.12 -27.47 4.902 -6.538 0.712 -4.678 -3.956 4.742 -31.128Zm6.722 -7.16c-1.214 -2.014 -0.8 2.478 -6.4 18.258 -6.134 17.242 -6.116 17.188 -6.124 17.246 1.2 0.176 -0.112 -0.66 32.2 -6.254 1.096 -0.13 2.172 -0.4 3.2 -0.8 -0.198 0.002 -18.434 -21.104 -22.866 -28.45h-0.01Z" stroke-width="1"></path><path id="Subtract_3" fill="#eab308" fill-rule="evenodd" d="M241.244 253.48c-1.608 0.71 -2.278 3.548 -5.032 10.256 -0.752 0.75 -24.044 63.118 -27.406 80.544 -0.096 0.498 -0.198 0.984 -0.296 1.454 -0.568 2.72 -1.022 4.896 0.426 5.496 12.276 5.08 17.24 6.61 26.684 9.524 6.87 2.12 16.11 4.97 32.262 10.45 15.144 5.136 24.122 8.352 29.964 10.442 7.024 2.514 9.512 3.404 12.72 4.06 0.014 0.002 0.026 0.006 0.04 0.008 1.516 0.312 2.066 0.424 15.784 -40.222 16.94 -50.172 19.644 -56.398 17.898 -58.126 -0.272 -0.268 -0.65 -0.428 -1.098 -0.626 -3.044 -1.35 -42.78 -15.488 -44.63 -16.112 -14.302 -4.82 -32.05 -10.28 -48.516 -15.174 -5.152 -1.532 -7.356 -2.612 -8.8 -1.974Zm73.636 111.636c-0.166 0.018 -0.346 -0.114 -0.622 -0.24 -0.002 0.166 -4.36 -1.448 -11.498 -4.092 -18.7 -6.928 -56.474 -20.92 -84.924 -28.46 -0.524 -0.138 -0.842 -0.206 -0.976 -0.402 -0.278 -0.402 0.222 -1.342 1.284 -4.544 16.704 -50.33 17.846 -53.934 18.538 -53.85 0.09 0.01 0.174 0.086 0.282 0.126 3.202 1.202 26.826 9.052 50.102 16.784 23.69 7.872 47.018 15.624 48.076 16.12 0.052 0.026 0.096 0.046 0.13 0.08 0.33 0.33 -0.5 1.826 -6.96 19.92 -12.126 33.962 -12.54 38.462 -13.432 38.558Zm-25.532 -83.99c1.614 -5.36 3.176 -9.538 4.494 -9.072 1.86 0.658 -4.298 17.264 -5.606 17.272 -0.488 -0.076 -0.394 -3.2 1.112 -8.2Zm-24.344 81.234c-1.934 4.512 -3.198 6.69 -2.878 1.822 1.21 -4.568 2.706 -9.058 4.474 -13.44 0.724 -1.748 1.966 -0.96 1.862 -0.376 -0.034 0.688 -0.126 1.372 -0.274 2.044 -0.256 0.732 -0.538 1.732 -0.858 2.872 -0.604 2.15 -1.348 4.798 -2.326 7.078Zm64.742 -77.37c0.284 -0.3 1.556 -0.412 1.27 0.758 -0.45 2.622 -1.198 5.184 -2.228 7.636 -1.35 3.634 -3.036 7.7 -3.8 7.566 -1.73 -0.304 2.958 -14.054 4.758 -15.96Zm-25.882 77.718c0.064 -0.054 0.132 -0.112 0.206 -0.178 3.53 -3.13 -2.848 14.22 -4.618 15.992 -0.578 0.586 -0.704 -0.74 -0.66 -1.014 0.182 -2.792 0.85 -5.53 1.978 -8.09 2.172 -5.924 2.382 -6.102 3.094 -6.71Zm-35.228 -80.148c-0.368 -0.646 -0.514 -1.292 0.176 -4.23v-0.004c0.848 -3.622 4.142 -13.24 5.762 -12.438 1.076 0.53 -1.372 7.568 -2.896 11.944 -0.498 1.438 -0.9 2.588 -1.042 3.126 -0.294 0.658 -0.73 1.242 -1.274 1.714 -0.052 0.048 -0.114 0.084 -0.182 0.104 -0.066 0.022 -0.138 0.026 -0.208 0.016 -0.07 -0.01 -0.136 -0.038 -0.194 -0.078 -0.058 -0.04 -0.108 -0.092 -0.142 -0.154Zm-25.742 77.776c-0.13 -0.304 -0.08 -0.688 0.004 -4.206v0.002c0.644 -1.858 1.19 -3.46 1.662 -4.84 2.578 -7.55 2.878 -8.426 4.176 -7.78 0.258 0.128 0.214 0.32 0.17 0.516 -0.02 0.092 -0.042 0.186 -0.03 0.272 0.002 1.886 -0.48 3.74 -1.4 5.386 -0.624 1.64 -1.128 3.254 -1.588 4.728 -0.916 2.934 -1.66 5.312 -2.83 6.244 -0.072 -0.15 -0.126 -0.232 -0.164 -0.322Zm40.354 3.824c-0.986 3.454 -2.486 8.722 -3.95 8.418l-0.008 0.002c-0.368 -0.076 -0.218 -1.328 -0.084 -2.458 0.062 -0.53 0.122 -1.034 0.124 -1.378 1.554 -4.692 2.338 -7.168 2.812 -8.67 0.472 -1.488 0.638 -2.016 0.954 -2.796 0.59 -1.444 1.986 -1.61 1.974 -0.844 0.012 1.742 -0.328 3.468 -1 5.076 -0.194 0.444 -0.476 1.434 -0.822 2.65Zm22.352 -69.268c-1.036 0.676 -1.116 -1.198 -0.4 -3.892 0.722 -2.696 3.628 -12.092 4.9 -12.574 1.938 -0.736 0.338 4.602 -0.698 8.06 -0.15 0.5 -0.288 0.962 -0.402 1.36 -0.414 1.446 -2.118 6.208 -3.4 7.046Zm-80.3 57.692c-0.576 1.302 -1.532 1.288 -1.6 0.574 0.162 -1.384 0.41 -2.758 0.744 -4.112 0.76 -3.636 1.932 -7.172 3.492 -10.542 0.558 -1.456 2.134 -1.282 1.8 0.238 -0.864 4.79 -2.354 9.444 -4.436 13.842Zm29.94 -89.186 0.006 0.002c-0.196 0.596 -0.398 1.19 -0.602 1.784 -0.514 1.51 -1.032 3.024 -1.446 4.57 -2.402 8.928 -6.222 9.332 -0.888 -5.04 0.524 -1.53 1.152 -3.022 1.882 -4.466 0.602 -0.694 1.684 -0.382 1.418 0.762 -0.544 2.33 -0.524 2.336 -0.37 2.388Z" clip-rule="evenodd" stroke-width="1"></path></g><g id="image-2"><path id="vector_8" fill="#eab308" d="M73.682 189.734c14.3 -0.8 26.282 11.358 25.968 24.5 0.0194 5.104 -1.522 10.092 -4.4174 14.296 -2.8954 4.204 -7.0066 7.422 -11.7826 9.224 -4.092 1.386 -8.4328 1.882 -12.732 1.454 -4.148 -0.188 -12.66 -4.572 -16.684 -10.938 -11.634 -18.424 3.496 -39.182 19.648 -38.536Zm1.87 46.124c2.6986 -0.022 5.3664 -0.576 7.851 -1.63 2.4846 -1.052 4.7372 -2.586 6.629 -4.51 3.8392 -3.814 6.1072 -8.93 6.3554 -14.334 0.248 -5.406 -1.5418 -10.708 -5.0156 -14.858 -3.4736 -4.148 -8.3782 -6.8422 -13.7432 -7.5484 -5.365 -0.706 -10.7996 0.6274 -15.2286 3.7364 -17.426 12.238 -8.13 39.902 13.152 39.144Z" stroke-width="1"></path><path id="Subtract_4" fill="#eab308" fill-rule="evenodd" d="M109.0924 165.1048c-11.8322 0.821 -23.3038 1.552 -33.8924 2.0632 -32.5 1.57 -61.114 3.346 -62.106 3.48 -2.972 0.4 -3.122 1.386 -3.094 4.35 0.41 42.756 9.11 158.848 9.754 161.246 0.21144 0.598 0.6114 1.11 1.1396 1.46 0.528 0.35 1.1558 0.52 1.7884 0.482 2.4698 -0.086 4.7466 -0.154 6.8838 -0.216 6.0692 -0.18 11.0106 -0.326 16.0382 -0.77 34.4416 -3.042 101.4744 -6.732 145.6376 -9.164 23.6684 -1.302 40.7684 -2.244 42.7624 -2.53 1.2 -0.172 1.534 -0.414 1.52 -4.082l-5.642 -95.54c-0.892 0.02 -1.782 0.04 -2.674 0.06 0.14 2.012 0.278 4.01 0.416 5.988 1.708 24.532 3.192 45.848 2.946 46.784 0.99 0.988 0.318 0.396 -1.57 -1.262 -8.276 -7.274 -39.9092 -35.07 -56.85 -40.004 -10.38 -3.024 -17.174 1.114 -41.626 23.246 -21.6548 19.598 -38.6602 37.23 -51.4008 50.442 -4.976 5.158 -9.3014 9.644 -12.9992 13.308 -2.148 2.13 -2.4 1.17 -1.888 0.494 3.766 -5.062 25.286 -29.286 42.34 -45.8 0.43 -0.418 0.426 -0.466 -0.026 -0.888 -6.0334 -6.098 -13.2032 -10.954 -21.104 -14.296 -3.1464 -1.334 -6.535 -2 -9.952 -1.956 -15.9282 -0.096 -45.2818 37.164 -52.3826 46.178 -0.9398 1.192 -1.4898 1.89 -1.5674 1.942 -1.062 -3.548 -7.852 -120.262 -8.062 -123.956 -0.63064 -11.061 -0.89552 -12.9692 -0.38712 -13.204 0.1704 -0.0788 0.42766 0.0304 0.78712 0.046 13.619 0.5948 17.4484 0.3464 70.6856 -3.105 7.2472 -0.4698 15.4098 -0.999 24.6374 -1.5934 -0.0378 -1.0612 -0.0754 -2.129 -0.1126 -3.2028Z" clip-rule="evenodd" stroke-width="1"></path></g><g id="video"><path id="vector_9" fill="#eab308" d="M324.308 59.086c-0.096 -2.278 -1.8 -2.67 -5.336 -2.698 -2.054 -0.018 -198.444 4.43 -206.17 4.698 -4.144 0.144 -4.732 0.426 -4.892 4.31 -1.878 45.6 3.426 158.686 4.014 161.484 0.1874 0.584 0.5526 1.096 1.0446 1.462 0.492 0.366 1.086 0.57 1.6994 0.582 8.888 0.104 17.416 0.13 23.052 -0.166 52 -2.73 185.296 -4.44 188.8 -5 1.058 -0.17 1.412 -0.36 1.542 -3.512 0.256 -6.352 -2.3 -126.348 -3.754 -161.16Zm-16.584 -0.04c1.054 2.466 1.094 11.92 0.834 19.2 -0.074 2.116 -0.12 7.718 -1.138 7.708 -2.17 -0.012 -2.732 -34.018 0.304 -26.908Zm-26.446 -0.646c2.42 0.106 1.432 24.484 1.106 26.924 -0.022 0.1926 -0.116 0.3698 -0.264 0.4962 -0.146 0.1264 -0.336 0.1928 -0.53 0.186 -0.194 -0.0068 -0.378 -0.0864 -0.516 -0.2228s-0.22 -0.3196 -0.228 -0.5134c-0.7 -4.8742 -1.034 -9.794 -1 -14.718 -0.03 -3.816 -0.446 -12.238 1.432 -12.152Zm-24.65 16.8c-0.036 8.166 0.138 11.704 -1.2 11.682 -0.6 -0.01 -1.076 0.162 -1.542 -6.65 -1.662 -24.274 2.852 -30.2 2.742 -5.032Zm-2.932 10.812c-0.2 0.2 -0.06 0.18 -0.53 0.062 0.104 -0.074 -0.01 -0.06 0.53 -0.06v-0.002Zm-24.018 1.758c-0.95 0 -1.33 -2.506 -1.516 -5.902 -0.2 -3.618 -0.448 -14.744 -0.21 -17.684 0.238 -2.94 0.534 -4.8 1.758 -3.866 1.202 0.002 2.124 27.466 -0.032 27.454v-0.002Zm-25.336 -27.356c1.8 0.072 1.656 14.066 1.642 15.838 -0.118 13.708 -1.618 12.96 -2 11 -1.124 -5.74 -1.7 -26.92 0.358 -26.838Zm-25.704 0.888c0.168 -0.0114 0.334 0.0422 0.4636 0.1498 0.1296 0.1076 0.2128 0.261 0.2324 0.4282 0.764 4.092 2.108 27.148 -0.368 27 -1.676 -0.098 -1.506 -9.242 -1.842 -18.09 0.366 -8.716 0.332 -9.59 1.514 -9.488Zm-25.582 1.426c1.4 -0.472 1.574 5.072 1.758 8.704 0.3354 6.0514 0.1394 12.1208 -0.586 18.138 -0.17 1.17 -1.338 1.138 -1.562 0 -0.6148 -3.8356 -0.9118 -7.7154 -0.888 -11.6 -0.098 -8.79 -0.066 -14.79 1.278 -15.242Zm-25.774 0.65c0.2042 -0.0024 0.4042 0.0588 0.572 0.1754 0.1676 0.1164 0.295 0.2824 0.364 0.4746 1.45 8.11 1 23.762 0.224 26.434 -0.041 0.1738 -0.14 0.3282 -0.281 0.4378 -0.1408 0.1098 -0.315 0.1678 -0.4934 0.1648 -0.1786 -0.003 -0.3506 -0.067 -0.4878 -0.1814 -0.137 -0.1144 -0.2308 -0.2722 -0.2658 -0.4472 -1 -5.122 -1.542 -27.036 0.368 -27.058Zm3.34 162.56c-0.144 1.188 -1.344 1.032 -1.564 -0.048 -2.112 -10.304 -1.278 -22.228 -0.382 -25.08 0.318 -1.014 1.4 -0.956 1.574 0.034 1.2316 8.312 1.3568 16.75 0.372 25.094Zm25.6 -0.936c-0.17 1.188 -1.39 1.022 -1.552 0.062 -0.946 -5.632 -2.216 -21.6 -0.108 -25.878 0.4 -0.8 1.302 0.098 1.45 0.902 1.1896 8.256 1.2588 16.636 0.206 24.912l0.004 0.002Zm25.6 -1.256c-0.304 1.03 -1.256 0.668 -1.504 0.03 -0.848 -2.2 -2.098 -25.822 0.2 -25.774 1.076 0.022 1.19 2.044 1.436 4.6 0.6188 7.036 0.5706 14.116 -0.144 21.144h0.012Zm21.146 0.184c0.148 -0.09 0.082 -0.104 0.274 0 -0.106 0.07 -0.042 0.07 -0.286 0h0.012Zm4.574 0.12c0.004 0.094 -0.014 0.188 -0.052 0.276 -0.038 0.086 -0.094 0.164 -0.164 0.228 -0.07 0.062 -0.154 0.108 -0.244 0.136 -0.09 0.026 -0.186 0.034 -0.28 0.02 -2.354 -0.05 -1.952 -24.328 -1.238 -27 0.032 -0.1318 0.098 -0.2536 0.188 -0.3544 0.092 -0.1008 0.206 -0.1778 0.334 -0.2238 0.128 -0.0462 0.264 -0.06 0.398 -0.0404 0.136 0.0196 0.262 0.072 0.372 0.1526 1.218 0.91 1.604 19.906 0.674 26.806h0.012Zm24.712 -1.2c-0.076 0.68 -0.376 0.888 -0.936 0.8 -1.866 -0.268 -2.342 -26.824 -0.122 -26.774 0.61 0.012 1.078 -0.256 1.552 6.456 0.354 6.51 0.184 13.038 -0.506 19.522l0.012 -0.004Zm25.826 -0.634c-0.068 0.504 -0.31 0.68 -0.728 0.678 -2.484 0 -1.6 -22.076 -1.35 -25 0.14 -1.6 0.306 -1.84 0.758 -1.898 2.886 -0.362 1.716 23.18 1.308 26.224l0.012 -0.004Zm26.334 -0.2c-0.066 0.498 -0.318 0.674 -0.734 0.668 -2.13 -0.028 -2.686 -27.64 -0.486 -27.6 2.392 0.07 1.786 22.644 1.206 26.94l0.014 -0.008Zm25.772 -0.95c-0.14 1.012 -1.344 1.018 -1.548 -0.028 -1.2 -8.674 -1.354 -17.462 -0.458 -26.174 0.116 -1 1.4 -0.754 1.556 -0.026 1.318 6.162 1.19 20.716 0.438 26.236l0.012 -0.008Zm12.78 -29.112C268.48 192 114.368 198.284 114.354 198.056c-0.85 -12.886 -3.13 -104.858 -3.13 -104.904 0 -0.046 209.98 -5.8 210.026 -5.8 1.286 0 3.264 103.024 3.366 103.864 0.096 0.784 -0.784 0.746 -1.662 0.746l0.012 -0.008Z" stroke-width="1"></path><path id="vector_10" fill="#eab308" d="M201.18 106.444c21.978 8.386 53.852 26.8 54.188 26.968 0.554 0.28 1.046 0.6674 1.45 1.1398 0.402 0.4724 0.708 1.0204 0.896 1.6118 0.19 0.5914 0.258 1.2144 0.204 1.833 -0.054 0.6184 -0.23 1.22 -0.52 1.7694 -1.296 2.344 -6.8 5.846 -9.976 7.874 -44.89 28.6 -46.524 29.986 -48.124 29.77 -4.916 -0.66 -5.386 -1.668 -7 -11.478 -2.707 -16.6658 -3.5788 -33.5782 -2.6 -50.434 0.508 -7.17 1.238 -9.508 2.634 -10.422 2.668 -1.75 8.392 1.366 8.848 1.368Zm-4.56 63.102c0.466 3.228 1.672 5.442 4.35 3.578 38.442 -26.756 56.914 -33.152 53 -36.372 -0.4 -0.336 -22.314 -12.8 -54.33 -27.626 -4.2 -1.946 -4.716 -2.476 -5.77 -1.502 -0.686 0.632 -0.7 1.026 -0.822 5.726 -0.274 10.51 -1.048 24.108 3.572 56.196Z" stroke-width="1"></path></g></g></svg>