<svg width="256" height="265" viewBox="0 0 256 265" fill="none" xmlns="http://www.w3.org/2000/svg">
<path d="M95.132 2.27675C92.8922 4.50875 90.797 8.7635 91.664 9.53075C91.8807 9.74 92.3865 9.0425 92.82 7.9265C93.2535 6.8105 94.7707 4.5785 96.1435 2.97425C99.178 -0.583004 98.4555 -1.0015 95.132 2.27675Z" fill="#2596BE"/>
<path d="M102.574 1.30023C92.3142 5.90373 90.5802 18.4587 99.1057 25.8522C106.258 32.1297 117.602 30.0372 122.298 21.5975C124.682 17.2032 124.393 10.5072 121.503 6.32223C117.674 0.742233 108.932 -1.55952 102.574 1.30023ZM114.928 3.11373C123.165 7.08948 124.899 16.5755 118.613 23.4807C114.567 27.875 108.932 29.0607 103.296 26.5497C92.1697 21.6672 92.7477 6.32223 104.163 2.41623C108.209 0.951483 110.882 1.16073 114.928 3.11373Z" fill="#2596BE"/>
<path d="M105.536 4.16C99.3947 5.9735 95.9267 13.925 98.9612 19.4353C103.224 27.3868 114.495 27.4565 118.685 19.505C119.552 17.831 120.275 15.599 120.275 14.6225C120.275 11.8325 117.24 6.74075 114.856 5.48525C112.038 3.95075 108.137 3.4625 105.536 4.16ZM111.605 5.555C113.628 5.555 117.168 8.83325 118.107 11.5535C119.841 16.6453 116.879 22.2253 111.605 23.7598C107.703 24.8758 102.863 23.132 100.767 19.9235C98.1664 15.8083 99.1057 10.0888 102.935 7.15925C104.38 5.9735 108.137 4.92725 109.293 5.276C109.871 5.4155 110.882 5.555 111.605 5.555Z" fill="#2596BE"/>
<path d="M104.741 11.2048C104.091 15.041 105.391 16.2268 109.148 15.1108C110.955 14.6225 111.894 14.6225 112.4 15.1108C113.411 16.0873 112.689 17.2033 109.871 18.8773L107.631 20.2025H109.582C110.593 20.2025 112.038 20.4118 112.761 20.6908C113.772 21.0395 113.917 20.9 113.556 19.9235C113.267 19.2958 113.483 18.11 113.989 17.4125C115.506 14.9713 113.845 13.5763 109.437 13.7158C105.969 13.8553 105.753 13.7855 105.969 12.3208C106.114 11.2048 106.764 10.7165 108.209 10.577C110.377 10.298 110.882 9.04252 108.787 9.04252C107.992 9.04252 106.909 8.83327 106.331 8.62402C105.536 8.34502 105.102 8.97277 104.741 11.2048Z" fill="#2596BE"/>
<path d="M123.96 22.0858C123.02 24.0388 121.72 26.201 120.925 26.8985C120.203 27.5263 119.552 28.433 119.552 28.8515C119.552 30.2465 124.61 24.806 125.405 22.5043C126.705 18.5983 125.621 18.2495 123.96 22.0858Z" fill="#2596BE"/>
<path d="M82.994 28.712C78.8035 32.9667 76.636 36.245 75.1188 40.43C73.3848 45.173 74.3963 44.5452 77.2863 39.1047C78.659 36.3845 81.6213 32.1297 83.7888 29.6187C88.5573 24.1782 87.9793 23.5505 82.994 28.712Z" fill="#2596BE"/>
<path d="M86.751 30.1767C82.416 34.5012 78.0087 41.1275 78.5145 42.5922C78.659 43.0107 80.0317 41.4065 81.549 39.035C83.0662 36.6635 86.2452 32.6877 88.6295 30.2465C94.265 24.4572 92.6032 24.3875 86.751 30.1767Z" fill="#2596BE"/>
<path d="M139.421 29.27C129.378 29.828 125.91 32.4785 123.671 41.267C122.442 46.0798 117.457 78.5833 115.434 95.393L114.134 105.995L111.244 106.762C105.102 108.367 97.2995 113.947 94.4817 118.829C93.7592 120.154 93.6147 120.154 89.1352 118.55C77.1417 114.365 62.3305 106.762 40.4387 93.5098C33.1415 89.0458 30.9017 88.0693 30.2515 88.697C29.818 89.1853 26.8557 95.393 23.6045 102.508C20.4255 109.622 15.5125 120.015 12.6947 125.665L7.63722 135.918L9.87697 137.731C14.501 141.498 42.4617 156.913 54.8887 162.562L62.1137 165.841L55.6112 166.329C52.071 166.608 38.1267 166.678 24.6882 166.468L0.339966 166.12V168.073C0.339966 169.119 1.27922 178.605 2.50747 189.137C3.66347 199.6 4.96397 212.364 5.32522 217.456C5.68647 222.617 6.33672 227.151 6.77022 227.569C8.93772 229.662 61.608 228.755 80.8987 226.314C87.618 225.407 99.1057 222.966 102.935 221.501C103.874 221.152 104.019 222.408 104.019 230.29C104.019 240.961 104.741 243.821 108.57 248.634C111.822 252.819 117.024 255.539 124.249 257.004C139.421 260.003 186.239 264.467 204.085 264.607C217.018 264.676 217.596 264.607 221.064 262.933C226.193 260.422 228.361 257.074 230.095 248.843C231.612 241.868 237.392 197.926 242.377 155.518C245.845 125.804 245.773 126.223 247.074 126.223C248.735 126.223 249.386 124.2 250.614 115.202C252.203 103.414 252.131 101.043 250.325 100.624C248.302 100.136 248.23 96.23 250.253 96.23C251.047 96.23 251.914 95.8813 252.131 95.5325C252.42 95.114 253.287 89.7433 254.082 83.6053C255.599 72.0965 255.382 70.4225 252.781 70.4225C251.987 70.4225 251.842 69.9343 252.203 68.5393C252.492 67.493 252.781 61.8433 252.781 55.9843L252.854 45.3823L250.036 42.662C244.4 37.0123 233.491 33.8735 212.394 31.781C193.464 29.8978 152.065 28.5028 139.421 29.27ZM185.661 31.4323C213.333 32.618 231.251 34.9895 238.548 38.4073C244.762 41.3368 246.423 45.452 245.701 56.4725C244.256 79.49 237.681 139.963 232.624 177.489C231.251 187.812 228.794 206.086 227.205 218.083C223.954 242.775 222.87 248.634 220.558 253.098C218.101 257.841 215.645 258.748 205.891 258.748C193.898 258.748 161.313 256.376 138.193 253.795C117.457 251.563 110.304 249.122 107.198 243.403C106.042 241.38 105.825 239.357 105.825 230.778V220.525L108.065 219.757C109.365 219.339 110.449 218.99 110.593 218.99C110.738 218.99 110.666 221.92 110.377 225.407C109.437 239.776 112.905 244.519 126.055 247.099C142.6 250.378 180.604 254.005 199.389 254.144C213.477 254.214 214.995 253.307 217.451 243.124C218.679 238.032 221.786 213.689 231.468 133.198C239.271 68.609 239.704 64.4938 239.343 53.7523C239.126 45.8705 238.982 45.2428 237.32 43.5688C234.791 41.1973 228.578 39.1745 220.269 38.198L213.261 37.361L209.359 41.4065L205.458 45.452L197.366 45.0335C185.661 44.336 170.272 43.2898 166.37 42.8015C163.047 42.383 162.975 42.3133 161.385 38.6165C160.229 35.966 159.218 34.7105 158.062 34.4315C157.195 34.2223 151.993 34.1525 146.502 34.292C137.398 34.5013 136.314 34.6408 134.147 36.1055C132.846 37.0123 131.112 39.035 130.318 40.5695C128.511 43.9175 126.272 58.3558 123.237 86.0465C122.009 96.7183 120.925 105.646 120.708 105.786C120.564 105.925 119.48 105.995 118.324 105.856L116.157 105.646L118.83 85.07C122.948 53.6128 125.26 39.872 126.777 36.8728C128.8 33.1063 131.979 31.223 137.181 30.5953C142.167 30.0373 162.035 30.386 185.661 31.4323ZM159.651 39.314C160.59 41.4065 162.035 43.4293 162.758 43.8478C164.058 44.5453 175.402 45.6613 188.551 46.3588C192.525 46.568 198.088 46.9168 200.978 47.126L206.18 47.5445L210.009 43.5688L213.839 39.593L219.619 39.9418C227.638 40.43 234.936 42.8713 236.742 45.5915C238.042 47.5445 238.115 48.6605 237.753 57.7978C237.609 63.308 237.32 67.8418 237.175 67.9813C237.031 68.051 230.601 67.5628 222.87 66.8653C200.906 64.7728 167.96 62.2618 147.369 60.9365C137.037 60.3088 128.511 59.7508 128.439 59.681C128.367 59.6113 128.728 56.1935 129.306 52.0783C131.329 37.361 133.424 35.6173 148.669 35.5475H157.917L159.651 39.314ZM151.704 62.75C184.288 64.9123 236.453 69.2368 236.886 69.8645C237.031 70.004 236.308 76.4908 235.369 84.3725C226.266 161.935 223.809 182.302 221.064 204.133C215.645 245.914 214.633 250.099 209.359 251.842C204.374 253.377 169.116 251.215 139.782 247.518C126.272 245.844 120.781 244.588 117.168 242.287C113.122 239.706 112.327 237.265 112.327 227.081C112.327 218.851 112.4 218.362 113.845 217.944C116.662 217.037 122.804 224.57 124.971 231.545C125.91 234.614 128.222 237.055 130.751 237.753C134.364 238.66 138.337 237.613 140.577 235.102C141.805 233.568 143.106 232.94 144.551 232.94C145.707 232.94 148.019 232.312 149.681 231.615C152.209 230.499 152.787 229.871 153.221 227.709C153.438 226.314 153.51 224.012 153.221 222.547L152.787 219.897L156.906 219.06C159.145 218.641 161.168 218.432 161.313 218.641C161.53 218.851 162.252 220.594 162.975 222.547C164.492 226.593 165.937 228.406 168.827 229.871C174.751 232.801 183.132 228.616 183.132 222.617V220.176L185.011 222.129C186.6 223.803 187.251 224.012 189.779 223.663C196.715 222.757 197.799 219.967 195.776 207.691L194.548 200.297L197.221 195.973C199.75 191.927 201.845 190.183 207.336 187.603C210.732 185.929 212.394 181.953 212.321 175.745C212.321 169.258 210.515 163.33 207.77 160.47C205.819 158.517 205.313 158.308 201.05 158.308C197.51 158.308 195.559 157.889 192.597 156.494L188.84 154.681L189.346 148.264C189.707 142.963 189.635 141.707 188.696 141.01C187.251 139.824 184.577 140.521 181.615 142.893L179.303 144.776L175.329 142.544C168.538 138.568 164.998 137.731 155.172 137.731H146.429L146.791 134.593C147.224 130.687 145.49 123.781 142.889 119.108C139.638 113.319 132.052 107.739 125.549 106.344C124.032 106.065 123.165 105.437 123.165 104.74C123.165 103.484 127.139 69.3763 127.861 64.2845C128.222 62.192 128.656 61.355 129.523 61.355C130.173 61.355 140.216 61.9828 151.704 62.75ZM250.325 74.3983C249.964 75.863 249.313 80.885 248.808 85.5583C248.157 91.9055 247.724 94.1375 247.001 94.1375C245.918 94.1375 246.062 90.7198 247.507 78.4438C247.868 75.3748 248.157 72.6545 248.157 72.3755C248.157 72.0268 248.808 71.8175 249.53 71.8175C250.758 71.8175 250.831 72.0965 250.325 74.3983ZM253.215 76.142C253.215 78.1648 252.709 82.9775 252.131 86.8138C251.553 90.65 251.047 94.0678 251.047 94.4165C251.047 94.9048 250.831 94.9048 250.469 94.4165C249.386 93.3005 251.409 72.515 252.565 72.515C252.926 72.515 253.215 74.189 253.215 76.142ZM37.4042 93.3703C53.0825 103.554 76.925 116.109 86.5342 119.248C92.6755 121.201 93.1812 121.549 92.1697 123.293C91.4472 124.688 91.1582 124.688 88.6295 123.851C78.4422 120.364 67.2435 114.644 47.9527 103.135C40.9445 98.9503 34.731 95.5325 34.153 95.5325C33.5027 95.5325 32.0577 97.904 30.3237 101.601C28.8787 105.019 24.8327 113.668 21.5092 120.922C16.3795 131.942 15.5125 134.174 16.3072 134.941C16.8852 135.499 21.8705 138.499 27.4337 141.637C39.8607 148.682 59.585 157.959 69.6277 161.586C76.347 163.957 76.9972 164.306 75.0465 164.655C73.8905 164.934 71.145 165.143 68.9775 165.213C65.2927 165.283 63.8477 164.725 51.9987 159.075C40.222 153.425 12.8392 138.429 10.5995 136.406C9.87697 135.709 10.8885 133.058 15.7292 123.014C19.0527 116.179 23.8212 105.925 26.4222 100.206C28.951 94.556 31.263 89.9525 31.6242 89.9525C31.9132 89.9525 34.5142 91.487 37.4042 93.3703ZM41.1612 100.694L47.447 104.53L44.9905 105.716C42.245 107.111 31.1185 107.948 30.396 106.832C29.9625 106.135 33.864 96.9275 34.5865 96.9275C34.8032 96.9275 37.7655 98.6015 41.1612 100.694ZM247.074 103.345C246.351 106.414 245.267 116.806 245.267 120.433C245.267 123.223 244.978 124.13 244.184 124.13C242.883 124.13 242.811 121.061 243.822 110.808C244.689 102.368 244.834 101.81 246.351 101.81C247.146 101.81 247.363 102.298 247.074 103.345ZM250.325 102.996C250.397 106.553 247.868 124.13 247.363 124.13C247.001 124.13 246.712 122.944 246.712 121.48C246.712 118.411 248.013 106.414 248.591 103.693C249.024 101.601 250.325 101.113 250.325 102.996ZM130.968 110.18C136.17 112.831 139.71 116.458 142.456 121.968C144.045 125.037 144.479 127.06 144.695 132.291C144.984 137.452 144.84 138.778 144.045 138.778C143.467 138.778 142.311 138.987 141.516 139.196C139.999 139.545 139.999 139.475 140.577 136.406C141.878 129.64 138.915 121.828 133.208 116.876C128.584 112.831 123.815 111.296 117.457 111.715C102.79 112.761 93.398 126.083 97.5162 139.894C98.4555 143.242 99.467 144.706 102.79 147.845C105.319 150.217 108.065 152.1 110.015 152.658C111.677 153.216 113.05 153.844 113.05 154.053C113.05 154.262 112.327 155.169 111.388 155.936L109.799 157.471L106.547 156.006C102.068 153.983 96.7215 148.612 94.4095 143.8C92.6755 140.312 92.4587 138.987 92.4587 132.849C92.4587 126.571 92.6755 125.525 94.554 122.038C97.155 117.085 101.634 112.621 106.186 110.389C111.677 107.669 112.905 107.39 119.914 107.599C125.694 107.809 126.922 108.018 130.968 110.18ZM127.861 114.853C131.835 116.876 135.809 120.991 137.615 125.037C140.216 130.617 139.566 140.87 136.676 140.87C136.17 140.87 132.846 142.265 129.306 144.009C125.694 145.753 122.731 147.148 122.659 147.148C122.515 147.148 122.442 146.52 122.442 145.822C122.442 145.055 123.02 144.288 123.743 144.079C126.344 143.242 128.511 140.312 128.439 137.592C128.295 133.756 125.838 131.803 120.564 131.454C114.784 131.105 113.772 130.617 113.772 128.315C113.772 124.2 119.552 122.107 123.96 124.618C125.043 125.246 126.272 125.595 126.561 125.246C127.572 124.339 125.621 122.386 122.587 121.41C120.564 120.643 119.48 119.875 119.191 118.69C118.685 116.597 117.096 117.085 116.807 119.457C116.662 120.503 115.868 121.689 115.001 122.107C111.605 123.781 110.015 127.478 111.316 130.756C112.038 132.5 115.579 133.895 119.48 133.895C123.382 133.895 125.332 135.081 125.332 137.452C125.332 141.219 121.142 143.451 115.506 142.684C112.689 142.335 112.327 142.474 112.327 143.66C112.327 144.776 112.978 145.125 115.94 145.474C118.613 145.822 119.625 146.241 119.986 147.287C120.419 148.612 119.914 149.24 116.157 151.751C111.894 154.681 101.273 146.869 98.889 139.126C95.9267 129.082 100.117 119.736 109.654 115.063C113.772 113.04 114.567 112.9 119.552 113.179C123.165 113.319 125.91 113.947 127.861 114.853ZM38.199 120.364C38.7047 121.689 37.4765 123.433 36.1037 123.433C34.731 123.433 33.3582 121.48 33.864 120.294C34.3697 118.899 37.621 118.969 38.199 120.364ZM64.6425 120.015C76.7805 122.665 88.485 133.686 88.485 142.265C88.485 154.332 71.434 157.68 56.5505 148.473C48.3862 143.381 42.823 134.732 43.979 128.803C44.4847 126.083 47.2302 122.526 49.759 121.201C53.3715 119.317 59.296 118.829 64.6425 120.015ZM24.616 126.013C27.4337 128.873 29.9625 134.523 29.9625 137.941C29.9625 139.615 29.6735 140.87 29.3845 140.731C27.2892 139.963 17.68 134.244 17.68 133.825C17.68 132.988 21.9427 124.13 22.304 124.13C22.5207 124.13 23.5322 124.967 24.616 126.013ZM165.07 140.591C171.356 141.986 174.535 143.939 182.771 151.333C187.901 155.936 190.791 157.959 193.681 159.005C195.848 159.772 198.088 160.4 198.666 160.4C199.533 160.4 199.533 160.819 198.666 163.26C196.426 169.398 197.871 180.488 201.556 185.231L203.29 187.393L201.484 188.37C199.244 189.486 196.282 193.043 193.609 197.856C192.525 199.879 189.635 203.366 187.251 205.528L182.916 209.574L182.049 206.784C180.604 202.18 179.953 205.528 180.459 215.084C181.037 224.989 180.531 226.453 176.269 227.848C169.477 230.08 166.226 226.802 162.541 213.968C161.096 209.086 159.579 208.528 160.229 212.992C160.59 215.572 160.446 216.2 159.434 216.479C157.411 217.107 149.103 218.153 144.912 218.432L140.938 218.641L140.288 216.2C139.638 213.619 138.626 212.224 137.976 212.852C137.759 213.061 138.048 215.991 138.699 219.339C140.071 227.081 140.071 231.545 138.699 233.428C136.459 236.497 130.101 236.079 128.367 232.731C127.933 231.894 126.561 229.034 125.332 226.314C123.454 222.268 121.72 220.106 115.217 213.759C106.331 205.04 102.863 199.321 101.49 191.09C98.7445 174.211 105.68 161.028 122.876 150.147C137.687 140.87 152.065 137.592 165.07 140.591ZM187.756 145.543C186.889 152.728 187.034 152.588 183.783 149.519C182.265 148.054 180.965 146.52 180.965 146.171C180.965 144.985 184.794 142.335 186.528 142.265C188.045 142.265 188.118 142.474 187.756 145.543ZM107.992 158.796C107.92 159.145 107.198 160.261 106.331 161.307C105.03 162.772 102.935 163.678 97.0827 165.352C78.8757 170.444 61.8247 171.909 30.0347 171.281L6.62572 170.793L7.13147 175.536C7.34822 178.117 8.07072 185.51 8.64872 191.857C9.29897 198.274 10.3827 207.83 11.033 213.131L12.2612 222.826L32.8525 222.757C63.342 222.617 85.017 220.315 102.357 215.224L110.521 212.782L112.183 214.317C113.05 215.084 113.556 215.991 113.267 216.27C112.183 217.246 96.577 221.71 89.4242 223.105C73.5292 226.244 64.2812 226.942 35.598 226.942C20.6422 227.011 8.21522 226.872 8.07072 226.663C7.85397 226.453 7.34822 221.571 6.84247 215.851C6.40897 210.062 5.10847 197.228 3.88022 187.254C2.72422 177.349 1.78497 168.84 1.78497 168.421C1.78497 167.863 8.86547 167.724 26.639 167.933C62.9085 168.421 79.0202 166.747 97.8775 160.819C105.68 158.377 107.992 157.889 107.992 158.796ZM206.614 161.516C209.359 164.306 210.226 167.794 210.226 175.396C210.226 181.116 210.009 182.72 208.853 184.324C207.842 185.789 206.975 186.208 205.602 186.068C204.085 185.929 203.29 185.022 201.556 181.674C199.678 177.977 199.389 176.861 199.461 171.211C199.461 163.609 200.978 160.051 204.302 159.772C204.591 159.703 205.674 160.54 206.614 161.516ZM102.212 168.282C101.345 170.095 100.623 171.56 100.478 171.56C100.334 171.56 99.0335 170.653 97.5162 169.468C95.71 168.073 95.132 167.305 95.7822 167.026C97.733 166.329 103.296 164.794 103.513 164.934C103.585 165.004 103.007 166.538 102.212 168.282ZM25.3385 174.28C23.3155 177.977 13.7062 184.813 10.5272 184.813C9.73247 184.813 9.37122 182.999 8.64872 176.233L8.21522 172.258H17.3187H26.4222L25.3385 174.28ZM75.8412 178.814C79.8872 179.86 86.6787 182.999 87.4012 184.185C87.6902 184.603 87.1845 185.719 86.2452 186.626C84.439 188.509 84.0055 192.415 85.1615 196.112L85.7395 198.065L82.416 197.647C79.3815 197.228 79.0925 197.298 79.0925 198.623C79.0925 200.646 81.7657 202.878 85.3782 203.854L88.4127 204.622L85.0892 206.923C73.3125 215.014 51.5652 214.038 42.245 205.11C37.332 200.367 36.2482 194.578 39.2105 189.277C40.3665 187.114 45.3517 182.999 48.7475 181.325C55.539 177.977 68.1105 176.791 75.8412 178.814ZM94.265 187.603C96.0712 189.346 96.3602 194.578 94.6262 194.578C93.2535 194.578 91.8807 192.067 92.4587 190.393C92.7477 189.625 92.6032 188.998 92.1697 188.998C90.797 188.998 90.3635 192.625 91.5195 194.508C92.4587 196.112 92.9645 196.321 96.577 196.252C100.551 196.182 100.623 196.182 101.345 198.553C102.068 200.785 101.996 200.995 100.189 201.622C97.733 202.529 93.3257 202.041 90.9415 200.506C84.9447 196.74 84.728 186.208 90.7247 186.208C91.8807 186.208 93.4702 186.835 94.265 187.603ZM27.3615 194.787C29.3845 196.182 28.5897 198.414 26.061 198.414C23.2432 198.414 21.8705 196.252 23.749 194.857C25.483 193.671 25.772 193.671 27.3615 194.787ZM88.6295 201.134C89.7855 202.529 89.7855 202.599 88.4127 202.808C86.8232 203.087 80.5375 200.367 80.5375 199.39C80.5375 198.205 87.329 199.669 88.6295 201.134ZM194.62 216.34C194.692 219.06 194.403 219.827 193.103 220.664C191.513 221.641 189.635 222.059 187.684 221.85C186.673 221.78 183.638 216.27 182.916 213.41C182.554 211.945 182.988 211.318 186.095 209.295C188.045 207.97 190.43 205.947 191.297 204.761L192.814 202.669L193.681 207.83C194.187 210.69 194.62 214.526 194.62 216.34ZM16.524 209.225C22.6652 211.248 28.0117 215.433 30.6127 220.246L31.4797 221.85L22.593 221.641L13.7062 221.431L13.2727 217.944C12.189 209.992 11.9722 207.83 12.189 207.83C12.2612 207.83 14.2842 208.458 16.524 209.225ZM151.198 224.291C151.415 228.476 150.475 229.871 146.646 230.569C142.745 231.266 141.95 230.638 141.95 226.872C141.95 225.058 141.733 222.826 141.516 221.92C141.083 220.315 141.155 220.315 145.996 220.525L150.981 220.734L151.198 224.291Z" fill="#2596BE"/>
<path d="M171.284 35.2685C169.911 36.5938 169.839 37.082 170.995 38.198C173.162 40.2905 176.558 37.919 175.113 35.3383C174.246 33.8735 172.729 33.8038 171.284 35.2685Z" fill="#2596BE"/>
<path d="M180.026 36.7332C179.809 37.082 179.881 37.7097 180.17 38.198C180.748 39.1047 191.297 40.43 198.16 40.43C202.062 40.43 202.712 40.2905 202.495 39.2442C202.351 38.6165 201.339 37.8492 200.111 37.5005C196.715 36.5937 180.531 35.966 180.026 36.7332Z" fill="#2596BE"/>
<path d="M138.627 45.9403C137.326 46.7075 136.098 47.684 135.809 48.1025C135.231 48.9395 138.699 54.38 139.783 54.38C140.722 54.38 140.722 52.4968 139.783 51.9388C137.904 50.8228 139.349 50.0555 142.817 50.3345C145.129 50.474 146.646 50.2648 146.791 49.7765C147.152 48.8 144.768 48.1025 141.228 48.1025C138.771 48.1025 138.771 48.1025 140.361 46.9865C141.878 45.9403 142.528 44.615 141.444 44.615C141.083 44.615 139.855 45.2428 138.627 45.9403Z" fill="#2596BE"/>
<path d="M218.752 50.6135C215.79 53.7523 214.85 55.775 216.368 55.775C216.801 55.775 217.09 56.6818 217.09 57.7978C217.09 58.9835 217.524 59.96 218.246 60.239C219.836 60.8668 220.703 60.1693 220.703 58.1465C220.703 57.1003 221.136 56.4725 221.786 56.4725C222.509 56.4725 222.87 57.17 222.87 58.565C222.87 60.3088 223.159 60.6575 224.676 60.6575C225.977 60.6575 226.483 60.3088 226.483 59.3323C226.483 58.565 226.988 57.5188 227.566 56.891C228.144 56.333 228.65 55.4263 228.65 54.938C228.578 53.6128 223.737 47.405 222.726 47.405C222.292 47.405 220.486 48.8698 218.752 50.6135Z" fill="#2596BE"/>
<path d="M141.95 69.3762C141.95 70.004 141.444 70.6317 140.794 70.9107C139.277 71.4687 138.338 73.9797 139.132 75.3747C139.421 76.0025 140.722 76.7 142.022 76.979C144.985 77.537 144.407 79.0715 141.011 79.3505C137.904 79.6295 137.832 79.8387 139.927 81.9312L141.517 83.5355L143.901 81.3732C147.441 78.1647 146.935 76.0025 142.456 74.9562C141.372 74.6772 140.505 74.189 140.505 73.8402C140.505 72.7242 142.817 72.236 144.19 73.073C146.068 74.2587 146.646 72.794 144.84 71.3292C144.045 70.6317 143.395 69.725 143.395 69.2367C143.395 68.7485 143.106 68.33 142.673 68.33C142.311 68.33 141.95 68.8182 141.95 69.3762Z" fill="#2596BE"/>
<path d="M149.681 72.9335C148.886 73.7705 149.897 74.6075 151.776 74.6075C153.871 74.6075 153.871 74.3982 152.065 78.1647C150.62 81.3732 150.186 84.3725 151.27 84.3725C151.559 84.3725 152.426 82.9077 153.149 81.0245C153.871 79.211 154.955 77.0487 155.533 76.2117C157.122 73.8402 156.183 72.515 152.932 72.515C151.415 72.515 149.897 72.7242 149.681 72.9335Z" fill="#2596BE"/>
<path d="M159.796 74.468C157.339 77.0487 159.362 80.9547 162.469 79.769C163.119 79.5597 163.625 79.6295 163.625 79.9782C163.625 81.2337 161.819 82.9077 160.157 83.117C157.701 83.4657 157.845 84.7212 160.446 84.9305C161.891 85.07 163.047 84.6515 163.914 83.7447C165.648 81.9312 166.371 75.7235 165.07 74.2587C163.842 72.8637 161.241 72.9335 159.796 74.468ZM163.625 76.2815C163.625 77.258 161.53 78.4437 160.88 77.816C160.735 77.6067 160.735 76.979 160.952 76.3512C161.53 75.026 163.625 74.9562 163.625 76.2815Z" fill="#2596BE"/>
<path d="M172.439 74.747C171.934 75.2353 171.572 76.6303 171.572 77.816C171.572 79.769 171.861 80.1178 173.595 80.327C175.257 80.5363 175.546 80.885 175.546 82.6288C175.546 84.512 175.329 84.7213 173.234 84.6515C170.416 84.512 169.911 86.186 172.584 86.8835C174.607 87.3718 177.786 85.628 178.219 83.8145C178.797 81.8615 177.569 79.5598 175.546 78.653C173.017 77.537 173.234 76.0025 175.907 76.0025C178.219 76.0025 178.797 75.026 176.919 74.3285C175.113 73.7008 173.379 73.8403 172.439 74.747Z" fill="#2596BE"/>
<path d="M182.627 77.537C179.665 82.838 179.448 83.6053 180.965 84.3725C181.688 84.7213 182.844 85.07 183.422 85.07C184.144 85.07 184.505 85.628 184.361 86.5348C184.289 87.3718 184.578 88.139 184.939 88.2785C185.806 88.5575 188.19 83.8843 187.54 83.2565C187.323 83.0473 187.106 81.2338 187.106 79.2808C187.106 76.0723 186.89 75.6538 185.517 75.4445C184.361 75.305 183.566 75.7933 182.627 77.537ZM184.939 80.4665C184.65 81.9313 184 82.9775 183.422 82.9775C182.049 82.9775 182.121 81.8615 183.638 79.4203C185.156 76.9093 185.517 77.258 184.939 80.4665Z" fill="#2596BE"/>
<path d="M190.285 77.1185C189.563 78.0252 189.563 78.3042 190.285 78.7925C191.008 79.211 191.152 80.4665 190.791 83.8842C190.43 86.8835 190.502 88.5575 191.008 88.9062C192.164 89.534 192.959 86.8835 193.609 81.0245C194.115 76.2815 194.042 76.0025 192.67 76.0025C191.875 76.0025 190.863 76.4907 190.285 77.1185Z" fill="#2596BE"/>
<path d="M201.051 80.6758C199.895 83.2565 199.678 84.4423 200.184 86.3953C200.762 88.5575 201.123 88.9063 203.218 89.1155C205.313 89.3248 205.675 89.1155 206.686 86.744C207.842 84.0935 208.203 79.49 207.409 78.1648C207.12 77.7463 205.891 77.3975 204.735 77.3975C202.857 77.3975 202.351 77.816 201.051 80.6758ZM205.53 82.001C205.53 84.5818 204.446 87.1625 203.363 87.1625C202.207 87.1625 201.773 84.3725 202.64 81.9313C203.724 78.653 205.53 78.7228 205.53 82.001Z" fill="#2596BE"/>
<path d="M210.876 79.9085C209.07 82.559 208.709 87.9995 210.226 89.4642C210.876 90.092 211.888 90.65 212.394 90.65C215.934 90.65 218.679 81.7917 215.934 79.211C214.272 77.6067 212.249 77.8857 210.876 79.9085ZM214.489 83.5355C214.417 88.139 211.31 90.3012 211.31 85.7675C211.31 82.9775 212.61 80.048 213.694 80.3967C214.2 80.5362 214.561 81.8615 214.489 83.5355Z" fill="#2596BE"/>
<path d="M166.37 84.0238C166.154 84.233 166.154 85.2095 166.37 86.1163C166.587 87.5113 166.876 87.7205 167.671 87.0928C168.971 86.0465 168.971 83.675 167.743 83.675C167.165 83.675 166.587 83.8145 166.37 84.0238Z" fill="#2596BE"/>
<path d="M194.837 87.9995C195.27 89.255 196.86 89.4643 196.86 88.2785C196.86 87.6508 196.354 87.1625 195.704 87.1625C195.054 87.1625 194.692 87.5113 194.837 87.9995Z" fill="#2596BE"/>
<path d="M140.866 96.509C139.927 97.2065 139.421 98.6015 139.204 101.531C138.699 108.227 139.421 108.645 152.354 110.25C163.625 111.645 198.449 114.365 204.591 114.365C209.793 114.365 211.454 112.9 211.888 107.808C212.466 100.833 211.382 100.415 186.745 98.6712C178.219 98.0435 166.732 97.1367 161.168 96.5787C148.597 95.2535 142.6 95.2535 140.866 96.509ZM202.929 101.182C209.504 101.949 210.876 102.856 210.876 106.134C210.876 110.18 210.009 112.063 207.842 112.83C205.963 113.458 188.696 112.83 182.627 111.924C181.109 111.714 178.87 111.366 177.569 111.156C174.246 110.668 173.017 109.203 173.017 105.576C173.017 99.4385 173.017 99.4385 185.878 99.9965C192.019 100.275 199.678 100.764 202.929 101.182ZM159.507 102.228C162.18 102.507 164.347 102.926 164.347 103.205C164.347 104.181 160.012 104.6 158.062 103.833C156.978 103.484 155.316 103.275 154.449 103.554C153.438 103.763 152.787 103.623 152.787 103.135C152.787 102.647 152.137 102.507 151.053 102.786C150.042 102.996 149.103 102.926 148.886 102.577C148.669 102.228 147.73 102.089 146.863 102.368C145.779 102.577 145.49 102.507 145.851 101.88C146.429 101.043 148.669 101.112 159.507 102.228Z" fill="#2596BE"/>
<path d="M182.988 104.391C182.266 104.53 181.688 105.019 181.688 105.437C181.688 105.786 182.193 105.995 182.771 105.786C183.349 105.507 185.661 105.646 187.973 105.995C195.054 107.181 200.762 107.46 201.918 106.693C202.785 106.135 202.496 105.995 200.834 105.925C195.849 105.646 189.852 104.949 185.661 104.251C184.867 104.182 183.638 104.182 182.988 104.391Z" fill="#2596BE"/>
<path d="M68.9775 125.874C68.9775 126.571 68.255 126.92 66.5932 126.92C63.5587 126.92 61.03 129.082 61.03 131.802C61.03 133.476 61.6802 134.174 65.2927 136.336C69.6277 138.847 70.856 140.451 69.989 142.474C68.833 145.473 64.1367 144.567 60.6687 140.73C57.9232 137.592 56.0447 137.661 57.7787 140.87C58.3567 141.986 59.5127 143.311 60.3797 143.939C61.4635 144.636 61.7525 145.334 61.3912 146.38C60.8855 148.054 62.5472 148.403 63.8477 146.938C64.2812 146.38 65.5095 146.101 66.7377 146.31C68.3272 146.52 69.3387 146.171 70.7115 144.846C74.1795 141.498 72.59 138.01 66.0152 134.244C63.4142 132.709 62.475 130.617 64.0645 129.64C64.5702 129.291 66.232 129.012 67.7492 129.012C69.9167 129.012 71.0005 129.501 72.59 131.105C74.902 133.476 75.48 133.686 75.48 132.081C75.48 131.454 74.5407 130.059 73.3125 129.012C72.1565 127.966 71.145 126.571 71.145 125.943C71.145 125.316 70.6392 124.827 70.0612 124.827C69.4832 124.827 68.9775 125.316 68.9775 125.874Z" fill="#2596BE"/>
<path d="M137.543 147.427C125.983 152.1 115.94 158.726 113.628 163.19C112.111 165.98 111.894 170.863 113.195 172.118C114.712 173.583 116.229 173.025 123.093 168.491C126.778 165.98 133.352 162.214 137.687 159.982C142.095 157.819 145.996 155.378 146.43 154.611C146.863 153.844 147.224 151.612 147.297 149.659L147.369 146.101L144.479 145.962C142.745 145.822 139.999 146.45 137.543 147.427ZM145.924 147.845C146.141 148.194 145.418 148.891 144.334 149.31C132.124 154.123 118.83 161.865 117.024 165.283C116.446 166.399 115.94 168.282 115.94 169.468C115.94 173.095 114.134 171.56 113.917 167.724C113.7 164.585 113.845 164.236 117.241 161.098C121.503 157.122 129.306 152.588 137.254 149.449C143.323 147.078 145.201 146.729 145.924 147.845Z" fill="#2596BE"/>
<path d="M161.53 152.658C160.735 153.425 159.868 155.169 159.579 156.494C158.784 160.888 161.602 172.258 163.553 172.258C164.492 172.258 164.564 172.746 162.902 167.515C160.663 160.679 161.241 153.425 163.986 153.425C164.636 153.425 167.093 154.96 169.477 156.913C173.523 160.121 175.907 161.237 175.907 159.842C175.907 158.796 165.648 151.333 164.275 151.333C163.48 151.333 162.252 151.96 161.53 152.658Z" fill="#2596BE"/>
<path d="M187.468 162.772C187.468 163.26 187.973 164.097 188.551 164.585C189.924 165.701 191.514 164.515 190.863 162.911C190.285 161.516 187.468 161.446 187.468 162.772Z" fill="#2596BE"/>
<path d="M181.254 166.259C180.676 167.654 182.193 170.165 183.566 170.165C185.011 170.165 185.589 168.491 184.577 166.747C183.71 165.073 181.832 164.794 181.254 166.259Z" fill="#2596BE"/>
<path d="M177.353 184.812C177.353 187.672 177.714 188.649 179.592 190.741C180.821 192.066 182.266 193.182 182.844 193.182C184.289 193.182 184.072 192.276 182.338 191.229C181.037 190.392 178.798 186.486 178.798 184.952C178.798 184.603 180.315 185.022 182.193 185.928C185.589 187.602 188.19 188.091 188.19 187.044C188.19 186.696 186.962 186.068 185.445 185.649C183.927 185.161 181.904 184.045 180.965 183.069C178.292 180.348 177.353 180.767 177.353 184.812Z" fill="#2596BE"/>
<path d="M206.252 169.746C206.252 170.304 206.614 171.63 206.975 172.676C208.059 175.257 209.431 173.862 208.781 170.932C208.275 168.77 206.252 167.863 206.252 169.746Z" fill="#2596BE"/>
<path d="M202.206 170.444C201.628 171.978 202.206 175.257 203.073 175.536C203.579 175.675 204.085 175.047 204.302 174.21C205.169 171.072 203.29 167.793 202.206 170.444Z" fill="#2596BE"/>
<path d="M61.7524 182.232C61.7524 183.208 61.1022 184.254 60.0907 184.743C58.0677 185.789 55.9724 188.997 55.9724 191.02C55.9724 194.019 58.4289 195.275 64.1367 195.275C70.0612 195.275 72.5899 196.391 72.5899 199.111C72.5899 202.808 64.9314 204.621 60.7409 202.041C58.5012 200.576 57.4174 200.576 57.4174 201.901C57.4174 203.296 61.6079 205.737 63.9922 205.737C65.4372 205.737 66.0152 206.156 66.3764 207.551C66.9544 209.643 68.5439 209.434 68.8329 207.272C68.9774 206.435 70.0612 205.249 71.2172 204.691C75.8412 202.32 76.6359 197.507 72.8067 194.577C71.3617 193.461 69.8444 193.182 66.0152 193.182C60.2352 193.182 58.8624 192.764 58.8624 191.09C58.8624 186.486 65.4372 183.836 69.6277 186.626C70.8559 187.533 71.4339 187.602 72.0842 186.905C73.3847 185.649 70.1334 183.417 67.0267 183.417C65.1482 183.417 64.4257 183.069 64.1367 182.022C63.6309 180.069 61.7524 180.279 61.7524 182.232Z" fill="#2596BE"/>
<path d="M62.1137 46.289C55.3945 48.3118 49.6867 53.9615 47.9527 60.239C46.869 64.145 47.5192 70.9108 49.3255 74.2588C52.7212 80.606 59.874 85.0003 66.81 85.07C77.2862 85.07 84.8725 79.4203 87.5457 69.5855C88.5572 65.6795 88.6295 64.4938 87.8347 61.1458C85.2337 49.7765 73.3125 42.8713 62.1137 46.289ZM73.2402 47.8235C77.9365 49.1488 83.0662 53.4733 85.017 57.728C87.1122 62.2618 86.8955 68.888 84.5112 73.631C76.8527 88.697 54.0217 86.1163 49.47 69.6553C47.5192 62.6105 51.1317 53.822 57.6342 49.916C62.9807 46.7773 67.4602 46.1495 73.2402 47.8235Z" fill="#2596BE"/>
<path d="M63.0529 50.474C59.2959 51.7993 57.0562 53.264 55.0332 55.9145C50.2647 62.1223 50.5537 69.8645 55.8279 75.4445C63.9199 84.0935 77.3584 82.0708 82.4159 71.5385C85.5227 65.1215 84.0777 58.3558 78.6589 53.7523C74.0349 49.8463 68.3994 48.6605 63.0529 50.474ZM73.6737 52.2178C77.2862 53.822 80.9709 57.728 82.0547 61.2853C84.0054 67.493 80.6097 74.8168 74.4684 77.7463C69.6999 80.048 65.7984 79.9783 60.9577 77.537C57.8509 76.0025 56.6949 74.8865 55.1054 71.8873C52.4322 67.0048 52.4322 63.3778 55.1054 58.4953C58.6457 51.9388 66.8099 49.2185 73.6737 52.2178Z" fill="#2596BE"/>
<path d="M68.9775 55.775C68.544 56.5423 67.8215 57.17 67.3157 57.17C65.7262 57.17 63.1975 59.8903 63.1975 61.634C63.1975 63.587 64.9315 65.1215 68.3995 66.1678C71.8675 67.2838 72.7345 69.446 70.3502 71.3293C69.122 72.3058 68.1105 72.515 66.4487 72.1663C60.3075 70.841 60.5965 70.841 61.608 71.957C62.1137 72.5848 63.342 73.2823 64.2812 73.4915C65.4372 73.7705 66.0875 74.3983 66.0875 75.305C66.0875 77.0488 67.3157 77.1185 67.8215 75.4445C68.0382 74.747 69.1942 73.8403 70.4225 73.4218C74.6852 71.8873 74.7575 66.7955 70.4947 65.0518C66.0875 63.2383 65.7262 62.9593 65.4372 61.7038C65.1482 60.1693 67.1712 58.565 69.411 58.565C70.278 58.565 71.7952 59.1928 72.8067 59.96C73.8905 60.797 74.8297 61.076 75.1187 60.7273C75.5522 59.96 73.0235 57.17 71.8675 57.17C71.5062 57.17 71.145 56.5423 71.145 55.775C71.145 55.0078 70.856 54.38 70.4225 54.38C70.0612 54.38 69.411 55.0078 68.9775 55.775Z" fill="#2596BE"/>
<path d="M85.595 50.2648C85.595 50.4043 86.6065 52.427 87.7625 54.659C88.9907 56.891 89.93 59.4718 89.93 60.3785C89.93 61.2853 90.2912 62.0525 90.6525 62.0525C92.6032 62.0525 90.0745 53.9615 87.329 51.59C86.3897 50.6833 85.595 50.0555 85.595 50.2648Z" fill="#2596BE"/>
<path d="M75.48 87.3718C75.48 89.4643 78.948 97.4855 81.6212 101.531C84.3667 105.646 91.5917 112.97 92.8922 112.97C93.2535 112.97 91.664 110.738 89.2075 108.088C83.7887 101.95 81.6935 98.8108 78.948 92.4635C76.636 87.0928 75.48 85.4885 75.48 87.3718Z" fill="#2596BE"/>
<path d="M81.9824 92.1148C82.7772 94.0678 84.5834 97.346 86.0284 99.5083C88.6294 103.414 95.5654 110.529 96.2157 109.901C96.4324 109.762 94.4817 107.111 91.8807 104.042C89.3519 100.973 85.9562 96.2998 84.4389 93.5098C81.1877 87.7205 79.9594 87.023 81.9824 92.1148Z" fill="#2596BE"/>
</svg>
