<svg xmlns="http://www.w3.org/2000/svg" fill="none" viewBox="0 0 400 400" id="Online-Savings-1--Streamline-Milano.svg" height="400" width="400"><desc>Online Savings 1 Streamline Illustration: https://streamlinehq.com</desc><g id="online-savings-1--finance-money-online-savings"><g id="phone"><path id="vector" fill="#2596be" d="M355.346 84.8352c-0.206 -7.756 -0.91 -11.742 -6.446 -14.774 -8.718 -4.778 -25.546 -6.156 -27.048 -6.156 -3.514 0 -4.25 0.63 -5.338 1.84 -1.346 1.496 -3.304 3.528 -5.378 6.006 -2.534 3.028 -2.754 3.088 -3.62 3.088 -0.042 0 -1.774 -0.064 -1.774 -0.064 -7.376 -0.276 -24.652 -0.918 -54.084 -3.562 -2.864 -0.258 -2.61 -0.566 -3.702 -3.018 -3.4 -7.626 -3.012 -8.728 -6.068 -8.938 -8.08 -0.556 -20.296 -1.388 -27.366 0.218 -8.864 2.012 -11.398 8.482 -12.818 15.174 -2.4282 11.448 -6.3902 46.31 -10.4602 86.898 0.836 0.06 1.662 0.148 2.478 0.262 3.004 -27.51 8.5922 -76.732 8.6602 -77.31 1.164 -9.934 2.366 -20.208 12.264 -22.788 6.044 -1.576 21.468 -0.546 25.76 -0.5 4.06 0.052 1.456 1.112 6.634 10.408 0.836 1.502 1.772 1.952 4.766 2.286 7.25 0.816 44.936 3.706 56.178 3.61 1.756 -0.054 2.866 -0.7 3.824 -2.222 0.358 -0.482 6.628 -8.192 8.094 -8.582 1.946 -0.518 6.858 -0.042 9.182 0.284 7.044 0.978 13.84 2.132 19.528 5.49 3.78 2.232 4.4 6.572 4.506 10.928 0.324 13.538 -1.938 32.46 -3.932 49.156 -1.268 10.604 -17.656 160.8348 -24.96 211.3708 -2.06 14.27 -3.59 20.45 -5.848 23.612l-0.022 0.04c-3.42 4.75 -8.74 4.632 -20.364 4.37 -19.816 -0.448 -70.13 -5.22 -90.606 -8.242 -10.1142 -1.494 -19.6462 -3.308 -25.1142 -9.022 -3.06 -3.2 -3.384 -7.178 -3.49 -12.046 -0.084 -3.792 0.064 -11.32 0.546 -20.014 -0.784 0.286 -1.57 0.57 -2.356 0.85 -0.292 4.432 -0.458 7.552 -0.472 9.084 -0.054 5.978 -0.834 15.454 1.724 20.524 2.114 4.192 6.502 7.596 12.04 9.34 22.2982 7.036 108.8222 13.18 117.9982 12.318 9.46 -0.898 11.234 -3.536 12.796 -5.864 3.164 -4.712 5.014 -18.55 5.758 -24.194 3.686 -27.942 24.676 -209.4588 24.792 -210.3688 1.308 -10.28 4.062 -37.012 3.732 -49.492h0.006Z" stroke-width="1"></path><path id="vector_2" fill="#2596be" d="M291.908 62.6534c1.308 0.128 8.718 0.668 10.826 1.64 1.08 0.498 1.416 1.154 1.238 2.388 -0.1 0.69 -1.022 1.644 -1.814 1.656 -8.65 0.138 -13.946 -1.116 -18.298 -1.304 -3.078 -0.132 -4.714 -0.418 -9.85 -1.188 -1.882 -0.282 -2.06 -2.756 -0.694 -3.854 1.72 -1.382 12.522 0.068 18.592 0.662Z" stroke-width="1"></path><path id="vector_3" fill="#2596be" d="M259.45 62.732c-0.154 -2.268 1.91 -3.548 3.542 -3.72 1.652 -0.176 3.668 1.628 3.608 3.244 -0.082 2.276 -1.616 3.814 -3.758 3.9 -1.732 0.068 -3.612 -1.536 -3.392 -3.422v-0.002Z" stroke-width="1"></path><path id="vector_4" fill="#2596be" d="M376.644 114.0074c-0.04 -1.916 -0.926 -2.502 -2.236 -2.742 -0.646 -0.116 -2.782 -0.356 -4.38 -0.378 -2.564 -0.034 -4.25 -0.054 -4.872 2.368 -1.168 4.578 -3.566 27.21 -2.892 31.72 0.106 0.716 0.278 1.2 0.84 1.548 1.984 1.224 7.132 1.798 8.484 1.226 0.996 -0.422 1.37 -1.69 1.79 -4.198 0.614 -3.646 3.566 -25.51 3.264 -29.546l0.002 0.002Zm-9.318 31.526c-1.03 -0.052 -2.436 -0.556 -2.798 -0.674 -0.88 -0.286 1.274 -26.486 2.724 -31.29 0.092 -0.308 0.486 -0.696 0.78 -0.768 0.522 -0.132 2.43 0.006 2.968 0.054 -0.58 0.572 -0.626 1.164 -0.742 1.69 -1.394 6.378 -3.004 25.36 -3.064 29.652 -0.008 0.642 0.034 1.014 0.13 1.334l0.002 0.002Zm3.046 0.052c-0.89 -0.024 -1.012 -0.248 -1.028 -1.13 -0.052 -3.042 1.534 -24.56 2.958 -29.934 0.168 -0.628 0.39 -1.04 1.496 -1.04 0.396 0 0.684 0.21 0.712 0.428 0.524 4.062 -2.684 26.486 -3.378 30.756 -0.148 0.896 -0.29 0.928 -0.758 0.918l-0.002 0.002Z" stroke-width="1"></path><path id="vector_5" fill="#2596be" d="M372.114 156.648c-0.04 -1.916 -0.926 -2.502 -2.236 -2.742 -0.646 -0.116 -2.782 -0.356 -4.38 -0.378 -2.564 -0.034 -4.25 -0.054 -4.872 2.368 -1.168 4.578 -3.566 27.21 -2.892 31.72 0.106 0.716 0.278 1.2 0.84 1.548 1.984 1.224 7.132 1.798 8.484 1.226 0.996 -0.422 1.37 -1.69 1.79 -4.198 0.614 -3.646 3.566 -25.51 3.264 -29.546l0.002 0.002Zm-9.318 31.526c-1.03 -0.052 -2.436 -0.556 -2.798 -0.674 -0.88 -0.286 1.274 -26.486 2.724 -31.29 0.092 -0.308 0.486 -0.696 0.78 -0.768 0.522 -0.132 2.43 0.006 2.968 0.054 -0.58 0.572 -0.626 1.164 -0.742 1.69 -1.394 6.378 -3.004 25.36 -3.064 29.652 -0.008 0.642 0.034 1.014 0.13 1.334l0.002 0.002Zm3.046 0.052c-0.89 -0.024 -1.012 -0.248 -1.028 -1.13 -0.052 -3.042 1.534 -24.56 2.958 -29.934 0.168 -0.628 0.39 -1.04 1.496 -1.04 0.396 0 0.684 0.21 0.712 0.428 0.524 4.062 -2.684 26.486 -3.378 30.756 -0.148 0.896 -0.29 0.928 -0.758 0.918l-0.002 0.002Z" stroke-width="1"></path><path id="vector_6" fill="#2596be" d="M352.618 107.7196c-58.304 -5.552 -86.036 -8.106 -152.8962 -12.164 -0.28 0.01 -0.216 0.168 -0.366 1.734 -0.132 1.398 34.4122 0.958 153.0502 12.574 0.102 0 0.198 -0.076 0.208 -0.18 0.136 -1.344 0.344 -1.932 0 -1.964h0.004Z" stroke-width="1"></path><path id="vector_7" fill="#2596be" d="M324.366 90.3816c-0.006 -0.486 -0.162 -0.53 -0.552 -0.602 -0.186 -0.034 -1.272 -0.05 -1.802 -0.556 -0.49 -0.468 -0.41 -1.03 0.142 -1.872 0.456 -0.698 5.55 -6.53 8.118 -8.604 1.262 -1.018 2.072 -1.17 3.068 -0.124 1.05 1.102 3.284 4.32 6.238 8.95 2.112 3.31 0.128 3.232 -1.818 3.202 -0.298 -0.004 -0.26 0.402 -0.282 0.656 -0.44 5.162 0.618 6.186 -4.198 5.598 -1.404 -0.172 -0.95 -0.448 -0.814 -5.236 0.008 -0.298 0.088 -0.802 -0.25 -0.914 -0.444 -0.146 -2.326 -0.24 -2.96 -0.17 -0.348 0.038 -0.374 0.54 -0.416 1.23 -0.29 4.9 -0.15 4.548 -1.392 4.576 -2.442 0.054 -3.252 -0.49 -3.392 -1.416 -0.126 -0.826 0.318 -4.282 0.312 -4.714l-0.002 -0.004Z" stroke-width="1"></path><path id="vector_8" fill="#2596be" d="M215.364 82.2994c0.478 0.652 1.778 2.154 2.546 3.302 0.444 0.664 0.876 1.238 -0.05 1.96 -0.9 0.702 -1.462 0.194 -2.152 -0.536 -0.58 -0.616 -3.982 -5.362 -4.448 -6.096 -0.51 -0.806 -0.81 -1.28 -0.038 -2.126 0.992 -1.088 3.51 -2.806 7.342 -4.8 0.358 -0.186 0.888 0.042 1.162 0.3 0.554 0.518 0.676 0.984 0.182 1.536 -1.246 1.394 -5.85 3.024 -4.112 3.11 2.048 0.102 8.222 0.334 10.726 0.79 1.122 0.204 0.648 2.608 0.024 2.77 -0.714 0.186 -9.684 -0.574 -10.818 -0.71 -0.216 -0.026 -0.934 -0.27 -0.37 0.502l0.006 -0.002Z" stroke-width="1"></path><path id="vector_9" fill="#2596be" d="M370.332 71.3756c-9.58 -9.93 -26.188 -12.542 -39.858 -14.406 -31.44 -4.288 -71.942 -5.032 -93.002 -5.524 -13.086 -0.304 -24.224 0.148 -27.854 0.972 -16.6702 3.782 -15.3402 17.96 -21.7722 60.352 -2.06 13.568 -4.186 30.586 -6.254 49.278 0.926 -0.16 1.846 -0.284 2.756 -0.378 5.018 -43.278 10.008 -79.53 12.494 -92.616 1.438 -7.566 5.9462 -13.52 13.5262 -14.882 6.324 -1.138 18.218 -0.984 26.246 -0.756 26.442 0.748 85.192 1.688 110.696 9.136 16.756 4.892 17.624 12.696 16.23 31.204 -6.39 84.8 -17.614 169.6384 -24.07 217.1784 -0.552 4.062 -3.378 30.328 -5.992 45.942 -4.464 26.656 -10.894 25.262 -35.756 23.866 -31.554 -1.772 -90.68 -6.478 -106.1362 -10.14 -5.624 -1.334 -11.01 -2.472 -15.432 -6.138 -2.77 -2.296 -4.962 -4.742 -6.042 -10.374 -1.012 -5.272 -0.78 -16.514 -0.208 -28.166 -0.676 0.224 -1.35 0.446 -2.024 0.664 -0.284 5.786 -0.482 10.838 -0.584 14.994 -0.182 7.512 0.684 15.744 3.024 19.792 5.376 9.304 10.128 13.17 20.926 16.122 15.5282 4.242 92.1582 11.842 115.6142 12.424 15.764 0.392 28.226 -0.03 33.286 -15.1 2.968 -8.846 5.804 -33.828 7.168 -44.614 4.396 -34.796 10.986 -90.686 16.508 -139.9844 -0.258 -0.022 -0.532 -0.044 -0.824 -0.068 -0.776 -0.062 -3.25 -0.62 -4.26 -1.244 -0.458 -0.282 -0.602 -0.664 -0.702 -1.336 -0.674 -4.532 1.776 -27.264 2.886 -31.602 0.576 -2.25 2.098 -2.172 4.78 -2.138 0.648 0.008 1.414 0.064 2.112 0.13 0.232 -2.158 0.462 -4.282 0.684 -6.37 -0.3 -0.024 -0.624 -0.05 -0.972 -0.08 -0.776 -0.062 -3.25 -0.62 -4.26 -1.244 -0.458 -0.282 -0.602 -0.664 -0.702 -1.336 -0.674 -4.532 1.776 -27.264 2.886 -31.602 0.576 -2.25 2.098 -2.172 4.78 -2.138 0.61 0.008 1.324 0.058 1.988 0.118 0.882 -9.214 1.462 -16.108 1.646 -19.852 0.602 -12.372 0.096 -16.324 -3.53 -20.082l-0.002 -0.002Z" stroke-width="1"></path></g><g id="cash 1"><path id="vector_10" fill="#2596be" d="M34.93 205.894c1.47 1.402 7.04 5.094 9.096 6.344 30.44 18.492 50.99 29.298 67.136 35.98 1.77 -0.14 3.528 -0.292 5.268 -0.458 -29.062 -11.33 -61.946 -32.524 -78.534 -42.136 -0.816 -0.472 -1.458 -0.844 -1.522 -0.976 0 -0.054 0.094 -0.23 0.2 -0.434 9.596 -18.5038 13.938 -28.9198 29.584 -64.4978 0.134 -0.306 0.554 -1.24 0.75 -1.3 0.796 0 4.432 3.85 34.838 21.852 18.724 11.084 32.822 18.162 50.546 23.846 0.322 -0.658 0.662 -1.31 1.02 -1.956 -27.204 -8.744 -47.188 -21.4 -84.226 -44.676 -1.112 -0.698 -2.086 -1.65 -3.146 -1.046 -0.93 0.532 -1.152 1.198 -5.246 10.624 -7.256 16.69 -15.952 36.538 -24.234 52.742 -2.15 4.1998 -2.598 5.0738 -1.53 6.0918Z" stroke-width="1"></path><path id="vector_11" fill="#2596be" d="M46.1038 203.936c1.208 0.522 0.03 0.194 20.802 12.19 12.184 7.038 11.626 6.906 28.236 14.848 14.96 7.156 26.176 11.718 36.37 14.806 11.522 -2.052 23.01 -5.342 33.772 -8.866 0.89 -0.566 1.852 -1.112 2.896 -1.622 -12.28 -6.914 -20.034 -20.164 -19.74 -34.126 -0.14 -3.9538 0.492 -8.0538 1.812 -12.0518 -5.328 -1.87 -10.962 -4.324 -20.582 -8.654 -13.334 -6 -30.156 -16.534 -43.67 -24.996 -4.094 -2.564 -12.1998 -7.57 -12.5758 -7.812 -1.2662 -0.814 -2.0322 -1.304 -2.8442 -1.06 -1.898 0.572 -1.438 2.338 -25.36 54.7218 -0.484 1.064 -0.182 2.162 0.88 2.622h0.004Zm26.5 -17.2878c-1.894 -0.872 -2.578 -2.212 -2.334 -4.136 0.13 -1.026 0.86 -1.732 1.786 -1.922 1.836 -0.38 3.67 0.142 4.436 2.2 0.164 0.44 0.208 0.926 0.304 1.392 0.212 1.814 -2.0758 3.44 -4.19 2.466h-0.002Zm66.174 10.826c16.646 19.3178 3.834 36.8058 -19.772 32.3998 -5.258 -0.982 -10.996 -3.212 -14.488 -5.332 -1.096 -0.666 -5.724 -3.216 -8.53 -5.914 -1.458 -1.402 -5.238 -4.452 -8.504 -10.02 -6.834 -11.6478 -3.118 -23.7538 10.362 -26.8398 13.45 -3.078 30.884 4.044 40.932 15.706Zm-67.626 -48.932c0.118 0.012 0.632 0.388 0.742 0.456 12.184 7.522 17.416 10.786 17.174 10.968 -5.806 3.738 -15.1 5.48 -24.39 3.178 0.074 -0.326 6.272 -14.496 6.474 -14.602Zm-17.622 40.058c0.22 -0.574 0.43 -1.122 0.566 -1.336 0.084 0.05 0.228 0.152 0.48 0.366 7.256 6.126 11.746 15.5138 10.7242 24.9118 -11.568 -6.392 -17.3402 -10.21 -17.8462 -10.47 0.068 -0.358 4.552 -9.4818 6.076 -13.4718Z" stroke-width="1"></path><path id="vector_12" fill="#2596be" d="M118.046 191.7724c0.972 0.108 0.658 -0.258 1.474 -2.458 0.428 -1.154 1.324 -1.096 2.084 -0.686 0.73 0.394 0.628 1.072 0.394 1.932 -0.472 1.736 -0.806 1.856 -0.02 2.218 2.874 1.326 5.618 3.446 6.158 6.566 0.432 2.4876 -2.192 3.1356 -2.65 0.9376 -0.308 -1.4776 -1.072 -2.6376 -2.326 -3.4956 -1.4 -0.96 -2.862 -1.802 -4.556 -2.048 -2.176 -0.316 -4.23 -0.492 -6.162 0.79 -1.56 1.036 -1.9 2.264 -1.878 3.11 0.09 3.3016 9.622 5.4716 12.38 10.0816 2.896 4.842 -1.112 13.324 -9.78 10.556 -0.884 -0.282 -0.58 0.316 -2.118 2.524 -1.108 1.592 -3.286 0.038 -2.67 -1.292 1.258 -2.716 1.262 -2.532 0.66 -2.852 -3.356 -1.784 -5.448 -4.66 -6.312 -7.138 -0.416 -1.192 -0.472 -2.354 0.532 -2.824 0.674 -0.316 1.47 -0.224 2.11 1.242 2.166 4.958 7.226 8.518 12.47 7.534 3.418 -0.642 4.114 -5.992 0.81 -8.14 -5.396 -3.508 -9.384 -4.85 -10.598 -7.508 -1.95 -4.2696 2.342 -9.8956 9.996 -9.0476l0.002 -0.002Z" stroke-width="1"></path></g><g id="cash 2"><path id="vector_13" fill="#2596be" d="M181.556 319.84c-11.456 4.278 -23.832 8.234 -34.664 10.268 -28.148 5.284 -46.644 5.508 -75.198 5.616 -26.6 0.1 -33.362 -0.998 -37.214 -1.108 -1.136 -0.034 -0.56 -1.598 -1.366 -13.596 -1.824 -27.078 -7.836 -69.38 -7.084 -71.008 0.246 -0.218 3.312 0.142 17.038 0.546 75.118 2.194 94.388 -2.232 127.968 -13.81 -0.88 -0.404 -1.74 -0.838 -2.58 -1.302 -13.922 4.674 -29.97 9.354 -45.584 11.22 -39.782 4.76 -92.816 0.958 -97.41 1.198 -1.66 0.074 -1.658 1.218 -1.526 2.992 0.484 6.498 4.09 38.806 4.556 42.876 3.338 29.088 2.66 40.354 3.638 41.98 0.59 0.982 1.988 1.02 6.898 1.416 19.3 1.564 81.288 1.2 108.888 -4.65 10.932 -2.318 23.576 -6.43 35.508 -10.938 -0.588 -0.546 -1.21 -1.114 -1.872 -1.7h0.004Z" stroke-width="1"></path><path id="vector_14" fill="#2596be" d="M168.524 305.238c-2.696 -5.066 -2.2378 -5.348 -3.28 -4.656 -1.396 0.926 -5.324 3.528 -13.268 1.308 -1.056 -0.294 -0.3 0.656 -3.712 1.188 -0.764 0.12 -1.512 0.102 -2.258 0.038 -3.016 2.908 -6.73 5.296 -10.466 7.004 -21.892 10.01 -56.112 3.12 -59.924 -16.602 -2.778 -14.39 13.58 -27.798 37.482 -29.002 10.624 -0.536 24.632 2.988 32.848 10.572 6.12 -2.356 12.768 1.396 12.834 10.836 0.004 0.582 -0.116 1.158 -0.15 1.74 -0.046 0.79 0.156 0.382 2.322 -0.532 0.63 -0.268 0.35 -0.744 0.096 -2.38 -1.19 -7.692 -1.576 -15.32 0.64 -24.07 0.3762 -1.488 0.812 -2.952 1.294 -4.384 -2.7 -1.55 -5.336 -3.602 -7.94 -6.162 -0.07 -0.068 -0.106 -0.116 -0.106 -0.116 0.168 -0.218 6.5402 -2.144 12.608 -3.95 0.456 -0.802 0.926 -1.582 1.41 -2.334 -14.772 4.684 -26.954 8.748 -57.12 11.274 -28.888 2.422 -49.482 -0.18 -76.996 -0.18 -2.464 0 -2.044 1.822 -1.378 7.89 4.314 39.43 1.146 19.754 5.504 53.324 1.596 12.29 -0.102 13.636 3.73 13.636 0.202 0 3.622 -0.074 3.822 -0.094 46.694 -0.016 48.01 -0.15 64.102 -1.776 16.29 -1.648 25.734 -2.062 41.642 -5.698 8.35 -1.908 16.544 -4.448 23.988 -7.1 -3.04 -2.924 -5.682 -5.95 -7.716 -9.776l-0.008 0.002Zm-105.368 -13.006c-0.124 1.628 -1.84 3.124 -3.804 2.972 -3.514 0.208 -5.9 -4.148 -2.994 -6.138 3.538 -2.42 7.006 0.466 6.798 3.166Zm-26.194 -16.882c-0.104 0.026 -0.156 0.022 -0.172 0.008 -0.208 -0.164 -0.264 -1.516 -0.294 -2.246 -0.118 -2.894 -1.15 -11.032 -1.246 -12.38 -0.178 -2.56 -0.572 -3.586 -0.616 -4.066 1.938 -0.088 25.26 0.578 25.46 0.722 0 0 0.002 0.09 -0.128 0.346 -3.4 6.654 -12.05 15.002 -23.002 17.614l-0.002 0.002Zm20.372 52.416c-2.902 0.022 -10.61 0.086 -14.642 -0.13 -0.4092 -0.022 -0.7046 -1.11 -0.886 -3.268 -0.704 -8.366 -1.324 -12.054 -1.556 -14.914 -0.01 -0.128 -0.092 -1.16 -0.116 -1.288 0.026 -0.01 0.096 -0.026 0.286 -0.03 6.02 1.502 12.352 3.376 17.81 8.164 3.522 3.086 7.666 8.042 8.642 11.356 -1.496 0.328 -5.862 0.082 -9.538 0.11Z" stroke-width="1"></path><path id="vector_15" fill="#2596be" d="M110.1238 286.904c5.98 -0.22 11.458 -1.27 15.146 2.616 3.724 3.924 4.076 12.452 -5.348 14.788 -0.756 0.188 -0.878 -0.174 -0.736 3.646 0.086 2.308 -3.272 2.326 -3.522 0.32 -0.652 -5.244 0.778 -1.952 -5.802 -3.6 -1.544 -0.388 -4.928 -2.064 -6.494 -3.824 -1.228 -1.38 -0.278 -2.822 0.52 -2.94 2.646 -0.39 2.13 1.32 5.162 2.566 4.532 1.864 10.22 1.458 13.792 -1.602 3.098 -2.656 0.694 -8.75 -4.418 -8.704 -1.064 0.01 -2.122 -0.138 -3.186 -0.158 -0.718 -0.014 -1.436 0.1 -2.156 0.116 -0.56 0.012 -1.122 -0.07 -1.682 -0.062 -0.56 0.008 -1.15 0.128 -1.728 0.112 -4.318 -0.118 -7.902 -1.246 -8.352 -5.752 -0.228 -2.292 0.352 -4.352 0.93 -5.15 0.742 -1.022 2.446 -3.354 3.558 -3.958 3.432 -1.858 3.538 -1.474 3.406 -2.206 -0.42 -2.318 -1.126 -3.82 0.47 -4.41 1.87 -0.692 2.228 1.478 2.628 3.298 0.278 1.262 0.124 0.124 4.938 0.686 3.874 0.452 5.512 2.102 6.52 3.888 0.764 1.354 -1.084 3.144 -2.4 1.802 -5.932 -6.04 -17.612 -0.348 -16.702 5.95 0.32 2.214 4.078 2.762 5.456 2.578Z" stroke-width="1"></path></g><g id="amount"><path id="vector_16" fill="#2596be" d="M323.364 132.8662c-0.52 2.156 -1.984 5.86 -4.048 6.64 -1.3 0.49 -1.794 0.698 -4.456 -0.636 -2.662 -1.334 -2.704 -10.96 1.346 -15.428 3.048 -3.36 9.84 -1.698 7.16 9.422l-0.002 0.002Zm-3.564 -7.624c-1.578 -0.358 -2.57 1.03 -3.056 2.574 -0.802 2.55 -1.648 5.664 -0.394 8.19 0.212 0.428 0.564 0.62 1.076 0.664 2.956 0.254 5.22 -10.784 2.376 -11.428h-0.002Z" stroke-width="1"></path><path id="vector_17" fill="#2596be" d="M311.496 126.7604c-0.834 5.2 -0.732 6.416 -3.036 9.888 -1.932 2.91 -6.11 1.878 -7.314 -0.718 -2.214 -4.776 0.428 -15.73 6.068 -15.49 1.656 0.07 3.32 1.342 3.708 2.94 0.266 1.096 0.382 2.226 0.574 3.38Zm-8.294 4.926c0.204 1.524 0.142 3.874 2.2 3.492 2.35 -0.436 3.198 -6.936 3.06 -9.386 -0.182 -3.252 -4.8 -3.716 -5.262 5.892l0.002 0.002Z" stroke-width="1"></path><path id="vector_18" fill="#2596be" d="M226.11 122.0844c0.004 2.118 -1.824 4.542 -4.796 4.804 -1.166 0.104 -0.194 0.798 -0.964 2.084 -0.536 0.898 -2.08 0.972 -2.172 -0.486 -0.07 -1.118 0.304 -1.528 -0.668 -1.594 -3.51 -0.24 -3.206 -3.214 -1.666 -3.152 4.838 0.194 6.092 0.752 7.172 -1.034s-1.454 -2.056 -2.978 -2.47c-1.868 -0.508 -4.564 -0.672 -4.588 -3.762 -0.018 -2.196 1.49 -4.274 3.618 -4.988 1.474 -0.494 0.306 -0.516 0.806 -2.226 0.46 -1.578 2.76 -1.612 2.488 1.022 -0.096 0.922 -0.1 0.95 0.79 1.2 3.804 1.066 2.558 5.686 0.896 4.124 -0.714 -0.672 -1.034 -1.906 -2.538 -1.836 -1.778 0.084 -2.786 0.07 -3.496 2.284 -0.648 2.014 8.084 0.556 8.096 6.03Z" stroke-width="1"></path><path id="vector_19" fill="#2596be" d="M249.914 124.4446c0.092 -0.382 -0.084 -0.5 -0.444 -0.332 -3.346 1.546 -6.45 -0.618 -6.45 -3.334 0 -3.53 3.518 -6.9178 7.582 -5.6318 2.268 0.718 3.208 3.496 2.7 4.838 -0.07 0.186 0.162 10.5138 -5.83 12.1598 -4.802 1.32 -6.462 -2.562 -4.174 -2.782 3.06 -0.294 5.084 1.5 6.616 -4.918Zm-2.686 -2.732c2.044 -0.144 3.85 -2.11 3.186 -3.168 -0.448 -0.714 -2.022 -1.2538 -2.766 -0.8838 -2.58 1.286 -2.422 4.1918 -0.42 4.0518Z" stroke-width="1"></path><path id="vector_20" fill="#2596be" d="M282.116 128.306c-0.07 0.972 0.444 0.548 1.648 1.354 0.644 0.432 0.856 1.752 -1.18 2.002 -0.95 0.116 -0.802 -0.014 -1.312 3.144 -0.092 0.568 -0.116 1.806 -0.784 1.972 -1.1 0.274 -2.21 -0.132 -2.114 -1.096 0.478 -4.826 1.022 -3.704 -1.686 -4.04 -3.38 -0.42 -5.19 -0.946 -3.63 -4.102 1.774 -3.588 2.832 -5.96 4.76 -8.658 1.108 -1.554 3.668 -1.978 4.494 -0.254 0.914 1.91 0.228 3.822 -0.196 9.678Zm-4.464 0.676c0.012 -0.092 0 -0.016 1.038 -0.046 0.568 -0.016 0.532 -0.51 0.71 -2.056 0.518 -4.49 1.188 -8.426 -0.278 -5.64 -0.084 0.158 -3.586 6.852 -3.634 7.026 -0.15 0.558 0.124 0.454 2.164 0.716Z" stroke-width="1"></path><path id="vector_21" fill="#2596be" d="M267.974 119.228c-3.936 -0.316 -3.678 -0.474 -3.85 0.456 -0.42 2.28 -0.416 2.686 0.174 2.632 5.758 -0.516 8.274 7.314 4.162 10.44 -2.038 1.55 -3.7 2.668 -6.632 1.69 -1.346 -0.45 -2.812 -2.404 -1.736 -3.276 0.528 -0.428 0.968 -0.594 2.222 0.3 2.306 1.644 5.162 -0.578 5.258 -3.21 0.086 -2.362 -1.976 -3.42 -3.75 -3.218 -0.374 0.042 -0.736 0.152 -1.104 0.22 -1.038 0.188 -1.822 -0.51 -1.752 -1.558 0.516 -7.658 0.338 -8.536 8.176 -6.99 0.502 0.1 0.914 0.336 1.058 0.868 0.446 1.632 -0.644 1.616 -2.226 1.616v0.03Z" stroke-width="1"></path><path id="vector_22" fill="#2596be" d="M231.77 128.7542c1.894 -9.17 6.118 -11.712 4.282 -11.84 -2.292 -0.16 -6.398 0.254 -5.574 -1.972 0.458 -1.234 2.122 -1.41 2.858 -1.266 0.964 0.188 4.182 0.43 6.01 0.752 1.168 0.206 1.31 1.412 0.888 2.084 -7.272 11.626 -4.768 14.636 -7.624 14.094 -0.502 -0.096 -0.626 -0.51 -0.714 -0.906 -0.108 -0.482 0.098 -0.91 -0.126 -0.946Z" stroke-width="1"></path><path id="vector_23" fill="#2596be" d="M287.016 135.8466c1.158 -9.156 0.702 -7.466 1.466 -12.218 0.354 -2.196 -1.162 0.344 -2.392 -0.748s0.862 -2.958 2.296 -3.816c0.854 -0.512 1.79 -0.378 2.678 -0.042 1.396 0.53 0.57 4.618 -0.274 12.006 -0.796 6.956 -0.734 6.876 -3.032 6.536 -1.126 -0.166 -0.49 -1.698 -0.744 -1.72l0.002 0.002Z" stroke-width="1"></path><path id="vector_24" fill="#2596be" d="M255.284 135.2624c-0.79 0.634 -2.018 0.374 -1.532 -0.656 0.486 -1.03 1.382 -1.15 0.598 -1.71 -1.272 -0.908 -1.158 -2.582 0.22 -3.256 1.848 -0.904 4.604 2.494 0.714 5.622Z" stroke-width="1"></path><path id="vector_25" fill="#2596be" d="M296.438 136.0084c-0.004 2.404 -3.332 2.446 -3.348 0.124 -0.018 -2.476 3.626 -2.114 3.348 -0.124Z" stroke-width="1"></path><path id="vector_26" fill="#2596be" d="M279.478 159.2188c1.494 -0.146 1.72 1.38 2.986 1.076 1.94 -0.464 4 -0.794 5.694 0.578 0.586 0.474 0.532 -0.22 2.974 -0.208 2.628 0.012 2.112 1.542 3.604 0.798 0.876 -0.438 2.146 -0.598 3.342 0.154 1.292 0.81 2.698 -0.44 5.15 0.294 1.208 0.362 1.088 1.14 0.27 1.3 -0.57 0.11 -1.13 0.278 -1.698 0.37 -3.322 0.536 -3.36 0.57 -4.36 -0.15 -2.04 -1.466 -3.396 1.52 -4.638 -0.016 -1.312 -1.62 -2.94 -0.702 -4.04 -0.336 -1.886 0.626 -0.926 -1.232 -3.492 -1.354 -2.7 -0.128 -3.58 1.536 -4.818 -0.07 -1.238 -1.606 -3.19 -0.226 -4.904 0.366 -0.718 0.248 -1 -0.548 -0.76 -0.926 0.806 -1.266 3.194 -1.84 4.692 -1.872l-0.002 -0.004Z" stroke-width="1"></path><path id="vector_27" fill="#2596be" d="M317.202 162.9942c-0.158 -9.434 -2.42 -9.138 -34.074 -11.408 -39.796 -2.856 -56.714 -6.072 -61.71 -4.88 -3.704 0.884 -5.256 4.348 -5.52 8.13 -0.774 11.164 2.624 11.908 15.81 12.738 0.078 0.004 7.902 1.162 10.054 1.424 14.058 1.712 62.654 5 62.694 5.008 2.836 0.514 7.872 0.306 9.942 -1.76 1.064 -1.062 1.764 -2.396 2.092 -3.842 0.44 -1.94 0.736 -3.912 0.71 -5.412l0.002 0.002Zm-65.6 -4.872c-0.82 0.504 -5.762 1.766 -6.354 1.766 -0.686 0 -0.922 -0.458 -1.232 -0.996 -0.456 -0.764 -2.228 1.872 -3.166 -0.34 -0.214 -0.5066 -0.562 -0.762 -1.04 -0.766 -1.972 -0.004 -4.26 2.336 -4.6 0.056 -0.152 -1.004 -0.156 -1.002 -1.124 -0.87 -2.132 0.29 -3.242 1.278 -4.114 0.882 -0.832 -0.37 -0.59 -1.65 -1.294 -1.512 -3.026 0.586 -3.522 1.192 -3.958 0.542 -0.154 -0.232 -0.148 -0.542 0.016 -0.81 0.552 -0.906 2.918 -1.4 4.03 -1.412 -0.2 0 1.1 -0.314 2.002 1.094 0.09 0.14 0.326 0.078 0.928 -0.12 0.656 -0.214 1.644 -0.542 3.006 -0.542 2.438 -0.004 1.786 1.556 2.51 1.284 1.386 -0.514 3.946 -0.898 4.916 0.268 0.72 0.878 2.044 -0.822 3.318 0.806 0.6 0.774 4.616 -2.08 6.218 0.388 0.06 0.092 0.036 0.218 -0.064 0.28l0.002 0.002Zm62.652 11.292c-1.566 3.19 -4.414 2.944 -7.276 3.19 -13.53 -1.274 -16.196 -0.18 -31.042 -2.308 -7.592 -1.088 -13.704 -0.22 -13.438 -8.522 0.128 -4.016 0.294 -5.064 1.55 -6.982 1.954 -2.986 5.012 -2.602 10.062 -2 3.53 0.42 17.268 0.612 33.28 2.534 3.152 0.378 6.63 0.234 7.916 4.48 0.924 3.056 0.142 7.18 -1.05 9.61l-0.002 -0.002Z" stroke-width="1"></path></g><g id="coin 1"><path id="vector_28" fill="#2596be" d="M173.516 237.778c0.69 -0.762 1.31 -1.47 1.948 -2.176 -14.11 -4.892 -24.094 -17.862 -24.786 -32.976 -0.89 -19.472 13.6038 -36.9982 34.0818 -38.9322 10.474 -0.99 21.2502 2.882 28.2762 9.846 9.456 9.372 13.094 22.8022 10.486 35.0622 0.834 -0.19 1.656 -0.364 2.468 -0.522 5.272 -27.3662 -19.18 -54.006 -49.778 -44.758 -17.43 5.268 -28.314 22.6498 -27.774 37.844 -0.334 15.89 9.756 30.858 25.078 36.612Z" stroke-width="1"></path><path id="vector_29" fill="#2596be" d="M177.918 229.866c0.902 0.284 1.824 0.528 2.762 0.738 0.378 -0.314 0.78 -0.642 1.208 -0.982 0.188 -0.15 0.37 -0.294 0.546 -0.436 -6.484 -1.192 -12.244 -4.57 -16.268 -9.198 -9.862 -11.338 -9.11 -27.2458 -1.03 -37.2578 13.236 -16.4 37.124 -13.636 47.146 2.65 5.134 8.342 5.52 17.7678 2.402 25.7678 0.778 -0.268 1.548 -0.522 2.31 -0.764 7 -21.1398 -10.87 -45.4918 -35.796 -39.7978 -30.268 6.916 -33.236 49.8958 -3.28 59.2798Z" stroke-width="1"></path><path id="vector_30" fill="#2596be" d="M191.178 198.2996c-4.256 -0.116 -5.088 0.682 -8.064 -0.478 -4.926 -1.918 -2.34 -9.406 4.656 -10.81 2.692 -0.54 5.79 -0.18 8.646 2.438 0.806 0.738 1.882 0.848 2.47 -0.3 1.698 -3.312 -5.93 -6.288 -9.642 -6.01 -0.378 0.028 -0.558 -0.078 -0.574 -0.506 -0.03 -0.842 -0.206 -2.708 -0.532 -3.546 -0.318 -0.818 -0.972 -1.132 -1.828 -0.972 -0.714 0.134 -1.106 0.636 -1.158 1.49 -0.056 0.898 0.058 2.354 0.402 3.468 0.22 0.71 -0.27 0.81 -1.208 1.134 -10.698 3.684 -10.996 19.3524 5.112 17.8364 1.814 -0.17 4.742 -0.17 6.076 1.338 4.974 5.624 -0.9 13.378 -12.974 11.13 -1.18 -0.22 -1.96 -0.502 -2.886 -0.166 -1.336 0.484 -1.702 2.986 0.084 3.514 2.26 0.668 5.574 0.872 7.322 0.752 3.256 0 2.238 -0.398 2.476 2.608 0.03 0.374 0.096 0.756 0.22 1.104 0.24 0.668 1.188 1.272 1.774 1.18 0.79 -0.124 1.494 -0.798 1.52 -1.598 0.038 -1.2 0.148 -2.43 -0.258 -3.588 -0.6 -1.718 10.748 -2.808 8.302 -12.92 -0.852 -3.522 -2.822 -6.9044 -9.936 -7.0984Z" stroke-width="1"></path></g><g id="coin 2"><path id="vector_31" fill="#2596be" d="M134.4202 80.63c-16.854 -12.564 -41.266 -2.734 -45.112 18.176 -3.286 17.866 10.65 33.448 27.564 33.448 27.674 0 39.3098 -35.408 17.548 -51.624Zm9.2318 23.1c-0.078 14.564 -12.1498 26.1 -24.7678 26.1 -7.956 0 -14.748 -2.128 -20.316 -7.81 -16.102 -16.436 -4.638 -44.78 19.018 -44.78 14.332 0 26.1458 11.792 26.0658 26.49Z" stroke-width="1"></path><path id="vector_32" fill="#2596be" d="M123.728 81.9404c-17.158 -4.42 -31.21 10.422 -28.458 25.586 2.044 11.256 11.586 18.59 21.956 18.59 11.296 0 21.438 -8.486 22.626 -21.116 0.972 -10.348 -6.112 -20.476 -16.124 -23.06Zm-6.332 42.058c-5.748 0 -10.67 -2.192 -14.402 -5.882 -12.748 -12.61 -4.312 -35.01 14.346 -35.192 5.302 -0.052 10.472 1.942 14.444 5.862 12.706 12.534 4.798 35.014 -14.39 35.212h0.002Z" stroke-width="1"></path><path id="vector_33" fill="#2596be" d="M122.1162 91.7022c-0.752 -0.14 -0.62 -0.08 -0.242 -2.756 -0.042 -0.192 -0.062 -0.474 -0.162 -0.718 -0.486 -1.188 -1.894 -0.806 -2.134 0.298 -0.524 2.392 0.2 2.912 -1.222 2.866 -0.976 -0.034 -3.018 0.566 -4.742 2.006 -1.358 1.138 -2.404 2.376 -2.638 4.244 -0.154 1.234 0.062 2.33 0.664 3.334 1.886 3.13 4.684 3.198 8.438 4.314 2.222 0.66 2.628 2.234 2.732 4.526 0.054 1.138 -0.988 2.82 -2.662 3.334 -4.522 1.386 -6.936 -0.412 -9.02 -1.18 -1.45 -0.532 -3.01 -0.822 -2.646 0.682 0.178 0.736 0.71 1.192 1.296 1.532 4.256 2.484 5.706 1.386 5.362 2.808 -0.02 0.09 -0.59 1.478 -0.216 2.388 0.428 1.042 2.06 0.838 2.334 -0.34 0.544 -2.35 0.278 -2.704 1.042 -2.75 2.902 -0.178 6.03 -1.736 6.932 -4.764 0.86 -2.876 -0.282 -6.076 -1.752 -7.354 -2.662 -2.318 -6.072 -1.824 -8.248 -3.23 -1.408 -0.91 -2.146 -2.268 -1.486 -3.862 0.304 -0.73 0.91 -1.242 1.5 -1.786 1.578 -1.454 3.46 -1.628 5.412 -1.362 3.19 0.436 4.946 3.426 5.394 3.836 0.366 0.332 0.736 0.324 1.108 0.02 2.284 -1.834 -2.384 -5.59 -5.046 -6.088l0.002 0.002Z" stroke-width="1"></path></g><g id="elements"><path id="vector_34" fill="#2596be" d="M149.862 97.353c-0.134 -8.738 -6.72 -16.296 -7.968 -15.448 -0.666 0.402 0.684 1.664 2.112 3.98 5.284 8.576 3.788 13.874 5.144 13.874 0.716 0 0.724 -1.688 0.712 -2.406Z" stroke-width="1"></path><path id="vector_35" fill="#2596be" d="M152.724 170.9506c-13.134 -12.816 -16.746 -20.172 -21.33 -31.5 -1.928 -4.758 -2.034 -5.658 -2.96 -5.262 -1.988 0.848 5.794 26.272 23.494 37.714 0.45 0.292 1.21 0.422 1.258 -0.09 0.036 -0.378 -0.254 -0.656 -0.462 -0.862Z" stroke-width="1"></path><path id="vector_36" fill="#2596be" d="M155.516 164.8088c-16.052 -16.886 -17.962 -28.68 -19.776 -28.452 -2.212 0.324 7.718 23.026 20.586 31.176 0.202 0.096 0.456 0.252 0.766 0.252 0.222 0 0.4 -0.104 0.476 -0.31 0.186 -0.508 -0.84 -1.39 -2.052 -2.666Z" stroke-width="1"></path><path id="vector_37" fill="#2596be" d="M144.936 46.7362c0.306 -0.492 -0.238 -1.108 -1.134 -0.556 -10.668 6.544 -18.594 24.272 -17.45 26.98 0.938 2.198 2.268 -6.34 8.622 -15.064 5.8 -7.962 9.266 -10.228 9.962 -11.36Z" stroke-width="1"></path><path id="vector_38" fill="#2596be" d="M132.3462 72.174c0.444 0 1.782 -2.438 2.486 -3.708 7.006 -12.632 15.332 -19.078 17.156 -20.95 0.084 -0.09 0.126 -0.238 0.08 -0.374 -0.234 -0.66 -1.76 0.11 -2.376 0.524 -11.45 7.668 -19.704 24.508 -17.346 24.508Z" stroke-width="1"></path><path id="vector_39" fill="#2596be" d="M197.568 36.8202c-0.574 -0.054 -0.706 0.484 -0.75 0.66 -0.66 2.61 -2.772 6.992 -4.038 8.748 -2.778 3.846 -4.784 4.474 -4.102 5.33 0.118 0.148 0.29 0.206 0.472 0.146 4.542 -1.54 8.792 -9.334 8.898 -13.93 0.01 -0.596 0.016 -0.908 -0.48 -0.954Z" stroke-width="1"></path><path id="vector_40" fill="#2596be" d="M158.728 10.05648c-4.498 3.088 -7.464 6.802 -8.804 12.61592 -0.018 1.762 1.096 1.852 1.376 0.702 0.224 -0.958 1.064 -3.178 1.988 -4.62992 5.228 -8.238 6.616 -7.158 6.682 -8.324 0.008 -0.152 -0.042 -0.292 -0.144 -0.392 -0.432 -0.434 -0.846 -0.142 -1.096 0.03l-0.002 -0.002Z" stroke-width="1"></path></g><g id="coin 3"><path id="vector_41" fill="#2596be" d="M194.938 26.7658c-4.538 -22.426 -38.114 -23.31 -41.766 2.032 -1.756 12.148 8.412 23.7 21.12 23.7 12.604 -0.002 23.46 -11.828 20.646 -25.732Zm-20.726 23.3c-10.622 0 -19.026 -8.382 -19.074 -19.026 -0.086 -17.188 20.894 -25.164 32.598 -13.414 11.594 11.638 3.322 32.438 -13.524 32.438v0.002Z" stroke-width="1"></path><path id="vector_42" fill="#2596be" d="M174.21 15.30954c0.974 0 -6.24 -0.852 -11.682 5.40606 -8.028 9.232 -2.99 24.332 10.082 25.804 7.022 0.79 13.336 -3.002 16.08 -9.668 4.03 -9.798 -2.852 -21.22206 -14.48 -21.54206ZM161.572 36.1116c-3.854 -9.4 3.498 -18.81006 12.608 -18.81006 7.098 0 13.762 5.64006 13.724 13.63606 -0.034 7.554 -6.15 13.71 -13.632 13.714 -5.662 0.002 -10.54 -3.272 -12.7 -8.54Z" stroke-width="1"></path><path id="vector_43" fill="#2596be" d="M177.814 38.5422c0.4586 -0.2334 0.8026 -0.1366 1.032 0.29 0.432 0.804 0.938 0.942 1.232 0.942 0.466 0 0.842 -0.376 0.858 -0.794 0.024 -0.634 -0.272 -1.134 -0.644 -1.744 -0.198 -0.326 -0.198 -0.326 0.06 -0.642 2.524 -3.114 1.822 -6.302 -1.846 -7.92 -1.152 -0.508 -2.326 -0.088 -3.428 0.382 -2.274 0.976 -2.138 1.426 -3.738 1.362 -1.68 -0.072 -1.946 -2.288 -1.078 -3.74 1.008 -1.686 2.92 -2.508 4.866 -2.086 0.232 0.05 0.486 0.076 0.756 0.076 0.81 -0.006 0.938 -1.046 0.426 -1.588 -0.972 -1.03 -3.556 -0.698 -4.842 -0.026 -0.544 0.286 -0.35 0.064 -1.146 -1.04 -0.684 -0.948 -2.08 -0.472 -1.696 0.84 0.016 0.056 0.07 0.232 0.668 1.032 0.316 0.422 0.322 0.43 -0.04 0.814 -2.996 3.186 -1.068 8.822 3.132 7.782 3.646 -0.894 4.51 -3.37 6.936 -0.636 0.226 0.258 0.298 0.556 0.342 0.956 0.136 1.31 -0.61 2.19 -1.436 2.946 -1.062 0.97 -1.908 1.212 -2.726 1.448 -0.958 0.274 -2.644 0.92 -2.126 1.764 0.426 0.692 2.204 0.724 4.438 -0.414v-0.004Z" stroke-width="1"></path></g><g id="piggy bank"><path id="vector_44" fill="#2596be" d="M265.974 214.018c5.784 3.846 5.476 4.21 5.87 3.686 2.49 -3.312 8.008 -7.07 11.844 -6.548 4.016 0.544 2.006 10.798 1.504 14.124 -0.728 4.822 -1.172 5.116 -0.344 5.722 1.096 0.802 4.996 4.098 9.834 5.51 7.552 2.206 10.692 -0.94 14.102 1.138 9.73 5.926 13.496 38.404 0.726 42.194 -1.342 0.398 -2.746 0.622 -3.986 1.334 -6.418 3.676 -8.276 8.21 -11.898 14.656 -0.18 0.32 -0.494 0.664 -0.51 1.612 -0.06 3.612 1.468 11.138 2.404 17.45 1.442 9.718 1.426 13.518 -8.23 15.852 -7.87 1.902 -8.604 -4.642 -10.254 -5.598 -0.034 0.078 -0.1 0.162 -0.096 0.24 0.04 0.776 0.154 2.11 0.124 2.678 -0.168 3.314 -0.144 5.902 -2.476 8.264 -5.282 5.354 -16.374 7.076 -21.956 -0.05 -2.794 -3.568 -3.878 -8.02 -5.424 -12.816 -0.49 -1.52 -0.282 -0.25 -6.878 0.78 -1.142 0.178 -3.306 0.564 -4.97 0.818 -0.848 0.128 0.596 2.558 0.444 10.27 -0.046 2.288 -0.88 4.256 -2.754 5.632 -1.874 1.376 -9.002 3.994 -12.466 2.632 -0.328 -0.128 -0.522 -0.054 -0.578 0.328 -0.028 0.2 -0.128 0.39 -0.178 0.59 -0.576 2.312 -2.014 3.924 -4.04 5.1 -2.92 1.694 -6.096 1.954 -9.376 1.79 -3.28 -0.164 -7.202 -2.676 -9.178 -7.488 -1.742 -4.244 -3.984 -12.018 -8.626 -16.998 -2.272 -2.438 -1.698 -2.32 -7.232 -7.222 -5.204 -4.608 -9.736 -8.584 -12.848 -14.44 -2.694 -5.068 -2.24 -5.346 -3.28 -4.656 -1.4 0.928 -5.328 3.526 -13.268 1.308 -1.054 -0.294 -0.3 0.654 -3.712 1.188 -1.486 0.232 -2.928 -0.048 -4.394 -0.204 -2.156 -0.228 -4.148 -0.942 -6.03 -1.932 -6.94 -3.646 -5.856 -8.61 -3.044 -8.122 1.628 0.282 5.942 0.888 7.118 0.648 0.51 -0.104 0.606 -0.038 0.382 -0.448 -2.988 -5.494 -3.266 -15.09 3.414 -17.84 6.198 -2.552 13.036 1.188 13.068 10.744 0 0.582 -0.114 1.158 -0.15 1.74 -0.048 0.788 0.158 0.386 2.322 -0.532 0.628 -0.266 0.348 -0.744 0.096 -2.38 -1.192 -7.692 -1.578 -15.32 0.64 -24.07 2.288 -9.028 6.666 -17.238 11.57 -22.616 2.554 -2.802 4.074 -4.816 8.634 -8.446 4.282 -3.41 5.566 -4.836 12.304 -8.824 38.82 -22.9742 63.972 -11.988 71.776 -6.798Zm7.034 95.518c-0.236 -6.184 1.69 -11.97 2.87 0.228 0.05 0.524 0.37 0.286 0.844 0 2.958 -1.782 7.358 -5.428 10.362 -9.244 5.364 -6.812 5.946 -10.478 9.368 -14.912 4.638 -6.014 6.97 -5.866 8.298 -6.94 0.68 -0.55 -2.118 -0.898 -4.834 -7.408 -2.99 -7.164 -4.048 -16.632 -2.264 -24.46 1.542 -6.76 3.734 -6.87 2.122 -7.072 -2.014 -0.254 -2.79 -0.054 -4.606 -0.47 -16.326 -3.74 -22.384 -21.552 -38.738 -26.69 -21.956 -6.898 -43.144 0.104 -61.304 11.586 -24.38 15.416 -36.548 35.132 -30.582 63.354 0.69 3.26 3.312 10.378 6.94 16.35 6.106 10.056 13.946 12.87 21.508 22.77 3.422 4.48 5.432 10.888 7.164 15.25 1.304 3.284 3.974 6.06 7.33 5.834 2.23 -0.15 4.858 -0.096 6.994 -1.698 2.574 -1.932 2.74 -4.58 2.74 -7.944 0 -3.912 -1.376 -12.056 -2.372 -17.894 -0.304 -1.782 -0.858 -3.766 -0.262 -5.34 0.336 -0.888 1.042 -0.038 1.548 0.768 0.882 1.404 1.362 3.836 2.268 7.342 0.234 0.906 0.016 0.746 4.012 0.436 12.954 -1.002 20.764 -2.774 21.292 -2.878 4.008 -0.788 2.176 0.282 1.004 -7.724 -0.204 -1.4 0.034 -1.944 0.192 -2.002 3.414 -1.264 3.854 12.08 9.098 21.644 3.588 6.544 10.836 6.404 16.926 2.82 4.226 -2.488 2.742 -8.448 2.082 -25.706Zm34.43 -69.866c-1.208 -0.64 -3.136 -0.366 -4.148 0.56 -4.202 3.842 -4.236 12.712 -3.932 18.742 0.494 9.796 5.602 19.536 9.792 18.306 9.676 -2.84 7.2 -32.884 -1.71 -37.608h-0.002Zm-14.706 75.394c-2.462 -14.012 -1.8 -13.1 -2.288 -14.04 -0.112 0.058 -0.262 0.092 -0.336 0.182 -3.244 3.942 -2.246 3.256 -5.602 6.312 -4.658 4.242 -8.214 5.232 -8.222 5.856 -0.044 2.894 1.66 6.96 2.84 9.394 2.67 5.506 3.688 6.334 8.198 5.228 2.916 -0.714 4.872 -1.072 5.776 -4.016 0.904 -2.944 -0.142 -7.646 -0.366 -8.916Zm-128.096 -17.188c0.386 -0.25 -0.05 -0.424 -1.878 -6.366 -0.698 -2.268 -1.084 -0.474 -4.494 0.532 -5.66 1.668 -11.358 -3.308 -8.638 -9.768 0.208 -0.494 0.56 -0.846 1.054 -1.084 0.424 -0.204 0.74 -0.018 1.054 0.186 1.036 0.674 -1.158 2.06 -0.366 4.386 0.498 1.462 1.324 2.642 2.912 3.098 1.054 0.304 1.352 0.112 1.648 -0.914 0.604 -2.09 0.254 -5.182 -0.104 -6.204 -2.816 -8.06 -14.226 -6.778 -13.144 4.912 0.998 10.768 13.52 16.692 21.952 11.22l0.004 0.002Zm55.648 39.376c0.148 3.618 -0.028 3.496 1.254 3.808 2.546 0.62 6.906 -1.038 9.278 -2.084 2.222 -0.98 2.178 -3.06 2.196 -5.648 0.02 -2.778 -0.326 -4.842 -0.54 -6.81 -0.096 -0.884 -0.03 -1.242 -1.204 -1.092 -1.174 0.15 -7.458 0.79 -11.794 0.736 -0.664 -0.008 -0.516 0.324 -0.402 1.042 0.264 1.682 1.048 6.016 1.212 10.048Zm63.372 -120.56c0.116 -1.4 0.34 -3.464 -1.2 -3.29 -1.54 0.174 -4.5 1.206 -8.55 5.636 -0.44 0.482 -0.44 0.564 0 1.022 7.746 8.048 6.044 6.458 8.006 8.206 0.462 0.41 1.628 -10.174 1.744 -11.574Zm-136.914 84.078c3.698 -0.05 1.292 0.258 -2.304 -4.394 -0.916 -1.184 -1.27 0.302 -9.278 -1.574 -0.636 -0.148 -0.734 0.772 0.366 1.814 2.862 2.714 6.046 4.224 11.216 4.154Z" stroke-width="1"></path><path id="vector_45" fill="#2596be" d="M226.668 230.228c-0.892 3.772 -4.198 4.71 -6.058 5.652 -1.86 0.942 -3.828 2.064 -4.544 2.446 -8.612 4.604 -13.522 6.998 -19.746 11.346 -4.09 2.858 -6.408 5.342 -11.694 8.036 -2.674 1.362 -5.648 -1.216 -5.71 -4.162 -0.016 -0.752 -0.184 -1.512 -0.138 -2.26 0.328 -5.22 1.828 -9.318 6.566 -13.078 2.82 -2.238 4.39 -3.986 11.836 -8.588 6.01 -3.716 16.238 -8.264 21.17 -9.858 10.544 -3.408 10.818 -0.104 8.318 10.466Zm-42.932 23.546 -0.104 -0.004c0.116 -1.092 0.156 -2.202 0.37 -3.276 0.876 -4.436 3.8 -6.84 7.524 -9.518 7.404 -5.322 24.416 -15.172 33.06 -16.876 0.756 -0.15 1.198 -0.1 1.042 -2.43 -0.28 -4.194 -32.372 10.19 -42.138 21.134 -2.924 3.276 -3.446 8.53 -2.334 11.698 0.224 0.64 0.744 1.052 1.354 1.358 0.412 0.206 0.74 -0.082 1.072 -0.196 0.208 -0.07 0.154 -1.486 0.154 -1.89Z" stroke-width="1"></path><path id="vector_46" fill="#2596be" d="M246.514 229.152c1.732 -2.06 4.634 -2.708 7.196 -1.284 1.122 0.624 2.114 1.416 3.068 2.254 9.392 8.256 9.136 6.698 10.398 8.738 0.304 0.49 0.108 1.016 -0.466 1.08 -2.97 0.326 -6.294 -2.978 -9.526 -5.66 -3.214 -2.666 -5.016 -5.622 -7.642 -4.098 -2.626 1.524 -2.774 8.186 -2.524 11.25 0.584 7.18 3.69 12.018 3.754 14.784 0.02 0.848 -0.972 1.18 -1.882 -0.084 -4.038 -5.61 -6.678 -21.866 -2.38 -26.98h0.004Z" stroke-width="1"></path><path id="vector_47" fill="#2596be" d="M268.648 274.542c-0.078 -1.23 0.172 -3.59 0.694 -4.422 0.35 -0.56 1.092 -0.686 1.62 -0.282 0.244 0.186 0.44 0.436 0.668 0.648 3.108 2.896 3.198 3.24 6.786 4.95 4.514 2.152 6.03 2.044 6.112 2.488 0.02 0.112 -0.134 0.336 -0.258 0.382 -0.512 0.19 -1.03 0.42 -1.558 0.47 -2.854 0.272 -6.674 -1.628 -9.112 -3.136 -0.946 -0.586 -1.466 -1.308 -2.234 -1.744 -0.254 0.888 -0.112 3.588 0.86 5.826 0.972 2.238 3.224 4.254 5.182 5.636 1.3 0.916 1.084 1.818 0.258 1.926 -0.506 0.066 -1.014 0.06 -1.516 -0.17 -1.62 -0.74 -3.006 -1.758 -4.156 -3.132 -2.154 -2.568 -3.514 -5.116 -3.348 -9.44h0.002Z" stroke-width="1"></path><path id="vector_48" fill="#2596be" d="M277.834 254.114c-2.5 0.302 -3.87 -2.686 -3.622 -5.19 0.248 -2.504 3.74 -2.666 4.984 0.352 0.688 1.674 0.826 4.574 -1.362 4.838Z" stroke-width="1"></path><path id="vector_49" fill="#2596be" d="M284.134 245.772c-0.836 -0.912 -1.16 -2.21 -0.822 -3.118 0.832 -2.24 4.39 -1.064 4.854 1.906 0.4 2.55 -2.406 2.988 -4.032 1.212Z" stroke-width="1"></path><path id="vector_50" fill="#2596be" d="M305.006 262.516c-2.608 0.526 -3.11 -9.746 -0.304 -9.838 2.43 -0.078 2.3 9.434 0.304 9.838Z" stroke-width="1"></path><path id="vector_51" fill="#2596be" d="M309.934 251.448c2.226 -0.694 3.876 6.524 2.384 8.09 -1.822 1.912 -4.812 -7.334 -2.384 -8.09Z" stroke-width="1"></path></g></g></svg>