<svg xmlns="http://www.w3.org/2000/svg" viewBox="0 0 400 400" id="Top-User-1--Streamline-Milano.svg" height="400" width="400"><desc>Top User 1 Streamline Illustration: https://streamlinehq.com</desc><g fill="#2596be"><path d="M356.62 358.46c0 16.56 -10.82 31.5 -26 31.5L69.38 390c-15.1 0 -26 -14.96 -26 -31.54V41.5C43.32 25 54.28 10 69.38 10l261.28 0.14c15.04 0 25.9 14.88 25.9 31.36 0.24 0.12 0.06 317.3 0.06 316.96zM44.64 62.32v296.14c0 15.64 10.34 30 24.74 30h261.28c14.62 0 24.82 -14.78 24.84 -30.12V63.84zm310.84 0.9V42c-61.56 0.68 -241.16 -0.66 -241.16 -0.66 0.28 3.86 0.26 20.66 0.26 20.66s123.18 0 240.9 1.22zM78.44 41.42c0.36 6.36 0.5 16 0.2 20.46h35.1a192.56 192.56 0 0 1 0 -20.64c-7.74 0 -35.3 0.18 -35.3 0.18zm-0.68 0c-8.46 0 -32.78 0.44 -32.86 0.44s-0.48 13.18 -0.28 19.84c1.58 -0.14 33.24 0.14 33.24 0.14 -0.48 -6.74 -0.3 -16.94 -0.1 -20.4zM66 23.74a4.68 4.68 0 1 1 -4.42 4.66A4.56 4.56 0 0 1 66 23.74zm16.66 0a4.68 4.68 0 1 1 -4.42 4.66 4.56 4.56 0 0 1 4.42 -4.66zm16.68 0a4.68 4.68 0 1 1 -4.44 4.66 4.56 4.56 0 0 1 4.44 -4.66z" fill-rule="evenodd" stroke-width="1"></path><path d="M211.6 138.18a36 36 0 0 0 4.16 -2.4 0.22 0.22 0 1 0 -0.12 -0.42 4.2 4.2 0 0 0 -2.5 0.7 4.48 4.48 0 0 0 -1.86 1.8c-0.22 0.14 0.12 0.54 0.32 0.32zm18.12 -1.56c0.2 0.16 1.44 1.12 1.74 1.4a13.16 13.16 0 0 1 1.38 1.68c0 0.28 0.5 0.18 0.44 -0.12a3.42 3.42 0 0 0 -0.24 -1.32 3.68 3.68 0 0 0 -3.18 -2 0.24 0.24 0 0 0 -0.14 0.36zm-15.06 10.6c0 -0.58 0 -1.16 0.16 -1.74a0.86 0.86 0 1 0 -1.68 -0.3c0 0.62 -0.14 1.26 -0.16 1.88a0.84 0.84 0 1 0 1.68 0.16zm16.18 1.96c0 -0.58 0 -1.16 0.16 -1.74a0.86 0.86 0 1 0 -1.68 -0.3c0 0.62 -0.14 1.26 -0.16 1.88a0.84 0.84 0 1 0 1.68 0.16zM121.34 47.76a18.28 18.28 0 0 0 0 8.94 0.58 0.58 0 0 0 0.28 0.3c0.5 0.26 223.32 0.68 224.28 0.68a1.22 1.22 0 0 0 1.36 -0.98 22.88 22.88 0 0 0 0 -9.18 1.2 1.2 0 0 0 -0.62 -0.68c-0.84 -0.42 -224.32 0.5 -224.52 0.52s-0.74 0.22 -0.78 0.4zM346 48c-0.54 -0.26 -224 -0.12 -224.18 -0.12a18.1 18.1 0 0 0 0 8.66c0.58 0.14 208.28 0.3 224.24 0 0.14 -1.7 0.84 -6.1 -0.06 -8.54z" fill-rule="evenodd" stroke-width="1"></path><path d="M65.86 51.36a60.26 60.26 0 0 0 -11.24 -0.18 47.58 47.58 0 0 0 4 -2.64 0.22 0.22 0 1 0 -0.22 -0.4 50.34 50.34 0 0 0 -6 2.96 0.56 0.56 0 0 0 0 0.98 54.24 54.24 0 0 0 6 3.16c0.26 0.16 0.5 -0.24 0.24 -0.38 0 0 -1.42 -1.14 -4.16 -2.86a59.16 59.16 0 0 0 11.52 -0.2 0.22 0.22 0 0 0 -0.14 -0.44zM102 51.1a46.32 46.32 0 0 0 -6 -2.96 0.22 0.22 0 0 0 -0.22 0.4 44.7 44.7 0 0 0 4 2.62 62.28 62.28 0 0 0 -11.24 0.2 0.24 0.24 0 0 0 0 0.46A61.24 61.24 0 0 0 100 52a49.54 49.54 0 0 0 -4.18 2.88c-0.26 0.14 0 0.54 0.24 0.38A48.78 48.78 0 0 0 102 52a0.56 0.56 0 0 0 0 -0.9z" stroke-width="1"></path><path d="M286.94 235.38c-9.3 -25.16 -34.44 -40.66 -60.32 -47.16 -3.76 -0.96 -6.28 -1.38 -6.88 -1.46l-1.4 -2.88a14.96 14.96 0 0 0 14.64 -13.36 48.18 48.18 0 0 0 3.18 -14.68c1.26 0 2.36 -0.16 2.9 -0.2 1.12 0 2 -2.42 2.26 -3.48a79.32 79.32 0 0 0 2.16 -8.52 0.2 0.2 0 0 0 -0.16 -0.26 49.16 49.16 0 0 0 -6.62 -1.28c0 -4.54 -0.4 -9.82 -0.76 -13.28 1.58 0 0.82 2.88 3.48 2.62s4.94 -4.94 3 -6.64 1.16 -3.08 2.42 -3.64 1.6 -2.68 -1.58 -4.6 0.46 -2 1.82 -3.32 -0.74 -1.78 -4.12 -1.14 0.8 -2.98 -2.9 -2.5 4 -3.2 -1.88 -4 -0.48 -4.4 -6.38 -3.48 2.82 -2.94 -2 -3.72 -1.56 3.18 -4.64 1.74 0 -5.52 -3.58 -4.48 -0.54 2.9 -3.84 2 1.66 -6.8 -2.14 -5.44 0 4.92 -3.34 4.36 -0.68 -6.9 -4.18 -4.76 0.94 4.92 -1.74 4.7 0 -5.36 -4.16 -5.66 0.46 2.74 -2.88 3.7 -0.74 -6.22 -4.72 -4 0.18 4.4 -2.18 4.82 -2.34 -6 -5.22 -3.28 0.22 4.26 -1.32 4.9 -3.86 -5.34 -6.42 -2.6 2.92 3.64 0.26 4.5 -2 -2.68 -4.68 -0.18 1.26 2.58 -0.1 4.22S170 99.64 168 102.58s3.24 2.66 1 3.82 -4.16 -4 -6 -1.1 2.62 2.9 1.06 4.46 -2.76 -1.66 -4 1.6 4.96 1.32 2.98 3.3 -4.16 -0.4 -5.2 3.6 6.38 0.38 3.62 3.16 -4 1.56 -3.54 5.32 4.4 -3.28 3.26 0 -2 4.6 0.82 4.84 4.66 -6 4.6 -3.1 -1.46 4.84 1 5.16a44.98 44.98 0 0 0 0 4.66c0.68 13.38 5.4 15.64 13 23.04a8.72 8.72 0 0 1 2.58 3.36C184 167.6 180.2 186 180 186.7c-36.44 3.82 -58 21.22 -67.86 44a102.82 102.82 0 0 0 -6.48 25.82 111.84 111.84 0 0 1 -20.84 -65.54 113.38 113.38 0 1 1 226.76 0 107.04 107.04 0 0 1 -11 48.62 44.68 44.68 0 0 1 5.7 4.16 114 114 0 0 0 12.26 -52.78 120.34 120.34 0 1 0 -120.34 120.34 109.88 109.88 0 0 0 37.16 -6 47.6 47.6 0 0 1 -3.34 -6.22 109.64 109.64 0 0 1 -73.38 -1.82 38.7 38.7 0 0 1 0.38 -4.46c0.22 -1.48 4.58 -33.44 4.58 -33.44a0.22 0.22 0 0 0 -0.44 0c0 0.5 -2.32 9.74 -4.18 22.8a145.86 145.86 0 0 0 -1.44 14.78 115.34 115.34 0 0 1 -51.12 -39.24 99.72 99.72 0 0 1 2.5 -14.72c7.68 -30 30.8 -47.72 61.82 -54a28.72 28.72 0 0 0 7.2 14.54 26.34 26.34 0 0 0 14.42 8c0.34 0 -0.34 -0.72 2.38 3.86 0.74 1.28 3.7 -2.64 4.58 -3.82a29.86 29.86 0 0 0 20.4 -3.8c3.28 2.64 3.14 2.7 3.56 2.58a0.6 0.6 0 0 0 0.38 -0.38 15.86 15.86 0 0 0 0 -5.4 22 22 0 0 0 5.72 -8.84A14 14 0 0 0 230 190c23.52 7.34 45.26 22.46 55.18 45a46 46 0 0 0 -42.94 76.64c0 6.76 -0.74 62 2.14 68 3.3 6.88 24.86 -24.4 31.44 -32 4 4.66 29.3 34 35.04 31.82a0.46 0.46 0 0 0 0.24 -0.2c-0.16 0.26 1.02 -0.1 1.22 -21.88 0.1 -10.42 0 -25.78 -0.62 -48.48a46.12 46.12 0 0 0 -24.76 -73.52zm-50.24 -92.46a48.48 48.48 0 0 1 6.28 0.84c-0.4 1.54 -2.68 10 -4 10.88 -0.52 0 -1.54 0.1 -2.72 0.14 0.34 -3.88 0.46 -8.02 0.44 -11.86zm-11.18 22.76c-1.06 1.8 -2.36 3.58 -4.48 3.58s-3.18 -2 -3.66 -3.82c0 -0.4 0.5 -1.52 1.38 -0.4a9.36 9.36 0 0 0 1.2 1.58c0.84 0.76 1.46 0.7 2.76 -0.32a9.06 9.06 0 0 0 1.64 -1.48 0.76 0.76 0 0 1 1.22 0.18 0.74 0.74 0 0 1 -0.06 0.68zm7.48 2.14c-0.46 -5.02 -3.46 -10.64 -8.64 -12a4 4 0 0 0 2.22 -1.1c1.26 -1.52 0.44 -8.4 0 -10.64a3.38 3.38 0 0 1 0.72 0.24c-0.6 2.64 0 9.16 1.48 10.56 1.04 1.06 4.58 0.96 6.16 0.92a72 72 0 0 1 -1.94 12.02zm2.12 -13a22.64 22.64 0 0 1 -4.66 -0.28c-0.74 -0.18 -0.96 -0.2 -1.38 -1.64a22.8 22.8 0 0 1 -0.72 -7.64c0.18 -1.48 0.44 -1.76 1.62 -2a21.46 21.46 0 0 1 5.66 -0.32 162.5 162.5 0 0 1 -0.52 11.88zM201.58 130c3.6 -0.76 1.12 -4 4.44 -4.32s0.2 3.18 3.52 2.76 2.36 -3.84 4 -2.52 -1.58 4.6 1.12 4.24 2.36 -5.4 2.38 -5.56 2.92 0.68 2.48 2.74c-0.28 1.4 -0.5 1.82 1.6 0.92s-0.22 -3.84 2.18 -3.86 1.12 3.6 3.36 4 3.3 -0.26 3.12 -2.7 3.38 -2.68 3.18 -1.42 -3.28 5.62 -1.12 6.14 2 -1.18 3.6 -1.6c0.18 4 0.22 9 0.2 13.1 -2 -0.2 -6.7 -0.48 -7.84 1.26 -0.34 0.54 0 0.58 -0.44 0.24a2 2 0 0 0 -0.92 -0.48c0 -0.42 0 -0.76 -0.36 -0.72s-0.2 0.32 -0.18 0.64a3.72 3.72 0 0 0 -2 0.48 2.82 2.82 0 0 0 -0.24 -1.12c-1.44 -3.12 -14 -3.06 -17.48 -2.86a6.5 6.5 0 0 0 -1.76 0.24c-1.82 0.3 -2.66 0.44 -5.28 1.08a32.28 32.28 0 0 1 1.06 -11.54c-0.1 0.72 0.18 1.12 1.38 0.86zm21.16 14.18a20.16 20.16 0 0 1 -2.54 7.36c-0.76 1.22 -1.04 1.24 -1.7 1.32a48 48 0 0 1 -10 -1.52c-0.18 0 -0.46 -0.68 -0.54 -0.86a50.44 50.44 0 0 1 -1.58 -10.58 51.1 51.1 0 0 1 14.96 2c1.28 0.46 1.52 0.76 1.4 2.28zm-49 8.92A17.88 17.88 0 0 1 169.32 144a43.52 43.52 0 0 1 -1.06 -10.36c2.38 -0.32 1.22 -5.74 4 -5.18s-1.02 4.44 2.14 3.28 1.18 -3.86 4.24 -3.28 0.18 3.54 3.36 2.7 0.64 -6 3.44 -5.54 -0.78 4.96 3.26 4 0.58 -4.54 4 -4.22 -0.14 4.26 3.16 3.86 0.9 -3.68 4 -3.64c1.18 0 1.2 0.76 0.98 1.64 -2.44 3.04 -2.5 9.64 -2.48 13.64 -3.34 0.84 -4.42 1.14 -6.88 2 -2.62 -2.84 -6.76 -2.84 -8 1.74 -1.04 4 0.42 6.58 2.86 9.72 2.14 2.78 3.68 4.36 2 6.92a12.98 12.98 0 0 1 -3.88 3.42c-0.62 -3.02 -6.24 -6.38 -10.72 -11.6zm24 -1.72a2 2 0 0 1 -2.7 -0.12 7.44 7.44 0 0 1 -2 -4.68 6.18 6.18 0 0 0 -1.24 -3.06c2 -0.36 3.12 -0.56 6.42 -1.36 -0.04 1.72 0.32 8.54 -0.56 9.22zM180 187.26a149.12 149.12 0 0 0 8.22 16.5c-5.76 -3.36 -10 -10 -12.1 -16 1.28 -0.14 2.58 -0.34 3.88 -0.5zm-8.8 1.44c1.74 -0.34 2.96 -0.56 4.44 -0.8a26.4 26.4 0 0 0 0.8 2.8 6.58 6.58 0 0 0 -4.26 1.08c-0.52 -1.46 -0.82 -2.56 -0.96 -3.08zm1.14 3.52a24.3 24.3 0 0 0 4.3 -0.96 27.12 27.12 0 0 0 2.12 4.4 8.1 8.1 0 0 0 -4 1.64 35.68 35.68 0 0 1 -2.4 -5.08zm2.82 5.6a24.88 24.88 0 0 0 4 -1.58 24.38 24.38 0 0 0 3.42 4.34 6.76 6.76 0 0 0 -3.28 2.54 29.64 29.64 0 0 1 -4.12 -5.3zm4.54 5.74c2.2 -1.66 2.12 -1.52 3.44 -2.44a16.66 16.66 0 0 0 5.12 3.22 5.42 5.42 0 0 0 -2.18 4 29.68 29.68 0 0 1 -6.36 -4.78zm6.98 5.04 2 -4.14c1.32 2.38 2.56 4.6 3.6 6.42a33.8 33.8 0 0 1 -5.58 -2.28zM180.8 187c1.06 -4.44 3.8 -17.1 3.54 -21.72 3.04 -1.66 6.4 -4.54 4.94 -7.72 -2 -4.12 -6.48 -6.86 -4.94 -12.58 0.9 -3.38 3.62 -3.62 5.8 -1.58 0 0.16 0 0.36 0.32 0.32a5.26 5.26 0 0 1 1.4 2.98 8.26 8.26 0 0 0 2.38 5.4 3 3 0 0 0 4 0.16c0.88 -0.7 0.94 -2.7 0.96 -3.9 0 -1.72 0 -4.1 -0.16 -6.44 2.38 -0.6 3.78 -0.98 6.68 -2 0 2.44 0.26 9.5 1.5 11.62a1.42 1.42 0 0 0 0.86 0.72c2.26 0.52 9.7 2.48 11.66 1.34a12.28 12.28 0 0 0 3.04 -5.28c1.66 -4.74 0.26 -4 1.64 -4.18a5.82 5.82 0 0 1 1.44 0c0 1.4 0.5 9.12 -0.24 10a4.5 4.5 0 0 1 -2.16 0.94c-3.22 0.76 -4.22 0.28 -4.24 0.76a0.24 0.24 0 0 0 0.22 0.24h2a31.76 31.76 0 0 0 -7.44 3.14c-5.58 3.2 -14.26 21.58 -0.54 24.24a24.56 24.56 0 0 0 4.48 0.44c0 0.2 0.34 0.8 1.3 2.94 -0.2 0.14 -1.58 1.42 -12 10.64zm33.34 16.22a37.08 37.08 0 0 1 -10.78 2.32c4.72 -7.28 4 -7 4.48 -6.78a62.86 62.86 0 0 1 6.3 4.46zm-9.78 7.7a36.86 36.86 0 0 1 -4.7 0 55.64 55.64 0 0 0 3.46 -4.96h0.66c-0.14 2.04 0.8 4.94 0.58 4.96zm0.62 0a7.7 7.7 0 0 0 -0.76 -4.7 17.56 17.56 0 0 0 7.08 -0.82c0.5 1.34 1.82 3.86 2 4a42.44 42.44 0 0 1 -8.32 1.46zm8.84 -1.64a7.12 7.12 0 0 0 -1.84 -4.14 11.06 11.06 0 0 0 2.62 -1.52l4.76 3.78a55.02 55.02 0 0 1 -5.54 1.82zM220 187.38c0.76 0.16 2.34 0.5 4.52 1.06 0.18 2 -1.74 6 -2.46 7.78 -0.82 -4.22 -1.76 -7.88 -2.06 -8.84zm3.42 16.46c-0.28 -2 -0.74 -4.58 -1.18 -6.64a19.34 19.34 0 0 1 3.5 3.06c-0.74 1.32 -1.44 2.46 -2.26 3.58zm2.62 -4a4.92 4.92 0 0 0 -3.52 -2.98 13.44 13.44 0 0 0 2.44 -4.66 14.32 14.32 0 0 1 4 0.7 29.06 29.06 0 0 1 -2.86 6.84zm3.18 -7.84a7.88 7.88 0 0 0 -4 -0.76 6.86 6.86 0 0 0 0 -2.66c1.3 0.34 2.82 0.78 4.5 1.3a18 18 0 0 1 -0.5 2.12zm22.54 183.4c-1.46 1.48 -5.62 5.76 -6.54 3.86 -2.66 -5.5 -2.56 -61.2 -2.56 -67.2a48.18 48.18 0 0 0 9.1 7.22zm46.46 -5.18c-10 -9.54 -22 -23.54 -22 -23.54a0.5 0.5 0 0 0 -0.74 0c-2.66 2.86 -11.28 14.64 -18.76 23.36V322a45.74 45.74 0 0 0 41.48 -1.64zm-8.38 -87.78s7.08 20.92 5.18 22 -16.38 -12.88 -16.38 -12.88 -11.7 13.46 -15.66 12.88 1.4 -20.74 1.4 -20.74 -14.14 -5.5 -12.52 -8.52 16.72 -4.72 16.72 -4.72 6.98 -16.14 8.62 -16.76 8 15.5 8 16.54c0 0 16.3 1.42 17.38 4s-12.74 8.2 -12.74 8.2zm20.5 96.32c-1.82 0.36 -5.72 -2.98 -7.14 -4.16v-57.54a46.82 46.82 0 0 0 8.12 -7.54c0.12 7.94 0.92 61.68 -0.98 69.24z" fill-rule="evenodd" stroke-width="1"></path></g></svg>