<svg width="113" height="112" viewBox="0 0 113 112" fill="none" xmlns="http://www.w3.org/2000/svg">
<path d="M63.55 84.6526C63.507 84.6644 63.4704 84.6929 63.4484 84.7317C63.4264 84.7705 63.4207 84.8164 63.4326 84.8594C63.4444 84.9025 63.4729 84.939 63.5117 84.961C63.5505 84.983 63.5964 84.9887 63.6394 84.9769C65.0524 84.6674 66.3771 84.0424 67.5142 83.1485C71.8363 79.9559 71.6127 75.4269 74.0728 71.2837C76.041 68.1246 77.7687 68.4881 77.6345 68.0799C77.6295 68.0638 77.6213 68.0488 77.6102 68.036C77.5992 68.0232 77.5857 68.0128 77.5705 68.0055C77.5553 67.9981 77.5387 67.994 77.5218 67.9933C77.5049 67.9927 77.4881 67.9955 77.4724 68.0016C69.734 70.8476 74.1064 80.9958 63.55 84.6526ZM94.867 74.7112C95.085 74.4819 95.3031 74.2415 95.5156 74.0011C97.1594 72.005 98.3112 68.913 98.1994 66.6373C98.1966 66.6128 98.187 66.5895 98.1718 66.5701C98.1566 66.5506 98.1363 66.5357 98.1132 66.527C98.0901 66.5184 98.065 66.5162 98.0407 66.5209C98.0165 66.5256 97.994 66.5368 97.9757 66.5535C97.808 66.7156 98.2777 67.6102 97.0979 70.4282C95.9796 73.1009 95.0012 73.783 93.8997 75.0299C92.9129 76.1692 92.1628 77.4937 91.6934 78.926C91.224 80.3583 91.0445 81.8697 91.1655 83.3722C91.1719 83.4038 91.1891 83.4322 91.214 83.4526C91.239 83.473 91.2703 83.4841 91.3025 83.4841C91.3347 83.4841 91.366 83.473 91.391 83.4526C91.4159 83.4322 91.4331 83.4038 91.4395 83.3722C91.4012 81.7725 91.6848 80.1814 92.2736 78.6936C92.8624 77.2057 93.7444 75.8514 94.867 74.7112ZM45.7752 50.5679C46.3343 50.1821 46.2952 49.0023 45.7752 48.5662C45.6281 48.4475 45.4567 48.3627 45.2732 48.3178C45.0896 48.2728 44.8984 48.2689 44.7132 48.3063C44.5279 48.3437 44.3532 48.4214 44.2014 48.534C44.0496 48.6465 43.9245 48.7912 43.835 48.9576C43.7312 49.2177 43.7125 49.504 43.7816 49.7754C43.8507 50.0469 44.004 50.2894 44.2195 50.4683C44.435 50.6471 44.7016 50.7531 44.9811 50.771C45.2606 50.7889 45.5386 50.7178 45.7752 50.5679ZM44.2376 49.2875C44.4053 48.6501 45.5068 48.5606 45.6745 49.198C45.7864 49.6341 45.736 49.9416 45.5124 50.1094C45.378 50.193 45.2251 50.2423 45.0672 50.253C44.9092 50.2637 44.7511 50.2355 44.6066 50.1709C44.4553 50.086 44.3368 49.9528 44.2699 49.7927C44.203 49.6327 44.1916 49.4548 44.2376 49.2875ZM64.8807 40.2239C64.8592 40.2224 64.8377 40.2253 64.8174 40.2325C64.7971 40.2397 64.7785 40.2509 64.7627 40.2656C64.747 40.2803 64.7344 40.2981 64.7259 40.3179C64.7173 40.3376 64.7129 40.359 64.713 40.3805C64.713 40.9396 63.768 41.4988 63.5947 41.5547C63.5613 41.5628 63.5326 41.5839 63.5148 41.6133C63.4969 41.6426 63.4915 41.6779 63.4997 41.7112C63.5078 41.7446 63.5289 41.7733 63.5583 41.7912C63.5876 41.809 63.6229 41.8144 63.6562 41.8063C65.1267 41.5043 65.3504 40.2128 64.8807 40.2239ZM62.9182 39.3685C62.8511 39.3293 62.5547 39.1113 62.4485 39.0274C62.4485 38.9547 62.7113 38.021 62.7616 37.842C62.8119 37.6631 62.5827 37.6184 62.5212 37.7638C62.2873 38.217 62.0999 38.6929 61.962 39.1839C62.0068 39.3461 62.784 39.5586 62.8399 39.5586C62.8632 39.5617 62.8869 39.5571 62.9072 39.5454C62.9276 39.5336 62.9435 39.5155 62.9525 39.4938C62.9614 39.472 62.9629 39.4479 62.9567 39.4253C62.9505 39.4026 62.9369 39.3826 62.9182 39.3685ZM61.073 36.3715C61.065 36.3232 61.0401 36.2793 61.0027 36.2476C60.9653 36.2159 60.9179 36.1985 60.8689 36.1985C60.82 36.1985 60.7726 36.2159 60.7352 36.2476C60.6978 36.2793 60.6729 36.3232 60.6649 36.3715C60.6436 36.757 60.6436 37.1434 60.6649 37.5289C60.6999 37.5862 60.753 37.6302 60.8159 37.6539C60.8787 37.6777 60.9477 37.6797 61.0119 37.6598C61.076 37.6399 61.1317 37.5992 61.1702 37.5441C61.2086 37.489 61.2275 37.4227 61.224 37.3556C61.1465 37.0323 61.0961 36.7031 61.073 36.3715ZM64.9814 37.35C64.9097 37.0294 64.8592 36.7044 64.8304 36.3771C64.8304 36.3222 64.8086 36.2696 64.7698 36.2308C64.731 36.192 64.6784 36.1702 64.6235 36.1702C64.5686 36.1702 64.516 36.192 64.4772 36.2308C64.4384 36.2696 64.4166 36.3222 64.4166 36.3771C64.3963 36.7496 64.3963 37.1229 64.4166 37.4954C64.4198 37.5387 64.4324 37.5807 64.4536 37.6186C64.4747 37.6565 64.504 37.6893 64.5392 37.7146C64.5745 37.7399 64.6148 37.7572 64.6575 37.7652C64.7002 37.7732 64.7441 37.7718 64.7861 37.761C64.8281 37.7501 64.8673 37.7302 64.9007 37.7026C64.9342 37.675 64.9612 37.6404 64.9799 37.6012C64.9985 37.562 65.0083 37.5191 65.0085 37.4757C65.0088 37.4323 64.9995 37.3894 64.9814 37.35Z" fill="#CFF80B"/>
<path d="M108.739 29.7347C108.7 26.2513 107.531 24.8758 103.925 24.982C102.896 24.982 84.5509 25.1665 83.237 25.2113C82.356 25.2115 81.4845 25.3923 80.6761 25.7425C80.2121 25.927 77.7854 27.1403 77.5171 27.7833C77.2263 28.2418 77.5674 41.3031 77.5171 43.9981C77.1286 43.7769 76.7292 43.5753 76.3205 43.3943C76.2467 43.027 76.0899 42.6814 75.8622 42.3839C75.6345 42.0865 75.3418 41.8449 75.0065 41.6777C74.4921 41.4764 73.8324 41.7169 73.4522 41.3534C73.072 40.99 73.7541 40.7943 73.8268 40.2352C73.8245 39.8475 73.7795 39.4612 73.6926 39.0833C73.3556 37.0565 72.8849 35.0542 72.2836 33.0894C71.7804 31.4736 71.2548 30.1037 69.8066 29.2258C69.8066 26.5085 69.5326 10.5844 69.3817 9.74009C69.2328 8.90684 68.7884 8.15523 68.1301 7.62321C67.4717 7.09118 66.6436 6.81445 65.7976 6.84379C65.7417 6.84379 27.2623 6.84379 27.2175 6.88852C25.6799 7.8055 25.2662 9.85192 25.1655 11.3616C25.132 12.1164 25.7917 27.3583 26.0545 32.2004C23.3316 32.2563 9.57692 32.6254 8.78854 33.0447C7.00491 33.4808 5.03117 34.7221 4.64537 36.7406C4.40495 38.0378 4.89139 62.9583 5.05354 64.1381C5.16966 65.4123 5.73905 66.6027 6.65825 67.4928C7.6591 68.3707 9.02338 68.5328 10.2255 68.5776L35.7387 68.0967C33.245 73.7439 30.371 81.7507 28.47 86.7326C28.4611 86.7468 28.4563 86.7633 28.4563 86.7801C28.4563 86.7969 28.4611 86.8134 28.47 86.8276C28.9845 87.333 29.5462 87.788 30.1474 88.1863C29.236 91.3007 29.3366 91.474 29.1354 91.7256C27.4076 93.8447 25.3221 95.0804 23.2645 95.2817C22.3084 95.3879 21.3634 95.5557 21.0279 96.4838C20.754 97.3281 21.4808 97.8928 22.3307 98.1277C22.8899 98.2786 26.7031 99.1229 27.2679 99.19C27.7683 99.2739 28.2817 99.1596 28.6992 98.8713C29.1018 98.575 30.427 97.0094 30.9358 96.5397C30.0132 101.013 29.3702 99.587 31.5676 100.543C31.5983 100.56 31.6322 100.569 31.6669 100.571C31.7017 100.572 31.7363 100.566 31.7684 100.553C31.8005 100.539 31.8293 100.519 31.8525 100.493C31.8758 100.467 31.8931 100.437 31.9031 100.403C32.2945 99.2851 34.9447 92.8942 36.0239 91.2336C36.2867 97.9879 36.2419 97.6357 36.337 97.6636C36.7116 97.7587 37.1198 97.8481 37.5391 97.932C37.5391 98.8713 37.5671 99.833 37.6453 100.884C37.6453 100.918 37.6006 100.974 37.5559 101.063C36.1692 104.105 34.6149 105.346 32.9263 106.095C32.177 106.431 31.1426 106.889 31.1706 107.924C31.1706 108.818 32.0876 109.103 32.9766 109.07C34.3129 109.025 36.0406 108.846 36.8234 108.807C39.0599 108.673 39.1159 108.248 40.0664 106.33C40.2845 105.888 40.5416 105.363 40.687 105.106C40.9498 108.248 40.6032 108.712 41.0337 108.69C42.2023 108.628 42.7111 108.947 42.7111 108.528C42.7558 107.376 43.2702 102.847 43.5386 101.734C43.5386 101.605 43.4491 101.533 43.3149 101.505C43.4827 100.465 43.8741 98.4184 43.9244 98.0438C44.204 98.0047 44.4835 97.9599 44.7016 97.9096C44.7631 97.9096 44.7016 98.206 45.6465 94.3088C52.4344 96.9871 59.6752 97.6301 66.1723 96.1036C66.4015 96.9926 68.0621 103.054 68.9679 105.71C69.2766 106.577 69.6877 107.405 70.1924 108.175C70.321 108.298 70.5391 108.516 70.7516 108.516C70.964 108.516 71.1989 108.22 71.2548 107.918C71.3107 107.616 70.4328 98.7986 70.1365 95.6172C71.465 95.2881 72.7531 94.8137 73.9777 94.2026L75.7893 100.219C75.8424 100.308 75.9222 100.379 76.0175 100.421C76.1129 100.463 76.219 100.474 76.3209 100.452C76.4228 100.431 76.5153 100.378 76.5855 100.301C76.6556 100.224 76.6998 100.127 76.7119 100.023L76.5386 92.8159C77.3851 92.2642 78.1956 91.6591 78.9652 91.0043C79.3147 91.3421 79.7077 91.6317 80.1338 91.8654C80.1776 91.8896 80.2292 91.8955 80.2773 91.8819C80.3255 91.8683 80.3663 91.8362 80.391 91.7927C80.856 91.0896 81.3777 90.4258 81.951 89.8078C81.8391 90.5291 81.6211 92.0052 81.5931 92.4637C81.5924 92.4933 81.5976 92.5227 81.6086 92.5502C81.6196 92.5777 81.636 92.6026 81.6569 92.6235C81.6778 92.6445 81.7028 92.6609 81.7303 92.6719C81.7578 92.6828 81.7872 92.6881 81.8168 92.6873C82.4105 92.6688 83.0034 92.7462 83.5725 92.9166C81.7497 93.7944 80.9166 94.5381 81.0284 95.1531C81.2468 96.2514 81.5535 97.3303 81.9454 98.3793C82.2473 99.2515 82.5604 100.157 83.4998 100.538C87.8051 102.36 94.2016 101.03 98.5236 99.2124C102.192 97.7754 102.728 95.4494 102.404 92.1617C102.337 91.5355 101.61 91.4628 100.084 91.502L103.802 86.7997C104.92 85.4633 103.947 85.5081 103.595 82.8857C103.932 83.3848 104.336 83.8345 104.797 84.2221C104.824 84.2435 104.856 84.2591 104.89 84.2677C104.923 84.2764 104.958 84.278 104.993 84.2724C105.144 84.2444 105.026 84.3227 106.413 81.829C106.439 81.7835 106.449 81.7304 106.441 81.6785C106.433 81.6266 106.407 81.579 106.368 81.5438C105.759 81.0406 104.288 79.8664 104.288 79.8664C105.046 79.687 105.793 79.463 106.525 79.1955C106.699 79.1505 106.857 79.0566 106.98 78.9249C107.103 78.7931 107.185 78.629 107.218 78.4518C107.291 78.0157 107.296 69.2317 107.308 68.0352C107.308 67.8395 106.994 67.7836 106.961 67.9961C106.307 72.43 103.304 76.1203 99.4686 77.2217C99.5916 76.7241 99.9047 75.645 99.7314 75.3486C99.0989 74.9506 98.4261 74.6207 97.7241 74.3646C98.423 73.9676 100.039 72.9332 100.156 72.6145C100.229 72.43 99.8712 63.8026 99.8544 62.8576C99.8516 62.8187 99.8366 62.7816 99.8114 62.7518C99.7863 62.7219 99.7523 62.7008 99.7144 62.6915C99.6765 62.6822 99.6366 62.6851 99.6004 62.6999C99.5643 62.7147 99.5338 62.7405 99.5133 62.7738C98.4307 64.9114 96.8293 66.7434 94.8557 68.1023C94.6265 68.2589 92.9771 69.1367 92.8485 69.2541C92.4347 69.6511 92.9491 70.1375 93.1672 70.4451C93.3237 70.6575 93.8605 71.3788 93.9667 71.5298C91.9986 71.7702 91.4786 71.0937 91.3779 71.5298C91.1845 72.0994 90.9236 72.6437 90.6007 73.1513C90.716 73.6413 90.8636 74.1232 91.0425 74.5938C90.7148 74.6478 90.3805 74.6478 90.0528 74.5938C89.9944 74.5813 89.9334 74.5909 89.8817 74.6209C89.83 74.6509 89.7914 74.699 89.7732 74.756C89.6167 75.2648 89.4937 75.6897 89.3818 76.0867C88.7041 74.9373 87.9572 73.83 87.1453 72.771C86.7483 69.7406 85.3169 66.2012 82.292 65.7316C84.5677 64.7811 86.0606 62.3376 86.4184 59.8607C87.492 59.8607 103.002 59.816 103.629 59.8607C107.022 59.9557 108.538 58.6586 108.856 55.1975C108.985 53.8165 108.739 29.9863 108.739 29.7347ZM31.5284 96.3049C31.5425 96.2457 31.5336 96.1833 31.5036 96.1304C31.4735 96.0775 31.4244 96.0379 31.3663 96.0198C30.9134 95.852 30.5667 96.249 30.3151 96.5342C29.6782 97.3095 28.9788 98.0313 28.224 98.6924C27.8046 98.8937 22.9234 97.8817 22.3139 97.6916C21.9859 97.6172 21.7005 97.4163 21.52 97.1324C21.4494 96.9261 21.4571 96.701 21.5416 96.5C21.6261 96.2989 21.7816 96.136 21.9785 96.0421C22.409 95.7793 22.7277 95.8017 23.9354 95.578C25.1432 95.3544 26.3397 95.1363 28.442 93.157C28.7349 92.8765 29.0077 92.5756 29.2584 92.2568C29.6075 93.0329 30.1951 93.6773 30.9358 94.0963C31.928 94.537 33.0362 94.6448 34.0949 94.4039C33.5357 95.5221 31.9925 99.0167 31.6067 100.085C31.2992 99.9616 30.9861 99.8498 30.6786 99.7603C31.0249 98.625 31.3086 97.4714 31.5284 96.3049ZM80.6314 65.6868C79.845 65.7205 79.0639 65.8329 78.2998 66.0223C75.7955 66.3054 73.2775 66.451 70.7571 66.4585C70.3881 64.2219 70.4999 64.6357 70.4049 64.015C70.3658 63.7467 70.3098 63.3776 70.5055 63.2602C73.1838 62.0637 75.9683 60.979 78.6353 59.8104C79.1945 60.2185 79.2392 60.1682 79.2895 60.1347C79.3135 60.1088 79.3268 60.0749 79.3268 60.0396C79.3268 60.0044 79.3135 59.9704 79.2895 59.9446C79.0713 59.724 78.8417 59.515 78.6018 59.3183C76.4553 57.3988 74.9602 54.8581 74.3244 52.0496C74.317 52.0163 74.2966 51.9872 74.2678 51.9688C74.239 51.9505 74.204 51.9444 74.1706 51.9518C74.1373 51.9592 74.1082 51.9795 74.0899 52.0084C74.0715 52.0372 74.0654 52.0722 74.0728 52.1055C74.5465 55.0262 76.0572 57.6783 78.3278 59.5755L70.6174 62.7626C70.3945 62.828 70.1985 62.9632 70.0582 63.1484C69.6723 63.0435 69.3236 62.8323 69.0518 62.5389C67.598 61.3703 67.0166 62.1699 65.1379 63.6572C64.9563 63.7942 64.7844 63.9437 64.6235 64.1045C63.6304 63.2212 62.6407 62.334 61.6545 61.443C61.4029 61.074 59.1104 53.1679 58.1711 49.992C58.8972 48.2314 60.0687 46.69 61.5706 45.519C61.7442 46.0493 61.9631 46.5637 62.2248 47.0566C62.6441 47.4591 63.1865 47.2634 63.7121 47.1348C63.5672 47.4353 63.4838 47.7617 63.4665 48.0948C63.4492 48.4279 63.4985 48.7612 63.6114 49.075C64.0073 49.9626 64.6255 50.7329 65.4063 51.3116C67.3185 52.989 67.2234 52.9442 67.3353 52.9442C67.3869 52.9417 67.4358 52.9204 67.4728 52.8844C67.5099 52.8483 67.5325 52.8 67.5365 52.7485C67.7267 50.7972 68.3529 50.2604 70.1197 49.6398C71.086 49.3243 71.9036 48.6664 72.4186 47.79C72.9335 46.9136 73.1102 45.8792 72.9154 44.8815C74.084 44.8904 75.2484 44.7399 76.3764 44.4342C76.4297 44.4222 76.4761 44.3896 76.5054 44.3435C76.5348 44.2974 76.5447 44.2416 76.533 44.1882C76.533 44.0932 76.4938 43.9813 76.4659 43.8639C84.6236 47.8282 89.5943 60.1794 83.0133 64.7699C82.2976 65.2492 81.4838 65.5625 80.6314 65.6868ZM82.5101 66.3243C83.9471 66.6318 85.1492 67.8395 85.932 69.9642C89.667 80.0565 80.9613 92.2848 70.1533 95.1251C70.0862 94.4486 69.7172 90.5235 69.6445 90.2327C69.5909 89.9761 69.4433 89.7488 69.2307 89.5953C68.543 89.2151 67.3632 89.6345 66.737 90.0035C66.14 90.3998 65.6065 90.8843 65.1546 91.4405C65.1546 91.6194 65.9374 94.991 66.1052 95.6787C59.3094 97.0999 52.2458 96.4933 45.7919 93.9342C46.7872 89.7966 48.1067 84.1326 48.4757 82.3769C52.3226 83.5735 57.7294 83.4616 57.7853 83.4561C57.8032 83.4513 57.819 83.4408 57.8303 83.4261C57.8416 83.4115 57.8477 83.3935 57.8477 83.375C57.8477 83.3565 57.8416 83.3385 57.8303 83.3238C57.819 83.3092 57.8032 83.2987 57.7853 83.2939C54.6821 82.2595 52.0039 79.5925 50.2482 75.7792C47.5476 70.0816 41.9451 70.1487 39.7645 72.9835C36.611 77.0764 36.1021 88.9859 36.0518 90.4228C35.8561 90.7807 34.7323 92.9781 34.3073 93.8727C30.9525 94.6722 29.9964 92.7544 29.5883 91.9325C29.5212 91.7927 29.5547 92.1617 30.5947 88.4882C31.1538 88.7622 35.1293 90.1656 35.1348 89.7519C35.1796 84.9993 36.3314 73.6936 39.4513 71.0937C41.6879 69.2597 46.5244 69.5784 48.6658 71.1663C50.0273 72.409 51.1409 73.8983 51.9479 75.5555C53.7428 79.408 56.8348 82.2651 60.2678 82.9808C64.6682 82.595 69.7731 75.5835 71.2324 71.0993C73.9274 67.683 78.3725 65.726 82.5101 66.3243ZM91.2605 89.0641C91.2679 89.0975 91.2883 89.1266 91.3171 89.1449C91.346 89.1633 91.3809 89.1694 91.4143 89.162C91.4476 89.1546 91.4767 89.1342 91.495 89.1054C91.5134 89.0765 91.5195 89.0416 91.5121 89.0082C91.1599 87.2078 90.1646 85.6535 89.5384 83.9761C88.4537 81.1077 89.2421 78.0269 90.159 75.1138C90.568 75.1902 90.9907 75.1354 91.3667 74.9573C91.6743 74.7168 91.4283 74.3087 91.0816 73.2799C91.3667 72.8488 91.5906 72.3802 91.747 71.8876C92.6209 72.0944 93.5296 72.1059 94.4084 71.9212C94.4426 71.9125 94.4741 71.8958 94.5006 71.8726C94.5271 71.8494 94.5477 71.8202 94.5608 71.7875C94.5738 71.7548 94.579 71.7195 94.5759 71.6844C94.5727 71.6494 94.5613 71.6155 94.5426 71.5857C94.168 71.0937 93.1783 69.7461 93.128 69.6455C93.0777 69.5449 93.128 69.556 93.2902 69.4834C95.9627 68.2671 98.1542 66.1956 99.5189 63.5957C99.586 65.4241 99.8041 72.2287 99.7426 72.5027C98.8738 73.1314 97.9578 73.6922 97.0028 74.1801C96.9611 74.2031 96.9272 74.238 96.9053 74.2803C96.8835 74.3226 96.8747 74.3704 96.8801 74.4178C96.8855 74.4651 96.9048 74.5097 96.9356 74.5461C96.9664 74.5824 97.0073 74.6087 97.0531 74.6218C97.8442 74.8923 98.611 75.2289 99.3456 75.6282C99.4462 75.7904 99.094 77.0708 99.0325 77.4007L98.4733 77.5125C98.4177 77.5271 98.3698 77.5625 98.3396 77.6114C98.3094 77.6603 98.2992 77.719 98.3112 77.7753C98.4566 78.7649 98.7864 81.2028 98.7864 81.2028C97.1817 79.7099 97.1929 78.8824 96.8462 78.8488C96.8119 78.8445 96.7769 78.8489 96.7447 78.8616C96.7125 78.8743 96.6839 78.8949 96.6617 78.9215C94.0326 81.9721 92.5566 85.8482 92.4906 89.8749C92.4969 89.9051 92.5134 89.9322 92.5373 89.9517C92.5612 89.9712 92.5911 89.9818 92.622 89.9818C92.6529 89.9818 92.6828 89.9712 92.7067 89.9517C92.7306 89.9322 92.7471 89.9051 92.7534 89.8749C92.964 86.0649 94.3773 82.4198 96.7903 79.4639C97.3464 80.4219 98.0764 81.2676 98.943 81.9576C98.9799 81.9904 99.0262 82.0107 99.0754 82.0157C99.1245 82.0206 99.174 82.0099 99.2167 81.9852C99.2594 81.9604 99.2933 81.9228 99.3134 81.8777C99.3335 81.8326 99.3389 81.7823 99.3288 81.7339C99.3288 81.7339 98.9262 79.011 98.7697 77.9039C102.577 77.2273 105.848 73.99 106.95 69.8636C106.95 72.1616 106.871 77.8592 106.871 77.9151C106.871 78.2785 106.871 78.6252 106.547 78.7873C105.63 79.1094 104.697 79.3838 103.752 79.6092C103.713 79.6195 103.678 79.6399 103.649 79.6684C103.621 79.6969 103.601 79.7324 103.592 79.7712C103.582 79.8101 103.583 79.8508 103.594 79.8892C103.606 79.9276 103.627 79.9622 103.656 79.9894C103.919 80.2019 105.429 81.4376 105.927 81.8346C105.927 81.8346 105.244 83.1374 104.898 83.7804C104.331 83.2558 103.861 82.6348 103.511 81.9464C103.488 81.9073 103.454 81.8767 103.412 81.8593C103.37 81.8419 103.324 81.8386 103.28 81.85C103.236 81.8615 103.197 81.8869 103.169 81.9225C103.141 81.9581 103.126 82.0018 103.125 82.0471C103.282 85.7821 104.478 85.2956 103.489 86.5201C100.078 90.8086 99.4798 92.1953 95.8063 93.28C96.5443 89.9252 99.0716 88.5665 100.084 86.1455C100.643 84.8203 100.52 83.3498 100.961 82.0191C101.269 81.0955 101.772 80.249 102.435 79.537C103.099 78.8249 103.909 78.2642 104.808 77.8927C104.841 77.8816 104.868 77.858 104.883 77.827C104.898 77.7961 104.9 77.7604 104.889 77.7278C104.878 77.6951 104.855 77.6683 104.824 77.6531C104.793 77.6379 104.757 77.6356 104.724 77.6467C103.553 78.0601 102.519 78.7908 101.738 79.7573C100.957 80.7238 100.46 81.8881 100.302 83.1206C100.061 84.8371 100.112 85.6814 99.038 87.1855C97.8527 88.8349 95.9125 90.2942 95.2863 93.4198C94.3139 93.6619 93.3187 93.8006 92.3173 93.8336C92.1999 92.8327 91.5848 92.2456 91.1487 92.2233C90.7461 91.5187 86.5023 85.0608 84.9367 83.6462C86.668 80.5306 87.464 76.9818 87.2292 73.4252C87.9001 74.4149 89.0464 76.2712 89.2476 76.6347C87.2963 84.1606 90.4833 85.29 91.2605 89.0641ZM82.443 89.3102C82.4428 89.2707 82.4314 89.2322 82.41 89.199C82.3887 89.1659 82.3583 89.1395 82.3224 89.1231C82.2866 89.1066 82.2468 89.1007 82.2077 89.1061C82.1687 89.1116 82.132 89.128 82.1019 89.1536C81.387 89.8633 80.7376 90.6362 80.1617 91.4628C79.8325 91.2707 79.5234 91.0459 79.2392 90.7919C80.5905 89.6176 81.816 88.3059 82.8959 86.878C88.8339 94.0013 88.5487 93.7944 88.7165 93.6602C88.7296 93.6513 88.7408 93.6398 88.7494 93.6264C88.758 93.613 88.7638 93.598 88.7664 93.5823C88.769 93.5667 88.7684 93.5506 88.7646 93.5352C88.7609 93.5197 88.754 93.5052 88.7444 93.4925C88.353 92.8998 84.3664 87.9012 83.1531 86.4977C83.7293 85.7015 84.2558 84.8706 84.7299 84.0096C86.9664 86.1958 90.4386 91.9493 90.7629 92.4916C90.4542 92.9357 90.3098 93.4735 90.3547 94.0125C89.6484 94.2098 88.9062 94.2423 88.1853 94.1075C87.3298 93.9398 84.1316 92.3686 82.0348 92.3071C82.169 91.6977 82.3815 89.8358 82.4598 89.3102H82.443ZM67.8049 90.0203H67.9C68.3361 89.9196 69.0182 89.7687 69.1804 90.2104C69.2643 90.5123 70.9528 107.191 70.9528 107.706C70.9618 107.787 70.953 107.869 70.9269 107.946C70.9008 108.023 70.8581 108.094 70.8019 108.153C69.3481 107.594 65.7697 92.76 65.6299 91.502C66.1934 90.8049 66.95 90.2895 67.8049 90.0203ZM8.26855 63.6181C8.26855 62.3376 7.41867 36.953 7.50254 36.0361C7.64791 34.3084 8.26855 33.5312 9.63842 33.3522C11.0866 33.0727 24.6064 32.6869 26.0825 32.6477C26.116 33.2069 26.144 33.5983 26.1552 33.6709C26.2172 34.1108 26.427 34.5166 26.7501 34.8214C27.0732 35.1262 27.4905 35.3121 27.9332 35.3483C27.9332 35.2924 27.5642 35.3483 39.1159 35.3875C39.1159 37.132 39.2221 45.3288 39.2277 45.7147C35.94 45.8377 32.5517 45.9719 31.9031 46.0334C31.8136 46.0334 31.7353 46.1955 31.7689 46.2738C32.7418 48.6781 37.075 58.4405 38.2883 60.9454C38.4015 61.23 38.596 61.4751 38.8475 61.6499C39.004 61.8848 39.1885 62.1475 39.4066 62.4103C37.6342 63.8249 36.9968 65.3905 35.9679 67.6829C31.2321 67.7836 12.0371 68.1806 11.6066 68.1638C10.41 68.1135 9.56574 67.7668 9.04015 67.107C8.24059 66.1565 8.27414 64.8593 8.26855 63.6181ZM72.9545 41.2863C73.072 41.7113 73.5137 41.9405 74.1958 41.9573C75.37 41.907 75.8732 42.919 76.0857 44.082C74.9427 44.3054 73.7832 44.4344 72.619 44.4678C72.5854 44.4681 72.5522 44.4763 72.5222 44.4916C72.4922 44.507 72.4661 44.529 72.4461 44.5561C72.4261 44.5832 72.4126 44.6146 72.4067 44.6478C72.4008 44.6809 72.4027 44.715 72.4122 44.7474C72.5907 45.3856 72.5924 46.0604 72.4171 46.6996C72.2418 47.3387 71.8961 47.9182 71.4169 48.3761C69.9129 49.8243 67.503 49.0247 67.1507 52.3627C66.6475 51.9266 64.7856 50.3443 64.4054 49.8802C63.7512 49.1254 63.4884 47.8729 64.1594 47.0845C65.5961 46.8497 67.0482 46.7208 68.5038 46.6987C68.5365 46.6987 68.5678 46.6858 68.5908 46.6627C68.6139 46.6396 68.6269 46.6083 68.6269 46.5757C68.6269 46.5431 68.6139 46.5118 68.5908 46.4887C68.5678 46.4657 68.5365 46.4527 68.5038 46.4527C66.8291 46.334 65.146 46.4545 63.5052 46.8106C62.879 46.9839 62.5715 47.1069 62.2919 46.5198C62.1521 46.2235 61.319 43.685 61.1736 43.2153C60.9164 42.6059 61.073 42.7904 61.5426 42.4996C62.0028 42.8885 62.5194 43.2053 63.0747 43.439C63.0747 43.5061 63.3654 44.3951 63.4102 44.5573C63.4291 44.6916 63.4963 44.8145 63.5992 44.9029C63.7021 44.9914 63.8336 45.0394 63.9693 45.0381C65.2732 45.1579 66.5868 44.967 67.8027 44.481C69.0185 43.9951 70.1019 43.2279 70.964 42.2424C70.9811 42.219 70.989 42.19 70.986 42.1612C70.983 42.1323 70.9694 42.1055 70.9479 42.0861C70.9263 42.0666 70.8984 42.0558 70.8693 42.0558C70.8403 42.0558 70.8123 42.0665 70.7907 42.0859C69.9247 42.9612 68.8843 43.6445 67.737 44.0914C66.5898 44.5384 65.3613 44.739 64.1314 44.6803C63.74 44.6523 63.7904 44.7362 63.4605 43.562C64.9701 43.9869 65.3503 43.411 64.8136 43.9422C64.7961 43.9631 64.7864 43.9894 64.7862 44.0167C64.786 44.044 64.7953 44.0704 64.8125 44.0916C64.8297 44.1128 64.8537 44.1273 64.8804 44.1327C64.9071 44.1381 64.9349 44.134 64.9589 44.1211C66.9928 42.6005 68.4765 40.4593 69.186 38.021C69.1911 38.0052 69.193 37.9886 69.1916 37.972C69.1901 37.9555 69.1853 37.9394 69.1775 37.9248C69.1696 37.9102 69.1589 37.8973 69.146 37.8869C69.133 37.8766 69.1181 37.8689 69.1021 37.8644C68.8114 37.7638 69.0071 38.3397 67.6428 40.5706C67.0836 38.3341 67.4583 35.969 66.8544 33.7213C66.8462 33.6894 66.8258 33.662 66.7974 33.6453C66.7691 33.6285 66.7353 33.6237 66.7034 33.6318C66.6716 33.64 66.6442 33.6604 66.6274 33.6888C66.6107 33.7171 66.6058 33.7509 66.614 33.7828C66.7119 34.2584 66.7754 34.7405 66.8041 35.2253C65.6131 34.0456 63.097 32.1613 61.1121 32.5918C60.6845 32.605 60.2793 32.786 59.9841 33.0958C59.689 33.4056 59.5278 33.8191 59.5354 34.2469C59.0545 33.5983 59.39 32.6086 59.8261 32.0606C60.9779 30.5566 63.0243 29.8241 65.0652 29.265C66.8712 28.7841 69.2866 28.8512 70.6565 30.4839C71.2508 31.2987 71.68 32.2218 71.9201 33.2013C72.6343 35.4085 73.1324 37.68 73.4074 39.9835C73.4287 40.0764 73.4244 40.1734 73.3948 40.264C73.3653 40.3546 73.3117 40.4355 73.2397 40.4979C73.1281 40.5935 73.0431 40.7164 72.9931 40.8545C72.9432 40.9927 72.9299 41.1415 72.9545 41.2863ZM38.6965 60.8112C38.1709 59.693 32.9766 48.1748 32.1491 46.2738C33.9998 46.2738 54.8834 45.5078 55.2468 45.4966C55.9569 47.7779 60.0945 61.5549 60.0945 61.6723C60.0945 61.6723 55.1518 61.7953 52.4847 61.9015C47.9837 59.6314 43.8182 59.8775 40.7877 61.4822C39.0767 61.4095 38.9984 61.443 38.6965 60.8112ZM59.9435 37.6184C59.8653 35.941 59.9435 34.7724 60.2063 34.655C61.168 34.2189 62.9628 34.0959 64.9589 34.7277C65.2106 34.8116 66.0157 35.2309 66.8264 35.572C66.9159 37.3612 66.8264 39.2567 67.3856 40.99C66.8913 41.8567 66.2565 42.6351 65.5069 43.2936C62.1241 43.7409 60.0945 41.0347 59.9324 37.6184H59.9435ZM65.0764 71.0545C64.9422 71.3117 67.2178 73.0227 67.4639 73.2072C68.269 73.9676 67.2849 74.3814 66.4686 73.6489C61.9955 69.6287 58.1823 65.0215 53.2116 62.2706C56.1079 62.1755 59.6919 62.0693 60.307 62.0637C60.9276 62.6619 68.1348 69.4107 69.9967 71.0098C64.7968 71.0489 65.1267 70.9651 65.0652 71.0545H65.0764ZM70.567 70.9762C70.5111 70.9259 61.0618 62.388 60.6984 61.963C60.4859 61.6052 56.5664 48.3034 55.6662 45.6252C56.2185 46.0018 56.6281 46.5532 56.8292 47.1908C57.1646 48.1469 60.9723 60.8951 60.9891 60.9566C61.0348 61.2662 61.1732 61.5547 61.3861 61.7841C62.8566 63.1987 69.0965 68.8571 71.1262 70.5345C71.0088 70.6799 70.8913 70.8253 70.7795 70.9762H70.567ZM70.1589 65.603C69.186 65.5247 68.8785 65.4129 68.638 65.7092C68.5598 65.8322 68.3361 66.1062 68.0509 66.0447C68.0015 66.0332 67.955 66.0116 67.9142 65.9812C67.8735 65.9509 67.8395 65.9125 67.8143 65.8684C67.7891 65.8243 67.7733 65.7755 67.7678 65.725C67.7624 65.6745 67.7674 65.6235 67.7826 65.575C68.0565 65.3178 68.3417 65.0942 68.5989 64.8202C68.6126 64.8009 68.6195 64.7775 68.6185 64.7538C68.6174 64.7301 68.6084 64.7075 68.593 64.6895C68.5776 64.6714 68.5566 64.6591 68.5333 64.6544C68.5101 64.6498 68.4859 64.653 68.4647 64.6636C68.1795 64.8482 67.9056 65.1445 67.5813 65.3402C67.5545 65.3406 67.5281 65.3468 67.504 65.3583C67.4799 65.3699 67.4585 65.3866 67.4415 65.4073C67.3745 65.4345 67.3022 65.4458 67.2301 65.4404C67.158 65.4351 67.0881 65.4131 67.0259 65.3763C66.9637 65.3396 66.9108 65.2889 66.8713 65.2283C66.8319 65.1677 66.807 65.0989 66.7985 65.0271C66.7985 64.5798 67.2793 64.2834 67.5589 63.9535C67.6707 63.8417 67.503 63.674 67.3856 63.7802C67.086 64.0331 66.8074 64.3099 66.5525 64.6077C66.2303 64.7102 65.9015 64.7905 65.5684 64.8482C65.4174 64.8482 65.5684 64.9432 64.9086 64.3785C65.5965 63.7332 66.3455 63.1565 67.1452 62.6563C68.5038 61.7617 68.7555 63.3105 69.9799 63.4895C69.9788 64.1978 70.0387 64.9049 70.1589 65.603ZM71.4169 70.2102L65.7865 65.178C65.9906 65.1377 66.1923 65.0855 66.3903 65.0215C66.3858 65.1429 66.4096 65.2637 66.4598 65.3743C66.5101 65.4849 66.5853 65.5823 66.6797 65.6588C66.7741 65.7353 66.885 65.7888 67.0037 65.815C67.1223 65.8412 67.2454 65.8394 67.3632 65.8099C67.3856 65.9284 67.4357 66.0401 67.5094 66.1356C67.583 66.2312 67.6783 66.308 67.7873 66.3598C67.8963 66.4116 68.016 66.4369 68.1366 66.4336C68.2573 66.4303 68.3754 66.3986 68.4815 66.341C69.2531 65.9888 68.4815 65.8546 69.7283 65.9664C69.8905 65.9664 70.0638 66 70.2316 66.0056C70.2819 66.2683 70.3322 66.5088 70.3881 66.738C70.4016 66.7837 70.4296 66.8238 70.468 66.8521C70.5064 66.8804 70.5529 66.8953 70.6006 66.8946C80.5979 66.6821 75.6887 65.301 71.4057 70.2102H71.4169ZM57.9978 49.3881C57.3659 47.269 57.036 45.5581 55.7612 45.122C55.7612 45.1891 56.2365 45.0493 39.6862 45.6811C39.6862 42.9581 39.5688 36.3716 39.552 35.3707H59.5969C59.4403 37.7917 59.5969 40.4029 61.2743 42.2033C61.073 42.2816 60.7151 42.4493 60.6313 42.5891C60.8375 43.4928 61.1142 44.3789 61.4588 45.2394C59.9586 46.2981 58.7585 47.7274 57.9754 49.3881H57.9978ZM55.6997 32.1054C55.6997 31.3226 55.5208 27.1123 55.4817 26.3407H56.9074C56.9074 27.1347 57.0137 31.3282 57.0472 32.0998C56.5999 32.0886 56.147 32.0942 55.6997 32.1054ZM47.5084 32.2731C47.514 30.7523 47.3183 17.8922 47.2904 16.2148H48.7162C48.7162 20.4642 48.8392 31.0933 48.8615 32.2507L47.5084 32.2731ZM38.6853 18.3731H40.1167C40.1167 22.0466 40.2341 31.3226 40.2621 32.4241H38.909C38.9146 31.0486 38.7189 19.9051 38.6853 18.3731ZM26.5466 33.4249C26.4683 32.9497 25.8197 18.06 25.5569 12.3568C25.4954 10.6012 25.9595 8.44291 27.1393 7.44206C27.1393 11.356 27.6425 32.9553 27.7543 34.9122C27.4252 34.8173 27.1331 34.6238 26.9172 34.358C26.7013 34.0921 26.572 33.7665 26.5466 33.4249ZM77.8469 28.7785C77.8009 28.4136 77.8883 28.0442 78.093 27.7386C78.5306 27.3939 79.0006 27.0925 79.4964 26.8384C78.9372 27.8448 79.0826 27.5652 79.379 45.2338C78.9178 44.8823 78.4381 44.5556 77.942 44.2553C77.8861 41.4373 77.8581 31.194 77.8637 28.7785H77.8469ZM82.7338 34.9905C82.9936 34.6217 83.3388 34.3213 83.74 34.1149C84.1411 33.9085 84.5863 33.8022 85.0374 33.8051C87.313 33.8051 88.1406 36.5113 88.5879 38.7143C88.9793 40.442 89.0072 42.4773 90.2653 43.8863C96.1138 49.1869 96.5555 41.7895 100.112 42.0747C101.23 42.2033 101.973 43.2265 102.773 43.9646C103.115 44.3485 103.594 44.582 104.107 44.6145C104.62 44.6469 105.125 44.4757 105.513 44.1379V52.0832C104.137 52.0832 86.67 51.9546 84.7522 51.9769C84.2853 50.9997 83.7354 50.0644 83.1084 49.1813C83.1755 48.5047 82.7617 35.5944 82.7505 34.9905H82.7338ZM84.9703 52.3571C87.5423 52.3963 103.863 52.441 105.558 52.441C105.56 52.654 105.573 52.8667 105.597 53.0784C105.601 53.1234 105.621 53.1654 105.654 53.1963C105.687 53.2272 105.73 53.245 105.776 53.2462C106.105 53.2462 105.955 53.755 105.899 38.5913C105.899 38.5542 105.884 38.5187 105.858 38.4925C105.831 38.4663 105.796 38.4515 105.759 38.4515C105.722 38.4515 105.686 38.4663 105.66 38.4925C105.634 38.5187 105.619 38.5542 105.619 38.5913C105.619 39.5866 105.558 42.8743 105.552 43.5229C105.424 43.725 105.249 43.8938 105.043 44.0155C104.837 44.1372 104.605 44.2084 104.366 44.2231C104.127 44.2378 103.888 44.1957 103.668 44.1002C103.449 44.0048 103.255 43.8586 103.103 43.6738C101.487 41.9964 99.8879 40.5986 97.5508 42.7568C95.6385 44.7306 94.5874 46.3968 91.9594 44.6914C90.8954 44.1245 90.0934 43.1661 89.7229 42.0188C88.8395 38.8485 89.0855 33.9561 85.3505 33.3075C84.8511 33.2565 84.3469 33.3287 83.8819 33.5178C83.4169 33.7069 83.0054 34.0071 82.6834 34.3922C82.6834 33.5423 82.6219 32.7148 82.5884 31.8538C82.5884 31.8182 82.5742 31.784 82.5491 31.7589C82.5239 31.7337 82.4898 31.7196 82.4542 31.7196C82.4186 31.7196 82.3845 31.7337 82.3593 31.7589C82.3341 31.784 82.32 31.8182 82.32 31.8538C82.32 32.7819 82.6107 45.7426 82.7002 48.5886C81.8386 47.461 80.8477 46.4382 79.748 45.5413C79.748 43.411 79.5579 29.5781 79.5355 28.7226C79.502 27.1682 80.1226 26.268 81.554 25.8934C82.7282 25.5691 103.841 25.2448 105.848 25.5188C107.179 25.6865 107.939 26.9893 108.13 28.1188C108.364 29.5222 108.431 52.7206 108.437 53.0281C108.482 55.7678 108.157 58.8934 105.306 59.2792C104.663 59.3687 88.7556 59.4078 86.4464 59.3854C86.5178 56.96 86.0159 54.552 84.9815 52.3571H84.9703ZM68.5989 8.8343C69.2699 10.0085 68.8896 9.68418 69.3649 28.9966C67.0501 27.951 63.7736 28.9127 61.5371 30.1149V13.5478C61.5371 13.4192 61.8278 13.4583 59.8597 13.4583C59.7367 13.4583 59.7478 12.3065 60.1616 31.043C59.8261 31.3459 59.5344 31.694 59.2949 32.0774H57.4163C57.4163 31.3505 57.2038 26.1954 57.1814 26.1506C57.175 26.1215 57.1586 26.0956 57.1351 26.0773C57.1117 26.0589 57.0826 26.0493 57.0528 26.05C56.4487 26.0297 55.8439 26.0428 55.2412 26.0891C55.2234 26.1013 55.2092 26.1182 55.2003 26.1379C55.1914 26.1577 55.1882 26.1795 55.1909 26.2009C55.1909 26.7601 55.2916 31.3002 55.3307 32.1054L53.2228 32.1501C53.329 22.6001 53.3681 23.1033 53.2228 23.0922C51.7075 23.1537 51.674 23.1257 51.674 23.2375V32.1837L49.2138 32.234C49.2138 30.9871 49.0237 16.897 48.9845 16.0807C48.9862 16.0439 48.9738 16.0079 48.95 15.9798C48.9261 15.9518 48.8925 15.9339 48.8559 15.9297C48.8559 15.9297 47.1059 15.9297 47.0499 15.9856C46.8878 16.1142 47.1394 31.6413 47.1394 32.2787L44.4835 32.329V23.9812C44.4638 23.9734 44.4418 23.9734 44.422 23.9812C42.8788 23.9812 42.8956 23.9812 42.8956 24.1042V32.3626L40.6255 32.4297C40.469 17.9929 40.3404 18.2557 40.3963 18.2557C40.3965 18.2199 40.3835 18.1852 40.3598 18.1584C40.3361 18.1316 40.3033 18.1144 40.2677 18.1103C40.2677 18.1103 38.5288 18.1103 38.4729 18.155C38.2828 18.2724 38.5511 31.4791 38.5511 32.4744L35.4759 32.5303C35.4927 10.7409 35.5542 11.7418 35.4088 11.7418L34.0389 11.7921C33.9439 11.7921 33.9774 10.4558 33.9774 32.5527C31.6738 32.5974 31.7409 32.5527 31.7074 32.6421C31.6966 32.6596 31.6906 32.6795 31.69 32.7C31.6893 32.7205 31.694 32.7407 31.7036 32.7588C31.7132 32.7769 31.7274 32.7922 31.7447 32.8031C31.7621 32.814 31.782 32.8202 31.8024 32.8211C35.1963 32.8211 55.75 32.6142 59.0992 32.5135C58.7638 33.369 58.8253 34.3139 59.6025 34.8116V34.9346C56.3707 35.0296 28.716 34.9346 28.2184 34.9346C28.2184 34.2021 27.5922 8.62183 27.5866 7.19045C31.4613 7.19045 65.6075 7.24077 66.4966 7.38615C66.9324 7.45674 67.3471 7.62327 67.7106 7.87372C68.0742 8.12417 68.3776 8.45226 68.5989 8.8343ZM7.6535 33.9393C7.0105 34.8675 6.97695 36.0752 6.97695 37.2438C6.97695 37.501 7.75974 65.0215 7.87716 65.6924C7.94403 66.1794 8.11435 66.6464 8.37666 67.062C8.63898 67.4777 8.98723 67.8324 9.398 68.1023C8.74078 68.0692 8.09827 67.8957 7.51372 67.5935C6.27245 66.9113 5.80278 65.5079 5.63504 64.7307C5.3387 63.3329 4.9473 39.3238 5.0144 38.0825C4.97526 36.0249 5.67418 34.9122 7.64232 33.9393H7.6535ZM91.5233 97.1716C93.7613 97.0155 95.9537 96.4627 97.9981 95.5389C99.4518 94.8679 101.263 93.8056 102.013 92.9613C102.13 95.6004 101.593 97.3058 98.8815 98.5526C95.2919 100.23 86.7763 102.288 83.0972 99.833C82.7673 99.5143 81.9789 97.0933 81.6658 95.975C83.2705 97.043 87.9449 97.4567 91.5121 97.1716H91.5233ZM40.9554 104.496C40.4857 104.457 40.2621 104.927 40.1055 105.268C38.7972 108.063 38.8139 108.242 37.4832 108.332C37.0638 108.36 33.1164 108.684 32.8256 108.684C31.808 108.757 31.2433 108.058 31.9646 107.202C32.3757 106.892 32.8321 106.647 33.3177 106.476C34.8721 105.754 37.3322 103.848 37.8746 101.488C38.4358 102.147 39.2014 102.6 40.0496 102.774C41.0997 102.887 42.1588 102.67 43.0801 102.153C42.8676 103.361 42.3756 107.124 42.3141 108.304C41.9872 108.27 41.6586 108.255 41.33 108.259C41.3244 107.94 41.2182 104.519 40.9442 104.496H40.9554ZM43.013 101.617C42.2864 102.131 41.4147 102.399 40.5249 102.383C40.0542 102.347 39.5958 102.215 39.1783 101.995C38.7608 101.775 38.3932 101.471 38.0982 101.102C38.0982 100.929 38.0367 99.0558 38.0535 98.0494C39.8651 98.1923 41.6836 98.2277 43.4995 98.1556C43.41 98.6477 43.1248 100.644 43.0018 101.617H43.013Z" fill="#CFF80B"/>
<path d="M98.6747 29.4439C98.7063 29.4375 98.7347 29.4204 98.7551 29.3954C98.7755 29.3704 98.7866 29.3392 98.7866 29.3069C98.7866 29.2747 98.7755 29.2434 98.7551 29.2185C98.7347 29.1935 98.7063 29.1764 98.6747 29.1699H97.7353C90.707 29.388 90.9363 29.3824 90.9419 29.5781C90.9474 29.7738 90.7294 29.8185 98.6747 29.4439ZM98.9095 30.7523C97.657 30.7523 92.759 30.8194 91.501 30.92C91.4569 30.9277 91.4169 30.9507 91.388 30.9849C91.3592 31.0192 91.3434 31.0626 91.3434 31.1073C91.3434 31.1521 91.3592 31.1955 91.388 31.2297C91.4169 31.264 91.4569 31.287 91.501 31.2947C92.7814 31.2947 97.6514 31.043 98.9151 30.9927C98.9424 30.9862 98.9667 30.9704 98.9838 30.9481C99.001 30.9258 99.01 30.8984 99.0093 30.8702C99.0087 30.8421 98.9984 30.8151 98.9803 30.7936C98.9621 30.7722 98.9371 30.7576 98.9095 30.7523ZM97.6794 32.8099C96.8072 32.8434 94.0059 32.8099 91.3332 32.8099C91.2739 32.8099 91.217 32.8335 91.1751 32.8754C91.1332 32.9173 91.1096 32.9742 91.1096 33.0336C91.1096 33.0929 91.1332 33.1498 91.1751 33.1917C91.217 33.2336 91.2739 33.2572 91.3332 33.2572C91.8924 33.2963 97.137 33.0783 97.685 33.0559C97.7176 33.0552 97.7486 33.0415 97.7712 33.0179C97.7937 32.9943 97.806 32.9627 97.8052 32.9301C97.8045 32.8975 97.7908 32.8665 97.7672 32.844C97.7436 32.8214 97.712 32.8092 97.6794 32.8099ZM79.6642 4.87007C79.009 5.03097 78.4097 5.3666 77.9302 5.8412C77.4506 6.31579 77.1089 6.91158 76.9412 7.56508C76.3206 9.9414 78.4732 12.5302 80.9502 12.1164C81.4915 12.0021 82.0037 11.7785 82.4556 11.4593C82.9075 11.1401 83.2894 10.7321 83.5781 10.2601C83.8601 9.73921 84.0203 9.16109 84.0464 8.56931C84.0726 7.97754 83.9641 7.38755 83.7291 6.8438C83.3936 5.8821 82.3983 4.34448 79.6642 4.87007ZM81.0173 9.58355C79.9381 10.3272 78.6745 8.9741 79.1721 8.14099C80.0667 6.6537 81.6547 7.77755 81.6938 8.33669C81.6932 8.58494 81.6305 8.82908 81.5113 9.04687C81.3922 9.26466 81.2204 9.44916 81.0117 9.58355H81.0173ZM80.9502 7.0395C80.5728 6.92076 80.1667 6.93044 79.7955 7.06701C79.4242 7.20359 79.1086 7.45936 78.8982 7.79433C78.7261 8.0959 78.6613 8.44681 78.714 8.78995C78.7668 9.13309 78.9342 9.44827 79.1889 9.6842C79.3918 9.87896 79.6413 10.0184 79.9135 10.0892C80.1857 10.16 80.4715 10.1597 80.7436 10.0885C81.0157 10.0172 81.265 9.87737 81.4676 9.68226C81.6701 9.48714 81.8193 9.24332 81.9007 8.9741C82.3778 9.28705 82.9116 9.50359 83.4719 9.61151C83.2739 10.0945 82.9703 10.527 82.5832 10.8773C82.1962 11.2275 81.7356 11.4866 81.2353 11.6356C78.9988 12.2842 77.0083 10.2545 77.2599 8.06271C77.3336 7.55225 77.5223 7.06519 77.8117 6.6383C78.1012 6.21142 78.4838 5.85586 78.9307 5.59847C79.3777 5.34107 79.8772 5.18857 80.3917 5.15247C80.9062 5.11636 81.4222 5.19761 81.9007 5.39006C81.4579 5.85795 81.1305 6.42276 80.9446 7.0395H80.9502Z" fill="#CFF80B"/>
<path d="M74.632 14.4704C75.9962 14.3977 100.978 14.2076 102.801 13.6652C104.204 13.408 104.685 12.7594 104.613 11.3448C104.613 10.8751 104.691 5.4907 104.546 4.53458C104.417 3.35481 103.785 2.79568 102.454 2.72299C101.336 2.61676 75.4203 3.01933 74.1958 3.28213C73.2006 3.47782 72.5184 3.84126 72.3842 4.95952C72.3227 5.30059 72.5911 11.6132 72.6247 12.2282C72.703 13.559 73.3683 14.3474 74.632 14.4704ZM76.8126 14.0902C76.4833 14.0505 76.1671 13.9381 75.8866 13.7611C75.6062 13.5841 75.3686 13.347 75.1911 13.0669C74.7969 12.3882 74.5941 11.6153 74.604 10.8304C74.5425 9.87989 74.3636 6.35735 74.3412 5.50747C74.3412 5.16081 74.3412 4.009 75.1911 3.59524C76.505 3.46105 100.984 3.09761 102.029 3.13116C102.589 3.13116 103.343 3.17589 103.768 3.60642C104.395 4.23824 104.193 5.28382 104.232 11.2945C104.355 12.8265 103.774 13.162 102.343 13.3689C101.057 13.5646 77.0362 14.0902 76.8238 14.0902H76.8126ZM73.961 4.79737C73.8883 5.30059 74.1846 10.1091 74.2126 10.7465C74.2797 12.3289 74.7326 13.4527 75.6272 14.1013H75.0681C73.7038 14.1013 73.0832 13.4471 73.0217 12.0549C72.9881 11.2609 72.7309 5.34532 72.7868 5.00985C72.9042 3.99222 73.592 3.76857 74.5034 3.65675C74.2208 3.97829 74.0364 4.37417 73.9722 4.79737H73.961Z" fill="#CFF80B"/>
<path d="M87.1566 6.24549C87.3634 6.24549 93.7823 6.08334 93.7264 6.08334C93.7552 6.07723 93.7811 6.0614 93.7996 6.0385C93.8182 6.0156 93.8283 5.98702 93.8283 5.95754C93.8283 5.92806 93.8182 5.89948 93.7996 5.87658C93.7811 5.85368 93.7552 5.83785 93.7264 5.83174C93.2511 5.83174 87.7101 5.73668 87.1454 5.83174C87.1023 5.84734 87.0652 5.87611 87.0394 5.91397C87.0136 5.95183 87.0004 5.99685 87.0017 6.04265C87.0029 6.08844 87.0185 6.13269 87.0463 6.1691C87.0741 6.20551 87.1127 6.23224 87.1566 6.24549ZM95.6945 8.00117C94.8894 8.07945 86.8043 7.80547 86.7484 8.21364C86.7484 8.29192 86.8211 8.35342 86.877 8.3646C87.5815 8.44847 95.6665 8.27514 95.7225 8.26955C95.7401 8.26772 95.7572 8.26243 95.7728 8.25399C95.7883 8.24555 95.8021 8.23412 95.8133 8.22036C95.8244 8.2066 95.8328 8.19078 95.8378 8.1738C95.8429 8.15681 95.8445 8.139 95.8427 8.12138C95.8408 8.10376 95.8356 8.08667 95.8271 8.07109C95.8187 8.05551 95.8073 8.04175 95.7935 8.03059C95.7797 8.01942 95.7639 8.01108 95.7469 8.00603C95.7299 8.00099 95.7121 7.99933 95.6945 8.00117ZM95.5324 10.1482C94.1513 10.1482 87.1901 10.1147 86.8267 10.1762C86.7909 10.1857 86.7593 10.2067 86.7367 10.236C86.7141 10.2654 86.7019 10.3013 86.7019 10.3383C86.7019 10.3753 86.7141 10.4113 86.7367 10.4406C86.7593 10.47 86.7909 10.491 86.8267 10.5005C87.2125 10.562 94.9676 10.3831 95.5379 10.3663C95.5625 10.3601 95.5843 10.3457 95.5996 10.3254C95.6149 10.3052 95.6229 10.2804 95.6223 10.255C95.6216 10.2297 95.6124 10.2053 95.596 10.1859C95.5797 10.1665 95.5572 10.1532 95.5324 10.1482ZM16.4823 45.9662C20.2676 45.6587 22.2749 40.7831 19.3339 38.0769C19.2276 37.9818 19.4289 37.7694 16.3313 42.248C12.5851 38.6975 12.7864 38.8317 12.7026 38.8932C9.73915 41.8175 12.6746 46.2794 16.4823 45.9662Z" fill="#CFF80B"/>
<path d="M16.0684 40.4141C16.1747 40.5315 16.1243 40.5483 18.6572 36.2765C18.6633 36.267 18.6674 36.2564 18.6693 36.2453C18.6711 36.2342 18.6708 36.2228 18.6682 36.2119C18.6655 36.2009 18.6608 36.1906 18.6541 36.1815C18.6474 36.1724 18.6389 36.1648 18.6292 36.1591C17.736 35.689 16.7127 35.5268 15.7179 35.6977C14.7232 35.8685 13.8126 36.3629 13.1274 37.104C13.0603 37.1879 12.9596 37.0257 16.0684 40.4141ZM10.2255 61.1299C10.3689 61.129 10.5088 61.0857 10.6277 61.0054C10.7465 60.9251 10.8389 60.8115 10.8933 60.6788C10.9477 60.5461 10.9616 60.4002 10.9333 60.2596C10.9051 60.1191 10.8358 59.99 10.7343 59.8887C11.0139 59.4358 12.8255 56.4556 13.3566 55.6504C13.4943 55.7141 13.6479 55.7348 13.7975 55.7099C13.9471 55.6849 14.0858 55.6155 14.1953 55.5106L16.7785 57.5012C16.7364 57.6258 16.7289 57.7595 16.7568 57.8881C16.7847 58.0166 16.8469 58.1352 16.9369 58.2311C17.0269 58.3271 17.1413 58.3968 17.2678 58.4329C17.3943 58.469 17.5282 58.4701 17.6552 58.436C17.7823 58.402 17.8978 58.3341 17.9893 58.2396C18.0808 58.1451 18.1449 58.0275 18.1749 57.8994C18.2049 57.7713 18.1995 57.6375 18.1594 57.5122C18.1193 57.387 18.0459 57.2749 17.9471 57.188L18.8641 55.9803C19.0282 56.0554 19.2143 56.0673 19.3866 56.0136C19.5589 55.96 19.7054 55.8446 19.7978 55.6896L22.4705 56.5954C22.456 56.7156 22.4719 56.8376 22.5166 56.9502C22.5613 57.0628 22.6334 57.1624 22.7264 57.24C22.8193 57.3177 22.9303 57.3708 23.049 57.3947C23.1678 57.4185 23.2906 57.4123 23.4064 57.3766C23.5221 57.3409 23.6271 57.2769 23.7118 57.1903C23.7965 57.1037 23.8582 56.9973 23.8913 56.8808C23.9245 56.7643 23.9279 56.6413 23.9015 56.5231C23.875 56.4049 23.8194 56.2952 23.7397 56.204C23.9634 55.4044 25.898 49.4944 26.0937 48.9353C26.2814 48.9189 26.4556 48.8308 26.5801 48.6892C27.1113 49.1086 28.7048 50.2995 29.2192 50.6462C29.1898 50.7619 29.1894 50.8831 29.218 50.9991C29.2465 51.115 29.3032 51.2221 29.383 51.3109C29.4628 51.3998 29.5633 51.4675 29.6755 51.5083C29.7878 51.5491 29.9083 51.5616 30.0265 51.5447C30.1447 51.5278 30.2569 51.4821 30.3533 51.4115C30.4496 51.3409 30.5271 51.2477 30.5788 51.1401C30.6305 51.0325 30.655 50.9138 30.6499 50.7945C30.6449 50.6752 30.6106 50.559 30.5499 50.4561C32.0372 48.0854 32.1043 48.1245 31.9478 48.0183C31.9183 48 31.8832 47.9933 31.8491 47.9995C31.815 48.0057 31.7844 48.0244 31.7633 48.0518C31.5005 48.432 30.2592 50.1765 30.2592 50.1765C30.1269 50.1114 29.9784 50.0868 29.8322 50.1057C29.686 50.1246 29.5486 50.1862 29.4373 50.2828C28.9173 49.9193 27.2678 48.7396 26.7423 48.3314C26.7647 48.2024 26.7519 48.0697 26.7051 47.9473C26.6584 47.825 26.5795 47.7175 26.4767 47.6364C26.3739 47.5552 26.2511 47.5033 26.1212 47.4861C25.9914 47.469 25.8593 47.4873 25.739 47.539C25.6187 47.5907 25.5146 47.674 25.4377 47.7801C25.3608 47.8861 25.314 48.0109 25.3022 48.1414C25.2904 48.2718 25.3141 48.403 25.3708 48.5211C25.4274 48.6392 25.5149 48.7398 25.624 48.8123C25.1431 50.1206 23.7453 54.6496 23.3875 55.9691C23.2531 55.9345 23.1117 55.9381 22.9793 55.9796C22.8469 56.0211 22.7288 56.0988 22.6382 56.204C22.0791 56.0139 20.4017 55.5051 19.8929 55.3429C19.8929 55.1516 19.8169 54.9682 19.6816 54.8329C19.5464 54.6976 19.3629 54.6216 19.1716 54.6216C18.9803 54.6216 18.7968 54.6976 18.6616 54.8329C18.5263 54.9682 18.4503 55.1516 18.4503 55.3429C18.4515 55.5026 18.5045 55.6576 18.6013 55.7846L17.6004 57.0315C17.5046 57.0105 17.4054 57.0096 17.3092 57.0288C17.2129 57.0481 17.1217 57.087 17.0413 57.1433L14.3743 55.1248C14.4034 54.9518 14.3684 54.774 14.2758 54.6249C14.1833 54.4758 14.0395 54.3655 13.8715 54.3148C13.7035 54.264 13.5227 54.2763 13.3631 54.3492C13.2035 54.4222 13.076 54.5508 13.0044 54.7111C12.9488 54.8263 12.9261 54.9547 12.9389 55.082C12.9518 55.2093 12.9996 55.3306 13.0771 55.4324C12.5515 56.2207 10.6448 59.268 10.3709 59.7097C10.2705 59.6845 10.1659 59.6812 10.0642 59.7C9.96241 59.7188 9.86589 59.7593 9.78116 59.8187C9.69643 59.878 9.62547 59.955 9.5731 60.0442C9.52073 60.1334 9.48817 60.2329 9.47763 60.3358C9.4671 60.4388 9.47883 60.5428 9.51204 60.6408C9.54524 60.7388 9.59915 60.8285 9.67009 60.9038C9.74103 60.9791 9.82734 61.0383 9.92317 61.0773C10.019 61.1163 10.1221 61.1343 10.2255 61.1299ZM19.9544 63.1093C19.9129 63.1093 19.873 63.1257 19.8437 63.1551C19.8143 63.1845 19.7978 63.2243 19.7978 63.2658C19.7978 63.3073 19.8143 63.3472 19.8437 63.3765C19.873 63.4059 19.9129 63.4224 19.9544 63.4224C20.9329 63.4224 32.4174 62.9751 32.8144 62.9695C32.8405 62.9637 32.8638 62.9492 32.8805 62.9283C32.8973 62.9075 32.9064 62.8816 32.9064 62.8548C32.9064 62.8281 32.8973 62.8022 32.8805 62.7814C32.8638 62.7605 32.8405 62.746 32.8144 62.7402C31.2544 62.7458 20.9552 62.9974 19.9544 63.1093ZM24.8692 59.1115C24.9048 59.1115 24.9389 59.0973 24.964 59.0722C24.9892 59.047 25.0034 59.0129 25.0034 58.9773C25.0034 58.9417 24.9892 58.9075 24.964 58.8824C24.9389 58.8572 24.9048 58.8431 24.8692 58.8431C24.4274 58.8431 22.8283 58.748 22.4537 58.7648C22.3885 58.7648 22.3259 58.7907 22.2797 58.8369C22.2336 58.883 22.2077 58.9456 22.2077 59.0108C22.2077 59.0761 22.2336 59.1386 22.2797 59.1848C22.3259 59.2309 22.3885 59.2568 22.4537 59.2568C22.8227 59.3016 24.4051 59.1506 24.8692 59.1115ZM18.892 59.8271H16.4822C16.4301 59.8296 16.3796 59.846 16.336 59.8747C16.2924 59.9034 16.2573 59.9432 16.2345 59.9901C16.2116 60.037 16.2018 60.0892 16.206 60.1412C16.2102 60.1932 16.2284 60.2431 16.2585 60.2856C16.4095 60.5093 16.5269 60.336 18.9032 60.1347C18.9327 60.1206 18.9574 60.0982 18.9744 60.0702C18.9913 60.0422 18.9997 60.0099 18.9985 59.9772C18.9973 59.9446 18.9866 59.913 18.9677 59.8863C18.9488 59.8596 18.9225 59.8391 18.892 59.8271ZM9.35884 62.8129C9.47625 62.8129 11.176 62.6284 11.5506 62.6116C11.5922 62.6116 11.632 62.5951 11.6613 62.5658C11.6907 62.5364 11.7072 62.4966 11.7072 62.4551C11.7072 62.4135 11.6907 62.3737 11.6613 62.3444C11.632 62.315 11.5922 62.2985 11.5506 62.2985C11.3326 62.2985 9.44271 62.3768 9.31411 62.4383C9.27997 62.4588 9.25249 62.4888 9.23498 62.5246C9.21747 62.5604 9.21066 62.6005 9.21539 62.6401C9.22011 62.6796 9.23616 62.717 9.26161 62.7477C9.28706 62.7783 9.32082 62.801 9.35884 62.8129Z" fill="#CFF80B"/>
<path d="M29.0907 53.1175H29.1801C31.5564 52.905 31.4726 53.0672 31.5732 52.9554C31.5918 52.9334 31.604 52.9068 31.6084 52.8784C31.6129 52.85 31.6094 52.821 31.5985 52.7944C31.5875 52.7678 31.5694 52.7448 31.5462 52.7278C31.523 52.7109 31.4956 52.7006 31.467 52.6982C30.6339 52.6982 29.8511 52.6255 29.1018 52.659C28.7831 52.6646 28.8111 53.1175 29.0907 53.1175ZM16.5885 48.2363C16.5277 48.2363 16.4694 48.2604 16.4264 48.3034C16.3834 48.3464 16.3592 48.4047 16.3592 48.4655C16.3592 48.5263 16.3834 48.5846 16.4264 48.6276C16.4694 48.6706 16.5277 48.6948 16.5885 48.6948C17.388 48.6948 20.5024 48.4096 21.2572 48.3313C21.293 48.3245 21.3252 48.3054 21.3484 48.2773C21.3716 48.2493 21.3843 48.214 21.3843 48.1776C21.3843 48.1412 21.3716 48.1059 21.3484 48.0778C21.3252 48.0498 21.293 48.0307 21.2572 48.0238C20.48 48.0853 17.3601 48.1692 16.5885 48.2363ZM16.2083 49.5447C16.1633 49.5558 16.1239 49.583 16.0976 49.6211C16.0713 49.6593 16.0598 49.7057 16.0652 49.7517C16.0707 49.7977 16.0929 49.8402 16.1274 49.871C16.162 49.9019 16.2066 49.919 16.253 49.9193C17.1364 49.9193 20.603 49.6062 21.4753 49.6006C21.5138 49.6006 21.5508 49.5853 21.5781 49.558C21.6053 49.5307 21.6207 49.4938 21.6207 49.4552C21.6207 49.4166 21.6053 49.3797 21.5781 49.3524C21.5508 49.3251 21.5138 49.3098 21.4753 49.3098C19.7163 49.2711 17.9568 49.3496 16.2083 49.5447ZM21.028 50.4393C19.5647 50.4182 18.1014 50.476 16.6444 50.6126C16.376 50.6462 16.3648 51.0543 16.6444 51.0543C17.142 51.0543 19.8594 50.7748 21.0336 50.73C21.0527 50.7297 21.0715 50.7255 21.089 50.7179C21.1065 50.7102 21.1223 50.6992 21.1355 50.6855C21.1488 50.6717 21.1592 50.6555 21.1661 50.6377C21.1731 50.6199 21.1765 50.6009 21.1761 50.5819C21.1758 50.5628 21.1716 50.5439 21.164 50.5264C21.1564 50.5089 21.1453 50.4931 21.1316 50.4799C21.1178 50.4666 21.1016 50.4562 21.0838 50.4493C21.066 50.4423 21.0471 50.4389 21.028 50.4393ZM22.8675 38.3956C23.1415 38.3956 25.9316 38.1048 26.4795 38.0657C26.5181 38.0657 26.555 38.0504 26.5823 38.0231C26.6096 37.9958 26.6249 37.9589 26.6249 37.9203C26.6249 37.8818 26.6096 37.8448 26.5823 37.8175C26.555 37.7903 26.5181 37.7749 26.4795 37.7749C26.2055 37.7749 23.2142 37.8644 22.8843 37.8868C22.5544 37.9091 22.5544 38.3956 22.8675 38.3956ZM23.4434 39.525C24.3213 39.525 27.7431 39.2007 28.6098 39.1448C28.6414 39.1384 28.6698 39.1212 28.6902 39.0963C28.7106 39.0713 28.7218 39.0401 28.7218 39.0078C28.7218 38.9756 28.7106 38.9443 28.6902 38.9194C28.6698 38.8944 28.6414 38.8772 28.6098 38.8708C27.7376 38.91 24.2933 38.9267 23.4378 39.0162C23.3769 39.0259 23.3215 39.0572 23.2818 39.1043C23.242 39.1515 23.2205 39.2113 23.2212 39.273C23.2218 39.3347 23.2446 39.3941 23.2854 39.4403C23.3262 39.4866 23.3823 39.5166 23.4434 39.525Z" fill="#CFF80B"/>
</svg>
